<?xml version="1.0" encoding="utf-8"?>
<!-- Generator: Adobe Illustrator 25.2.3, SVG Export Plug-In . SVG Version: 6.00 Build 0)  -->
<svg version="1.1" id="Ebene_1" xmlns="http://www.w3.org/2000/svg" xmlns:xlink="http://www.w3.org/1999/xlink" x="0px" y="0px"
	 viewBox="0 0 113.4 113.4" style="enable-background:new 0 0 113.4 113.4;" xml:space="preserve">
<style type="text/css">
	.st0{fill:#FFFFFF;stroke:#BFCFD1;stroke-width:0.9131;stroke-miterlimit:10;}
	.st1{clip-path:url(#SVGID_8_);}
	.st2{fill:#FFFFFF;stroke:#C6C6C6;stroke-width:1.112;stroke-miterlimit:10;}
	.st3{fill:#E64217;}
	.st4{fill:#706F6F;}
	.st5{fill:none;stroke:#E64217;stroke-width:1.6296;stroke-miterlimit:10;}
	.st6{fill:#9D9D9C;}
	.st7{clip-path:url(#SVGID_10_);fill:#BFCFD1;}
	.st8{fill:none;}
	.st9{fill:#152A51;}
	.st10{font-family:'MyriadPro-Cond';}
	.st11{font-size:11px;}
	.st12{clip-path:url(#SVGID_12_);fill:#BFCFD1;}
	.st13{font-family:'MyriadPro-Regular';}
	.st14{font-size:15px;}
</style>
<path class="st0" d="M92.1,15.4H20.8c-3.8,0-6.9,3.1-6.9,6.9v71.3c0,3.8,3.1,6.9,6.9,6.9H24c0.3-1.2,1.4-2.1,2.7-2.1
	s2.4,0.9,2.7,2.1h3.2c0.3-1.2,1.4-2.1,2.7-2.1c1.3,0,2.4,0.9,2.7,2.1h3.2c0.3-1.2,1.4-2.1,2.7-2.1c1.3,0,2.4,0.9,2.7,2.1h3.2
	c0.3-1.2,1.4-2.1,2.7-2.1c1.3,0,2.4,0.9,2.7,2.1H59c0.3-1.2,1.4-2.1,2.7-2.1c1.3,0,2.4,0.9,2.7,2.1h3.2c0.3-1.2,1.4-2.1,2.7-2.1
	s2.4,0.9,2.7,2.1h3.2c0.3-1.2,1.4-2.1,2.7-2.1c1.3,0,2.4,0.9,2.7,2.1h3.2c0.3-1.2,1.4-2.1,2.7-2.1s2.4,0.9,2.7,2.1h1.4
	c3.8,0,6.9-3.1,6.9-6.9V22.3C99,18.5,95.9,15.4,92.1,15.4z"/>
<g>
	<defs>
		<path id="SVGID_1_" d="M95.2,12.3H23.9c-3.8,0-6.9,3.1-6.9,6.9v71.3c0,3.8,3.1,6.9,6.9,6.9h3.2c0.3-1.2,1.4-2.1,2.7-2.1
			s2.4,0.9,2.7,2.1h3.2c0.3-1.2,1.4-2.1,2.7-2.1c1.3,0,2.4,0.9,2.7,2.1h3.2c0.3-1.2,1.4-2.1,2.7-2.1c1.3,0,2.4,0.9,2.7,2.1h3.2
			c0.3-1.2,1.4-2.1,2.7-2.1c1.3,0,2.4,0.9,2.7,2.1h3.2c0.3-1.2,1.4-2.1,2.7-2.1c1.3,0,2.4,0.9,2.7,2.1h3.2c0.3-1.2,1.4-2.1,2.7-2.1
			s2.4,0.9,2.7,2.1h3.2c0.3-1.2,1.4-2.1,2.7-2.1c1.3,0,2.4,0.9,2.7,2.1h3.2c0.3-1.2,1.4-2.1,2.7-2.1s2.4,0.9,2.7,2.1h1.4
			c3.8,0,6.9-3.1,6.9-6.9V19.2C102.1,15.4,99,12.3,95.2,12.3z"/>
	</defs>
	<clipPath id="SVGID_2_">
		<use xlink:href="#SVGID_1_"  style="overflow:visible;"/>
	</clipPath>
</g>
<g>
	<defs>
		<path id="SVGID_3_" d="M92.1,15.4H20.8c-3.8,0-6.9,3.1-6.9,6.9v71.3c0,3.8,3.1,6.9,6.9,6.9H24c0.3-1.2,1.4-2.1,2.7-2.1
			s2.4,0.9,2.7,2.1h3.2c0.3-1.2,1.4-2.1,2.7-2.1c1.3,0,2.4,0.9,2.7,2.1h3.2c0.3-1.2,1.4-2.1,2.7-2.1c1.3,0,2.4,0.9,2.7,2.1h3.2
			c0.3-1.2,1.4-2.1,2.7-2.1c1.3,0,2.4,0.9,2.7,2.1H59c0.3-1.2,1.4-2.1,2.7-2.1c1.3,0,2.4,0.9,2.7,2.1h3.2c0.3-1.2,1.4-2.1,2.7-2.1
			s2.4,0.9,2.7,2.1h3.2c0.3-1.2,1.4-2.1,2.7-2.1c1.3,0,2.4,0.9,2.7,2.1h3.2c0.3-1.2,1.4-2.1,2.7-2.1s2.4,0.9,2.7,2.1h1.4
			c3.8,0,6.9-3.1,6.9-6.9V22.3C99,18.5,95.9,15.4,92.1,15.4z"/>
	</defs>
	<clipPath id="SVGID_4_">
		<use xlink:href="#SVGID_3_"  style="overflow:visible;"/>
	</clipPath>
</g>
<g>
	<defs>
		<path id="SVGID_5_" d="M92.1,15.4H20.8c-3.8,0-6.9,3.1-6.9,6.9v71.3c0,3.8,3.1,6.9,6.9,6.9H24c0.3-1.2,1.4-2.1,2.7-2.1
			s2.4,0.9,2.7,2.1h3.2c0.3-1.2,1.4-2.1,2.7-2.1c1.3,0,2.4,0.9,2.7,2.1h3.2c0.3-1.2,1.4-2.1,2.7-2.1c1.3,0,2.4,0.9,2.7,2.1h3.2
			c0.3-1.2,1.4-2.1,2.7-2.1c1.3,0,2.4,0.9,2.7,2.1H59c0.3-1.2,1.4-2.1,2.7-2.1c1.3,0,2.4,0.9,2.7,2.1h3.2c0.3-1.2,1.4-2.1,2.7-2.1
			s2.4,0.9,2.7,2.1h3.2c0.3-1.2,1.4-2.1,2.7-2.1c1.3,0,2.4,0.9,2.7,2.1h3.2c0.3-1.2,1.4-2.1,2.7-2.1s2.4,0.9,2.7,2.1h1.4
			c3.8,0,6.9-3.1,6.9-6.9V22.3C99,18.5,95.9,15.4,92.1,15.4z"/>
	</defs>
	<clipPath id="SVGID_6_">
		<use xlink:href="#SVGID_5_"  style="overflow:visible;"/>
	</clipPath>
</g>
<g>
	<defs>
		<path id="SVGID_7_" d="M92.1,15.4H20.8c-3.8,0-6.9,3.1-6.9,6.9v71.3c0,3.8,3.1,6.9,6.9,6.9H24c0.3-1.2,1.4-2.1,2.7-2.1
			s2.4,0.9,2.7,2.1h3.2c0.3-1.2,1.4-2.1,2.7-2.1c1.3,0,2.4,0.9,2.7,2.1h3.2c0.3-1.2,1.4-2.1,2.7-2.1c1.3,0,2.4,0.9,2.7,2.1h3.2
			c0.3-1.2,1.4-2.1,2.7-2.1c1.3,0,2.4,0.9,2.7,2.1H59c0.3-1.2,1.4-2.1,2.7-2.1c1.3,0,2.4,0.9,2.7,2.1h3.2c0.3-1.2,1.4-2.1,2.7-2.1
			s2.4,0.9,2.7,2.1h3.2c0.3-1.2,1.4-2.1,2.7-2.1c1.3,0,2.4,0.9,2.7,2.1h3.2c0.3-1.2,1.4-2.1,2.7-2.1s2.4,0.9,2.7,2.1h1.4
			c3.8,0,6.9-3.1,6.9-6.9V22.3C99,18.5,95.9,15.4,92.1,15.4z"/>
	</defs>
	<clipPath id="SVGID_8_">
		<use xlink:href="#SVGID_7_"  style="overflow:visible;"/>
	</clipPath>
	<g class="st1">
		<path class="st2" d="M80,34.2L28.4,39c-4.2,0.4-7.2,4.1-6.9,8.3l3.1,33.3c0.4,4.2,4.1,7.2,8.3,6.9l51.5-4.8
			c4.2-0.4,7.2-4.1,6.9-8.3L88.2,41C87.8,36.8,84.1,33.8,80,34.2z M30.3,44.4c-1.2,0.1-2.2-0.7-2.3-1.9c-0.1-1.2,0.7-2.2,1.9-2.3
			c1.2-0.1,2.2,0.7,2.3,1.9C32.3,43.3,31.4,44.3,30.3,44.4z M37.5,43.7c-1.2,0.1-2.2-0.7-2.3-1.9c-0.1-1.2,0.7-2.2,1.9-2.3
			c1.2-0.1,2.2,0.7,2.3,1.9C39.5,42.6,38.7,43.6,37.5,43.7z M44.5,43.1c-1.2,0.1-2.2-0.7-2.3-1.9c-0.1-1.2,0.7-2.2,1.9-2.3
			c1.2-0.1,2.2,0.7,2.3,1.9C46.5,42,45.6,43,44.5,43.1z M51.2,42.5c-1.2,0.1-2.2-0.7-2.3-1.9c-0.1-1.2,0.7-2.2,1.9-2.3
			c1.2-0.1,2.2,0.7,2.3,1.9C53.2,41.3,52.4,42.4,51.2,42.5z M58.5,41.8c-1.2,0.1-2.2-0.7-2.3-1.9c-0.1-1.2,0.7-2.2,1.9-2.3
			c1.2-0.1,2.2,0.7,2.3,1.9C60.5,40.7,59.6,41.7,58.5,41.8z M65.5,41.1c-1.2,0.1-2.2-0.7-2.3-1.9c-0.1-1.2,0.7-2.2,1.9-2.3
			c1.2-0.1,2.2,0.7,2.3,1.9C67.5,40,66.6,41,65.5,41.1z M72.2,40.5c-1.2,0.1-2.2-0.7-2.3-1.9c-0.1-1.2,0.7-2.2,1.9-2.3
			c1.2-0.1,2.2,0.7,2.3,1.9C74.2,39.4,73.4,40.4,72.2,40.5z M79.2,39.9C78.1,40,77,39.1,76.9,38c-0.1-1.2,0.7-2.2,1.9-2.3
			c1.2-0.1,2.2,0.7,2.3,1.9C81.2,38.7,80.4,39.7,79.2,39.9z"/>
		<path class="st3" d="M88.6,44.5L88.2,41c-0.4-4.2-4.1-7.2-8.3-6.9L28.4,39c-4.2,0.4-7.2,4.1-6.9,8.3l0.3,3.5L88.6,44.5z
			 M78.8,35.7c1.2-0.1,2.2,0.7,2.3,1.9c0.1,1.2-0.7,2.2-1.9,2.3C78.1,40,77,39.1,76.9,38C76.8,36.8,77.7,35.8,78.8,35.7z M71.8,36.3
			c1.2-0.1,2.2,0.7,2.3,1.9c0.1,1.2-0.7,2.2-1.9,2.3c-1.2,0.1-2.2-0.7-2.3-1.9C69.8,37.4,70.7,36.4,71.8,36.3z M65.1,36.9
			c1.2-0.1,2.2,0.7,2.3,1.9c0.1,1.2-0.7,2.2-1.9,2.3c-1.2,0.1-2.2-0.7-2.3-1.9C63.1,38.1,63.9,37.1,65.1,36.9z M58.1,37.6
			c1.2-0.1,2.2,0.7,2.3,1.9c0.1,1.2-0.7,2.2-1.9,2.3c-1.2,0.1-2.2-0.7-2.3-1.9C56.1,38.7,56.9,37.7,58.1,37.6z M50.8,38.3
			c1.2-0.1,2.2,0.7,2.3,1.9c0.1,1.2-0.7,2.2-1.9,2.3c-1.2,0.1-2.2-0.7-2.3-1.9C48.8,39.4,49.7,38.4,50.8,38.3z M44.1,38.9
			c1.2-0.1,2.2,0.7,2.3,1.9c0.1,1.2-0.7,2.2-1.9,2.3c-1.2,0.1-2.2-0.7-2.3-1.9C42.1,40,42.9,39,44.1,38.9z M37.1,39.6
			c1.2-0.1,2.2,0.7,2.3,1.9c0.1,1.2-0.7,2.2-1.9,2.3c-1.2,0.1-2.2-0.7-2.3-1.9C35.1,40.7,36,39.7,37.1,39.6z M29.9,40.2
			c1.2-0.1,2.2,0.7,2.3,1.9c0.1,1.2-0.7,2.2-1.9,2.3c-1.2,0.1-2.2-0.7-2.3-1.9C27.9,41.4,28.7,40.3,29.9,40.2z"/>
		<path class="st4" d="M30.8,43.6l-1.3,0.1c-0.4,0-0.7-0.2-0.7-0.6l-0.6-6.5c0-0.4,0.2-0.7,0.6-0.7l1.3-0.1c0.4,0,0.7,0.2,0.7,0.6
			l0.6,6.5C31.5,43.3,31.2,43.6,30.8,43.6z"/>
		<path class="st4" d="M38.1,43l-1.3,0.1c-0.4,0-0.7-0.2-0.7-0.6L35.5,36c0-0.4,0.2-0.7,0.6-0.7l1.3-0.1c0.4,0,0.7,0.2,0.7,0.6
			l0.6,6.5C38.7,42.6,38.5,42.9,38.1,43z"/>
		<path class="st4" d="M45.1,42.8l-1.3,0.1c-0.4,0-0.7-0.2-0.7-0.6l-0.6-6.5c0-0.4,0.2-0.7,0.6-0.7l1.3-0.1c0.4,0,0.7,0.2,0.7,0.6
			l0.6,6.5C45.7,42.4,45.5,42.7,45.1,42.8z"/>
		<path class="st4" d="M45.1,42.3l-1.3,0.1c-0.4,0-0.7-0.2-0.7-0.6l-0.6-6.5c0-0.4,0.2-0.7,0.6-0.7l1.3-0.1c0.4,0,0.7,0.2,0.7,0.6
			l0.6,6.5C45.7,41.9,45.4,42.3,45.1,42.3z"/>
		<path class="st4" d="M51.8,42.1l-1.3,0.1c-0.4,0-0.7-0.2-0.7-0.6l-0.6-6.5c0-0.4,0.2-0.7,0.6-0.7l1.3-0.1c0.4,0,0.7,0.2,0.7,0.6
			l0.6,6.5C52.5,41.8,52.2,42.1,51.8,42.1z"/>
		<path class="st4" d="M51.8,41.7l-1.3,0.1c-0.4,0-0.7-0.2-0.7-0.6l-0.6-6.5c0-0.4,0.2-0.7,0.6-0.7l1.3-0.1c0.4,0,0.7,0.2,0.7,0.6
			l0.6,6.5C52.4,41.3,52.2,41.6,51.8,41.7z"/>
		<path class="st4" d="M59.1,41l-1.3,0.1c-0.4,0-0.7-0.2-0.7-0.6L56.4,34c0-0.4,0.2-0.7,0.6-0.7l1.3-0.1c0.4,0,0.7,0.2,0.7,0.6
			l0.6,6.5C59.7,40.6,59.4,41,59.1,41z"/>
		<path class="st4" d="M66,40.3l-1.3,0.1c-0.4,0-0.7-0.2-0.7-0.6l-0.6-6.5c0-0.4,0.2-0.7,0.6-0.7l1.3-0.1c0.4,0,0.7,0.2,0.7,0.6
			l0.6,6.5C66.7,40,66.4,40.3,66,40.3z"/>
		<path class="st4" d="M72.8,39.3l-1.3,0.1c-0.4,0-0.7-0.2-0.7-0.6l-0.6-6.5c0-0.4,0.2-0.7,0.6-0.7l1.3-0.1c0.4,0,0.7,0.2,0.7,0.6
			l0.6,6.5C73.4,39,73.2,39.3,72.8,39.3z"/>
		<path class="st4" d="M79.8,38.7l-1.3,0.1c-0.4,0-0.7-0.2-0.7-0.6l-0.6-6.5c0-0.4,0.2-0.7,0.6-0.7l1.3-0.1c0.4,0,0.7,0.2,0.7,0.6
			l0.6,6.5C80.4,38.3,80.1,38.7,79.8,38.7z"/>
		<g>
			<line class="st5" x1="77" y1="49.8" x2="82.7" y2="54.2"/>
			<line class="st5" x1="77.7" y1="54.8" x2="82" y2="49.1"/>
		</g>
		<g>
			<line class="st5" x1="28.1" y1="55.2" x2="33.8" y2="59.5"/>
			<line class="st5" x1="28.8" y1="60.2" x2="33.1" y2="54.5"/>
		</g>
		<g>
			<line class="st5" x1="36" y1="54.3" x2="41.6" y2="58.6"/>
			<line class="st5" x1="36.6" y1="59.3" x2="41" y2="53.6"/>
		</g>
		<g>
			<line class="st5" x1="60.8" y1="51.5" x2="66.4" y2="55.8"/>
			<line class="st5" x1="61.4" y1="56.5" x2="65.8" y2="50.8"/>
		</g>
		<g>
			<line class="st5" x1="52.4" y1="52.2" x2="58" y2="56.6"/>
			<line class="st5" x1="53" y1="57.3" x2="57.4" y2="51.6"/>
		</g>
		<g>
			<line class="st5" x1="69" y1="50.5" x2="74.6" y2="54.9"/>
			<line class="st5" x1="69.6" y1="55.5" x2="74" y2="49.9"/>
		</g>
		<g>
			<line class="st5" x1="44.2" y1="53.2" x2="49.9" y2="57.5"/>
			<line class="st5" x1="44.8" y1="58.2" x2="49.2" y2="52.5"/>
		</g>
		<g>
			
				<rect x="29" y="62.4" transform="matrix(0.9957 -9.295888e-02 9.295888e-02 0.9957 -5.9221 3.2426)" class="st6" width="5.6" height="5.6"/>
			
				<rect x="37.3" y="61.6" transform="matrix(0.9957 -9.295888e-02 9.295888e-02 0.9957 -5.8139 4.0125)" class="st6" width="5.6" height="5.6"/>
			
				<rect x="45.7" y="60.8" transform="matrix(0.9957 -9.295888e-02 9.295888e-02 0.9957 -5.7053 4.7854)" class="st6" width="5.6" height="5.6"/>
			
				<rect x="53.8" y="60.1" transform="matrix(0.9957 -9.295888e-02 9.295888e-02 0.9957 -5.5993 5.5398)" class="st6" width="5.6" height="5.6"/>
			
				<rect x="62" y="59.3" transform="matrix(0.9957 -9.295888e-02 9.295888e-02 0.9957 -5.4935 6.2921)" class="st6" width="5.6" height="5.6"/>
			
				<rect x="70" y="58.5" transform="matrix(0.9957 -9.295888e-02 9.295888e-02 0.9957 -5.3887 7.0381)" class="st6" width="5.6" height="5.6"/>
			
				<rect x="78.3" y="57.8" transform="matrix(0.9957 -9.295888e-02 9.295888e-02 0.9957 -5.2808 7.8054)" class="st6" width="5.6" height="5.6"/>
			
				<rect x="30" y="70.5" transform="matrix(0.9957 -9.295888e-02 9.295888e-02 0.9957 -6.6781 3.3649)" class="st6" width="5.6" height="5.6"/>
			
				<rect x="38.3" y="69.8" transform="matrix(0.9957 -9.295888e-02 9.295888e-02 0.9957 -6.5699 4.1348)" class="st6" width="5.6" height="5.6"/>
			
				<rect x="46.6" y="69" transform="matrix(0.9957 -9.295888e-02 9.295888e-02 0.9957 -6.4613 4.9077)" class="st6" width="5.6" height="5.6"/>
			
				<rect x="54.8" y="68.2" transform="matrix(0.9957 -9.295888e-02 9.295888e-02 0.9957 -6.3552 5.6621)" class="st6" width="5.6" height="5.6"/>
			
				<rect x="62.9" y="67.5" transform="matrix(0.9957 -9.295888e-02 9.295888e-02 0.9957 -6.2495 6.4144)" class="st6" width="5.6" height="5.6"/>
			
				<rect x="71" y="66.7" transform="matrix(0.9957 -9.295888e-02 9.295888e-02 0.9957 -6.1446 7.1604)" class="st6" width="5.6" height="5.6"/>
			
				<rect x="79.3" y="65.9" transform="matrix(0.9957 -9.295888e-02 9.295888e-02 0.9957 -6.0368 7.9277)" class="st6" width="5.6" height="5.6"/>
			
				<rect x="30.9" y="78.7" transform="matrix(0.9957 -9.295888e-02 9.295888e-02 0.9957 -7.4341 3.4872)" class="st6" width="5.6" height="5.6"/>
			
				<rect x="39.2" y="77.9" transform="matrix(0.9957 -9.295888e-02 9.295888e-02 0.9957 -7.3259 4.2571)" class="st6" width="5.6" height="5.6"/>
			
				<rect x="47.6" y="77.2" transform="matrix(0.9957 -9.295888e-02 9.295888e-02 0.9957 -7.2172 5.03)" class="st6" width="5.6" height="5.6"/>
			
				<rect x="55.7" y="76.4" transform="matrix(0.9957 -9.295888e-02 9.295888e-02 0.9957 -7.1112 5.7844)" class="st6" width="5.6" height="5.6"/>
			
				<rect x="63.8" y="75.6" transform="matrix(0.9957 -9.295888e-02 9.295888e-02 0.9957 -7.0055 6.5367)" class="st6" width="5.6" height="5.6"/>
			
				<rect x="71.9" y="74.9" transform="matrix(0.9957 -9.295888e-02 9.295888e-02 0.9957 -6.9006 7.2827)" class="st6" width="5.6" height="5.6"/>
			
				<rect x="80.2" y="74.1" transform="matrix(0.9957 -9.295888e-02 9.295888e-02 0.9957 -6.7928 8.05)" class="st6" width="5.6" height="5.6"/>
		</g>
	</g>
</g>
<g>
	<defs>
		<path id="SVGID_9_" d="M92.1,15.4H20.8c-3.8,0-6.9,3.1-6.9,6.9v71.3c0,3.8,3.1,6.9,6.9,6.9H24c0.3-1.2,1.4-2.1,2.7-2.1
			s2.4,0.9,2.7,2.1h3.2c0.3-1.2,1.4-2.1,2.7-2.1c1.3,0,2.4,0.9,2.7,2.1h3.2c0.3-1.2,1.4-2.1,2.7-2.1c1.3,0,2.4,0.9,2.7,2.1h3.2
			c0.3-1.2,1.4-2.1,2.7-2.1c1.3,0,2.4,0.9,2.7,2.1H59c0.3-1.2,1.4-2.1,2.7-2.1c1.3,0,2.4,0.9,2.7,2.1h3.2c0.3-1.2,1.4-2.1,2.7-2.1
			s2.4,0.9,2.7,2.1h3.2c0.3-1.2,1.4-2.1,2.7-2.1c1.3,0,2.4,0.9,2.7,2.1h3.2c0.3-1.2,1.4-2.1,2.7-2.1s2.4,0.9,2.7,2.1h1.4
			c3.8,0,6.9-3.1,6.9-6.9V22.3C99,18.5,95.9,15.4,92.1,15.4z"/>
	</defs>
	<clipPath id="SVGID_10_">
		<use xlink:href="#SVGID_9_"  style="overflow:visible;"/>
	</clipPath>
	<rect x="6.2" y="85.4" class="st7" width="98.7" height="21.3"/>
</g>
<rect x="1.3" y="88.6" class="st8" width="111.3" height="9.9"/>
<text transform="matrix(1 0 0 1 20.0883 96.1894)" class="st9 st10 st11">KALENDER BACKHAUS</text>
<g>
	<defs>
		<path id="SVGID_11_" d="M92.1,15.4H20.8c-3.8,0-6.9,3.1-6.9,6.9v71.3c0,3.8,3.1,6.9,6.9,6.9H24c0.3-1.2,1.4-2.1,2.7-2.1
			s2.4,0.9,2.7,2.1h3.2c0.3-1.2,1.4-2.1,2.7-2.1c1.3,0,2.4,0.9,2.7,2.1h3.2c0.3-1.2,1.4-2.1,2.7-2.1c1.3,0,2.4,0.9,2.7,2.1h3.2
			c0.3-1.2,1.4-2.1,2.7-2.1c1.3,0,2.4,0.9,2.7,2.1H59c0.3-1.2,1.4-2.1,2.7-2.1c1.3,0,2.4,0.9,2.7,2.1h3.2c0.3-1.2,1.4-2.1,2.7-2.1
			s2.4,0.9,2.7,2.1h3.2c0.3-1.2,1.4-2.1,2.7-2.1c1.3,0,2.4,0.9,2.7,2.1h3.2c0.3-1.2,1.4-2.1,2.7-2.1s2.4,0.9,2.7,2.1h1.4
			c3.8,0,6.9-3.1,6.9-6.9V22.3C99,18.5,95.9,15.4,92.1,15.4z"/>
	</defs>
	<clipPath id="SVGID_12_">
		<use xlink:href="#SVGID_11_"  style="overflow:visible;"/>
	</clipPath>
	<rect x="5.5" y="7.4" class="st12" width="98" height="25.9"/>
</g>
<rect x="28.7" y="19.4" class="st8" width="58.7" height="10.9"/>
<text transform="matrix(1 0 0 1 28.6539 30.0584)" class="st9 st13 st14">COUPON</text>
</svg>
