<?xml version="1.0" encoding="utf-8"?>
<!-- Generator: Adobe Illustrator 25.2.3, SVG Export Plug-In . SVG Version: 6.00 Build 0)  -->
<svg version="1.1" id="Ebene_1" xmlns="http://www.w3.org/2000/svg" xmlns:xlink="http://www.w3.org/1999/xlink" x="0px" y="0px"
	 viewBox="0 0 113.4 113.4" style="enable-background:new 0 0 113.4 113.4;" xml:space="preserve">
<style type="text/css">
	.st0{fill:#FFFFFF;stroke:#BFCFD1;stroke-width:0.9131;stroke-miterlimit:10;}
	.st1{clip-path:url(#SVGID_4_);}
	.st2{clip-path:url(#SVGID_6_);}
	.st3{clip-path:url(#SVGID_8_);}
	.st4{clip-path:url(#SVGID_12_);}
	.st5{clip-path:url(#SVGID_6_);fill:#008C3F;}
	.st6{clip-path:url(#SVGID_16_);}
	.st7{clip-path:url(#SVGID_6_);fill:#FFFFFF;}
	.st8{clip-path:url(#SVGID_20_);fill:#FFFFFF;}
	.st9{clip-path:url(#SVGID_20_);fill:#1D1D1B;}
	.st10{fill:#009FE3;}
	.st11{font-family:'Jommeke07-Heavy';}
	.st12{font-size:3.5791px;}
	.st13{font-family:'Jommeke07-Bold';}
	.st14{fill:#1D1D1B;}
	.st15{font-family:'Helvetica-Bold';}
	.st16{font-size:2.45px;}
	.st17{clip-path:url(#SVGID_22_);fill:#FFFFFF;}
	.st18{clip-path:url(#SVGID_24_);fill:none;stroke:#1D1D1B;stroke-width:1.004775e-02;}
	.st19{clip-path:url(#SVGID_26_);}
	.st20{clip-path:url(#SVGID_28_);}
	.st21{clip-path:url(#SVGID_30_);}
	.st22{clip-path:url(#SVGID_34_);fill:#FFFFFF;}
	.st23{clip-path:url(#SVGID_34_);fill:#1D1D1B;}
	.st24{clip-path:url(#SVGID_34_);fill:#EDEDED;}
	.st25{clip-path:url(#SVGID_36_);fill:none;stroke:#1D1D1B;stroke-width:1.116417e-02;}
	.st26{clip-path:url(#SVGID_38_);fill:#1D1D1B;}
	.st27{clip-path:url(#SVGID_40_);}
	.st28{clip-path:url(#SVGID_44_);}
	.st29{clip-path:url(#SVGID_48_);}
	.st30{clip-path:url(#SVGID_52_);}
	.st31{clip-path:url(#SVGID_56_);}
	.st32{clip-path:url(#SVGID_60_);}
	.st33{clip-path:url(#SVGID_64_);}
	.st34{clip-path:url(#SVGID_68_);fill:#FFFFFF;}
	.st35{clip-path:url(#SVGID_70_);}
	.st36{clip-path:url(#SVGID_74_);}
	.st37{clip-path:url(#SVGID_78_);}
	.st38{clip-path:url(#SVGID_82_);fill:#A1DAF8;}
	.st39{clip-path:url(#SVGID_84_);}
	.st40{clip-path:url(#SVGID_88_);fill:#A1DAF8;}
	.st41{clip-path:url(#SVGID_90_);}
	.st42{clip-path:url(#SVGID_94_);}
	.st43{clip-path:url(#SVGID_98_);}
	.st44{clip-path:url(#SVGID_102_);}
	.st45{clip-path:url(#SVGID_106_);}
	.st46{clip-path:url(#SVGID_110_);}
	.st47{clip-path:url(#SVGID_114_);}
	.st48{clip-path:url(#SVGID_118_);}
	.st49{clip-path:url(#SVGID_122_);}
	.st50{clip-path:url(#SVGID_126_);}
	.st51{clip-path:url(#SVGID_130_);}
	.st52{clip-path:url(#SVGID_134_);}
	.st53{clip-path:url(#SVGID_138_);}
	.st54{clip-path:url(#SVGID_142_);}
	.st55{clip-path:url(#SVGID_146_);}
	.st56{clip-path:url(#SVGID_150_);}
	.st57{clip-path:url(#SVGID_154_);}
	.st58{clip-path:url(#SVGID_158_);}
	.st59{clip-path:url(#SVGID_162_);}
	.st60{clip-path:url(#SVGID_166_);}
	.st61{clip-path:url(#SVGID_170_);}
	.st62{clip-path:url(#SVGID_174_);}
	.st63{clip-path:url(#SVGID_178_);}
	.st64{clip-path:url(#SVGID_182_);}
	.st65{clip-path:url(#SVGID_192_);}
	.st66{clip-path:url(#SVGID_196_);}
	.st67{clip-path:url(#SVGID_200_);}
	.st68{clip-path:url(#SVGID_204_);}
	.st69{clip-path:url(#SVGID_208_);}
	.st70{clip-path:url(#SVGID_212_);}
	.st71{clip-path:url(#SVGID_216_);}
	.st72{clip-path:url(#SVGID_220_);}
	.st73{clip-path:url(#SVGID_224_);}
	.st74{clip-path:url(#SVGID_228_);}
	.st75{clip-path:url(#SVGID_232_);}
	.st76{clip-path:url(#SVGID_236_);}
	.st77{clip-path:url(#SVGID_240_);fill:#BFCFD1;}
	.st78{fill:none;}
	.st79{fill:#152A51;}
	.st80{font-family:'MyriadPro-Cond';}
	.st81{font-size:11px;}
	.st82{clip-path:url(#SVGID_242_);fill:#BFCFD1;}
	.st83{font-family:'MyriadPro-Regular';}
	.st84{font-size:15px;}
</style>
<path class="st0" d="M93.2,13.8H22c-3.8,0-6.9,3.1-6.9,6.9v71.3c0,3.8,3.1,6.9,6.9,6.9h3.2c0.3-1.2,1.4-2.1,2.7-2.1s2.4,0.9,2.7,2.1
	h3.2c0.3-1.2,1.4-2.1,2.7-2.1c1.3,0,2.4,0.9,2.7,2.1h3.2c0.3-1.2,1.4-2.1,2.7-2.1c1.3,0,2.4,0.9,2.7,2.1h3.2
	c0.3-1.2,1.4-2.1,2.7-2.1c1.3,0,2.4,0.9,2.7,2.1h3.2c0.3-1.2,1.4-2.1,2.7-2.1c1.3,0,2.4,0.9,2.7,2.1h3.2c0.3-1.2,1.4-2.1,2.7-2.1
	s2.4,0.9,2.7,2.1h3.2c0.3-1.2,1.4-2.1,2.7-2.1c1.3,0,2.4,0.9,2.7,2.1h3.2c0.3-1.2,1.4-2.1,2.7-2.1s2.4,0.9,2.7,2.1h1.4
	c3.8,0,6.9-3.1,6.9-6.9V20.7C100.1,16.9,97,13.8,93.2,13.8z"/>
<g>
	<defs>
		<path id="SVGID_1_" d="M96.3,10.7H25.1c-3.8,0-6.9,3.1-6.9,6.9v71.3c0,3.8,3.1,6.9,6.9,6.9h3.2c0.3-1.2,1.4-2.1,2.7-2.1
			s2.4,0.9,2.7,2.1H37c0.3-1.2,1.4-2.1,2.7-2.1c1.3,0,2.4,0.9,2.7,2.1h3.2c0.3-1.2,1.4-2.1,2.7-2.1c1.3,0,2.4,0.9,2.7,2.1h3.2
			c0.3-1.2,1.4-2.1,2.7-2.1c1.3,0,2.4,0.9,2.7,2.1h3.2c0.3-1.2,1.4-2.1,2.7-2.1c1.3,0,2.4,0.9,2.7,2.1h3.2c0.3-1.2,1.4-2.1,2.7-2.1
			s2.4,0.9,2.7,2.1h3.2c0.3-1.2,1.4-2.1,2.7-2.1c1.3,0,2.4,0.9,2.7,2.1h3.2c0.3-1.2,1.4-2.1,2.7-2.1s2.4,0.9,2.7,2.1h1.4
			c3.8,0,6.9-3.1,6.9-6.9V17.6C103.2,13.8,100.1,10.7,96.3,10.7z"/>
	</defs>
	<clipPath id="SVGID_2_">
		<use xlink:href="#SVGID_1_"  style="overflow:visible;"/>
	</clipPath>
</g>
<g>
	<defs>
		<path id="SVGID_3_" d="M93.2,13.8H22c-3.8,0-6.9,3.1-6.9,6.9v71.3c0,3.8,3.1,6.9,6.9,6.9h3.2c0.3-1.2,1.4-2.1,2.7-2.1
			s2.4,0.9,2.7,2.1h3.2c0.3-1.2,1.4-2.1,2.7-2.1c1.3,0,2.4,0.9,2.7,2.1h3.2c0.3-1.2,1.4-2.1,2.7-2.1c1.3,0,2.4,0.9,2.7,2.1h3.2
			c0.3-1.2,1.4-2.1,2.7-2.1c1.3,0,2.4,0.9,2.7,2.1h3.2c0.3-1.2,1.4-2.1,2.7-2.1c1.3,0,2.4,0.9,2.7,2.1h3.2c0.3-1.2,1.4-2.1,2.7-2.1
			s2.4,0.9,2.7,2.1h3.2c0.3-1.2,1.4-2.1,2.7-2.1c1.3,0,2.4,0.9,2.7,2.1h3.2c0.3-1.2,1.4-2.1,2.7-2.1s2.4,0.9,2.7,2.1h1.4
			c3.8,0,6.9-3.1,6.9-6.9V20.7C100.1,16.9,97,13.8,93.2,13.8z"/>
	</defs>
	<clipPath id="SVGID_4_">
		<use xlink:href="#SVGID_3_"  style="overflow:visible;"/>
	</clipPath>
	<g class="st1">
		<g>
			<defs>
				
					<rect id="SVGID_5_" x="22.6" y="31.2" transform="matrix(0.9988 -4.826483e-02 4.826483e-02 0.9988 -3.7114 2.7887)" width="66.5" height="94.2"/>
			</defs>
			<clipPath id="SVGID_6_">
				<use xlink:href="#SVGID_5_"  style="overflow:visible;"/>
			</clipPath>
			<g class="st2">
				<defs>
					<polygon id="SVGID_7_" points="86.8,53.9 46.4,55.8 46.6,58.9 23.2,60.1 23.1,57 22.6,57 26,126.4 90.2,123.3 26,126.4 
						22.6,57 21.6,57 25,126.9 90.5,123.7 87.1,53.9 					"/>
				</defs>
				<clipPath id="SVGID_8_">
					<use xlink:href="#SVGID_7_"  style="overflow:visible;"/>
				</clipPath>
				<g class="st3">
					<defs>
						
							<rect id="SVGID_9_" x="23.2" y="55.4" transform="matrix(0.9988 -4.826483e-02 4.826483e-02 0.9988 -4.2966 2.8112)" width="65.7" height="70"/>
					</defs>
					<clipPath id="SVGID_10_">
						<use xlink:href="#SVGID_9_"  style="overflow:visible;"/>
					</clipPath>
					<g transform="matrix(1 3.725290e-09 -3.725290e-09 1 -1.907349e-06 -3.814697e-06)" style="clip-path:url(#SVGID_10_);">
						
							<image style="overflow:visible;" width="2450" height="2606" xlink:href="21A683AE1A905DB8.jpg"  transform="matrix(2.677637e-02 -1.293865e-03 1.295569e-03 2.681163e-02 21.5735 57.0235)">
						</image>
					</g>
				</g>
			</g>
			<g class="st2">
				<defs>
					
						<rect id="SVGID_11_" x="24" y="44.1" transform="matrix(0.9988 -4.826483e-02 4.826483e-02 0.9988 -4.0124 2.8072)" width="64.2" height="80.8"/>
				</defs>
				<clipPath id="SVGID_12_">
					<use xlink:href="#SVGID_11_"  style="overflow:visible;"/>
				</clipPath>
				<g class="st4">
					<defs>
						
							<rect id="SVGID_13_" x="23.9" y="44" transform="matrix(0.9988 -4.826483e-02 4.826483e-02 0.9988 -4.0124 2.8071)" width="64.5" height="81"/>
					</defs>
					<clipPath id="SVGID_14_">
						<use xlink:href="#SVGID_13_"  style="overflow:visible;"/>
					</clipPath>
					
						<g transform="matrix(6.694094e-03 -3.234663e-04 3.238922e-04 6.702909e-03 21.9653 45.5793)" style="clip-path:url(#SVGID_14_);">
						
							<image style="overflow:visible;" width="9620" height="12074" xlink:href="21A683AE1A905DB8.png"  transform="matrix(6.694094e-03 -3.234663e-04 3.238922e-04 6.702909e-03 21.9653 45.5793)">
						</image>
					</g>
				</g>
			</g>
			
				<rect x="20.9" y="31.3" transform="matrix(0.9988 -4.826483e-02 4.826483e-02 0.9988 -1.9095 2.6385)" class="st5" width="65.6" height="19"/>
			<g class="st2">
				<defs>
					
						<rect id="SVGID_15_" x="20.9" y="31.3" transform="matrix(0.9988 -4.826483e-02 4.826483e-02 0.9988 -1.9095 2.6385)" width="65.6" height="19"/>
				</defs>
				<clipPath id="SVGID_16_">
					<use xlink:href="#SVGID_15_"  style="overflow:visible;"/>
				</clipPath>
				<g class="st6">
					<defs>
						
							<rect id="SVGID_17_" x="20.8" y="31.2" transform="matrix(0.9988 -4.826483e-02 4.826483e-02 0.9988 -1.9095 2.6385)" width="65.8" height="19.2"/>
					</defs>
					<clipPath id="SVGID_18_">
						<use xlink:href="#SVGID_17_"  style="overflow:visible;"/>
					</clipPath>
					
						<g transform="matrix(6.484663e-03 -3.133463e-04 3.137590e-04 6.493203e-03 20.3383 32.8343)" style="clip-path:url(#SVGID_18_);">
						
							<image style="overflow:visible;" width="10140" height="2961" xlink:href="21A683AE1A905DBF.png"  transform="matrix(6.484663e-03 -3.133463e-04 3.137590e-04 6.493203e-03 20.3383 32.8343)">
						</image>
					</g>
				</g>
			</g>
			<path class="st7" d="M21.8,34.5l63.3-3.1l4.4,90.9l-63.3,3.1L21.8,34.5z M25,126.9l66.1-3.2l-4.5-93.9l-66.1,3.2L25,126.9z"/>
			<g class="st2">
				<defs>
					
						<rect id="SVGID_19_" x="22.6" y="31.2" transform="matrix(0.9988 -4.826483e-02 4.826483e-02 0.9988 -3.7114 2.7887)" width="66.5" height="94.2"/>
				</defs>
				<clipPath id="SVGID_20_">
					<use xlink:href="#SVGID_19_"  style="overflow:visible;"/>
				</clipPath>
				<path class="st8" d="M79.5,35.5c1.9-0.1,3.4-1.7,3.3-3.6c-0.1-1.9-1.7-3.4-3.6-3.3c-1.9,0.1-3.4,1.7-3.3,3.6
					C76,34.1,77.6,35.6,79.5,35.5"/>
				
					<rect x="20.9" y="41.3" transform="matrix(0.9988 -4.826483e-02 4.826483e-02 0.9988 -2.2711 2.6709)" class="st8" width="66.5" height="14.2"/>
				<path class="st9" d="M50.4,37.2C50.4,37.2,50.4,37.2,50.4,37.2c0-0.1,0.1-0.1,0.1-0.1c0,0,0-0.1,0-0.1c0,0,0-0.1,0-0.1
					c0,0-0.1,0-0.1,0l0,0l0,0.1c0,0,0,0.1,0,0.1c0,0,0,0,0,0.1C50.3,37.1,50.3,37.1,50.4,37.2C50.3,37.2,50.3,37.2,50.4,37.2
					C50.3,37.2,50.3,37.2,50.4,37.2C50.4,37.2,50.4,37.2,50.4,37.2 M50.5,37.4C50.5,37.5,50.5,37.5,50.5,37.4c0,0.1-0.1,0.1-0.1,0.1
					c0,0,0,0.1,0,0.1c0,0,0,0.1,0,0.1c0,0,0,0,0,0.1c0,0,0,0,0,0c0,0,0,0.1,0,0.1c0,0,0,0.1,0,0.1c0,0,0,0,0,0c0,0,0,0,0,0
					c0,0,0,0,0.1,0c0,0,0,0,0,0c0,0,0.1,0,0.1,0c0,0,0,0,0,0c0,0,0,0,0,0l0,0c0,0,0.1,0,0.1,0c0,0,0,0,0,0c0,0,0,0,0,0c0,0,0,0,0,0
					c0,0,0,0,0.1,0c0,0,0,0,0,0c0,0,0.1,0,0.1,0c0,0,0.1,0,0.1-0.1c0,0,0,0,0,0c0,0,0,0,0.1-0.1c0,0,0,0,0,0c0,0,0,0,0,0l0,0
					c0,0,0,0,0,0c0,0,0,0,0,0.1c0,0,0,0,0,0c0,0,0,0-0.1,0c0,0,0,0-0.1,0c0,0-0.1,0-0.1,0c0,0,0,0-0.1,0c0,0,0,0-0.1,0l0,0
					c0,0,0,0-0.1,0c0,0,0,0-0.1,0c0,0,0,0-0.1,0c0,0,0,0-0.1,0c0,0,0,0-0.1,0l0,0c0,0-0.1,0-0.1,0c0,0,0,0-0.1,0l0,0
					c0,0-0.1,0-0.1,0l0,0c0,0-0.1,0-0.1-0.1c0,0,0,0,0,0c0,0,0-0.1-0.1-0.1l0,0c0,0,0,0,0,0c0,0,0,0,0-0.1c0-0.1,0-0.1,0-0.2
					c0,0,0-0.1,0-0.1c0,0,0,0,0,0c0,0,0-0.1,0-0.1l0,0c0,0,0-0.1,0-0.1c0,0,0-0.1,0-0.1c0,0,0,0,0,0c0,0,0,0-0.1,0c0,0,0,0.1,0,0.1
					c0,0,0,0.1-0.1,0.1l0,0c0,0,0,0,0,0.1c0,0,0,0,0,0.1c0,0,0,0,0,0.1c0,0,0,0,0,0.1c0,0-0.1,0.1-0.1,0.1c0,0-0.1,0-0.1,0.1l0,0
					c0,0,0,0,0,0c0,0,0,0-0.1,0c0,0-0.1,0-0.1,0.1c0,0-0.1,0-0.2,0c0,0,0,0,0,0c0,0,0,0,0,0c0,0-0.1,0-0.1,0c0,0,0,0,0,0
					c0,0,0,0,0,0c0,0-0.1,0-0.1-0.1l0,0c0,0,0,0,0-0.1c0,0,0,0,0,0c0,0,0,0,0,0c0,0,0,0,0,0l0,0c0,0,0,0,0,0c0,0,0,0,0,0
					c0,0,0-0.1,0-0.1l0,0c0.1,0,0.1,0,0.1,0c0,0,0,0,0.1,0.1c0,0,0,0.1,0,0.1c0,0,0,0,0,0.1l0,0c0,0,0,0.1,0.1,0.1c0,0,0,0,0,0l0,0
					c0,0,0,0,0,0c0,0,0.1,0,0.1,0c0,0,0,0,0,0c0,0,0,0,0,0c0,0,0.1,0,0.1,0c0,0,0.1,0,0.1,0c0,0,0.1,0,0.1-0.1c0,0,0.1-0.1,0.1-0.1
					l0,0c0,0,0,0,0-0.1l0,0c0,0,0,0,0,0c0,0,0,0,0-0.1c0,0,0-0.1,0-0.1c0,0,0,0,0,0c0,0,0-0.1,0-0.1c0,0,0,0,0-0.1c0,0,0,0,0-0.1
					c0,0,0,0,0-0.1l0,0c0,0,0,0,0-0.1c0,0,0-0.1,0-0.1c0,0,0-0.1,0-0.1c0,0,0,0,0-0.1c0,0,0,0,0-0.1l0,0c0,0,0-0.1,0-0.2
					c0,0-0.1,0-0.1,0c0,0,0,0-0.1,0c0,0,0,0-0.1,0c0,0-0.1,0-0.1,0c0,0-0.1,0-0.1,0c0,0-0.1,0-0.1,0c0,0-0.1,0-0.1,0l0,0
					c0,0-0.1,0-0.1,0c0,0-0.1,0-0.1,0c0,0,0,0-0.1,0c0,0,0,0,0,0l-0.1,0c0,0,0,0,0,0l0-0.1c0,0,0,0,0-0.1c0,0,0,0,0-0.1
					c0,0,0,0,0.1,0c0,0,0,0,0,0c0,0,0,0,0,0c0,0,0,0,0,0c0,0,0,0,0.1,0c0,0,0,0,0.1,0c0,0,0,0,0,0c0,0,0.1,0,0.1,0c0,0,0,0,0.1,0
					c0,0,0,0,0.1,0l0,0c0.1,0,0.1,0,0.2,0c0,0,0,0,0,0c0,0,0,0,0,0c0,0,0,0,0,0c0,0,0,0,0,0c0.1,0,0.1,0,0.1,0c0,0,0,0,0,0
					c0,0,0.1,0,0.2,0l0,0c0,0,0,0,0,0.1c0,0,0,0,0,0c0,0,0,0.1-0.1,0.1c0,0,0,0,0,0.1c0,0,0,0,0,0l0,0.1c0,0,0,0,0.1,0
					c0,0,0.1,0,0.1,0c0.1,0,0.1,0,0.2,0c0,0,0,0,0,0c0,0,0,0,0,0l0,0c0,0,0,0,0.1,0c0,0,0,0,0.1,0c0,0,0,0,0.1,0c0,0,0,0,0.1,0
					c0,0,0,0,0,0c0,0,0,0,0,0c0,0,0.1,0,0.1,0c0,0,0.1,0,0.1,0c0,0,0.1,0,0.1,0c0,0,0,0,0.1,0c0,0,0.1,0,0.1,0l0,0
					c0,0,0.1,0,0.1,0.1c0,0,0,0,0,0c0,0,0,0-0.1,0.1l0,0c0,0,0,0-0.1,0c0,0,0,0-0.1,0l0,0c-0.1,0-0.1,0-0.2,0c0,0,0,0,0,0
					c0,0,0,0,0,0c-0.1,0-0.1,0-0.2,0c0,0-0.1,0-0.1,0c-0.1,0-0.1,0-0.2,0c0,0,0,0-0.1,0c0,0,0,0-0.1,0c0,0,0,0,0,0c0,0,0,0,0,0.1
					c0,0,0,0,0,0.1c0,0,0,0,0,0.1c0,0,0,0,0,0.1c0,0,0,0,0,0c0,0,0.1,0,0.1,0c0,0,0,0,0.1,0c0,0,0.1,0,0.1,0c0,0,0.1,0,0.1,0
					c0,0,0,0,0.1,0c0.1,0,0.2,0,0.2,0l0,0c0,0,0,0,0.1,0l0,0c0,0,0,0,0.1,0c0,0,0,0,0.1,0c0,0,0,0,0,0c0,0,0,0,0,0.1
					c0,0.1,0,0.1-0.1,0.1c0,0,0,0-0.1,0c0,0,0,0,0,0c0,0-0.1,0-0.1,0c0,0,0,0,0,0c0,0-0.1,0-0.1,0c0,0-0.1,0-0.1,0c0,0-0.1,0-0.1,0
					c0,0,0,0,0,0c0,0,0,0-0.1,0l0,0c0,0-0.1,0-0.1,0C50.6,37.4,50.6,37.4,50.5,37.4C50.6,37.4,50.5,37.4,50.5,37.4"/>
				<path class="st9" d="M53.8,37.6L53.8,37.6C53.8,37.7,53.8,37.7,53.8,37.6c0,0.1,0,0.1-0.1,0.2c0,0-0.1,0-0.1,0c0,0,0,0,0,0
					c0,0,0,0,0,0l0,0l0,0c0,0,0-0.1,0-0.1c0,0,0,0,0,0c0,0,0,0,0-0.1c0,0,0-0.1,0-0.1l0,0c0,0,0,0,0-0.1c0,0,0,0,0-0.1
					c0,0,0,0,0-0.1c0,0,0,0,0-0.1c0,0,0,0,0-0.1c0,0,0,0,0-0.1c0,0,0-0.1,0-0.1c0,0,0,0,0,0c0,0,0,0,0,0c0,0,0,0,0-0.1
					c0,0,0,0,0-0.1c0,0,0,0,0-0.1c0,0,0-0.1,0-0.1l0,0c0,0,0-0.1,0-0.1c0,0,0-0.1,0-0.1c0,0,0,0,0-0.1c0,0,0-0.1,0-0.1
					c0-0.1,0-0.1,0.1-0.1l0,0c0,0,0,0,0.1,0c0,0,0,0,0,0.1c0,0,0,0.1,0,0.1c0,0,0,0,0,0.1c0,0,0,0,0,0.1c0,0,0,0,0,0.1
					c0,0,0,0,0,0.1l0,0c0,0,0,0.1,0,0.1c0,0,0,0.1,0,0.1c0,0,0,0,0,0c0,0,0,0,0,0c0,0,0,0,0,0c0,0,0,0,0,0.1c0,0,0,0.1,0,0.1
					c0,0,0,0.1,0,0.1l0,0c0,0,0,0.1,0,0.1c0,0,0,0,0-0.1c0,0,0,0,0-0.1c0,0,0,0,0-0.1c0,0,0,0,0-0.1c0,0,0-0.1,0-0.1c0,0,0,0,0,0
					c0,0,0,0,0,0l0,0c0,0,0,0,0-0.1c0,0,0,0,0-0.1c0,0,0-0.1,0-0.1c0,0,0,0,0,0l0,0c0,0,0,0,0-0.1c0,0,0-0.1,0-0.1c0,0,0,0,0-0.1
					l0,0c0,0,0,0,0-0.1c0,0,0,0,0-0.1c0,0,0-0.1,0.1-0.1c0,0,0,0,0.1-0.1c0,0,0,0,0.1,0c0,0,0,0,0.1,0c0,0,0,0,0.1,0c0,0,0,0,0,0
					c0,0,0,0,0,0.1c0,0,0,0,0,0.1l0,0c0,0,0,0.1-0.1,0.1c0,0,0,0.1,0,0.1l0,0l0,0c0,0,0,0.1,0,0.1l0,0c0,0,0,0.1,0,0.1l0,0
					c0,0,0,0,0,0.1c0,0,0,0,0,0c0,0,0,0,0,0l0,0c0,0,0,0.1,0,0.1c0,0,0,0,0,0.1l0,0c0,0,0,0.1,0,0.1c0,0,0.1,0.1,0.1,0.1l0,0l0,0
					l0,0c0,0,0.1,0,0.1,0c0,0,0,0,0.1,0c0,0,0,0,0.1,0c0,0,0,0,0.1,0c0,0,0.1-0.1,0.1-0.1c0,0,0,0,0,0c0,0,0,0,0.1-0.1c0,0,0,0,0,0
					c0,0,0.1,0,0.1,0c0,0,0,0,0,0c0,0,0,0,0.1-0.1c0,0,0,0,0.1-0.1c0,0,0,0,0.1,0c0,0,0-0.1,0.1-0.1l0,0c0,0,0,0,0,0c0,0,0,0,0,0
					c0,0,0,0,0.1-0.1c0,0,0,0,0,0l0,0c0,0,0-0.1,0.1-0.1c0,0,0,0,0,0c0,0,0,0,0-0.1c0,0,0,0,0-0.1c0,0,0,0,0-0.1c0,0,0,0,0-0.1
					c0,0,0,0,0.1,0c0,0,0.1,0,0.1,0c0,0,0,0,0,0c0,0,0,0.1,0,0.1c0,0,0,0,0,0.1c0,0,0,0,0,0c0,0,0,0,0,0.1c0,0,0,0.1-0.1,0.1
					c0,0,0,0.1-0.1,0.1l0,0c0,0-0.1,0.1-0.1,0.1c0,0-0.1,0.1-0.1,0.2c0,0,0,0.1-0.1,0.1c0,0,0,0,0,0.1c0,0,0,0,0,0l0,0c0,0,0,0,0,0
					c0,0,0,0.1-0.1,0.1l0,0c0,0,0,0.1-0.1,0.1c0,0,0,0,0,0c0,0,0,0.1-0.1,0.1c0,0,0,0,0,0l0,0c0,0.1-0.1,0.1-0.1,0.2c0,0,0,0,0,0.1
					l0,0c0,0,0,0.1,0,0.1c0,0,0,0.1-0.1,0.1l0,0c0,0,0,0,0,0.1c0,0,0,0,0,0c0,0,0,0,0,0c0,0,0,0,0,0l0,0c0,0,0,0,0,0.1l0,0
					c0,0,0,0,0,0c0,0-0.1,0-0.1-0.1c0,0,0-0.1,0-0.1l0,0c0,0,0-0.1,0.1-0.1c0,0,0-0.1,0.1-0.1c0,0,0,0,0.1-0.1c0,0,0,0,0-0.1
					c0,0,0-0.1,0.1-0.1c0,0,0-0.1,0.1-0.1c0,0,0-0.1,0-0.1c0,0,0,0,0,0c-0.1,0-0.1,0-0.2,0.1c0,0-0.1,0-0.1,0l0,0c0,0-0.1,0-0.1,0
					l0,0c-0.1,0-0.1,0-0.1-0.1l0,0l0,0c0,0,0,0,0-0.1l0,0l0,0c0,0,0-0.1-0.1-0.1l0,0c0,0,0,0,0-0.1c0,0,0,0,0-0.1c0,0,0,0,0-0.1
					c0,0,0,0,0-0.1c0,0,0,0,0-0.1c0,0,0-0.1,0-0.1l0,0l0,0c0,0,0,0.1,0,0.1c0,0,0,0,0,0l0,0c0,0,0,0,0,0.1c0,0,0,0,0,0.1
					c0,0,0,0,0,0.1c0,0,0,0,0,0.1c0,0,0,0,0,0.1l0,0c0,0,0,0.1,0,0.1c0,0,0,0,0,0c0,0,0,0,0,0.1c0,0,0,0,0,0.1l0,0c0,0,0,0.1,0,0.1
					l0,0c0,0,0,0,0,0c0,0,0,0,0,0c0,0,0,0-0.1,0c0,0,0,0,0,0c0,0-0.1,0-0.1-0.1c0,0,0,0,0,0c0,0,0-0.1,0-0.1c0,0,0-0.1,0-0.1
					c0,0,0,0,0,0c0,0,0,0,0,0c0,0,0,0,0-0.1l0,0l0,0c0,0,0,0,0-0.1c0,0,0,0,0-0.1c0,0,0,0,0-0.1l0,0c0,0,0-0.1,0-0.1c0,0,0,0,0,0
					c0,0,0-0.1,0-0.1l0,0c0,0,0,0.1,0,0.1c0,0.1,0,0.1-0.1,0.2c0,0,0,0.1,0,0.1c0,0,0,0,0,0c0,0,0,0,0,0c0,0,0,0.1,0,0.1
					c0,0,0,0,0,0.1C53.8,37.5,53.8,37.5,53.8,37.6C53.8,37.6,53.8,37.6,53.8,37.6L53.8,37.6z"/>
				<path class="st9" d="M57.4,36.1L57.4,36.1c0,0-0.1,0-0.1,0l0,0c0,0,0,0,0,0c0,0,0,0,0,0c0,0-0.1,0-0.1,0l0,0c0,0-0.1,0-0.1,0
					c0,0,0,0,0,0c0,0-0.1,0-0.1,0.1c0,0-0.1,0-0.1,0.1c0,0,0,0,0,0.1l0,0c0,0,0,0,0,0.1c0,0,0,0,0,0.1c0,0,0,0.1,0,0.1c0,0,0,0,0,0
					c0,0,0,0,0,0.1l0,0l0,0c0,0,0.1,0,0.1,0c0,0,0,0,0,0c0,0,0,0,0.1,0c0,0,0.1,0,0.1,0l0,0c0,0,0,0,0.1,0c0,0,0,0,0,0c0,0,0,0,0,0
					c0.1,0,0.1,0,0.2,0c0,0,0.1,0,0.2,0.1c0,0,0,0,0.1,0.1c0,0,0.1,0.1,0.1,0.1c0,0,0,0,0,0.1c0,0,0,0.1,0,0.1l0,0c0,0,0,0,0,0
					c0,0,0,0,0,0.1c0,0.1,0,0.1-0.1,0.2c0,0,0,0.1,0,0.1l0,0c0,0,0,0,0,0l-0.1,0l0,0l0,0c0,0,0,0,0,0c0,0-0.1,0-0.1,0c0,0,0,0,0,0
					c0,0-0.1,0-0.1,0c0,0,0,0-0.1,0c0,0,0,0-0.1,0c0,0,0,0,0,0c0,0,0,0,0,0c0,0,0,0-0.1,0c0,0,0,0-0.1,0c0,0,0,0-0.1,0
					c0,0-0.1,0-0.1,0c0,0-0.1,0-0.1,0c0,0-0.1,0-0.1,0c0,0,0,0-0.1,0c0,0,0,0-0.1,0c0,0-0.1-0.1-0.1-0.1c0,0,0,0,0-0.1l0,0
					c0,0,0-0.1,0-0.1c0,0,0,0,0-0.1c0,0,0.1,0,0.1,0c0,0,0.1,0.1,0.1,0.1c0,0,0.1,0,0.1,0.1c0,0,0.1,0,0.1,0c0,0,0.1,0,0.1,0
					c0,0,0.1,0,0.1,0c0,0,0,0,0.1,0c0,0,0.1,0,0.1,0c0,0,0,0,0,0c0,0,0,0,0.1,0c0,0,0.1,0,0.1,0c0,0,0,0,0,0c0,0,0,0,0,0
					c0,0,0.1,0,0.1-0.1c0,0,0,0,0.1-0.1c0,0,0,0,0,0c0,0,0,0,0,0c0,0,0,0,0-0.1c0,0,0,0,0,0c0,0,0,0,0-0.1c0,0,0,0,0,0
					c0,0,0,0-0.1,0c0,0,0,0,0,0c0,0-0.1,0-0.1,0l0,0c0,0,0,0-0.1,0c0,0,0,0-0.1,0c0,0,0,0-0.1,0c0,0-0.1,0-0.1,0c0,0,0,0,0,0
					c0,0,0,0,0,0c0,0-0.1,0-0.1-0.1c0,0-0.1,0-0.1-0.1l0,0c0,0,0,0-0.1,0c0,0,0,0,0,0c0,0,0-0.1,0-0.1l0,0c0,0,0-0.1,0-0.1l0,0
					c0,0,0-0.1,0-0.1c0,0,0-0.1,0.1-0.1l0,0c0,0,0,0,0.1-0.1c0,0,0,0,0.1-0.1c0,0,0,0,0,0l0,0c0,0,0.1-0.1,0.1-0.1l0,0
					c0,0,0.1,0,0.1-0.1c0,0,0.1,0,0.1,0c0,0,0,0,0,0c0,0,0,0,0,0l0,0c0,0,0,0,0,0c0,0,0,0,0,0c0,0,0,0,0.1,0c0,0,0,0,0,0
					c0,0,0.1,0,0.1,0c0,0,0.1,0,0.1,0c0,0,0.1,0,0.1,0c0,0,0,0,0.1,0c0,0,0,0,0,0c0,0,0.1,0,0.1,0.1c0,0,0.1,0,0.1,0l0,0
					c0,0,0,0,0,0c0,0,0,0,0,0c0,0,0,0,0,0c0,0,0,0,0,0c0,0,0,0,0,0.1l0,0.1c0,0,0,0-0.1,0c0,0-0.1,0-0.1,0c0,0,0,0,0,0
					c0,0,0-0.1-0.1-0.1c0,0,0,0,0,0c0,0-0.1,0-0.1,0c0,0,0,0,0,0l0,0c0,0-0.1,0-0.1-0.1l0,0C57.5,36.2,57.5,36.1,57.4,36.1
					L57.4,36.1z"/>
				<path class="st9" d="M53.2,36.4c0,0-0.1,0-0.1,0c0,0,0,0-0.1,0l0,0c0,0,0,0-0.1,0c0,0,0,0-0.1,0l-0.1,0l-0.1,0c0,0,0,0-0.1,0
					c0,0,0,0,0,0c0,0-0.1,0-0.1,0c0,0,0,0-0.1,0c0,0-0.1,0-0.1,0c0,0-0.1,0-0.1,0l0,0c0,0,0,0,0,0c0,0,0,0,0,0l0,0c0,0,0,0.1,0,0.1
					c0,0,0,0,0,0.1c0,0,0,0,0,0.1c0,0,0,0,0,0c0,0,0.1,0,0.1,0c0,0,0.1,0,0.1,0c0,0,0,0,0.1,0c0,0,0,0,0.1,0l0,0l0,0l0,0l0,0
					c0,0,0,0,0,0c0.1,0,0.2,0,0.2,0c0,0,0,0,0.1,0c0,0,0,0,0.1,0c0,0,0,0,0.1,0c0,0,0,0,0,0c0,0,0,0,0,0c0,0,0,0,0,0.1
					c0,0,0,0,0,0.1c0,0,0,0-0.1,0l0,0c-0.1,0-0.1,0-0.2,0c0,0,0,0,0,0c0,0,0,0,0,0c0,0-0.1,0-0.1,0c0,0-0.1,0-0.1,0c0,0,0,0,0,0
					c0,0,0,0-0.1,0c0,0,0,0-0.1,0l-0.2,0c0,0,0,0,0,0l0,0c0,0,0,0.1,0,0.1c0,0,0,0,0,0.1c0,0,0,0,0,0.1c0,0,0,0,0,0.1l0,0
					c0,0,0,0.1,0,0.1c0,0,0,0.1,0,0.1c0,0,0,0,0,0c0,0,0,0.1,0,0.1c0,0,0,0,0,0c0,0,0,0,0,0c0,0,0,0,0,0.1c0,0,0,0.1,0,0.1
					c0,0,0,0,0,0c0,0,0,0,0,0c0,0,0,0,0,0l0,0c0,0-0.1,0-0.1,0c0,0,0,0-0.1,0c0,0,0,0,0,0c0,0,0,0,0-0.1c0,0,0,0,0-0.1c0,0,0,0,0,0
					l0,0c0,0,0-0.1,0-0.1c0,0,0-0.1,0-0.1c0,0,0,0,0-0.1c0,0,0,0,0-0.1c0,0,0,0,0-0.1c0,0,0,0,0,0c0,0,0-0.1,0-0.1c0,0,0,0,0,0
					c0,0,0,0,0-0.1c0,0,0-0.1,0-0.1c0,0,0,0,0,0c0,0,0-0.1,0-0.1l0,0c0,0,0-0.1,0.1-0.1c0,0,0.1,0,0.1-0.1c0,0,0,0,0,0
					c0,0,0-0.1,0-0.1c0,0,0,0,0-0.1c0,0,0,0,0-0.1c0,0,0,0,0-0.1l0,0c0,0,0,0-0.1,0c0,0,0,0,0-0.1l0,0l0,0c0,0,0.1-0.1,0.1-0.1
					c0,0,0.1,0,0.1,0c0.1,0,0.1,0,0.2,0c0.1,0,0.1,0,0.2,0c0,0,0,0,0.1,0c0,0,0,0,0.1,0l0,0c0,0,0.1,0,0.1,0c0,0,0.1,0,0.1,0
					c0,0,0,0,0,0c0,0,0,0,0.1,0c0,0,0,0,0.1,0l0.1,0l0.1,0c0,0,0.1,0,0.1,0C53.2,36.3,53.2,36.3,53.2,36.4
					C53.2,36.4,53.2,36.4,53.2,36.4"/>
			</g>
			<g class="st2">
				<text transform="matrix(0.9975 -4.820135e-02 4.826482e-02 0.9988 54.7348 52.993)"><tspan x="0" y="0" class="st10 st11 st12">D</tspan><tspan x="2.6" y="0" class="st10 st11 st12">I</tspan><tspan x="3.5" y="0" class="st10 st11 st12">E</tspan></text>
			</g>
			<g class="st2">
				<text transform="matrix(0.9975 -4.820135e-02 4.826482e-02 0.9988 59.6866 52.7537)" class="st10 st13 st12"> </text>
			</g>
			<g class="st2">
				<text transform="matrix(0.9975 -4.820135e-02 4.826482e-02 0.9988 60.6152 52.7088)"><tspan x="0" y="0" class="st10 st11 st12">K</tspan><tspan x="2.1" y="0" class="st10 st11 st12">I</tspan><tspan x="3.1" y="0" class="st10 st11 st12">KI</tspan><tspan x="6.1" y="0" class="st10 st11 st12">W</tspan><tspan x="9" y="0" class="st10 st11 st12">I</tspan><tspan x="9.9" y="0" class="st10 st11 st12">K</tspan><tspan x="12.1" y="0" class="st10 st11 st12">I</tspan><tspan x="13" y="0" class="st10 st11 st12">S</tspan></text>
			</g>
			<g class="st2">
				<text transform="matrix(0.9975 -4.820135e-02 4.826482e-02 0.9988 78.0551 34.3819)" class="st14 st15 st16">10</text>
			</g>
			<g class="st2">
				<defs>
					
						<rect id="SVGID_21_" x="22.6" y="31.2" transform="matrix(0.9988 -4.826483e-02 4.826483e-02 0.9988 -3.7114 2.7887)" width="66.5" height="94.2"/>
				</defs>
				<clipPath id="SVGID_22_">
					<use xlink:href="#SVGID_21_"  style="overflow:visible;"/>
				</clipPath>
				
					<rect x="29.4" y="121.9" transform="matrix(0.9753 -0.2208 0.2208 0.9753 -26.3802 9.7402)" class="st17" width="2" height="2"/>
			</g>
			<g class="st2">
				<defs>
					
						<rect id="SVGID_23_" x="29.4" y="121.9" transform="matrix(0.9753 -0.2207 0.2207 0.9753 -26.3741 9.7372)" width="2" height="2"/>
				</defs>
				<clipPath id="SVGID_24_">
					<use xlink:href="#SVGID_23_"  style="overflow:visible;"/>
				</clipPath>
				
					<rect x="29.4" y="121.9" transform="matrix(0.9752 -0.2212 0.2212 0.9752 -26.4289 9.7646)" class="st18" width="2" height="2"/>
			</g>
			<g class="st2">
				<defs>
					
						<rect id="SVGID_25_" x="29.4" y="121.9" transform="matrix(0.9753 -0.2207 0.2207 0.9753 -26.3741 9.7372)" width="2" height="2"/>
				</defs>
				<clipPath id="SVGID_26_">
					<use xlink:href="#SVGID_25_"  style="overflow:visible;"/>
				</clipPath>
				<g class="st19">
					<defs>
						
							<rect id="SVGID_27_" x="28.8" y="119.4" transform="matrix(0.9752 -0.2212 0.2212 0.9752 -25.8971 9.58)" width="2" height="2"/>
					</defs>
					<clipPath id="SVGID_28_">
						<use xlink:href="#SVGID_27_"  style="overflow:visible;"/>
					</clipPath>
					<g class="st20">
						<defs>
							
								<rect id="SVGID_29_" x="28" y="119.4" transform="matrix(0.9752 -0.2212 0.2212 0.9752 -25.9122 9.5522)" width="3.5" height="2.1"/>
						</defs>
						<clipPath id="SVGID_30_">
							<use xlink:href="#SVGID_29_"  style="overflow:visible;"/>
						</clipPath>
						<g class="st21">
							<defs>
								
									<rect id="SVGID_31_" x="28" y="119.4" transform="matrix(0.9752 -0.2212 0.2212 0.9752 -25.9107 9.5514)" width="3.5" height="2.1"/>
							</defs>
							<clipPath id="SVGID_32_">
								<use xlink:href="#SVGID_31_"  style="overflow:visible;"/>
							</clipPath>
							<g transform="matrix(1 1.490116e-08 -1.490116e-08 1 0 0)" style="clip-path:url(#SVGID_32_);">
								
									<image style="overflow:visible;" width="130" height="80" xlink:href="21A683AE1A905DB9.jpg"  transform="matrix(2.594540e-02 -5.884817e-03 5.911000e-03 2.611532e-02 27.7677 119.8013)">
								</image>
							</g>
						</g>
					</g>
				</g>
			</g>
			<g class="st2">
				<defs>
					
						<rect id="SVGID_33_" x="29.4" y="121.9" transform="matrix(0.9753 -0.2207 0.2207 0.9753 -26.3741 9.7372)" width="2" height="2"/>
				</defs>
				<clipPath id="SVGID_34_">
					<use xlink:href="#SVGID_33_"  style="overflow:visible;"/>
				</clipPath>
				<path class="st22" d="M30.8,120.7"/>
				<path class="st23" d="M29.7,120.4l0.1,0c0,0.1,0.1,0.1,0.1,0.1c0.1,0,0.1,0,0.1-0.1c0-0.1-0.1-0.1-0.2-0.1c-0.1,0-0.2,0-0.3-0.1
					c0-0.1,0.1-0.2,0.2-0.3l-0.1-0.1l-0.2,0l0,0.1l0,0l0,0.1l-0.3,0.1l0,0.1l0.3-0.1L29.7,120.4l-0.3,0l0,0.2l0.3-0.1l0,0.1l0.2,0
					C29.8,120.6,29.7,120.5,29.7,120.4"/>
				<polygon class="st23" points="28.9,120.8 29,121.3 29.1,120.8 				"/>
				<path class="st23" d="M28.9,120.1C29,120.1,29,120,28.9,120.1c0.1-0.2,0-0.1,0-0.1c-0.1,0-0.2,0-0.2-0.1l0,0.2l0.1,0
					C28.8,120.1,28.9,120.1,28.9,120.1"/>
				<path class="st23" d="M28.8,119.6l-0.1,0l0,0.1C28.6,119.7,28.7,119.7,28.8,119.6"/>
				<path class="st23" d="M28.7,120.1L28.7,120.1l0.1,0.1C28.8,120.2,28.7,120.1,28.7,120.1"/>
				<path class="st23" d="M30.7,120.4l0.2,0l0-0.1C30.8,120.3,30.8,120.4,30.7,120.4"/>
				<polygon class="st23" points="30.6,119.7 30.5,119.2 30.3,119.3 30.6,119.7 				"/>
				<polygon class="st23" points="29.6,119.5 29.6,119.5 29.6,119.8 29.8,119.7 				"/>
				<polygon class="st23" points="29.3,119.6 29.4,120 29.5,120 29.5,119.4 29.4,119.5 29.5,119.6 				"/>
				<path class="st23" d="M30.2,120.1l-0.1,0c0-0.1-0.1-0.1-0.1-0.1c-0.1,0-0.1,0-0.1,0.1c0,0.1,0.1,0.1,0.1,0.1
					c0.1,0,0.3,0,0.3,0.1c0,0.1-0.1,0.2-0.2,0.3c0.1,0,0.2,0,0.2,0.1l0-0.1l0.2,0c-0.1,0-0.2-0.1-0.2-0.2l0.1,0
					c0,0.1,0.1,0.1,0.1,0.1c0.1,0,0.1,0,0.1-0.1c0-0.1-0.1-0.1-0.2-0.1C30.4,120.2,30.3,120.2,30.2,120.1c0-0.1,0.2-0.2,0.3-0.3
					c0,0,0.1,0,0.1,0l-0.3-0.4l0,0l0.1,0.4l-0.1,0l-0.1-0.5l-0.1,0l0.1,0.5l-0.1,0l-0.1-0.5l-0.2,0.1l0.3,0.5
					C30.1,119.9,30.1,120,30.2,120.1"/>
				<path class="st23" d="M30.7,119.9l-0.1,0c0-0.1-0.1-0.1-0.1-0.1c-0.1,0-0.1,0-0.1,0.1c0,0.1,0.1,0.1,0.1,0.1
					c0.1,0,0.2,0,0.3,0.1l-0.1-0.4l-0.1,0C30.7,119.8,30.7,119.8,30.7,119.9"/>
				<path class="st23" d="M29.1,119.7l-0.1,0c0-0.1-0.1-0.1-0.1-0.1c0,0-0.1,0-0.1,0.1c0,0.1,0.1,0.1,0.1,0.1c0.1,0,0.2,0,0.2,0.1
					c0,0.1-0.1,0.2-0.2,0.2c0,0,0,0-0.1,0l0.1,0.5l0.3-0.1l0,0.1l0,0l-0.1-0.6l0.1,0l-0.1-0.4L29.1,119.7l0-0.2l-0.1,0
					C29,119.6,29,119.6,29.1,119.7"/>
				<path class="st23" d="M30,121.1L30,121.1l0,0.3l0.2-0.1c0-0.1,0-0.1-0.1-0.2C30.2,121.1,30.2,121.1,30,121.1"/>
				<polygon class="st23" points="29.3,120.7 29.8,121.5 29.8,121.5 29.6,120.7 				"/>
				<path class="st23" d="M30,120.7L30,120.7l0,0.2l0.1,0c0.1,0,0.1,0,0.1-0.1C30.1,120.7,30,120.7,30,120.7"/>
				
					<rect x="30.8" y="120.5" transform="matrix(0.9753 -0.2209 0.2209 0.9753 -25.9391 9.8069)" class="st23" width="0.2" height="0.7"/>
				<path class="st23" d="M30.3,120.7C30.3,120.7,30.3,120.7,30.3,120.7c0,0.2,0,0.3-0.1,0.3l0,0c0.1,0,0.2,0,0.2,0.2
					c0,0.1,0,0.1,0.1,0.2l0.2,0l-0.1-0.6L30.3,120.7z"/>
				<polygon class="st23" points="29.2,121.4 29.2,121.6 29.6,121.5 29.5,121.4 				"/>
				<polygon class="st23" points="29.2,120.9 29.2,121.3 29.4,121.2 29.2,120.9 				"/>
				<line class="st24" x1="30.8" y1="120.1" x2="30.8" y2="120.2"/>
				<path class="st24" d="M28.7,119.8C28.7,119.8,28.7,119.8,28.7,119.8L28.7,119.8C28.7,119.8,28.7,119.8,28.7,119.8"/>
				<line class="st24" x1="28.7" y1="120.1" x2="28.7" y2="120"/>
				<path class="st22" d="M31.4,123.2"/>
				<path class="st23" d="M30.3,122.9l0.1,0c0,0.1,0.1,0.1,0.1,0.1c0.1,0,0.1,0,0.1-0.1c0-0.1-0.1-0.1-0.2-0.1c-0.1,0-0.2,0-0.3-0.1
					c0-0.1,0.1-0.2,0.2-0.3l-0.1-0.1l-0.2,0l0,0.1l0,0l0,0.1l-0.3,0.1l0,0.1l0.3-0.1L30.3,122.9l-0.3,0l0,0.2l0.3-0.1l0,0.1l0.2,0
					C30.4,123.1,30.3,123,30.3,122.9"/>
				<polygon class="st23" points="29.4,123.3 29.6,123.8 29.6,123.3 				"/>
				<path class="st23" d="M29.5,122.5C29.5,122.5,29.6,122.5,29.5,122.5c0.1-0.2,0-0.1,0-0.1c-0.1,0-0.2,0-0.2-0.1l0,0.2l0.1,0
					C29.4,122.5,29.4,122.6,29.5,122.5"/>
				<path class="st23" d="M29.3,122.1l-0.1,0l0,0.1C29.2,122.2,29.2,122.1,29.3,122.1"/>
				<path class="st23" d="M29.3,122.6L29.3,122.6l0.1,0.1C29.3,122.6,29.3,122.6,29.3,122.6"/>
				<path class="st23" d="M31.2,122.9l0.2,0l0-0.1C31.4,122.8,31.3,122.8,31.2,122.9"/>
				<polygon class="st23" points="31.1,122.1 31.1,121.7 30.8,121.7 31.1,122.1 				"/>
				<polygon class="st23" points="30.2,122 30.2,122 30.2,122.3 30.3,122.2 				"/>
				<polygon class="st23" points="29.9,122.1 30,122.5 30,122.5 30.1,121.9 30,121.9 30,122 				"/>
				<path class="st23" d="M30.7,122.5l-0.1,0c0-0.1-0.1-0.1-0.1-0.1c-0.1,0-0.1,0-0.1,0.1c0,0.1,0.1,0.1,0.1,0.1
					c0.1,0,0.3,0,0.3,0.1c0,0.1-0.1,0.2-0.2,0.3c0.1,0,0.2,0,0.2,0.1l0-0.1l0.2,0c-0.1,0-0.2-0.1-0.2-0.2l0.1,0
					c0,0.1,0.1,0.1,0.1,0.1c0.1,0,0.1,0,0.1-0.1c0-0.1-0.1-0.1-0.2-0.1C31,122.6,30.8,122.6,30.7,122.5c0-0.1,0.2-0.2,0.3-0.3
					c0,0,0.1,0,0.1,0l-0.3-0.4l0,0l0.1,0.4l-0.1,0l-0.1-0.5l-0.1,0l0.1,0.5l-0.1,0l-0.1-0.5l-0.2,0.1l0.3,0.5
					C30.6,122.4,30.7,122.4,30.7,122.5"/>
				<path class="st23" d="M31.3,122.4l-0.1,0c0-0.1-0.1-0.1-0.1-0.1c-0.1,0-0.1,0-0.1,0.1c0,0.1,0.1,0.1,0.1,0.1
					c0.1,0,0.2,0,0.3,0.1l-0.1-0.4l-0.1,0C31.2,122.3,31.3,122.3,31.3,122.4"/>
				<path class="st23" d="M29.6,122.2l-0.1,0c0-0.1-0.1-0.1-0.1-0.1c0,0-0.1,0-0.1,0.1c0,0.1,0.1,0.1,0.1,0.1c0.1,0,0.2,0,0.2,0.1
					c0,0.1-0.1,0.2-0.2,0.2c0,0,0,0-0.1,0l0.1,0.5l0.3-0.1l0,0.1l0,0l-0.1-0.6l0.1,0l-0.1-0.4L29.6,122.2l0-0.2l-0.1,0
					C29.5,122.1,29.6,122.1,29.6,122.2"/>
				<path class="st23" d="M30.6,123.6L30.6,123.6l0,0.3l0.2-0.1c0-0.1,0-0.1-0.1-0.2C30.7,123.6,30.7,123.5,30.6,123.6"/>
				<polygon class="st23" points="29.9,123.2 30.4,123.9 30.4,123.9 30.2,123.1 				"/>
				<path class="st23" d="M30.5,123.2L30.5,123.2l0,0.2l0.1,0c0.1,0,0.1,0,0.1-0.1C30.7,123.2,30.6,123.2,30.5,123.2"/>
				
					<rect x="31.3" y="123" transform="matrix(0.9753 -0.2209 0.2209 0.9753 -26.4703 9.9912)" class="st23" width="0.2" height="0.7"/>
				<path class="st23" d="M30.9,123.1C30.9,123.1,30.9,123.2,30.9,123.1c0,0.2,0,0.3-0.1,0.3l0,0c0.1,0,0.2,0,0.2,0.2
					c0,0.1,0,0.1,0.1,0.2l0.2,0l-0.1-0.6L30.9,123.1z"/>
				<polygon class="st23" points="29.7,123.9 29.7,124.1 30.1,124 30,123.8 				"/>
				<polygon class="st23" points="29.8,123.4 29.8,123.7 30,123.7 29.8,123.4 				"/>
				<line class="st24" x1="31.4" y1="122.6" x2="31.4" y2="122.7"/>
				<path class="st24" d="M29.2,122.3C29.2,122.3,29.2,122.3,29.2,122.3L29.2,122.3C29.2,122.3,29.2,122.3,29.2,122.3"/>
				<line class="st24" x1="29.3" y1="122.6" x2="29.3" y2="122.5"/>
				<path class="st22" d="M36.2,122.1"/>
			</g>
			<g class="st2">
				<defs>
					
						<rect id="SVGID_35_" x="22.6" y="31.2" transform="matrix(0.9988 -4.826483e-02 4.826483e-02 0.9988 -3.7114 2.7887)" width="66.5" height="94.2"/>
				</defs>
				<clipPath id="SVGID_36_">
					<use xlink:href="#SVGID_35_"  style="overflow:visible;"/>
				</clipPath>
				
					<rect x="29.4" y="121.9" transform="matrix(0.9753 -0.2208 0.2208 0.9753 -26.3802 9.7402)" class="st25" width="2" height="2"/>
			</g>
			<g class="st2">
				<text transform="matrix(0.9975 -4.820135e-02 4.826482e-02 0.9988 32.1003 123.613)"><tspan x="0" y="0" style="fill:#FFFFFF; font-family:'Tahoma'; font-size:0.6711px;">Comic</tspan><tspan x="1.8" y="0" style="fill:#FFFFFF; font-family:'Tahoma'; font-size:0.6711px;">V</tspan><tspan x="2.2" y="0" style="fill:#FFFFFF; font-family:'Tahoma'; font-size:0.6711px;">erlag</tspan></text>
			</g>
			<g class="st2">
				<defs>
					
						<rect id="SVGID_37_" x="22.6" y="31.2" transform="matrix(0.9988 -4.826483e-02 4.826483e-02 0.9988 -3.7114 2.7887)" width="66.5" height="94.2"/>
				</defs>
				<clipPath id="SVGID_38_">
					<use xlink:href="#SVGID_37_"  style="overflow:visible;"/>
				</clipPath>
				<path class="st26" d="M50.3,42.8l-0.1,0c-0.5,0.1-0.8,0.1-1.1,0.1c-0.1,0-0.1,0-0.1,0.1c0.2,1,0.1,0.8,0.1,1.3l0.1,1.4
					c0,0.4,0.1,1.4-0.7,1.4c-0.2,0-0.6-0.2-0.8-0.5c-0.2,0.3-0.5,0.8-0.7,1c0.6,0.4,1.1,0.5,1.6,0.5c0.5,0,1.1-0.2,1.4-0.6
					c0.3-0.4,0.4-0.9,0.4-1.3c0,0,0-0.1-0.1-1.7C50.3,44,50.3,43.2,50.3,42.8"/>
				<path class="st26" d="M54.6,45.1c0,0.2,0,0.6-0.1,0.7c0,0,0,0,0,0.1c-0.3,0.7-1,0.9-1.4,0.9c-0.8,0-1.2-0.6-1.2-1.2
					c0-0.8,0.5-1.7,1.4-1.7C54,43.8,54.6,44.4,54.6,45.1 M55.8,44.8c0-0.9-0.5-1.6-1.6-1.9c-0.2-0.1-0.6-0.2-1-0.2
					c-0.1,0-0.2,0-0.2,0.1c-1.5,0.2-2.4,1.8-2.3,2.9c0,0.8,0.4,1.7,1.4,2.1c0.2,0.1,0.5,0.2,0.6,0.2l0.3,0
					C54.5,47.8,55.9,46.4,55.8,44.8"/>
				<path class="st26" d="M62.4,47.4c-0.5-1.6-0.7-3.1-1.1-5.1c-0.5,0.1-1.2,0.2-1.8,0.3c0,1-0.3,1.9-0.4,3.3c0,0,0,0.1,0,0.1
					c-0.2-0.3-0.2-0.6-0.3-1c-0.2-0.8-0.4-1.6-0.6-2.5c-0.3,0-0.7,0.1-0.8,0.1l-1,0c0,1.2-0.3,2.6-0.6,4.3c0,0.3-0.1,0.7-0.2,0.8
					c0.3,0,0.9,0,0.9,0c0.1,0,0.2,0,0.3,0c0-1,0.3-2.6,0.5-3.7c0,0,0-0.1,0.1-0.1c0.3,1.3,0.6,2.5,0.9,3.7c0.5-0.1,1.1-0.1,1.6-0.2
					c0-0.1,0-0.3,0-0.4c0.2-1.1,0.3-2.2,0.5-3.2c0,0,0,0,0.1,0c0.2,1.2,0.4,2.4,0.6,3.5C61.5,47.4,62,47.4,62.4,47.4"/>
				<path class="st26" d="M69.3,47c-0.5-1.6-0.7-3.1-1.1-5.1c-0.5,0.1-1.2,0.2-1.8,0.3c0,1-0.3,1.9-0.4,3.3c0,0,0,0.1,0,0.1
					c-0.2-0.3-0.2-0.6-0.3-1c-0.2-0.8-0.4-1.6-0.6-2.5c-0.3,0-0.7,0.1-0.8,0.1l-1,0c0,1.2-0.3,2.6-0.6,4.3c0,0.3-0.1,0.7-0.2,0.8
					c0.3,0,0.9,0,0.9,0c0.1,0,0.2,0,0.3,0c0-1,0.3-2.6,0.5-3.7c0,0,0-0.1,0.1-0.1c0.3,1.3,0.6,2.5,0.9,3.7c0.5-0.1,1.1-0.1,1.6-0.2
					c0-0.1,0-0.3,0-0.4c0.2-1.1,0.3-2.2,0.5-3.2c0,0,0,0,0.1,0c0.2,1.2,0.4,2.4,0.6,3.5C68.4,47.1,68.9,47.1,69.3,47"/>
				<path class="st26" d="M73.2,41.7l-0.2,0c-0.1,0-0.3,0.1-0.5,0.1c-0.2,0-0.9,0.1-1,0.1c-0.8,0-1.4,0.1-1.9,0.1
					c0.1,0.7,0.2,2.1,0.2,2.2c0,0.7,0,1.3,0,2c0,0.3-0.1,0.8-0.1,0.9l0,0.1c1.1-0.1,1.7-0.1,2.4-0.2c0.1,0,0.7,0,1.1,0
					c0-0.4,0-0.8,0-1.1l0,0l-0.2,0c-0.1,0-0.8,0.1-1.2,0.1c-0.2,0-0.4,0-0.5,0c-0.2,0-0.3,0-0.4,0c0-0.3,0-0.8,0-1c0,0,0,0,0.1-0.1
					c0.1,0,0.4,0,1.1,0c0.3,0,0.6,0,1.1,0c-0.1-0.2-0.1-0.5-0.1-0.8c0-0.1,0-0.2,0-0.3l0-0.1c-1.3,0.1-2.1,0.1-2.2,0.1
					c0-0.8,0-0.8,0-0.8c1.9-0.1,2.1-0.1,2.2-0.1C73.1,42.5,73.1,42,73.2,41.7"/>
				<path class="st26" d="M77.8,45.7c-0.6-0.4-1.4-1-2.2-1.7c0.7-0.5,1.3-1,2-1.3c-0.2-0.4-0.4-0.8-0.6-1.2
					c-0.8,0.8-1.5,1.3-2.2,1.7c-0.1-0.4-0.1-1-0.1-1.5c-0.4,0.1-0.9,0.1-1.3,0.2l0,0.1c0,0.1,0.1,0.6,0.2,0.9c0,0.1,0,0.3,0,0.4
					c0,0,0,0,0,0l0.1,1.1c0,0.1,0,1.7,0,2.5c0.2,0,0.3,0,1.4-0.1l0-0.2c0-0.1-0.2-1.5-0.2-1.6c0-0.1,0-0.2,0-0.3
					c0.6,0.5,1.4,1.2,2.1,2C77.2,46.5,77.6,45.9,77.8,45.7"/>
				<path class="st26" d="M81.4,41.3l-0.2,0c-0.1,0-0.3,0.1-0.5,0.1c-0.2,0-0.9,0.1-1,0.1c-0.8,0-1.4,0.1-1.9,0.1
					c0.1,0.7,0.2,2.1,0.2,2.2c0,0.7,0,1.3,0,2c0,0.3-0.1,0.8-0.1,0.9l0,0.1c1.1-0.1,1.7-0.1,2.4-0.2c0.1,0,0.7,0,1.1,0
					c0-0.4,0-0.8,0-1.1l0,0l-0.2,0c-0.1,0-0.8,0.1-1.2,0.1c-0.2,0-0.4,0-0.5,0c-0.2,0-0.3,0-0.4,0c0-0.3,0-0.8,0-1c0,0,0,0,0.1-0.1
					c0.1,0,0.4,0,1.1,0c0.3,0,0.6,0,1.1,0c-0.1-0.2-0.1-0.5-0.1-0.8c0-0.1,0-0.2,0-0.3l0-0.1c-1.3,0.1-2.1,0.1-2.2,0.1
					c0-0.8,0-0.8,0-0.8c1.9-0.1,2.1-0.1,2.2-0.1C81.3,42.1,81.3,41.6,81.4,41.3"/>
			</g>
			<g class="st2">
				<defs>
					<path id="SVGID_39_" d="M23.1,57l0.1,3.1l11.7-0.6l0-0.9c-0.3,0-0.6,0.1-1,0.1l0,0c-2.4,0.1-4.6-0.6-6.4-1.9L23.1,57z"/>
				</defs>
				<clipPath id="SVGID_40_">
					<use xlink:href="#SVGID_39_"  style="overflow:visible;"/>
				</clipPath>
				<g class="st27">
					<defs>
						
							<rect id="SVGID_41_" x="23.1" y="56.7" transform="matrix(0.9988 -4.826483e-02 4.826483e-02 0.9988 -2.7767 1.4673)" width="11.7" height="3.1"/>
					</defs>
					<clipPath id="SVGID_42_">
						<use xlink:href="#SVGID_41_"  style="overflow:visible;"/>
					</clipPath>
					<g transform="matrix(1 0 -3.725290e-09 1 -1.907349e-06 0)" style="clip-path:url(#SVGID_42_);">
						
							<image style="overflow:visible;" width="437" height="117" xlink:href="21A683AE1A905DBB.jpg"  transform="matrix(2.676106e-02 -1.293125e-03 1.287264e-03 2.663977e-02 23.0719 56.9541)">
						</image>
					</g>
				</g>
			</g>
			<g class="st2">
				<defs>
					<path id="SVGID_43_" d="M45.5,55.9l0,2.9l-8.2-0.9c-0.8,0.3-1.6,0.6-2.5,0.7l0,0.9l11.7-0.6l-0.1-3.1L45.5,55.9z"/>
				</defs>
				<clipPath id="SVGID_44_">
					<use xlink:href="#SVGID_43_"  style="overflow:visible;"/>
				</clipPath>
				<g class="st28">
					<defs>
						
							<rect id="SVGID_45_" x="34.8" y="56.1" transform="matrix(0.9988 -4.826483e-02 4.826483e-02 0.9988 -2.7358 2.0304)" width="11.7" height="3.1"/>
					</defs>
					<clipPath id="SVGID_46_">
						<use xlink:href="#SVGID_45_"  style="overflow:visible;"/>
					</clipPath>
					<g transform="matrix(1 0 -3.725290e-09 1 0 3.814697e-06)" style="clip-path:url(#SVGID_46_);">
						
							<image style="overflow:visible;" width="437" height="117" xlink:href="21A683AE1A905DB6.jpg"  transform="matrix(2.676106e-02 -1.293125e-03 1.287264e-03 2.663977e-02 34.7531 56.3897)">
						</image>
					</g>
				</g>
			</g>
			<g class="st2">
				<defs>
					<polygon id="SVGID_47_" points="22.2,37.9 22.3,40.4 23.9,40.3 23.5,38.1 37.8,37.6 37.7,37.2 					"/>
				</defs>
				<clipPath id="SVGID_48_">
					<use xlink:href="#SVGID_47_"  style="overflow:visible;"/>
				</clipPath>
				<g class="st29">
					<defs>
						
							<rect id="SVGID_49_" x="22.2" y="37.5" transform="matrix(0.9988 -4.826483e-02 4.826483e-02 0.9988 -1.8352 1.4933)" width="15.6" height="2.5"/>
					</defs>
					<clipPath id="SVGID_50_">
						<use xlink:href="#SVGID_49_"  style="overflow:visible;"/>
					</clipPath>
					<g transform="matrix(1 0 0 1 0 0)" style="clip-path:url(#SVGID_50_);">
						
							<image style="overflow:visible;" width="583" height="92" xlink:href="21A683AE1A905DB7.jpg"  transform="matrix(2.673951e-02 -1.292083e-03 1.292551e-03 2.674918e-02 22.1493 37.8949)">
						</image>
					</g>
				</g>
			</g>
			<g class="st2">
				<defs>
					<polygon id="SVGID_51_" points="37.7,37.2 37.7,37.6 45.4,37.3 45.4,39.2 45.6,39.2 45.5,36.8 					"/>
				</defs>
				<clipPath id="SVGID_52_">
					<use xlink:href="#SVGID_51_"  style="overflow:visible;"/>
				</clipPath>
				<g class="st30">
					<defs>
						
							<rect id="SVGID_53_" x="37.8" y="37" transform="matrix(0.9988 -4.826483e-02 4.826483e-02 0.9988 -1.7944 2.0564)" width="7.8" height="2.5"/>
					</defs>
					<clipPath id="SVGID_54_">
						<use xlink:href="#SVGID_53_"  style="overflow:visible;"/>
					</clipPath>
					<g transform="matrix(1 -3.725290e-09 0 1 0 0)" style="clip-path:url(#SVGID_54_);">
						
							<image style="overflow:visible;" width="292" height="92" xlink:href="21A683AE1A905DC8.jpg"  transform="matrix(2.671593e-02 -1.290944e-03 1.292551e-03 2.674918e-02 37.7255 37.1422)">
						</image>
					</g>
				</g>
			</g>
			<g class="st2">
				<defs>
					<polygon id="SVGID_55_" points="22.3,40.3 22.4,42.8 24.4,42.7 23.9,40.3 					"/>
				</defs>
				<clipPath id="SVGID_56_">
					<use xlink:href="#SVGID_55_"  style="overflow:visible;"/>
				</clipPath>
				<g class="st31">
					<defs>
						
							<rect id="SVGID_57_" x="22.3" y="40.2" transform="matrix(0.9988 -4.826483e-02 4.826483e-02 0.9988 -1.9737 1.2203)" width="3.9" height="2.5"/>
					</defs>
					<clipPath id="SVGID_58_">
						<use xlink:href="#SVGID_57_"  style="overflow:visible;"/>
					</clipPath>
					<g transform="matrix(1 0 0 1 0 0)" style="clip-path:url(#SVGID_58_);">
						
							<image style="overflow:visible;" width="147" height="92" xlink:href="21A683AE1A905DCB.jpg"  transform="matrix(2.660036e-02 -1.285360e-03 1.292551e-03 2.674918e-02 22.2676 40.3428)">
						</image>
					</g>
				</g>
			</g>
			<g class="st2">
				<defs>
					<polygon id="SVGID_59_" points="45.4,39.2 45.4,41.7 45.8,41.7 45.6,39.2 					"/>
				</defs>
				<clipPath id="SVGID_60_">
					<use xlink:href="#SVGID_59_"  style="overflow:visible;"/>
				</clipPath>
				<g class="st32">
					<defs>
						
							<rect id="SVGID_61_" x="41.8" y="39.3" transform="matrix(0.9988 -4.826483e-02 4.826483e-02 0.9988 -1.9056 2.1589)" width="3.9" height="2.5"/>
					</defs>
					<clipPath id="SVGID_62_">
						<use xlink:href="#SVGID_61_"  style="overflow:visible;"/>
					</clipPath>
					<g transform="matrix(1 0 0 1 0 0)" style="clip-path:url(#SVGID_62_);">
						
							<image style="overflow:visible;" width="146" height="92" xlink:href="DD110829D6DD8BE7.jpg"  transform="matrix(2.673813e-02 -1.292017e-03 1.292551e-03 2.674918e-02 41.7411 39.4019)">
						</image>
					</g>
				</g>
			</g>
			<g class="st2">
				<defs>
					<path id="SVGID_63_" d="M22.4,42.8L23.1,57l4.5-0.2c-0.3-0.2-0.6-0.4-0.9-0.7c-1.9-1.7-3.1-4.2-3.3-7c-0.1-1.9,0.4-3.7,1.2-5.3
						l-0.2-1.1L22.4,42.8z M45.4,41.7l0.1,14.2l0.9,0l-0.7-14.2L45.4,41.7z"/>
				</defs>
				<clipPath id="SVGID_64_">
					<use xlink:href="#SVGID_63_"  style="overflow:visible;"/>
				</clipPath>
				<g class="st33">
					<defs>
						
							<rect id="SVGID_65_" x="22.7" y="42.2" transform="matrix(0.9988 -4.826483e-02 4.826483e-02 0.9988 -2.3401 1.7187)" width="23.4" height="14.3"/>
					</defs>
					<clipPath id="SVGID_66_">
						<use xlink:href="#SVGID_65_"  style="overflow:visible;"/>
					</clipPath>
					<g transform="matrix(1 0 0 1 -1.907349e-06 3.814697e-06)" style="clip-path:url(#SVGID_66_);">
						
							<image style="overflow:visible;" width="874" height="531" xlink:href="DD110829D6DD8BE5.jpg"  transform="matrix(2.677637e-02 -1.293865e-03 1.295569e-03 2.681163e-02 22.3734 42.7628)">
						</image>
					</g>
				</g>
			</g>
			<g class="st2">
				<defs>
					
						<rect id="SVGID_67_" x="22.6" y="31.2" transform="matrix(0.9988 -4.826483e-02 4.826483e-02 0.9988 -3.7114 2.7887)" width="66.5" height="94.2"/>
				</defs>
				<clipPath id="SVGID_68_">
					<use xlink:href="#SVGID_67_"  style="overflow:visible;"/>
				</clipPath>
				<path class="st34" d="M33.9,58.1c5.2-0.3,9.3-4.7,9-10c-0.3-5.2-4.7-9.3-9.9-9c-5.2,0.3-9.3,4.7-9,10
					C24.2,54.3,28.7,58.4,33.9,58.1"/>
			</g>
			<g class="st2">
				<defs>
					<path id="SVGID_69_" d="M24.5,49.1c0.1,2.5,1.2,4.7,2.9,6.2c0.2,0.2,0.4,0.3,0.6,0.5l-0.1-1.6L26.4,53L25,45.7
						C24.6,46.7,24.4,47.9,24.5,49.1"/>
				</defs>
				<clipPath id="SVGID_70_">
					<use xlink:href="#SVGID_69_"  style="overflow:visible;"/>
				</clipPath>
				<g class="st35">
					<defs>
						
							<rect id="SVGID_71_" x="24.6" y="45.6" transform="matrix(0.9988 -4.826483e-02 4.826483e-02 0.9988 -2.4686 1.3246)" width="3.2" height="12.4"/>
					</defs>
					<clipPath id="SVGID_72_">
						<use xlink:href="#SVGID_71_"  style="overflow:visible;"/>
					</clipPath>
					<g transform="matrix(1 0 0 1 1.907349e-06 0)" style="clip-path:url(#SVGID_72_);">
						
							<image style="overflow:visible;" width="120" height="461" xlink:href="DD110829D6DD8BE3.jpg"  transform="matrix(2.656227e-02 -1.283519e-03 1.295488e-03 2.680996e-02 24.3017 45.6773)">
						</image>
					</g>
				</g>
			</g>
			<g class="st2">
				<defs>
					<path id="SVGID_73_" d="M28,55.7c1,0.7,2.1,1.3,3.3,1.6l0-0.5l-3.3-2.7L28,55.7z"/>
				</defs>
				<clipPath id="SVGID_74_">
					<use xlink:href="#SVGID_73_"  style="overflow:visible;"/>
				</clipPath>
				<g class="st36">
					<defs>
						
							<rect id="SVGID_75_" x="27.9" y="51.6" transform="matrix(0.9988 -4.826483e-02 4.826483e-02 0.9988 -2.6064 1.4882)" width="3.2" height="6.2"/>
					</defs>
					<clipPath id="SVGID_76_">
						<use xlink:href="#SVGID_75_"  style="overflow:visible;"/>
					</clipPath>
					<g transform="matrix(1 0 -3.725290e-09 1 0 0)" style="clip-path:url(#SVGID_76_);">
						
							<image style="overflow:visible;" width="119" height="231" xlink:href="DD110829D6DD8BFD.jpg"  transform="matrix(2.672333e-02 -1.291302e-03 1.293458e-03 2.676795e-02 27.7728 51.6999)">
						</image>
					</g>
				</g>
			</g>
			<g class="st2">
				<defs>
					<path id="SVGID_77_" d="M31.2,57.3c0.8,0.2,1.7,0.3,2.7,0.3c0.2,0,0.4,0,0.5,0l-2.7-0.3l-0.6-0.4L31.2,57.3z"/>
				</defs>
				<clipPath id="SVGID_78_">
					<use xlink:href="#SVGID_77_"  style="overflow:visible;"/>
				</clipPath>
				<g class="st37">
					<defs>
						
							<rect id="SVGID_79_" x="31.2" y="54.5" transform="matrix(0.9988 -4.826483e-02 4.826483e-02 0.9988 -2.6696 1.6463)" width="3.2" height="3.1"/>
					</defs>
					<clipPath id="SVGID_80_">
						<use xlink:href="#SVGID_79_"  style="overflow:visible;"/>
					</clipPath>
					<g transform="matrix(1 -3.725290e-09 0 1 0 0)" style="clip-path:url(#SVGID_80_);">
						
							<image style="overflow:visible;" width="120" height="116" xlink:href="DD110829D6DD8BFF.jpg"  transform="matrix(2.656227e-02 -1.283519e-03 1.292510e-03 2.674833e-02 31.0869 54.6276)">
						</image>
					</g>
				</g>
			</g>
			<g class="st2">
				<defs>
					
						<rect id="SVGID_81_" x="22.6" y="31.2" transform="matrix(0.9988 -4.826483e-02 4.826483e-02 0.9988 -3.7114 2.7887)" width="66.5" height="94.2"/>
				</defs>
				<clipPath id="SVGID_82_">
					<use xlink:href="#SVGID_81_"  style="overflow:visible;"/>
				</clipPath>
				<path class="st38" d="M33.9,58.1l0,0.5c2.8-0.1,5.2-1.4,6.9-3.3c1.7-1.9,2.7-4.5,2.6-7.2c-0.1-2.8-1.4-5.2-3.3-7
					c-1.9-1.7-4.5-2.7-7.2-2.6c-2.8,0.1-5.2,1.4-6.9,3.3c-1.7,1.9-2.7,4.5-2.6,7.2c0.1,2.8,1.4,5.2,3.3,7c1.9,1.7,4.5,2.7,7.2,2.6
					L33.9,58.1l0-0.5c-2.5,0.1-4.8-0.8-6.5-2.3c-1.7-1.5-2.8-3.7-2.9-6.2c-0.1-2.5,0.8-4.8,2.3-6.5c1.5-1.7,3.7-2.8,6.2-2.9
					c2.5-0.1,4.8,0.8,6.5,2.3c1.7,1.5,2.8,3.7,2.9,6.2c0.1,2.5-0.8,4.8-2.3,6.5c-1.5,1.7-3.7,2.8-6.2,2.9L33.9,58.1"/>
			</g>
			<g class="st2">
				<defs>
					<path id="SVGID_83_" d="M23.9,49.1c0.3,5.2,4.7,9.3,9.9,9c5.2-0.3,9.3-4.7,9-10c-0.3-5.2-4.7-9.3-9.9-9
						C27.7,39.4,23.7,43.8,23.9,49.1"/>
				</defs>
				<clipPath id="SVGID_84_">
					<use xlink:href="#SVGID_83_"  style="overflow:visible;"/>
				</clipPath>
				<g class="st39">
					<defs>
						
							<rect id="SVGID_85_" x="23.8" y="39" transform="matrix(0.9988 -4.826483e-02 4.826483e-02 0.9988 -2.3078 1.6704)" width="19.2" height="19.2"/>
					</defs>
					<clipPath id="SVGID_86_">
						<use xlink:href="#SVGID_85_"  style="overflow:visible;"/>
					</clipPath>
					
						<g transform="matrix(6.693874e-03 -3.234556e-04 3.238504e-04 6.702043e-03 23.3715 39.4756)" style="clip-path:url(#SVGID_86_);">
						
							<image style="overflow:visible;" width="2868" height="2868" xlink:href="DD110829D6DD8BFD.png"  transform="matrix(6.693874e-03 -3.234556e-04 3.238504e-04 6.702043e-03 23.3715 39.4756)">
						</image>
					</g>
				</g>
			</g>
			<g class="st2">
				<defs>
					
						<rect id="SVGID_87_" x="22.6" y="31.2" transform="matrix(0.9988 -4.826483e-02 4.826483e-02 0.9988 -3.7114 2.7887)" width="66.5" height="94.2"/>
				</defs>
				<clipPath id="SVGID_88_">
					<use xlink:href="#SVGID_87_"  style="overflow:visible;"/>
				</clipPath>
				<path class="st40" d="M33.9,58.1l0,0.5c2.8-0.1,5.2-1.4,6.9-3.3c1.7-1.9,2.7-4.5,2.6-7.2c-0.1-2.8-1.4-5.2-3.3-7
					c-1.9-1.7-4.5-2.7-7.2-2.6c-2.8,0.1-5.2,1.4-6.9,3.3c-1.7,1.9-2.7,4.5-2.6,7.2c0.1,2.8,1.4,5.2,3.3,7c1.9,1.7,4.5,2.7,7.2,2.6
					L33.9,58.1l0-0.5c-2.5,0.1-4.8-0.8-6.5-2.3c-1.7-1.5-2.8-3.7-2.9-6.2c-0.1-2.5,0.8-4.8,2.3-6.5c1.5-1.7,3.7-2.8,6.2-2.9
					c2.5-0.1,4.8,0.8,6.5,2.3c1.7,1.5,2.8,3.7,2.9,6.2c0.1,2.5-0.8,4.8-2.3,6.5c-1.5,1.7-3.7,2.8-6.2,2.9L33.9,58.1"/>
			</g>
			<g class="st2">
				<defs>
					<path id="SVGID_89_" d="M40.1,56.1c-0.8,0.7-1.7,1.3-2.7,1.7l8.2,0.9l0-2.9L40.1,56.1z"/>
				</defs>
				<clipPath id="SVGID_90_">
					<use xlink:href="#SVGID_89_"  style="overflow:visible;"/>
				</clipPath>
				<g class="st41">
					<defs>
						
							<rect id="SVGID_91_" x="37.3" y="56.1" transform="matrix(0.9988 -4.826483e-02 4.826483e-02 0.9988 -2.7287 2.0674)" width="8.3" height="2.9"/>
					</defs>
					<clipPath id="SVGID_92_">
						<use xlink:href="#SVGID_91_"  style="overflow:visible;"/>
					</clipPath>
					<g transform="matrix(1 3.725290e-09 0 1 -3.814697e-06 0)" style="clip-path:url(#SVGID_92_);">
						
							<image style="overflow:visible;" width="308" height="109" xlink:href="DD110829D6DD8BE2.jpg"  transform="matrix(2.677637e-02 -1.293865e-03 1.295569e-03 2.681164e-02 37.2503 56.2757)">
						</image>
					</g>
				</g>
			</g>
			<g class="st2">
				<defs>
					<path id="SVGID_93_" d="M24.4,42.7l1,0c0.2-0.3,0.4-0.5,0.6-0.8c1.3-1.4,2.9-2.4,4.8-3l-0.1-1.1l-7.3,0.3L24.4,42.7z"/>
				</defs>
				<clipPath id="SVGID_94_">
					<use xlink:href="#SVGID_93_"  style="overflow:visible;"/>
				</clipPath>
				<g class="st42">
					<defs>
						
							<rect id="SVGID_95_" x="23.6" y="37.9" transform="matrix(0.9988 -4.826483e-02 4.826483e-02 0.9988 -1.9103 1.3614)" width="7.3" height="4.7"/>
					</defs>
					<clipPath id="SVGID_96_">
						<use xlink:href="#SVGID_95_"  style="overflow:visible;"/>
					</clipPath>
					<g transform="matrix(1 0 3.725290e-09 1 -1.907349e-06 0)" style="clip-path:url(#SVGID_96_);">
						
							<image style="overflow:visible;" width="274" height="174" xlink:href="DD110829D6DD8BE6.jpg"  transform="matrix(2.669599e-02 -1.289981e-03 1.292904e-03 2.675648e-02 23.465 38.0852)">
						</image>
					</g>
				</g>
			</g>
			<g class="st2">
				<defs>
					<path id="SVGID_97_" d="M30.8,38.9c0.7-0.2,1.4-0.3,2.1-0.3l0,0c1.8-0.1,3.6,0.3,5.1,1.1l7.3-0.4l0-2.1l-14.6,0.5L30.8,38.9z"
						/>
				</defs>
				<clipPath id="SVGID_98_">
					<use xlink:href="#SVGID_97_"  style="overflow:visible;"/>
				</clipPath>
				<g class="st43">
					<defs>
						
							<rect id="SVGID_99_" x="30.8" y="37.4" transform="matrix(0.9988 -4.826483e-02 4.826483e-02 0.9988 -1.8161 1.8852)" width="14.6" height="2.3"/>
					</defs>
					<clipPath id="SVGID_100_">
						<use xlink:href="#SVGID_99_"  style="overflow:visible;"/>
					</clipPath>
					<g transform="matrix(1 0 0 1 -1.907349e-06 -3.814697e-06)" style="clip-path:url(#SVGID_100_);">
						
							<image style="overflow:visible;" width="546" height="88" xlink:href="DD110829D6DD8BE1.jpg"  transform="matrix(2.675815e-02 -1.292984e-03 1.283559e-03 2.656310e-02 30.7667 37.7323)">
						</image>
					</g>
				</g>
			</g>
			<g class="st2">
				<defs>
					<path id="SVGID_101_" d="M38.1,39.7c0.8,0.4,1.5,0.9,2.1,1.5c0.2,0.2,0.5,0.5,0.7,0.7l4.5-0.2l0-2.3L38.1,39.7z"/>
				</defs>
				<clipPath id="SVGID_102_">
					<use xlink:href="#SVGID_101_"  style="overflow:visible;"/>
				</clipPath>
				<g class="st44">
					<defs>
						
							<rect id="SVGID_103_" x="34.6" y="39.6" transform="matrix(0.9988 -4.826483e-02 4.826483e-02 0.9988 -1.9216 1.9813)" width="11" height="2.3"/>
					</defs>
					<clipPath id="SVGID_104_">
						<use xlink:href="#SVGID_103_"  style="overflow:visible;"/>
					</clipPath>
					<g transform="matrix(1 0 0 1 0 0)" style="clip-path:url(#SVGID_104_);">
						
							<image style="overflow:visible;" width="410" height="87" xlink:href="DD110829D6DD8BE0.jpg"  transform="matrix(2.672947e-02 -1.291598e-03 1.294707e-03 2.679379e-02 34.5299 39.8805)">
						</image>
					</g>
				</g>
			</g>
			<g class="st2">
				<defs>
					<path id="SVGID_105_" d="M24.4,42.7l0.2,1.1c0.2-0.4,0.5-0.8,0.8-1.2L24.4,42.7z"/>
				</defs>
				<clipPath id="SVGID_106_">
					<use xlink:href="#SVGID_105_"  style="overflow:visible;"/>
				</clipPath>
				<g class="st45">
					<defs>
						
							<rect id="SVGID_107_" x="24.5" y="42.6" transform="matrix(0.9988 -4.826483e-02 4.826483e-02 0.9988 -2.1114 1.3171)" width="3.5" height="3.6"/>
					</defs>
					<clipPath id="SVGID_108_">
						<use xlink:href="#SVGID_107_"  style="overflow:visible;"/>
					</clipPath>
					<g transform="matrix(1 -3.725290e-09 0 1 0 0)" style="clip-path:url(#SVGID_108_);">
						
							<image style="overflow:visible;" width="132" height="133" xlink:href="DD110829D6DD8C06.jpg"  transform="matrix(2.666872e-02 -1.288663e-03 1.294110e-03 2.678145e-02 24.3719 42.6826)">
						</image>
					</g>
				</g>
			</g>
			<g class="st2">
				<defs>
					<path id="SVGID_109_" d="M40.9,41.9c0.9,1,1.6,2.2,2,3.5l2.5-0.1l0-3.6L40.9,41.9z"/>
				</defs>
				<clipPath id="SVGID_110_">
					<use xlink:href="#SVGID_109_"  style="overflow:visible;"/>
				</clipPath>
				<g class="st46">
					<defs>
						
							<rect id="SVGID_111_" x="38.5" y="41.8" transform="matrix(0.9988 -4.826483e-02 4.826483e-02 0.9988 -2.0562 2.0776)" width="7" height="3.6"/>
					</defs>
					<clipPath id="SVGID_112_">
						<use xlink:href="#SVGID_111_"  style="overflow:visible;"/>
					</clipPath>
					<g transform="matrix(1 0 0 1 0 0)" style="clip-path:url(#SVGID_112_);">
						
							<image style="overflow:visible;" width="263" height="133" xlink:href="DD110829D6DD8C05.jpg"  transform="matrix(2.671388e-02 -1.290845e-03 1.294110e-03 2.678145e-02 38.3939 42.005)">
						</image>
					</g>
				</g>
			</g>
			<g class="st2">
				<defs>
					<path id="SVGID_113_" d="M42.9,45.3c0.3,0.9,0.5,1.8,0.5,2.8c0.1,1.8-0.3,3.4-1,4.9l0.1,3l2.9-0.1l-0.1-10.7L42.9,45.3z"/>
				</defs>
				<clipPath id="SVGID_114_">
					<use xlink:href="#SVGID_113_"  style="overflow:visible;"/>
				</clipPath>
				<g class="st47">
					<defs>
						
							<rect id="SVGID_115_" x="42.3" y="45.3" transform="matrix(0.9988 -4.826483e-02 4.826483e-02 0.9988 -2.3921 2.1869)" width="3.5" height="10.7"/>
					</defs>
					<clipPath id="SVGID_116_">
						<use xlink:href="#SVGID_115_"  style="overflow:visible;"/>
					</clipPath>
					<g transform="matrix(1 -3.725290e-09 -3.725290e-09 1 0 0)" style="clip-path:url(#SVGID_116_);">
						
							<image style="overflow:visible;" width="132" height="398" xlink:href="DD110829D6DD8C02.jpg"  transform="matrix(2.666872e-02 -1.288663e-03 1.293765e-03 2.677432e-02 42.0707 45.3828)">
						</image>
					</g>
				</g>
			</g>
			<g class="st2">
				<defs>
					<path id="SVGID_117_" d="M40.9,55.4c-0.2,0.3-0.5,0.5-0.8,0.8l2.5-0.1l-0.1-3C42,53.9,41.5,54.7,40.9,55.4"/>
				</defs>
				<clipPath id="SVGID_118_">
					<use xlink:href="#SVGID_117_"  style="overflow:visible;"/>
				</clipPath>
				<g class="st48">
					<defs>
						
							<rect id="SVGID_119_" x="39" y="52.6" transform="matrix(0.9988 -4.826483e-02 4.826483e-02 0.9988 -2.5753 2.0303)" width="3.5" height="3.6"/>
					</defs>
					<clipPath id="SVGID_120_">
						<use xlink:href="#SVGID_119_"  style="overflow:visible;"/>
					</clipPath>
					<g transform="matrix(1 -3.725290e-09 0 1 3.814697e-06 0)" style="clip-path:url(#SVGID_120_);">
						
							<image style="overflow:visible;" width="132" height="133" xlink:href="DD110829D6DD8C0D.jpg"  transform="matrix(2.666872e-02 -1.288663e-03 1.294110e-03 2.678145e-02 38.9081 52.6464)">
						</image>
					</g>
				</g>
			</g>
			<g class="st2">
				<defs>
					<path id="SVGID_121_" d="M26.8,42.6c-0.3,0.3-0.5,0.6-0.8,1l2.3-0.1l-0.1-2.2C27.7,41.7,27.2,42.1,26.8,42.6"/>
				</defs>
				<clipPath id="SVGID_122_">
					<use xlink:href="#SVGID_121_"  style="overflow:visible;"/>
				</clipPath>
				<g class="st49">
					<defs>
						
							<rect id="SVGID_123_" x="24.8" y="40" transform="matrix(0.9988 -4.826483e-02 4.826483e-02 0.9988 -1.9848 1.3281)" width="3.5" height="3.6"/>
					</defs>
					<clipPath id="SVGID_124_">
						<use xlink:href="#SVGID_123_"  style="overflow:visible;"/>
					</clipPath>
					<g transform="matrix(1 0 -3.725290e-09 1 0 0)" style="clip-path:url(#SVGID_124_);">
						
							<image style="overflow:visible;" width="130" height="134" xlink:href="DD110829D6DD8C0E.jpg"  transform="matrix(2.659184e-02 -1.284948e-03 1.293623e-03 2.677137e-02 24.6928 40.0537)">
						</image>
					</g>
				</g>
			</g>
			<g class="st2">
				<defs>
					<path id="SVGID_125_" d="M28.2,41.3l0.1,2.2l3.5-0.2l-0.2-3.5C30.4,40.1,29.2,40.6,28.2,41.3"/>
				</defs>
				<clipPath id="SVGID_126_">
					<use xlink:href="#SVGID_125_"  style="overflow:visible;"/>
				</clipPath>
				<g class="st50">
					<defs>
						
							<rect id="SVGID_127_" x="28.2" y="39.8" transform="matrix(0.9988 -4.826483e-02 4.826483e-02 0.9988 -1.9728 1.4945)" width="3.5" height="3.6"/>
					</defs>
					<clipPath id="SVGID_128_">
						<use xlink:href="#SVGID_127_"  style="overflow:visible;"/>
					</clipPath>
					<g transform="matrix(1 0 0 1 -1.907349e-06 0)" style="clip-path:url(#SVGID_128_);">
						
							<image style="overflow:visible;" width="130" height="134" xlink:href="DD110829D6DD8C0C.jpg"  transform="matrix(2.657762e-02 -1.284261e-03 1.293623e-03 2.677137e-02 28.146 39.8869)">
						</image>
					</g>
				</g>
			</g>
			<g class="st2">
				<defs>
					<path id="SVGID_129_" d="M31.6,39.8l0.2,3.5l3.5-0.2l-0.2-3.3c-0.7-0.1-1.4-0.2-2.1-0.1C32.5,39.7,32.1,39.7,31.6,39.8"/>
				</defs>
				<clipPath id="SVGID_130_">
					<use xlink:href="#SVGID_129_"  style="overflow:visible;"/>
				</clipPath>
				<g class="st51">
					<defs>
						
							<rect id="SVGID_131_" x="31.7" y="39.6" transform="matrix(0.9988 -4.826483e-02 4.826483e-02 0.9988 -1.9607 1.6609)" width="3.5" height="3.6"/>
					</defs>
					<clipPath id="SVGID_132_">
						<use xlink:href="#SVGID_131_"  style="overflow:visible;"/>
					</clipPath>
					<g transform="matrix(1 0 -3.725290e-09 1 0 0)" style="clip-path:url(#SVGID_132_);">
						
							<image style="overflow:visible;" width="130" height="134" xlink:href="DD110829D6DD8C03.jpg"  transform="matrix(2.659184e-02 -1.284948e-03 1.293623e-03 2.677137e-02 31.5974 39.7201)">
						</image>
					</g>
				</g>
			</g>
			<g class="st2">
				<defs>
					<path id="SVGID_133_" d="M35.2,43.1l3.5-0.2l-0.1-1.7c-1-0.7-2.2-1.3-3.5-1.5L35.2,43.1z"/>
				</defs>
				<clipPath id="SVGID_134_">
					<use xlink:href="#SVGID_133_"  style="overflow:visible;"/>
				</clipPath>
				<g class="st52">
					<defs>
						
							<rect id="SVGID_135_" x="35.1" y="39.5" transform="matrix(0.9988 -4.826483e-02 4.826483e-02 0.9988 -1.9486 1.8274)" width="3.5" height="3.6"/>
					</defs>
					<clipPath id="SVGID_136_">
						<use xlink:href="#SVGID_135_"  style="overflow:visible;"/>
					</clipPath>
					<g transform="matrix(1 0 0 1 0 0)" style="clip-path:url(#SVGID_136_);">
						
							<image style="overflow:visible;" width="130" height="134" xlink:href="DD110829D6DD8C04.jpg"  transform="matrix(2.657762e-02 -1.284261e-03 1.293623e-03 2.677137e-02 35.0507 39.5532)">
						</image>
					</g>
				</g>
			</g>
			<g class="st2">
				<defs>
					<path id="SVGID_137_" d="M38.7,43l1.7-0.1c-0.3-0.3-0.6-0.6-0.9-0.9c-0.3-0.2-0.6-0.5-0.9-0.7L38.7,43z"/>
				</defs>
				<clipPath id="SVGID_138_">
					<use xlink:href="#SVGID_137_"  style="overflow:visible;"/>
				</clipPath>
				<g class="st53">
					<defs>
						
							<rect id="SVGID_139_" x="38.6" y="39.3" transform="matrix(0.9988 -4.826483e-02 4.826483e-02 0.9988 -1.9365 1.9938)" width="3.5" height="3.6"/>
					</defs>
					<clipPath id="SVGID_140_">
						<use xlink:href="#SVGID_139_"  style="overflow:visible;"/>
					</clipPath>
					<g transform="matrix(1 0 -3.725290e-09 1 3.814697e-06 0)" style="clip-path:url(#SVGID_140_);">
						
							<image style="overflow:visible;" width="130" height="134" xlink:href="DD110829D6DD8C07.jpg"  transform="matrix(2.659184e-02 -1.284948e-03 1.293623e-03 2.677137e-02 38.5021 39.3864)">
						</image>
					</g>
				</g>
			</g>
			<g class="st2">
				<defs>
					<path id="SVGID_141_" d="M26,43.6c-0.4,0.6-0.8,1.3-1,2.1l0.3,1.6l3.2-0.2l-0.2-3.6L26,43.6z"/>
				</defs>
				<clipPath id="SVGID_142_">
					<use xlink:href="#SVGID_141_"  style="overflow:visible;"/>
				</clipPath>
				<g class="st54">
					<defs>
						
							<rect id="SVGID_143_" x="25" y="43.6" transform="matrix(0.9988 -4.826483e-02 4.826483e-02 0.9988 -2.1576 1.3406)" width="3.5" height="3.6"/>
					</defs>
					<clipPath id="SVGID_144_">
						<use xlink:href="#SVGID_143_"  style="overflow:visible;"/>
					</clipPath>
					<g transform="matrix(1 0 -3.725290e-09 1 0 0)" style="clip-path:url(#SVGID_144_);">
						
							<image style="overflow:visible;" width="130" height="134" xlink:href="DD110829D6DD8C3B.jpg"  transform="matrix(2.659184e-02 -1.284948e-03 1.293623e-03 2.677137e-02 24.866 43.6374)">
						</image>
					</g>
				</g>
			</g>
			<g class="st2">
				<defs>
					
						<rect id="SVGID_145_" x="28.4" y="43.4" transform="matrix(0.9988 -4.826483e-02 4.826483e-02 0.9988 -2.1455 1.507)" width="3.5" height="3.6"/>
				</defs>
				<clipPath id="SVGID_146_">
					<use xlink:href="#SVGID_145_"  style="overflow:visible;"/>
				</clipPath>
				<g class="st55">
					<defs>
						
							<rect id="SVGID_147_" x="28.4" y="43.4" transform="matrix(0.9988 -4.826483e-02 4.826483e-02 0.9988 -2.1455 1.507)" width="3.5" height="3.6"/>
					</defs>
					<clipPath id="SVGID_148_">
						<use xlink:href="#SVGID_147_"  style="overflow:visible;"/>
					</clipPath>
					<g transform="matrix(1 0 0 1 0 3.814697e-06)" style="clip-path:url(#SVGID_148_);">
						
							<image style="overflow:visible;" width="130" height="134" xlink:href="DD110829D6DD8C29.jpg"  transform="matrix(2.657762e-02 -1.284261e-03 1.293623e-03 2.677137e-02 28.3192 43.4705)">
						</image>
					</g>
				</g>
			</g>
			<g class="st2">
				<defs>
					
						<rect id="SVGID_149_" x="31.9" y="43.2" transform="matrix(0.9988 -4.826483e-02 4.826483e-02 0.9988 -2.1335 1.6735)" width="3.5" height="3.6"/>
				</defs>
				<clipPath id="SVGID_150_">
					<use xlink:href="#SVGID_149_"  style="overflow:visible;"/>
				</clipPath>
				<g class="st56">
					<defs>
						
							<rect id="SVGID_151_" x="31.9" y="43.2" transform="matrix(0.9988 -4.826483e-02 4.826483e-02 0.9988 -2.1334 1.6735)" width="3.5" height="3.6"/>
					</defs>
					<clipPath id="SVGID_152_">
						<use xlink:href="#SVGID_151_"  style="overflow:visible;"/>
					</clipPath>
					<g transform="matrix(1 0 -3.725290e-09 1 0 3.814697e-06)" style="clip-path:url(#SVGID_152_);">
						
							<image style="overflow:visible;" width="130" height="134" xlink:href="DD110829D6DD8C27.jpg"  transform="matrix(2.659184e-02 -1.284948e-03 1.293623e-03 2.677137e-02 31.7706 43.3037)">
						</image>
					</g>
				</g>
			</g>
			<g class="st2">
				<defs>
					
						<rect id="SVGID_153_" x="35.3" y="43.1" transform="matrix(0.9988 -4.826483e-02 4.826483e-02 0.9988 -2.1214 1.8399)" width="3.5" height="3.6"/>
				</defs>
				<clipPath id="SVGID_154_">
					<use xlink:href="#SVGID_153_"  style="overflow:visible;"/>
				</clipPath>
				<g class="st57">
					<defs>
						
							<rect id="SVGID_155_" x="35.3" y="43.1" transform="matrix(0.9988 -4.826483e-02 4.826483e-02 0.9988 -2.1214 1.8399)" width="3.5" height="3.6"/>
					</defs>
					<clipPath id="SVGID_156_">
						<use xlink:href="#SVGID_155_"  style="overflow:visible;"/>
					</clipPath>
					<g transform="matrix(1 0 0 1 0 0)" style="clip-path:url(#SVGID_156_);">
						
							<image style="overflow:visible;" width="130" height="134" xlink:href="DD110829D6DD8C19.jpg"  transform="matrix(2.657762e-02 -1.284261e-03 1.293623e-03 2.677137e-02 35.2238 43.1369)">
						</image>
					</g>
				</g>
			</g>
			<g class="st2">
				<defs>
					<path id="SVGID_157_" d="M38.7,43l0.2,3.6l3.3-0.2c-0.3-1.3-1-2.5-1.8-3.5L38.7,43z"/>
				</defs>
				<clipPath id="SVGID_158_">
					<use xlink:href="#SVGID_157_"  style="overflow:visible;"/>
				</clipPath>
				<g class="st58">
					<defs>
						
							<rect id="SVGID_159_" x="38.8" y="42.9" transform="matrix(0.9988 -4.826483e-02 4.826483e-02 0.9988 -2.1093 2.0063)" width="3.5" height="3.6"/>
					</defs>
					<clipPath id="SVGID_160_">
						<use xlink:href="#SVGID_159_"  style="overflow:visible;"/>
					</clipPath>
					<g transform="matrix(1 0 -3.725290e-09 1 0 0)" style="clip-path:url(#SVGID_160_);">
						
							<image style="overflow:visible;" width="130" height="134" xlink:href="DD110829D6DD8C1B.jpg"  transform="matrix(2.659184e-02 -1.284948e-03 1.293623e-03 2.677137e-02 38.6752 42.9701)">
						</image>
					</g>
				</g>
			</g>
			<g class="st2">
				<defs>
					<polygon id="SVGID_161_" points="25.3,47.2 26,50.8 28.7,50.6 28.5,47.1 					"/>
				</defs>
				<clipPath id="SVGID_162_">
					<use xlink:href="#SVGID_161_"  style="overflow:visible;"/>
				</clipPath>
				<g class="st59">
					<defs>
						
							<rect id="SVGID_163_" x="25.1" y="47.1" transform="matrix(0.9988 -4.826483e-02 4.826483e-02 0.9988 -2.3304 1.3531)" width="3.5" height="3.6"/>
					</defs>
					<clipPath id="SVGID_164_">
						<use xlink:href="#SVGID_163_"  style="overflow:visible;"/>
					</clipPath>
					<g transform="matrix(1 0 -3.725290e-09 1 0 0)" style="clip-path:url(#SVGID_164_);">
						
							<image style="overflow:visible;" width="130" height="134" xlink:href="DD110829D6DD8C18.jpg"  transform="matrix(2.659184e-02 -1.284948e-03 1.294291e-03 2.678519e-02 25.0391 47.221)">
						</image>
					</g>
				</g>
			</g>
			<g class="st2">
				<defs>
					
						<rect id="SVGID_165_" x="28.6" y="47" transform="matrix(0.9988 -4.826483e-02 4.826483e-02 0.9988 -2.3183 1.5196)" width="3.5" height="3.6"/>
				</defs>
				<clipPath id="SVGID_166_">
					<use xlink:href="#SVGID_165_"  style="overflow:visible;"/>
				</clipPath>
				<g class="st60">
					<defs>
						
							<rect id="SVGID_167_" x="28.6" y="47" transform="matrix(0.9988 -4.826483e-02 4.826483e-02 0.9988 -2.3183 1.5196)" width="3.5" height="3.6"/>
					</defs>
					<clipPath id="SVGID_168_">
						<use xlink:href="#SVGID_167_"  style="overflow:visible;"/>
					</clipPath>
					<g transform="matrix(1 0 -3.725290e-09 1 0 0)" style="clip-path:url(#SVGID_168_);">
						
							<image style="overflow:visible;" width="130" height="134" xlink:href="DD110829D6DD8C1F.jpg"  transform="matrix(2.657762e-02 -1.284261e-03 1.294291e-03 2.678519e-02 28.4924 47.0542)">
						</image>
					</g>
				</g>
			</g>
			<g class="st2">
				<defs>
					
						<rect id="SVGID_169_" x="32" y="46.8" transform="matrix(0.9988 -4.826483e-02 4.826483e-02 0.9988 -2.3063 1.686)" width="3.5" height="3.6"/>
				</defs>
				<clipPath id="SVGID_170_">
					<use xlink:href="#SVGID_169_"  style="overflow:visible;"/>
				</clipPath>
				<g class="st61">
					<defs>
						
							<rect id="SVGID_171_" x="32" y="46.8" transform="matrix(0.9988 -4.826483e-02 4.826483e-02 0.9988 -2.3063 1.686)" width="3.5" height="3.6"/>
					</defs>
					<clipPath id="SVGID_172_">
						<use xlink:href="#SVGID_171_"  style="overflow:visible;"/>
					</clipPath>
					<g transform="matrix(1 0 -3.725290e-09 1 0 0)" style="clip-path:url(#SVGID_172_);">
						
							<image style="overflow:visible;" width="130" height="134" xlink:href="DD110829D6DD8C1A.jpg"  transform="matrix(2.659184e-02 -1.284948e-03 1.294291e-03 2.678519e-02 31.9438 46.8874)">
						</image>
					</g>
				</g>
			</g>
			<g class="st2">
				<defs>
					
						<rect id="SVGID_173_" x="35.5" y="46.6" transform="matrix(0.9988 -4.826483e-02 4.826483e-02 0.9988 -2.2942 1.8524)" width="3.5" height="3.6"/>
				</defs>
				<clipPath id="SVGID_174_">
					<use xlink:href="#SVGID_173_"  style="overflow:visible;"/>
				</clipPath>
				<g class="st62">
					<defs>
						
							<rect id="SVGID_175_" x="35.5" y="46.6" transform="matrix(0.9988 -4.826483e-02 4.826483e-02 0.9988 -2.2942 1.8524)" width="3.5" height="3.6"/>
					</defs>
					<clipPath id="SVGID_176_">
						<use xlink:href="#SVGID_175_"  style="overflow:visible;"/>
					</clipPath>
					<g transform="matrix(1 0 -3.725290e-09 1 -3.814697e-06 0)" style="clip-path:url(#SVGID_176_);">
						
							<image style="overflow:visible;" width="130" height="134" xlink:href="DD110829D6DD8C16.jpg"  transform="matrix(2.657762e-02 -1.284261e-03 1.294291e-03 2.678519e-02 35.397 46.7205)">
						</image>
					</g>
				</g>
			</g>
			<g class="st2">
				<defs>
					<path id="SVGID_177_" d="M38.8,46.6l0.2,3.6l3.3-0.2c0.1-0.6,0.1-1.2,0.1-1.8c0-0.6-0.1-1.2-0.3-1.8L38.8,46.6z"/>
				</defs>
				<clipPath id="SVGID_178_">
					<use xlink:href="#SVGID_177_"  style="overflow:visible;"/>
				</clipPath>
				<g class="st63">
					<defs>
						
							<rect id="SVGID_179_" x="38.9" y="46.5" transform="matrix(0.9988 -4.826483e-02 4.826483e-02 0.9988 -2.2821 2.0189)" width="3.5" height="3.6"/>
					</defs>
					<clipPath id="SVGID_180_">
						<use xlink:href="#SVGID_179_"  style="overflow:visible;"/>
					</clipPath>
					<g transform="matrix(1 0 -3.725290e-09 1 0 -3.814697e-06)" style="clip-path:url(#SVGID_180_);">
						
							<image style="overflow:visible;" width="130" height="134" xlink:href="DD110829D6DD8C17.jpg"  transform="matrix(2.659184e-02 -1.284948e-03 1.294291e-03 2.678519e-02 38.8484 46.5538)">
						</image>
					</g>
				</g>
			</g>
			<g class="st2">
				<defs>
					<polygon id="SVGID_181_" points="26,50.8 26.4,53 28,54.3 28.8,54.2 28.7,50.6 					"/>
				</defs>
				<clipPath id="SVGID_182_">
					<use xlink:href="#SVGID_181_"  style="overflow:visible;"/>
				</clipPath>
				<g class="st64">
					<defs>
						
							<rect id="SVGID_183_" x="25.3" y="50.7" transform="matrix(0.9988 -4.826483e-02 4.826483e-02 0.9988 -2.5032 1.3657)" width="3.5" height="3.6"/>
					</defs>
					<clipPath id="SVGID_184_">
						<use xlink:href="#SVGID_183_"  style="overflow:visible;"/>
					</clipPath>
					<g transform="matrix(1 0 -3.725290e-09 1 0 0)" style="clip-path:url(#SVGID_184_);">
						
							<image style="overflow:visible;" width="130" height="134" xlink:href="DD110829D6DD8C67.jpg"  transform="matrix(2.659184e-02 -1.284948e-03 1.293623e-03 2.677137e-02 25.2124 50.8066)">
						</image>
					</g>
				</g>
			</g>
			<g class="st2">
				<defs>
					
						<rect id="SVGID_185_" x="28.8" y="50.6" transform="matrix(0.9988 -4.826483e-02 4.826483e-02 0.9988 -2.4911 1.5321)" width="3.5" height="3.6"/>
				</defs>
				<clipPath id="SVGID_186_">
					<use xlink:href="#SVGID_185_"  style="overflow:visible;"/>
				</clipPath>
				<g transform="matrix(1 0 0 1 0 0)" style="clip-path:url(#SVGID_186_);">
					
						<image style="overflow:visible;" width="130" height="134" xlink:href="DD110829D6DD8C74.jpg"  transform="matrix(2.657762e-02 -1.284261e-03 1.293623e-03 2.677137e-02 28.6656 50.6397)">
					</image>
				</g>
			</g>
			<g class="st2">
				<defs>
					
						<rect id="SVGID_187_" x="32.2" y="50.4" transform="matrix(0.9988 -4.826483e-02 4.826483e-02 0.9988 -2.4791 1.6985)" width="3.5" height="3.6"/>
				</defs>
				<clipPath id="SVGID_188_">
					<use xlink:href="#SVGID_187_"  style="overflow:visible;"/>
				</clipPath>
				<g transform="matrix(1 0 -3.725290e-09 1 0 0)" style="clip-path:url(#SVGID_188_);">
					
						<image style="overflow:visible;" width="130" height="134" xlink:href="DD110829D6DD8C77.jpg"  transform="matrix(2.659184e-02 -1.284948e-03 1.293623e-03 2.677137e-02 32.117 50.4729)">
					</image>
				</g>
			</g>
			<g class="st2">
				<defs>
					
						<rect id="SVGID_189_" x="35.7" y="50.2" transform="matrix(0.9988 -4.826483e-02 4.826483e-02 0.9988 -2.467 1.865)" width="3.5" height="3.6"/>
				</defs>
				<clipPath id="SVGID_190_">
					<use xlink:href="#SVGID_189_"  style="overflow:visible;"/>
				</clipPath>
				<g transform="matrix(1 0 0 1 -3.814697e-06 -3.814697e-06)" style="clip-path:url(#SVGID_190_);">
					
						<image style="overflow:visible;" width="130" height="134" xlink:href="DD110829D6DD8C75.jpg"  transform="matrix(2.657762e-02 -1.284261e-03 1.293623e-03 2.677137e-02 35.5703 50.3061)">
					</image>
				</g>
			</g>
			<g class="st2">
				<defs>
					<path id="SVGID_191_" d="M39,50.1l0.2,3.6l1.7-0.1c0.7-1.1,1.2-2.3,1.4-3.7L39,50.1z"/>
				</defs>
				<clipPath id="SVGID_192_">
					<use xlink:href="#SVGID_191_"  style="overflow:visible;"/>
				</clipPath>
				<g class="st65">
					<defs>
						
							<rect id="SVGID_193_" x="39.1" y="50.1" transform="matrix(0.9988 -4.826483e-02 4.826483e-02 0.9988 -2.4549 2.0314)" width="3.5" height="3.6"/>
					</defs>
					<clipPath id="SVGID_194_">
						<use xlink:href="#SVGID_193_"  style="overflow:visible;"/>
					</clipPath>
					<g transform="matrix(1 0 -3.725290e-09 1 0 -3.814697e-06)" style="clip-path:url(#SVGID_194_);">
						
							<image style="overflow:visible;" width="130" height="134" xlink:href="DD110829D6DD8C73.jpg"  transform="matrix(2.659184e-02 -1.284948e-03 1.293623e-03 2.677137e-02 39.0216 50.1393)">
						</image>
					</g>
				</g>
			</g>
			<g class="st2">
				<defs>
					<polygon id="SVGID_195_" points="28,54.3 28.9,54.9 28.8,54.2 					"/>
				</defs>
				<clipPath id="SVGID_196_">
					<use xlink:href="#SVGID_195_"  style="overflow:visible;"/>
				</clipPath>
				<g class="st66">
					<defs>
						
							<rect id="SVGID_197_" x="25.5" y="54.3" transform="matrix(0.9988 -4.826483e-02 4.826483e-02 0.9988 -2.676 1.3782)" width="3.5" height="3.6"/>
					</defs>
					<clipPath id="SVGID_198_">
						<use xlink:href="#SVGID_197_"  style="overflow:visible;"/>
					</clipPath>
					<g transform="matrix(1 0 -3.725290e-09 1 0 3.814697e-06)" style="clip-path:url(#SVGID_198_);">
						
							<image style="overflow:visible;" width="130" height="134" xlink:href="DD110829D6DD8C4C.jpg"  transform="matrix(2.659184e-02 -1.284948e-03 1.293623e-03 2.677137e-02 25.3855 54.3902)">
						</image>
					</g>
				</g>
			</g>
			<g class="st2">
				<defs>
					<polygon id="SVGID_199_" points="28.8,54.2 28.9,54.9 31.7,57.2 32.5,57.3 32.3,54.1 					"/>
				</defs>
				<clipPath id="SVGID_200_">
					<use xlink:href="#SVGID_199_"  style="overflow:visible;"/>
				</clipPath>
				<g class="st67">
					<defs>
						
							<rect id="SVGID_201_" x="28.9" y="54.1" transform="matrix(0.9988 -4.826483e-02 4.826483e-02 0.9988 -2.6639 1.5446)" width="3.5" height="3.6"/>
					</defs>
					<clipPath id="SVGID_202_">
						<use xlink:href="#SVGID_201_"  style="overflow:visible;"/>
					</clipPath>
					<g transform="matrix(1 0 0 1 0 3.814697e-06)" style="clip-path:url(#SVGID_202_);">
						
							<image style="overflow:visible;" width="130" height="134" xlink:href="DD110829D6DD8C4F.jpg"  transform="matrix(2.657762e-02 -1.284261e-03 1.293623e-03 2.677137e-02 28.8388 54.2234)">
						</image>
					</g>
				</g>
			</g>
			<g class="st2">
				<defs>
					<path id="SVGID_203_" d="M32.3,54.1l0.2,3.3l2,0.2c0.5-0.1,1-0.2,1.5-0.3l-0.2-3.4L32.3,54.1z"/>
				</defs>
				<clipPath id="SVGID_204_">
					<use xlink:href="#SVGID_203_"  style="overflow:visible;"/>
				</clipPath>
				<g class="st68">
					<defs>
						
							<rect id="SVGID_205_" x="32.4" y="54" transform="matrix(0.9988 -4.826483e-02 4.826483e-02 0.9988 -2.6518 1.7111)" width="3.5" height="3.6"/>
					</defs>
					<clipPath id="SVGID_206_">
						<use xlink:href="#SVGID_205_"  style="overflow:visible;"/>
					</clipPath>
					<g transform="matrix(1 0 -3.725290e-09 1 0 3.814697e-06)" style="clip-path:url(#SVGID_206_);">
						
							<image style="overflow:visible;" width="130" height="134" xlink:href="DD110829D6DD8C4D.jpg"  transform="matrix(2.659184e-02 -1.284948e-03 1.293623e-03 2.677137e-02 32.2902 54.0566)">
						</image>
					</g>
				</g>
			</g>
			<g class="st2">
				<defs>
					<path id="SVGID_207_" d="M35.7,53.9l0.2,3.4c1.3-0.4,2.4-1,3.4-1.8l-0.1-1.7L35.7,53.9z"/>
				</defs>
				<clipPath id="SVGID_208_">
					<use xlink:href="#SVGID_207_"  style="overflow:visible;"/>
				</clipPath>
				<g class="st69">
					<defs>
						
							<rect id="SVGID_209_" x="35.8" y="53.8" transform="matrix(0.9988 -4.826483e-02 4.826483e-02 0.9988 -2.6397 1.8775)" width="3.5" height="3.6"/>
					</defs>
					<clipPath id="SVGID_210_">
						<use xlink:href="#SVGID_209_"  style="overflow:visible;"/>
					</clipPath>
					<g transform="matrix(1 0 0 1 0 -3.814697e-06)" style="clip-path:url(#SVGID_210_);">
						
							<image style="overflow:visible;" width="130" height="134" xlink:href="DD110829D6DD8C53.jpg"  transform="matrix(2.657762e-02 -1.284261e-03 1.293623e-03 2.677137e-02 35.7434 53.8897)">
						</image>
					</g>
				</g>
			</g>
			<g class="st2">
				<defs>
					<path id="SVGID_211_" d="M39.2,53.7l0.1,1.7c0.3-0.2,0.5-0.5,0.8-0.8c0.3-0.3,0.6-0.7,0.8-1L39.2,53.7z"/>
				</defs>
				<clipPath id="SVGID_212_">
					<use xlink:href="#SVGID_211_"  style="overflow:visible;"/>
				</clipPath>
				<g class="st70">
					<defs>
						
							<rect id="SVGID_213_" x="39.3" y="53.6" transform="matrix(0.9988 -4.826483e-02 4.826483e-02 0.9988 -2.6277 2.0439)" width="3.5" height="3.6"/>
					</defs>
					<clipPath id="SVGID_214_">
						<use xlink:href="#SVGID_213_"  style="overflow:visible;"/>
					</clipPath>
					<g transform="matrix(1 0 -3.725290e-09 1 0 -3.814697e-06)" style="clip-path:url(#SVGID_214_);">
						
							<image style="overflow:visible;" width="130" height="134" xlink:href="DD110829D6DD8C54.jpg"  transform="matrix(2.659184e-02 -1.284948e-03 1.293623e-03 2.677137e-02 39.1948 53.7229)">
						</image>
					</g>
				</g>
			</g>
			<g class="st2">
				<defs>
					<path id="SVGID_215_" d="M32.9,38.6c-2.8,0.1-5.2,1.4-6.9,3.3c-0.2,0.2-0.4,0.5-0.6,0.8c-0.1,0.1-0.1,0.1-0.2,0.2l1.4-0.1
						c0.1-0.1,0.1-0.1,0.2-0.2c1.5-1.7,3.7-2.8,6.2-2.9c0.9,0,1.8,0,2.6,0.3l-0.1-1.1C34.7,38.6,33.8,38.5,32.9,38.6L32.9,38.6z"/>
				</defs>
				<clipPath id="SVGID_216_">
					<use xlink:href="#SVGID_215_"  style="overflow:visible;"/>
				</clipPath>
				<g class="st71">
					<defs>
						
							<rect id="SVGID_217_" x="24.5" y="38.7" transform="matrix(0.9988 -4.826483e-02 4.826483e-02 0.9988 -1.9283 1.4976)" width="11.2" height="3.9"/>
					</defs>
					<clipPath id="SVGID_218_">
						<use xlink:href="#SVGID_217_"  style="overflow:visible;"/>
					</clipPath>
					<g transform="matrix(1 0 0 1 0 0)" style="clip-path:url(#SVGID_218_);">
						
							<image style="overflow:visible;" width="418" height="146" xlink:href="DD110829D6DD8C57.jpg"  transform="matrix(2.673359e-02 -1.291798e-03 1.294073e-03 2.678069e-02 24.3642 38.9939)">
						</image>
					</g>
				</g>
			</g>
			<g class="st2">
				<defs>
					<path id="SVGID_219_" d="M35.6,39.9c1.5,0.4,2.8,1.1,3.9,2.1c0.1,0.1,0.1,0.1,0.2,0.2l1.4-0.1C41,42,40.9,42,40.9,41.9
						c-0.2-0.2-0.5-0.5-0.7-0.7c-1.3-1.2-2.9-2-4.6-2.4L35.6,39.9z"/>
				</defs>
				<clipPath id="SVGID_220_">
					<use xlink:href="#SVGID_219_"  style="overflow:visible;"/>
				</clipPath>
				<g class="st72">
					<defs>
						
							<rect id="SVGID_221_" x="35.6" y="38.3" transform="matrix(0.9988 -4.826483e-02 4.826483e-02 0.9988 -1.8958 1.9459)" width="7.5" height="3.9"/>
					</defs>
					<clipPath id="SVGID_222_">
						<use xlink:href="#SVGID_221_"  style="overflow:visible;"/>
					</clipPath>
					<g transform="matrix(1 0 0 1 -3.814697e-06 0)" style="clip-path:url(#SVGID_222_);">
						
							<image style="overflow:visible;" width="279" height="146" xlink:href="DD110829D6DD8CB3.jpg"  transform="matrix(2.671932e-02 -1.291108e-03 1.294073e-03 2.678069e-02 35.524 38.4547)">
						</image>
					</g>
				</g>
			</g>
			<g class="st2">
				<defs>
					<path id="SVGID_223_" d="M25.2,42.9c-0.2,0.3-0.4,0.6-0.6,1l0.4,1.8c0.4-1.1,0.9-2,1.7-2.9L25.2,42.9z"/>
				</defs>
				<clipPath id="SVGID_224_">
					<use xlink:href="#SVGID_223_"  style="overflow:visible;"/>
				</clipPath>
				<g class="st73">
					<defs>
						
							<rect id="SVGID_225_" x="24.6" y="42.8" transform="matrix(0.9988 -4.826483e-02 4.826483e-02 0.9988 -2.129 1.3318)" width="3.7" height="3.9"/>
					</defs>
					<clipPath id="SVGID_226_">
						<use xlink:href="#SVGID_225_"  style="overflow:visible;"/>
					</clipPath>
					<g transform="matrix(1 0 -3.725290e-09 1 0 0)" style="clip-path:url(#SVGID_226_);">
						
							<image style="overflow:visible;" width="140" height="146" xlink:href="DD110829D6DD8CB1.jpg"  transform="matrix(2.667673e-02 -1.289050e-03 1.291623e-03 2.672997e-02 24.5524 42.8891)">
						</image>
					</g>
				</g>
			</g>
			<g class="st2">
				<defs>
					<path id="SVGID_227_" d="M39.7,42.2c1.6,1.5,2.6,3.6,2.7,6c0.1,2.1-0.5,4-1.6,5.6l1.3-0.1c1-1.6,1.5-3.6,1.4-5.6
						c-0.1-2.3-1-4.4-2.4-6L39.7,42.2z"/>
				</defs>
				<clipPath id="SVGID_228_">
					<use xlink:href="#SVGID_227_"  style="overflow:visible;"/>
				</clipPath>
				<g class="st74">
					<defs>
						
							<rect id="SVGID_229_" x="39.7" y="42.1" transform="matrix(0.9988 -4.826483e-02 4.826483e-02 0.9988 -2.2645 2.0628)" width="3.7" height="11.7"/>
					</defs>
					<clipPath id="SVGID_230_">
						<use xlink:href="#SVGID_229_"  style="overflow:visible;"/>
					</clipPath>
					<g transform="matrix(1 0 -3.725290e-09 1 0 0)" style="clip-path:url(#SVGID_230_);">
						
							<image style="overflow:visible;" width="140" height="436" xlink:href="DD110829D6DD8CB7.jpg"  transform="matrix(2.667673e-02 -1.289050e-03 1.295085e-03 2.680163e-02 39.4322 42.1701)">
						</image>
					</g>
				</g>
			</g>
			<g class="st2">
				<defs>
					<path id="SVGID_231_" d="M40.8,53.8c-0.2,0.3-0.4,0.6-0.7,0.9c-1.4,1.6-3.4,2.6-5.7,2.9l2.1,0.2l0.8,0.1
						c1.4-0.6,2.6-1.4,3.5-2.5c0.5-0.5,0.9-1,1.2-1.6L40.8,53.8z"/>
				</defs>
				<clipPath id="SVGID_232_">
					<use xlink:href="#SVGID_231_"  style="overflow:visible;"/>
				</clipPath>
				<g class="st75">
					<defs>
						
							<rect id="SVGID_233_" x="32.6" y="53.9" transform="matrix(0.9988 -4.826483e-02 4.826483e-02 0.9988 -2.6527 1.9107)" width="11.2" height="3.9"/>
					</defs>
					<clipPath id="SVGID_234_">
						<use xlink:href="#SVGID_233_"  style="overflow:visible;"/>
					</clipPath>
					<g transform="matrix(1 0 0 1 0 -3.814697e-06)" style="clip-path:url(#SVGID_234_);">
						
							<image style="overflow:visible;" width="418" height="146" xlink:href="DD110829D6DD8CB2.jpg"  transform="matrix(2.673359e-02 -1.291798e-03 1.294073e-03 2.678069e-02 32.5563 54.2003)">
						</image>
					</g>
				</g>
			</g>
			<g class="st2">
				<defs>
					<polygon id="SVGID_235_" points="26.7,54.4 45.1,61.1 45.4,37.3 23.5,38.1 					"/>
				</defs>
				<clipPath id="SVGID_236_">
					<use xlink:href="#SVGID_235_"  style="overflow:visible;"/>
				</clipPath>
				<g class="st76">
					<defs>
						
							<rect id="SVGID_237_" x="23.9" y="37.4" transform="matrix(0.9988 -4.826483e-02 4.826483e-02 0.9988 -2.3523 1.7471)" width="22.1" height="24.3"/>
					</defs>
					<clipPath id="SVGID_238_">
						<use xlink:href="#SVGID_237_"  style="overflow:visible;"/>
					</clipPath>
					
						<g transform="matrix(6.692334e-03 -3.233812e-04 3.238231e-04 6.701478e-03 23.359 37.99)" style="clip-path:url(#SVGID_238_);">
						
							<image style="overflow:visible;" width="3304" height="3619" xlink:href="DD110829D6DD8CB3.png"  transform="matrix(6.692334e-03 -3.233812e-04 3.238231e-04 6.701478e-03 23.359 37.99)">
						</image>
					</g>
				</g>
			</g>
		</g>
	</g>
</g>
<g>
	<defs>
		<path id="SVGID_239_" d="M93.2,13.8H22c-3.8,0-6.9,3.1-6.9,6.9v71.3c0,3.8,3.1,6.9,6.9,6.9h3.2c0.3-1.2,1.4-2.1,2.7-2.1
			s2.4,0.9,2.7,2.1h3.2c0.3-1.2,1.4-2.1,2.7-2.1c1.3,0,2.4,0.9,2.7,2.1h3.2c0.3-1.2,1.4-2.1,2.7-2.1c1.3,0,2.4,0.9,2.7,2.1h3.2
			c0.3-1.2,1.4-2.1,2.7-2.1c1.3,0,2.4,0.9,2.7,2.1h3.2c0.3-1.2,1.4-2.1,2.7-2.1c1.3,0,2.4,0.9,2.7,2.1h3.2c0.3-1.2,1.4-2.1,2.7-2.1
			s2.4,0.9,2.7,2.1h3.2c0.3-1.2,1.4-2.1,2.7-2.1c1.3,0,2.4,0.9,2.7,2.1h3.2c0.3-1.2,1.4-2.1,2.7-2.1s2.4,0.9,2.7,2.1h1.4
			c3.8,0,6.9-3.1,6.9-6.9V20.7C100.1,16.9,97,13.8,93.2,13.8z"/>
	</defs>
	<clipPath id="SVGID_240_">
		<use xlink:href="#SVGID_239_"  style="overflow:visible;"/>
	</clipPath>
	<rect x="7.3" y="83.8" class="st77" width="98.7" height="21.3"/>
</g>
<rect x="19.3" y="87" class="st78" width="76.8" height="9.9"/>
<text transform="matrix(1 0 0 1 20.3787 94.5896)" class="st79 st80 st81">JOMMEKE ABENTEUER</text>
<g>
	<defs>
		<path id="SVGID_241_" d="M93.2,13.8H22c-3.8,0-6.9,3.1-6.9,6.9v71.3c0,3.8,3.1,6.9,6.9,6.9h3.2c0.3-1.2,1.4-2.1,2.7-2.1
			s2.4,0.9,2.7,2.1h3.2c0.3-1.2,1.4-2.1,2.7-2.1c1.3,0,2.4,0.9,2.7,2.1h3.2c0.3-1.2,1.4-2.1,2.7-2.1c1.3,0,2.4,0.9,2.7,2.1h3.2
			c0.3-1.2,1.4-2.1,2.7-2.1c1.3,0,2.4,0.9,2.7,2.1h3.2c0.3-1.2,1.4-2.1,2.7-2.1c1.3,0,2.4,0.9,2.7,2.1h3.2c0.3-1.2,1.4-2.1,2.7-2.1
			s2.4,0.9,2.7,2.1h3.2c0.3-1.2,1.4-2.1,2.7-2.1c1.3,0,2.4,0.9,2.7,2.1h3.2c0.3-1.2,1.4-2.1,2.7-2.1s2.4,0.9,2.7,2.1h1.4
			c3.8,0,6.9-3.1,6.9-6.9V20.7C100.1,16.9,97,13.8,93.2,13.8z"/>
	</defs>
	<clipPath id="SVGID_242_">
		<use xlink:href="#SVGID_241_"  style="overflow:visible;"/>
	</clipPath>
	<rect x="6.6" y="5.8" class="st82" width="98" height="25.9"/>
</g>
<rect x="29.8" y="17.8" class="st78" width="58.7" height="10.9"/>
<text transform="matrix(1 0 0 1 29.7796 28.4586)" class="st79 st83 st84">COUPON</text>
</svg>
