<?xml version="1.0" encoding="utf-8"?>
<!-- Generator: Adobe Illustrator 25.2.3, SVG Export Plug-In . SVG Version: 6.00 Build 0)  -->
<svg version="1.1" id="Ebene_1" xmlns="http://www.w3.org/2000/svg" xmlns:xlink="http://www.w3.org/1999/xlink" x="0px" y="0px"
	 viewBox="0 0 113.4 113.4" style="enable-background:new 0 0 113.4 113.4;" xml:space="preserve">
<style type="text/css">
	.st0{fill:#FFFFFF;stroke:#BFCFD1;stroke-width:0.9131;stroke-miterlimit:10;}
	.st1{clip-path:url(#SVGID_6_);}
	.st2{fill:#67192C;}
	.st3{clip-path:url(#SVGID_8_);fill:#FFFFFF;}
	.st4{clip-path:url(#SVGID_8_);}
	.st5{fill:#FFFFFF;}
	.st6{font-family:'MinionPro-Regular';}
	.st7{font-size:5.8632px;}
	.st8{clip-path:url(#SVGID_10_);fill:#BFCFD1;}
	.st9{fill:none;}
	.st10{fill:#152A51;}
	.st11{font-family:'MyriadPro-Cond';}
	.st12{font-size:11px;}
	.st13{clip-path:url(#SVGID_12_);fill:#BFCFD1;}
	.st14{font-family:'MyriadPro-Regular';}
	.st15{font-size:15px;}
</style>
<path class="st0" d="M92.1,15.4H20.8c-3.8,0-6.9,3.1-6.9,6.9v71.3c0,3.8,3.1,6.9,6.9,6.9H24c0.3-1.2,1.4-2.1,2.7-2.1
	s2.4,0.9,2.7,2.1h3.2c0.3-1.2,1.4-2.1,2.7-2.1c1.3,0,2.4,0.9,2.7,2.1h3.2c0.3-1.2,1.4-2.1,2.7-2.1c1.3,0,2.4,0.9,2.7,2.1h3.2
	c0.3-1.2,1.4-2.1,2.7-2.1c1.3,0,2.4,0.9,2.7,2.1H59c0.3-1.2,1.4-2.1,2.7-2.1c1.3,0,2.4,0.9,2.7,2.1h3.2c0.3-1.2,1.4-2.1,2.7-2.1
	s2.4,0.9,2.7,2.1h3.2c0.3-1.2,1.4-2.1,2.7-2.1c1.3,0,2.4,0.9,2.7,2.1h3.2c0.3-1.2,1.4-2.1,2.7-2.1s2.4,0.9,2.7,2.1h1.4
	c3.8,0,6.9-3.1,6.9-6.9V22.3C99,18.5,95.9,15.4,92.1,15.4z"/>
<g>
	<defs>
		<path id="SVGID_1_" d="M95.2,12.3H23.9c-3.8,0-6.9,3.1-6.9,6.9v71.3c0,3.8,3.1,6.9,6.9,6.9h3.2c0.3-1.2,1.4-2.1,2.7-2.1
			s2.4,0.9,2.7,2.1h3.2c0.3-1.2,1.4-2.1,2.7-2.1c1.3,0,2.4,0.9,2.7,2.1h3.2c0.3-1.2,1.4-2.1,2.7-2.1c1.3,0,2.4,0.9,2.7,2.1h3.2
			c0.3-1.2,1.4-2.1,2.7-2.1c1.3,0,2.4,0.9,2.7,2.1h3.2c0.3-1.2,1.4-2.1,2.7-2.1c1.3,0,2.4,0.9,2.7,2.1h3.2c0.3-1.2,1.4-2.1,2.7-2.1
			s2.4,0.9,2.7,2.1h3.2c0.3-1.2,1.4-2.1,2.7-2.1c1.3,0,2.4,0.9,2.7,2.1h3.2c0.3-1.2,1.4-2.1,2.7-2.1s2.4,0.9,2.7,2.1h1.4
			c3.8,0,6.9-3.1,6.9-6.9V19.2C102.1,15.4,99,12.3,95.2,12.3z"/>
	</defs>
	<clipPath id="SVGID_2_">
		<use xlink:href="#SVGID_1_"  style="overflow:visible;"/>
	</clipPath>
</g>
<g>
	<defs>
		<path id="SVGID_3_" d="M92.1,15.4H20.8c-3.8,0-6.9,3.1-6.9,6.9v71.3c0,3.8,3.1,6.9,6.9,6.9H24c0.3-1.2,1.4-2.1,2.7-2.1
			s2.4,0.9,2.7,2.1h3.2c0.3-1.2,1.4-2.1,2.7-2.1c1.3,0,2.4,0.9,2.7,2.1h3.2c0.3-1.2,1.4-2.1,2.7-2.1c1.3,0,2.4,0.9,2.7,2.1h3.2
			c0.3-1.2,1.4-2.1,2.7-2.1c1.3,0,2.4,0.9,2.7,2.1H59c0.3-1.2,1.4-2.1,2.7-2.1c1.3,0,2.4,0.9,2.7,2.1h3.2c0.3-1.2,1.4-2.1,2.7-2.1
			s2.4,0.9,2.7,2.1h3.2c0.3-1.2,1.4-2.1,2.7-2.1c1.3,0,2.4,0.9,2.7,2.1h3.2c0.3-1.2,1.4-2.1,2.7-2.1s2.4,0.9,2.7,2.1h1.4
			c3.8,0,6.9-3.1,6.9-6.9V22.3C99,18.5,95.9,15.4,92.1,15.4z"/>
	</defs>
	<clipPath id="SVGID_4_">
		<use xlink:href="#SVGID_3_"  style="overflow:visible;"/>
	</clipPath>
</g>
<g>
	<defs>
		<path id="SVGID_5_" d="M92.1,15.4H20.8c-3.8,0-6.9,3.1-6.9,6.9v71.3c0,3.8,3.1,6.9,6.9,6.9H24c0.3-1.2,1.4-2.1,2.7-2.1
			s2.4,0.9,2.7,2.1h3.2c0.3-1.2,1.4-2.1,2.7-2.1c1.3,0,2.4,0.9,2.7,2.1h3.2c0.3-1.2,1.4-2.1,2.7-2.1c1.3,0,2.4,0.9,2.7,2.1h3.2
			c0.3-1.2,1.4-2.1,2.7-2.1c1.3,0,2.4,0.9,2.7,2.1H59c0.3-1.2,1.4-2.1,2.7-2.1c1.3,0,2.4,0.9,2.7,2.1h3.2c0.3-1.2,1.4-2.1,2.7-2.1
			s2.4,0.9,2.7,2.1h3.2c0.3-1.2,1.4-2.1,2.7-2.1c1.3,0,2.4,0.9,2.7,2.1h3.2c0.3-1.2,1.4-2.1,2.7-2.1s2.4,0.9,2.7,2.1h1.4
			c3.8,0,6.9-3.1,6.9-6.9V22.3C99,18.5,95.9,15.4,92.1,15.4z"/>
	</defs>
	<clipPath id="SVGID_6_">
		<use xlink:href="#SVGID_5_"  style="overflow:visible;"/>
	</clipPath>
	<g class="st1">
		
			<rect x="27.4" y="33.1" transform="matrix(0.9952 -9.831093e-02 9.831093e-02 0.9952 -5.6339 5.8419)" class="st2" width="58.2" height="54"/>
		<g>
			<defs>
				
					<rect id="SVGID_7_" x="30" y="36.8" transform="matrix(0.9952 -9.831093e-02 9.831093e-02 0.9952 -5.7025 5.8521)" width="53" height="48.1"/>
			</defs>
			<clipPath id="SVGID_8_">
				<use xlink:href="#SVGID_7_"  style="overflow:visible;"/>
			</clipPath>
			<path class="st3" d="M82.5,69.8c0.3,0.2,0.6,0.4,0.6,0.7c0.1,0.6-0.7,0.9-1.1,1c-0.7,0.1-1.4-0.1-2-0.5l0.4,1
				c0.5,0.1,1,0.1,1.6,0.1c1.3-0.1,2.2-1.1,2.1-1.9c0-0.2-0.1-0.4-0.2-0.5L82.5,69.8z M73.3,70.7L73.3,70.7c0.1,0.6,0.1,1.2,0.6,1.6
				c0.4,0.4,1,0.5,1.6,0.4c0.6-0.1,1.3-0.3,1.6-0.8l0.1,0.5l1.3-0.1c-0.5-0.1-0.5-0.7-0.5-1.1l-0.1-0.9L77,70.3l0,0.3
				c0,0.3,0.1,0.5-0.1,0.8c-0.2,0.4-0.7,0.7-1.2,0.7c-0.9,0.1-1.4-0.4-1.5-1.5l0,0L73.3,70.7z M66.4,71.3l-0.3,0.9
				c-0.1,0.5-0.2,1-0.7,1.3l1.6-0.1c-0.4-0.1-0.4-0.4-0.3-0.9l0.3-1.2l2.2-0.2l0.6,1.1c0.3,0.6,0.4,0.6,0,0.9l1.8-0.1
				c-0.5-0.2-0.7-0.7-1-1.1L70.1,71L66.4,71.3z M62.3,71.8l0.1,0.9c0,0.4,0.2,1-0.3,1.2l1.7-0.1c-0.5-0.1-0.5-0.7-0.5-1.1l-0.1-0.9
				L62.3,71.8z M58.3,72.1l0.1,0.9c0,0.4,0.1,1-0.3,1.2l1.6-0.1c-0.4-0.1-0.5-0.7-0.5-1.1l-0.1-0.9L58.3,72.1z M53.5,72.6l1.5,1.6
				c0.2,0.2,0.6,0.3,1,0.3l0.8-0.1c-0.5-0.2-0.8-0.4-1.1-0.7l-1.2-1.2L53.5,72.6z M51.9,72.8l0.1,0.9c0,0.4,0.1,1-0.3,1.2l1.7-0.1
				c-0.5-0.1-0.5-0.7-0.5-1.1l-0.1-0.9L51.9,72.8z M45,73.5c0.4,1.4,1.7,2.1,3.5,1.9c0.4,0,0.9-0.2,1.3-0.4l0.3-1
				c-0.5,0.4-1.2,0.6-1.8,0.7c-1,0.1-1.9-0.5-2.2-1.3L45,73.5z M38.5,74.1L38.2,75c-0.1,0.5-0.2,1-0.7,1.3l1.6-0.1
				c-0.4-0.1-0.4-0.4-0.3-0.9l0.3-1.2l2.2-0.2l0.6,1.1c0.3,0.6,0.4,0.6,0,0.9l1.8-0.1c-0.5-0.2-0.7-0.7-1-1.1l-0.5-0.8L38.5,74.1z
				 M31.7,74.8l0.1,0.9c0,0.4,0.1,1-0.3,1.2l1.4-0.1c0.6-0.1,1.3-0.1,1.9-0.4c0.6-0.3,1-0.9,0.9-1.5c0-0.1,0-0.3-0.1-0.4l-1,0.1
				c0.1,0.1,0.1,0.3,0.2,0.4c0.1,0.8-0.6,1.2-1.3,1.2l-0.8,0l-0.1-1.4L31.7,74.8z"/>
			<path class="st3" d="M32.4,73.5l-0.2-1.6l0.6-0.1c0.5-0.1,1.1,0.1,1.2,0.7c0.1,0.7-0.7,0.9-1.3,1L32.4,73.5z M41,73.3l-1.7,0.2
				l0.6-2.2L41,73.3z M69,70.5l-1.7,0.2l0.6-2.2L69,70.5z M83.9,69.6c-0.7-1-2.9-0.9-3-1.8c-0.1-0.6,0.5-0.8,1-0.9
				c0.5,0,1,0.1,1.4,0.4l-0.1-0.9c-0.4-0.1-0.9-0.1-1.3-0.1c-1.1,0.1-2.1,0.6-2,1.6c0.1,1.3,1.8,1.3,2.7,1.8L83.9,69.6z M77.8,70.2
				L77.6,68c0-0.4-0.1-1,0.3-1.2L76.2,67c0.4,0.1,0.5,0.7,0.5,1.1l0.2,2.2L77.8,70.2z M74.1,70.6l-0.2-2.2c0-0.4-0.1-1,0.3-1.2
				l-1.6,0.1c0.5,0.1,0.5,0.7,0.5,1.1l0.2,2.2L74.1,70.6z M70.2,71l-1.7-3.2L67,67.9c0.4,0.1,0.3,0.5,0.2,0.8l-0.8,2.7L70.2,71z
				 M59.2,72.1l-0.1-0.6l3.1-0.3l0.1,0.6l0.9-0.1L63,69.5c0-0.4-0.1-1,0.3-1.2l-1.7,0.1c0.5,0.1,0.5,0.7,0.5,1.1l0.1,1l-3.1,0.3
				l-0.1-1c0-0.4-0.1-1,0.3-1.2l-1.6,0.1c0.5,0.1,0.5,0.7,0.5,1.1l0.2,2.2L59.2,72.1z M54.6,72.5l-0.8-0.8l1.7-2.6l-1.6,0.1
				c0.6,0.2,0.1,0.8-0.1,1.2l-1,1.5l0.6,0.7L54.6,72.5z M52.8,72.7l-0.2-2.2c0-0.4-0.1-1,0.3-1.2l-1.7,0.1c0.5,0.1,0.5,0.7,0.5,1.1
				l0.2,2.2L52.8,72.7z M46,73.4c-0.1-0.2-0.2-0.5-0.2-0.7c-0.1-1.2,0.6-2.1,1.8-2.2c0.6-0.1,1.1,0.1,1.6,0.3l-0.1-0.9
				c-0.5-0.1-1.1-0.1-1.6-0.1c-1.8,0.2-2.9,1.4-2.7,3.1c0,0.2,0.1,0.4,0.1,0.6L46,73.4z M42.2,73.7l-1.7-3.2l-1.4,0.1
				c0.4,0.1,0.3,0.5,0.2,0.8l-0.8,2.7L42.2,73.7z M32.6,74.7l-0.1-0.6l0.6-0.1c0.6-0.1,1.2,0.1,1.5,0.5l1-0.1
				c-0.2-0.6-0.8-0.9-1.5-0.9c0.5-0.3,0.8-0.6,0.8-1.2c-0.1-0.7-0.8-1.1-1.9-1l-2,0.2c0.5,0.1,0.5,0.7,0.5,1.1l0.2,2.2L32.6,74.7z"
				/>
			<path class="st3" d="M75.2,40.1c0,0-1.6-1.6-2-2.1c-0.5-0.4-1.2-0.5-1.2-0.5s-0.3-1.1-1.1-1.1c-0.9-0.1-1.2,0-2-0.1
				c-0.8-0.1-1-0.4-1.6-0.6c-0.6-0.2-1.1,0-1.1,0s0.4,0.9,1.1,1.2c0.7,0.4-0.9,0.3-1.8-0.2c-0.8-0.5-1.3-0.2-1.3-0.2s0.4,1.5,1,1.9
				c0.6,0.4,0.9,0.8,0.9,1.1c0,0.3,0.1,0.7-0.6,0.9c-0.7,0.1-1.8,0.8-4.2,1.7c-2.4,0.9-4.7,0.6-8.6,0.5c-3.9-0.1-6.8,0.1-7.8,1.8
				c-1.1,1.7-1.8,2.6-1.7,3.7c0,1.1-0.3,4.8-0.9,6.1c-0.6,1.3-2,2.7-3.1,2.5c-1-0.1-3-2.4-3-2.4s-0.8-0.5-0.7,0.8
				c0.1,1.3,2,3.6,3.3,3.6c1.3,0,3.5-1.1,4-1.8c0.5-0.7,1.7-2.7,2-3.9c0.2-1.3,0.3-2.6,0.3-2.6s0.6,0.1,1.1,1.4
				c0.5,1.3,1,1.3,0.4,2.1c-0.6,0.8-3,3.1-3,3.1l0.1,5.8c0,0-0.1,1.5,0,2c0.1,0.5,0.9,1.1,0.9,1.1s0.5-0.3,0.7-1.4
				c0.2-1.1,0-5.4,0-5.4l1.7-2.1l-0.5,2.2l2.6,4.7l1.2,1.5c0,0,2.4-0.2,2.7-0.4c0.3-0.2,0.8-0.8,0.2-1.1c-0.6-0.4-1.8-0.7-1.8-0.7
				s-2.2-1.9-2.4-3.6c-0.2-1.7,1.8-4.9,1.8-4.9s1.5-3.6,1.4-4.2c-0.1-0.7,0.2-1.5,0.2-1.5s2.2,1.5,4,2.2c1.7,0.7,5.6,0.5,5.6,0.5
				l-1.1,5.4c0,0-0.4,3.4-0.3,3.9c0,0.5,1.7,2.2,1.7,2.2s1.9,0.5,1.9-0.2c0-0.7-1.8-2.4-1.7-2.8c0-0.4,0.8-5.2,1.2-6.1
				c0.4-0.9,1.3-3.2,1.3-3.2s1.9,2.1,3.1,3.5c1.2,1.5,3.2,4.4,3.4,4.8c0.2,0.4,1.1,1.2,1.1,1.2l2.6-0.1c0,0-0.1-1-0.6-1.5
				c-0.5-0.5-2.5-2.1-3.1-2.9c-0.5-0.9-3.9-5.4-3.6-6c0.2-0.6,0.7-1.7,0.8-2.3s0.4-2.1,0.8-2.7c0.4-0.5,1.7-2.7,3.1-2.9
				c1.4-0.1,2.8,0,2.8,0s0.2-0.2,0.4-0.8C75.4,40.6,75.2,40.1,75.2,40.1"/>
			<g class="st4">
				<text transform="matrix(0.9952 -9.831093e-02 9.831093e-02 0.9952 32.1968 83.9544)"><tspan x="0" y="0" class="st5 st6 st7">d</tspan><tspan x="3.2" y="0" class="st5 st6 st7">ie </tspan><tspan x="9" y="0" class="st5 st6 st7">L</tspan><tspan x="12.3" y="0" class="st5 st6 st7">i</tspan><tspan x="13.9" y="0" class="st5 st6 st7">t</tspan><tspan x="15.7" y="0" class="st5 st6 st7">er</tspan><tspan x="20.6" y="0" class="st5 st6 st7">a</tspan><tspan x="23.2" y="0" class="st5 st6 st7">t</tspan><tspan x="25.1" y="0" class="st5 st6 st7">u</tspan><tspan x="28.3" y="0" class="st5 st6 st7">r</tspan><tspan x="30.4" y="0" class="st5 st6 st7">-</tspan><tspan x="32.7" y="0" class="st5 st6 st7">H</tspan><tspan x="37.1" y="0" class="st5 st6 st7">ä</tspan><tspan x="39.8" y="0" class="st5 st6 st7">n</tspan><tspan x="43.1" y="0" class="st5 st6 st7">d</tspan><tspan x="46.3" y="0" class="st5 st6 st7">le</tspan><tspan x="50.5" y="0" class="st5 st6 st7">r</tspan></text>
			</g>
		</g>
	</g>
</g>
<g>
	<defs>
		<path id="SVGID_9_" d="M92.1,15.4H20.8c-3.8,0-6.9,3.1-6.9,6.9v71.3c0,3.8,3.1,6.9,6.9,6.9H24c0.3-1.2,1.4-2.1,2.7-2.1
			s2.4,0.9,2.7,2.1h3.2c0.3-1.2,1.4-2.1,2.7-2.1c1.3,0,2.4,0.9,2.7,2.1h3.2c0.3-1.2,1.4-2.1,2.7-2.1c1.3,0,2.4,0.9,2.7,2.1h3.2
			c0.3-1.2,1.4-2.1,2.7-2.1c1.3,0,2.4,0.9,2.7,2.1H59c0.3-1.2,1.4-2.1,2.7-2.1c1.3,0,2.4,0.9,2.7,2.1h3.2c0.3-1.2,1.4-2.1,2.7-2.1
			s2.4,0.9,2.7,2.1h3.2c0.3-1.2,1.4-2.1,2.7-2.1c1.3,0,2.4,0.9,2.7,2.1h3.2c0.3-1.2,1.4-2.1,2.7-2.1s2.4,0.9,2.7,2.1h1.4
			c3.8,0,6.9-3.1,6.9-6.9V22.3C99,18.5,95.9,15.4,92.1,15.4z"/>
	</defs>
	<clipPath id="SVGID_10_">
		<use xlink:href="#SVGID_9_"  style="overflow:visible;"/>
	</clipPath>
	<rect x="6.2" y="85.4" class="st8" width="98.7" height="21.3"/>
</g>
<rect x="1.3" y="88.6" class="st9" width="111.3" height="9.9"/>
<text transform="matrix(1 0 0 1 18.7026 96.1894)" class="st10 st11 st12">GUTSCHEIN BACKHAUS</text>
<g>
	<defs>
		<path id="SVGID_11_" d="M92.1,15.4H20.8c-3.8,0-6.9,3.1-6.9,6.9v71.3c0,3.8,3.1,6.9,6.9,6.9H24c0.3-1.2,1.4-2.1,2.7-2.1
			s2.4,0.9,2.7,2.1h3.2c0.3-1.2,1.4-2.1,2.7-2.1c1.3,0,2.4,0.9,2.7,2.1h3.2c0.3-1.2,1.4-2.1,2.7-2.1c1.3,0,2.4,0.9,2.7,2.1h3.2
			c0.3-1.2,1.4-2.1,2.7-2.1c1.3,0,2.4,0.9,2.7,2.1H59c0.3-1.2,1.4-2.1,2.7-2.1c1.3,0,2.4,0.9,2.7,2.1h3.2c0.3-1.2,1.4-2.1,2.7-2.1
			s2.4,0.9,2.7,2.1h3.2c0.3-1.2,1.4-2.1,2.7-2.1c1.3,0,2.4,0.9,2.7,2.1h3.2c0.3-1.2,1.4-2.1,2.7-2.1s2.4,0.9,2.7,2.1h1.4
			c3.8,0,6.9-3.1,6.9-6.9V22.3C99,18.5,95.9,15.4,92.1,15.4z"/>
	</defs>
	<clipPath id="SVGID_12_">
		<use xlink:href="#SVGID_11_"  style="overflow:visible;"/>
	</clipPath>
	<rect x="5.5" y="7.4" class="st13" width="98" height="25.9"/>
</g>
<rect x="28.7" y="19.4" class="st9" width="58.7" height="10.9"/>
<text transform="matrix(1 0 0 1 28.6539 30.0584)" class="st10 st14 st15">COUPON</text>
</svg>
