<?xml version="1.0" encoding="utf-8"?>
<!-- Generator: Adobe Illustrator 25.2.3, SVG Export Plug-In . SVG Version: 6.00 Build 0)  -->
<svg version="1.1" id="Ebene_1" xmlns="http://www.w3.org/2000/svg" xmlns:xlink="http://www.w3.org/1999/xlink" x="0px" y="0px"
	 viewBox="0 0 113.4 113.4" style="enable-background:new 0 0 113.4 113.4;" xml:space="preserve">
<style type="text/css">
	.st0{fill:#FFFFFF;stroke:#BFCFD1;stroke-width:0.9131;stroke-miterlimit:10;}
	.st1{clip-path:url(#SVGID_8_);fill:#BFCFD1;}
	.st2{fill:none;}
	.st3{fill:#152A51;}
	.st4{font-family:'MyriadPro-Regular';}
	.st5{font-size:15px;}
	.st6{clip-path:url(#SVGID_10_);fill:#BFCFD1;}
	.st7{font-family:'MyriadPro-Cond';}
	.st8{font-size:10.75px;}
</style>
<path class="st0" d="M92.4,15.4H21.2c-3.8,0-6.9,3.1-6.9,6.9v71.3c0,3.8,3.1,6.9,6.9,6.9h3.2c0.3-1.2,1.4-2.1,2.7-2.1
	s2.4,0.9,2.7,2.1h3.2c0.3-1.2,1.4-2.1,2.7-2.1c1.3,0,2.4,0.9,2.7,2.1h3.2c0.3-1.2,1.4-2.1,2.7-2.1c1.3,0,2.4,0.9,2.7,2.1h3.2
	c0.3-1.2,1.4-2.1,2.7-2.1c1.3,0,2.4,0.9,2.7,2.1h3.2c0.3-1.2,1.4-2.1,2.7-2.1c1.3,0,2.4,0.9,2.7,2.1H68c0.3-1.2,1.4-2.1,2.7-2.1
	s2.4,0.9,2.7,2.1h3.2c0.3-1.2,1.4-2.1,2.7-2.1c1.3,0,2.4,0.9,2.7,2.1h3.2c0.3-1.2,1.4-2.1,2.7-2.1s2.4,0.9,2.7,2.1h1.4
	c3.8,0,6.9-3.1,6.9-6.9V22.3C99.3,18.5,96.2,15.4,92.4,15.4z"/>
<g>
	<defs>
		<path id="SVGID_1_" d="M95.5,12.3H24.3c-3.8,0-6.9,3.1-6.9,6.9v71.3c0,3.8,3.1,6.9,6.9,6.9h3.2c0.3-1.2,1.4-2.1,2.7-2.1
			s2.4,0.9,2.7,2.1h3.2c0.3-1.2,1.4-2.1,2.7-2.1c1.3,0,2.4,0.9,2.7,2.1h3.2c0.3-1.2,1.4-2.1,2.7-2.1c1.3,0,2.4,0.9,2.7,2.1h3.2
			c0.3-1.2,1.4-2.1,2.7-2.1c1.3,0,2.4,0.9,2.7,2.1h3.2c0.3-1.2,1.4-2.1,2.7-2.1c1.3,0,2.4,0.9,2.7,2.1h3.2c0.3-1.2,1.4-2.1,2.7-2.1
			s2.4,0.9,2.7,2.1h3.2c0.3-1.2,1.4-2.1,2.7-2.1c1.3,0,2.4,0.9,2.7,2.1h3.2c0.3-1.2,1.4-2.1,2.7-2.1s2.4,0.9,2.7,2.1h1.4
			c3.8,0,6.9-3.1,6.9-6.9V19.2C102.4,15.4,99.3,12.3,95.5,12.3z"/>
	</defs>
	<clipPath id="SVGID_2_">
		<use xlink:href="#SVGID_1_"  style="overflow:visible;"/>
	</clipPath>
</g>
<g>
	<defs>
		<path id="SVGID_3_" d="M92.4,15.4H21.2c-3.8,0-6.9,3.1-6.9,6.9v71.3c0,3.8,3.1,6.9,6.9,6.9h3.2c0.3-1.2,1.4-2.1,2.7-2.1
			s2.4,0.9,2.7,2.1h3.2c0.3-1.2,1.4-2.1,2.7-2.1c1.3,0,2.4,0.9,2.7,2.1h3.2c0.3-1.2,1.4-2.1,2.7-2.1c1.3,0,2.4,0.9,2.7,2.1h3.2
			c0.3-1.2,1.4-2.1,2.7-2.1c1.3,0,2.4,0.9,2.7,2.1h3.2c0.3-1.2,1.4-2.1,2.7-2.1c1.3,0,2.4,0.9,2.7,2.1H68c0.3-1.2,1.4-2.1,2.7-2.1
			s2.4,0.9,2.7,2.1h3.2c0.3-1.2,1.4-2.1,2.7-2.1c1.3,0,2.4,0.9,2.7,2.1h3.2c0.3-1.2,1.4-2.1,2.7-2.1s2.4,0.9,2.7,2.1h1.4
			c3.8,0,6.9-3.1,6.9-6.9V22.3C99.3,18.5,96.2,15.4,92.4,15.4z"/>
	</defs>
	<clipPath id="SVGID_4_">
		<use xlink:href="#SVGID_3_"  style="overflow:visible;"/>
	</clipPath>
</g>
<g>
	<defs>
		<path id="SVGID_5_" d="M92.4,15.4H21.2c-3.8,0-6.9,3.1-6.9,6.9v71.3c0,3.8,3.1,6.9,6.9,6.9h3.2c0.3-1.2,1.4-2.1,2.7-2.1
			s2.4,0.9,2.7,2.1h3.2c0.3-1.2,1.4-2.1,2.7-2.1c1.3,0,2.4,0.9,2.7,2.1h3.2c0.3-1.2,1.4-2.1,2.7-2.1c1.3,0,2.4,0.9,2.7,2.1h3.2
			c0.3-1.2,1.4-2.1,2.7-2.1c1.3,0,2.4,0.9,2.7,2.1h3.2c0.3-1.2,1.4-2.1,2.7-2.1c1.3,0,2.4,0.9,2.7,2.1H68c0.3-1.2,1.4-2.1,2.7-2.1
			s2.4,0.9,2.7,2.1h3.2c0.3-1.2,1.4-2.1,2.7-2.1c1.3,0,2.4,0.9,2.7,2.1h3.2c0.3-1.2,1.4-2.1,2.7-2.1s2.4,0.9,2.7,2.1h1.4
			c3.8,0,6.9-3.1,6.9-6.9V22.3C99.3,18.5,96.2,15.4,92.4,15.4z"/>
	</defs>
	<clipPath id="SVGID_6_">
		<use xlink:href="#SVGID_5_"  style="overflow:visible;"/>
	</clipPath>
	<g transform="matrix(1 1.490116e-08 0 1 0 -3.814697e-06)" style="clip-path:url(#SVGID_6_);">
		
			<image style="overflow:visible;" width="1000" height="881" xlink:href="../../../../../../../../../Volumes/nonplusultra-monster/Ablage/comiciade19:20/01 Comiciade/02 Künstler/Der kleine Karl und die Printe des Teufels-Cover.jpg"  transform="matrix(5.999886e-02 -1.005694e-02 1.089259e-02 6.498431e-02 21.4543 36.7866)">
		</image>
	</g>
</g>
<g>
	<defs>
		<path id="SVGID_7_" d="M92.4,15.4H21.2c-3.8,0-6.9,3.1-6.9,6.9v71.3c0,3.8,3.1,6.9,6.9,6.9h3.2c0.3-1.2,1.4-2.1,2.7-2.1
			s2.4,0.9,2.7,2.1h3.2c0.3-1.2,1.4-2.1,2.7-2.1c1.3,0,2.4,0.9,2.7,2.1h3.2c0.3-1.2,1.4-2.1,2.7-2.1c1.3,0,2.4,0.9,2.7,2.1h3.2
			c0.3-1.2,1.4-2.1,2.7-2.1c1.3,0,2.4,0.9,2.7,2.1h3.2c0.3-1.2,1.4-2.1,2.7-2.1c1.3,0,2.4,0.9,2.7,2.1H68c0.3-1.2,1.4-2.1,2.7-2.1
			s2.4,0.9,2.7,2.1h3.2c0.3-1.2,1.4-2.1,2.7-2.1c1.3,0,2.4,0.9,2.7,2.1h3.2c0.3-1.2,1.4-2.1,2.7-2.1s2.4,0.9,2.7,2.1h1.4
			c3.8,0,6.9-3.1,6.9-6.9V22.3C99.3,18.5,96.2,15.4,92.4,15.4z"/>
	</defs>
	<clipPath id="SVGID_8_">
		<use xlink:href="#SVGID_7_"  style="overflow:visible;"/>
	</clipPath>
	<rect x="5.8" y="7.4" class="st1" width="98" height="25.9"/>
</g>
<rect x="29" y="19.4" class="st2" width="58.7" height="10.9"/>
<text transform="matrix(1 0 0 1 28.9837 30.0584)" class="st3 st4 st5">COUPON</text>
<g>
	<defs>
		<path id="SVGID_9_" d="M92.4,15.4H21.2c-3.8,0-6.9,3.1-6.9,6.9v71.3c0,3.8,3.1,6.9,6.9,6.9h3.2c0.3-1.2,1.4-2.1,2.7-2.1
			s2.4,0.9,2.7,2.1h3.2c0.3-1.2,1.4-2.1,2.7-2.1c1.3,0,2.4,0.9,2.7,2.1h3.2c0.3-1.2,1.4-2.1,2.7-2.1c1.3,0,2.4,0.9,2.7,2.1h3.2
			c0.3-1.2,1.4-2.1,2.7-2.1c1.3,0,2.4,0.9,2.7,2.1h3.2c0.3-1.2,1.4-2.1,2.7-2.1c1.3,0,2.4,0.9,2.7,2.1H68c0.3-1.2,1.4-2.1,2.7-2.1
			s2.4,0.9,2.7,2.1h3.2c0.3-1.2,1.4-2.1,2.7-2.1c1.3,0,2.4,0.9,2.7,2.1h3.2c0.3-1.2,1.4-2.1,2.7-2.1s2.4,0.9,2.7,2.1h1.4
			c3.8,0,6.9-3.1,6.9-6.9V22.3C99.3,18.5,96.2,15.4,92.4,15.4z"/>
	</defs>
	<clipPath id="SVGID_10_">
		<use xlink:href="#SVGID_9_"  style="overflow:visible;"/>
	</clipPath>
	<rect x="6.5" y="85.4" class="st6" width="98.7" height="21.3"/>
</g>
<rect x="5.5" y="88.6" class="st2" width="103.1" height="9.9"/>
<text transform="matrix(1 0 0 1 18.5569 96.0165)" class="st3 st7 st8">KARL DER KLEINE BAND</text>
</svg>
