<?xml version="1.0" encoding="utf-8"?>
<!-- Generator: Adobe Illustrator 25.2.3, SVG Export Plug-In . SVG Version: 6.00 Build 0)  -->
<svg version="1.1" id="Ebene_1" xmlns="http://www.w3.org/2000/svg" xmlns:xlink="http://www.w3.org/1999/xlink" x="0px" y="0px"
	 viewBox="0 0 113.4 113.4" style="enable-background:new 0 0 113.4 113.4;" xml:space="preserve">
<style type="text/css">
	.st0{fill:#FFFFFF;stroke:#BFCFD1;stroke-width:0.9131;stroke-miterlimit:10;}
	.st1{clip-path:url(#SVGID_10_);fill:#BFCFD1;}
	.st2{fill:none;}
	.st3{fill:#152A51;}
	.st4{font-family:'MyriadPro-Cond';}
	.st5{font-size:11px;}
	.st6{clip-path:url(#SVGID_12_);fill:#BFCFD1;}
	.st7{font-family:'MyriadPro-Regular';}
	.st8{font-size:15px;}
	.st9{fill:#E64217;}
	.st10{fill:#FFFFFF;}
	.st11{font-family:'MyriadPro-SemiboldCond';}
	.st12{font-size:11.1173px;}
</style>
<path class="st0" d="M92.1,15.3H20.8c-3.8,0-6.9,3.1-6.9,6.9v71.3c0,3.8,3.1,6.9,6.9,6.9H24c0.3-1.2,1.4-2.1,2.7-2.1
	s2.4,0.9,2.7,2.1h3.2c0.3-1.2,1.4-2.1,2.7-2.1c1.3,0,2.4,0.9,2.7,2.1h3.2c0.3-1.2,1.4-2.1,2.7-2.1c1.3,0,2.4,0.9,2.7,2.1h3.2
	c0.3-1.2,1.4-2.1,2.7-2.1c1.3,0,2.4,0.9,2.7,2.1H59c0.3-1.2,1.4-2.1,2.7-2.1c1.3,0,2.4,0.9,2.7,2.1h3.2c0.3-1.2,1.4-2.1,2.7-2.1
	s2.4,0.9,2.7,2.1h3.2c0.3-1.2,1.4-2.1,2.7-2.1c1.3,0,2.4,0.9,2.7,2.1h3.2c0.3-1.2,1.4-2.1,2.7-2.1s2.4,0.9,2.7,2.1h1.4
	c3.8,0,6.9-3.1,6.9-6.9V22.2C99,18.4,95.9,15.3,92.1,15.3z"/>
<g>
	<defs>
		<path id="SVGID_1_" d="M95.2,12.2H23.9c-3.8,0-6.9,3.1-6.9,6.9v71.3c0,3.8,3.1,6.9,6.9,6.9h3.2c0.3-1.2,1.4-2.1,2.7-2.1
			s2.4,0.9,2.7,2.1h3.2c0.3-1.2,1.4-2.1,2.7-2.1c1.3,0,2.4,0.9,2.7,2.1h3.2c0.3-1.2,1.4-2.1,2.7-2.1c1.3,0,2.4,0.9,2.7,2.1h3.2
			c0.3-1.2,1.4-2.1,2.7-2.1c1.3,0,2.4,0.9,2.7,2.1h3.2c0.3-1.2,1.4-2.1,2.7-2.1c1.3,0,2.4,0.9,2.7,2.1h3.2c0.3-1.2,1.4-2.1,2.7-2.1
			s2.4,0.9,2.7,2.1h3.2c0.3-1.2,1.4-2.1,2.7-2.1c1.3,0,2.4,0.9,2.7,2.1h3.2c0.3-1.2,1.4-2.1,2.7-2.1s2.4,0.9,2.7,2.1h1.4
			c3.8,0,6.9-3.1,6.9-6.9V19.1C102.1,15.3,99,12.2,95.2,12.2z"/>
	</defs>
	<clipPath id="SVGID_2_">
		<use xlink:href="#SVGID_1_"  style="overflow:visible;"/>
	</clipPath>
</g>
<g>
	<defs>
		<path id="SVGID_3_" d="M92.1,15.3H20.8c-3.8,0-6.9,3.1-6.9,6.9v71.3c0,3.8,3.1,6.9,6.9,6.9H24c0.3-1.2,1.4-2.1,2.7-2.1
			s2.4,0.9,2.7,2.1h3.2c0.3-1.2,1.4-2.1,2.7-2.1c1.3,0,2.4,0.9,2.7,2.1h3.2c0.3-1.2,1.4-2.1,2.7-2.1c1.3,0,2.4,0.9,2.7,2.1h3.2
			c0.3-1.2,1.4-2.1,2.7-2.1c1.3,0,2.4,0.9,2.7,2.1H59c0.3-1.2,1.4-2.1,2.7-2.1c1.3,0,2.4,0.9,2.7,2.1h3.2c0.3-1.2,1.4-2.1,2.7-2.1
			s2.4,0.9,2.7,2.1h3.2c0.3-1.2,1.4-2.1,2.7-2.1c1.3,0,2.4,0.9,2.7,2.1h3.2c0.3-1.2,1.4-2.1,2.7-2.1s2.4,0.9,2.7,2.1h1.4
			c3.8,0,6.9-3.1,6.9-6.9V22.2C99,18.4,95.9,15.3,92.1,15.3z"/>
	</defs>
	<clipPath id="SVGID_4_">
		<use xlink:href="#SVGID_3_"  style="overflow:visible;"/>
	</clipPath>
</g>
<g>
	<defs>
		<path id="SVGID_5_" d="M92.1,15.3H20.8c-3.8,0-6.9,3.1-6.9,6.9v71.3c0,3.8,3.1,6.9,6.9,6.9H24c0.3-1.2,1.4-2.1,2.7-2.1
			s2.4,0.9,2.7,2.1h3.2c0.3-1.2,1.4-2.1,2.7-2.1c1.3,0,2.4,0.9,2.7,2.1h3.2c0.3-1.2,1.4-2.1,2.7-2.1c1.3,0,2.4,0.9,2.7,2.1h3.2
			c0.3-1.2,1.4-2.1,2.7-2.1c1.3,0,2.4,0.9,2.7,2.1H59c0.3-1.2,1.4-2.1,2.7-2.1c1.3,0,2.4,0.9,2.7,2.1h3.2c0.3-1.2,1.4-2.1,2.7-2.1
			s2.4,0.9,2.7,2.1h3.2c0.3-1.2,1.4-2.1,2.7-2.1c1.3,0,2.4,0.9,2.7,2.1h3.2c0.3-1.2,1.4-2.1,2.7-2.1s2.4,0.9,2.7,2.1h1.4
			c3.8,0,6.9-3.1,6.9-6.9V22.2C99,18.4,95.9,15.3,92.1,15.3z"/>
	</defs>
	<clipPath id="SVGID_6_">
		<use xlink:href="#SVGID_5_"  style="overflow:visible;"/>
	</clipPath>
</g>
<g>
	<defs>
		<path id="SVGID_7_" d="M92.1,15.3H20.8c-3.8,0-6.9,3.1-6.9,6.9v71.3c0,3.8,3.1,6.9,6.9,6.9H24c0.3-1.2,1.4-2.1,2.7-2.1
			s2.4,0.9,2.7,2.1h3.2c0.3-1.2,1.4-2.1,2.7-2.1c1.3,0,2.4,0.9,2.7,2.1h3.2c0.3-1.2,1.4-2.1,2.7-2.1c1.3,0,2.4,0.9,2.7,2.1h3.2
			c0.3-1.2,1.4-2.1,2.7-2.1c1.3,0,2.4,0.9,2.7,2.1H59c0.3-1.2,1.4-2.1,2.7-2.1c1.3,0,2.4,0.9,2.7,2.1h3.2c0.3-1.2,1.4-2.1,2.7-2.1
			s2.4,0.9,2.7,2.1h3.2c0.3-1.2,1.4-2.1,2.7-2.1c1.3,0,2.4,0.9,2.7,2.1h3.2c0.3-1.2,1.4-2.1,2.7-2.1s2.4,0.9,2.7,2.1h1.4
			c3.8,0,6.9-3.1,6.9-6.9V22.2C99,18.4,95.9,15.3,92.1,15.3z"/>
	</defs>
	<clipPath id="SVGID_8_">
		<use xlink:href="#SVGID_7_"  style="overflow:visible;"/>
	</clipPath>
	<g style="clip-path:url(#SVGID_8_);">
		
			<image style="overflow:visible;" width="1125" height="794" xlink:href="../Importe/Lavalle_Brillen/IMG_4224.jpg"  transform="matrix(7.296372e-02 0 0 7.382166e-02 15.3894 30.1091)">
		</image>
	</g>
</g>
<g>
	<defs>
		<path id="SVGID_9_" d="M92.1,12.2H20.8c-3.8,0-6.9,3.2-6.9,7.1v73.9c0,3.9,3.1,7.1,6.9,7.1H24c0.3-1.3,1.4-2.2,2.7-2.2
			s2.4,0.9,2.7,2.2h3.2c0.3-1.3,1.4-2.2,2.7-2.2c1.3,0,2.4,0.9,2.7,2.2h3.2c0.3-1.3,1.4-2.2,2.7-2.2c1.3,0,2.4,0.9,2.7,2.2h3.2
			c0.3-1.3,1.4-2.2,2.7-2.2c1.3,0,2.4,0.9,2.7,2.2H59c0.3-1.3,1.4-2.2,2.7-2.2c1.3,0,2.4,0.9,2.7,2.2h3.2c0.3-1.3,1.4-2.2,2.7-2.2
			s2.4,0.9,2.7,2.2h3.2c0.3-1.3,1.4-2.2,2.7-2.2c1.3,0,2.4,0.9,2.7,2.2h3.2c0.3-1.3,1.4-2.2,2.7-2.2s2.4,0.9,2.7,2.2h1.4
			c3.8,0,6.9-3.2,6.9-7.1V19.3C99,15.4,95.9,12.2,92.1,12.2z"/>
	</defs>
	<clipPath id="SVGID_10_">
		<use xlink:href="#SVGID_9_"  style="overflow:visible;"/>
	</clipPath>
	<rect x="6.2" y="84.8" class="st1" width="98.7" height="22.1"/>
</g>
<rect x="1.3" y="87.5" class="st2" width="111.3" height="9.9"/>
<text transform="matrix(1 0 0 1 27.1225 95.075)" class="st3 st4 st5">BRILLENGESTELLE</text>
<g>
	<defs>
		<path id="SVGID_11_" d="M92.1,15.3H20.8c-3.8,0-6.9,3.1-6.9,6.9v71.3c0,3.8,3.1,6.9,6.9,6.9H24c0.3-1.2,1.4-2.1,2.7-2.1
			s2.4,0.9,2.7,2.1h3.2c0.3-1.2,1.4-2.1,2.7-2.1c1.3,0,2.4,0.9,2.7,2.1h3.2c0.3-1.2,1.4-2.1,2.7-2.1c1.3,0,2.4,0.9,2.7,2.1h3.2
			c0.3-1.2,1.4-2.1,2.7-2.1c1.3,0,2.4,0.9,2.7,2.1H59c0.3-1.2,1.4-2.1,2.7-2.1c1.3,0,2.4,0.9,2.7,2.1h3.2c0.3-1.2,1.4-2.1,2.7-2.1
			s2.4,0.9,2.7,2.1h3.2c0.3-1.2,1.4-2.1,2.7-2.1c1.3,0,2.4,0.9,2.7,2.1h3.2c0.3-1.2,1.4-2.1,2.7-2.1s2.4,0.9,2.7,2.1h1.4
			c3.8,0,6.9-3.1,6.9-6.9V22.2C99,18.4,95.9,15.3,92.1,15.3z"/>
	</defs>
	<clipPath id="SVGID_12_">
		<use xlink:href="#SVGID_11_"  style="overflow:visible;"/>
	</clipPath>
	<rect x="5.5" y="7.3" class="st6" width="98" height="25.9"/>
</g>
<rect x="28.7" y="19.3" class="st2" width="58.7" height="10.9"/>
<text transform="matrix(1 0 0 1 28.6539 29.9441)" class="st3 st7 st8">COUPON</text>
<circle class="st9" cx="81.6" cy="49.3" r="13"/>
<rect x="69.7" y="41.4" class="st2" width="23.7" height="20.9"/>
<text transform="matrix(1 0 0 1 73.4611 49.0444)"><tspan x="0" y="0" class="st10 st11 st12">20%</tspan><tspan x="2.7" y="8.6" class="st10 st4 st12">auf </tspan></text>
</svg>
