<?xml version="1.0" encoding="utf-8"?>
<!-- Generator: Adobe Illustrator 25.2.3, SVG Export Plug-In . SVG Version: 6.00 Build 0)  -->
<svg version="1.1" id="Ebene_1" xmlns="http://www.w3.org/2000/svg" xmlns:xlink="http://www.w3.org/1999/xlink" x="0px" y="0px"
	 viewBox="0 0 895 105" style="enable-background:new 0 0 895 105;" xml:space="preserve">
<style type="text/css">
	.st0{fill:#142A52;}
	.st1{fill:none;}
	.st2{fill:#E64218;}
	.st3{font-family:'AmaticSC-Bold';}
	.st4{font-size:65px;}
</style>
<g>
	<path class="st0" d="M846.3,3H47.7C21.9,3,1,23.9,1,49.7v4.5C1,80.1,21.9,101,47.7,101h798.5c25.8,0,46.7-20.9,46.7-46.7v-4.5
		C893,23.9,872.1,3,846.3,3z M56.5,82C39.7,82,26,68.3,26,51.5C26,34.7,39.7,21,56.5,21S87,34.7,87,51.5C87,68.3,73.3,82,56.5,82z"
		/>
	<rect x="46.4" y="33.1" class="st1" width="34.4" height="58"/>
	<text transform="matrix(1 0 0 1 46.414 76.0956)" class="st2 st3 st4">C</text>
</g>
</svg>
