<?xml version="1.0" encoding="utf-8"?>
<!-- Generator: Adobe Illustrator 25.2.3, SVG Export Plug-In . SVG Version: 6.00 Build 0)  -->
<svg version="1.1" id="Ebene_1" xmlns="http://www.w3.org/2000/svg" xmlns:xlink="http://www.w3.org/1999/xlink" x="0px" y="0px"
	 viewBox="0 0 895 105" style="enable-background:new 0 0 895 105;" xml:space="preserve">
<style type="text/css">
	.st0{fill:#142A52;}
	.st1{fill:none;}
	.st2{fill:#E64218;}
	.st3{font-family:'AmaticSC-Bold';}
	.st4{font-size:65px;}
</style>
<g>
	<path class="st0" d="M846.8,3.9H48.2C22.4,3.9,1.5,24.8,1.5,50.6v4.5c0,25.8,20.9,46.7,46.7,46.7h798.5c25.8,0,46.7-20.9,46.7-46.7
		v-4.5C893.5,24.8,872.6,3.9,846.8,3.9z M57,80.9c-16.8,0-30.5-13.7-30.5-30.5c0-16.8,13.7-30.5,30.5-30.5s30.5,13.7,30.5,30.5
		C87.5,67.2,73.8,80.9,57,80.9z"/>
	<rect x="45.1" y="29.9" class="st1" width="34.4" height="58"/>
	<text transform="matrix(1 0 0 1 45.1426 72.8537)" class="st2 st3 st4">A</text>
</g>
</svg>
