<?xml version="1.0" encoding="utf-8"?>
<!-- Generator: Adobe Illustrator 25.2.3, SVG Export Plug-In . SVG Version: 6.00 Build 0)  -->
<svg version="1.1" id="Ebene_1" xmlns="http://www.w3.org/2000/svg" xmlns:xlink="http://www.w3.org/1999/xlink" x="0px" y="0px"
	 viewBox="0 0 895 105" style="enable-background:new 0 0 895 105;" xml:space="preserve">
<style type="text/css">
	.st0{fill:#142A52;}
	.st1{fill:none;}
	.st2{fill:#E64218;}
	.st3{font-family:'AmaticSC-Bold';}
	.st4{font-size:65px;}
</style>
<g>
	<path class="st0" d="M847.3,3H48.7C22.9,3,2,23.9,2,49.7v4.5C2,80.1,22.9,101,48.7,101h798.5c25.8,0,46.7-20.9,46.7-46.7v-4.5
		C894,23.9,873.1,3,847.3,3z M57.5,84C40.7,84,27,70.3,27,53.5C27,36.7,40.7,23,57.5,23S88,36.7,88,53.5C88,70.3,74.3,84,57.5,84z"
		/>
	<rect x="47.4" y="35.1" class="st1" width="34.4" height="58"/>
	<text transform="matrix(1 0 0 1 47.414 78.0956)" class="st2 st3 st4">B</text>
</g>
</svg>
