<?xml version="1.0" encoding="utf-8"?>
<!-- Generator: Adobe Illustrator 25.2.3, SVG Export Plug-In . SVG Version: 6.00 Build 0)  -->
<svg version="1.1" xmlns="http://www.w3.org/2000/svg" xmlns:xlink="http://www.w3.org/1999/xlink" x="0px" y="0px"
	 viewBox="0 0 256 114" style="enable-background:new 0 0 256 114;" xml:space="preserve">
<style type="text/css">
	.st0{fill:none;stroke:#EEE087;stroke-width:2;stroke-miterlimit:10;}
	.st1{display:none;}
	.st2{display:inline;fill:none;stroke:#DEDCD7;stroke-width:2;stroke-miterlimit:10;}
	.st3{display:inline;fill:#BFA488;}
	.st4{display:inline;fill:#DEDCD7;}
	.st5{display:inline;fill:#E28770;}
	.st6{display:inline;fill:#D7997F;}
	.st7{display:inline;}
	.st8{fill:none;stroke:#EEE2BB;stroke-width:1.6591;stroke-miterlimit:10;}
	.st9{fill:#998769;}
	.st10{fill:none;stroke:#EEE2BB;stroke-width:2.9969;stroke-miterlimit:10;}
	.st11{opacity:0.5;fill:#BDCCD4;stroke:#000000;stroke-miterlimit:10;}
	.st12{opacity:0.5;fill:#BDCCD4;}
	.st13{fill:#EEE2BB;}
	.st14{fill:none;stroke:#998769;stroke-width:1.0064;stroke-miterlimit:10;}
	.st15{fill:none;stroke:#998769;stroke-miterlimit:10;}
</style>
<g id="Ebene_1">
	<path class="st0" d="M116.6,47c0,0,11.9-7,22.6,0"/>
	<line class="st0" x1="218.8" y1="70.4" x2="228" y2="73.8"/>
	<path d="M225.3,71.6c-0.6,0.2-0.7,1.4-0.7,1.9c0,0.1,0,0.2,0,0.4c0.1,0.2,0.4,0.3,0.6,0.4c2.9,0.8,4.9,2.6,5.8,5.5
		c1,3,1.7,6.2,2.2,9.4c0.6,3.2,0.8,6.5,1.1,9.7c0.3,2.6,1,5.2,2.7,7.2c0.1,0.1,0.3,0.3,0.4,0.4c0.9,0.4,1.9-1.8,2.1-2.4
		c1.6-3.2,0.7-6.6,0-9.9c-0.8-3.8-1.7-7.6-2.7-11.3c-0.3-1.3-0.6-2.5-0.9-3.8c-0.5-2-1.9-3.4-3.6-4.4c-2.2-1.3-4.6-2.2-6.9-3.1
		C225.5,71.6,225.5,71.6,225.3,71.6C225.4,71.6,225.3,71.6,225.3,71.6z"/>
	<line class="st0" x1="34.6" y1="69.3" x2="25.5" y2="72.7"/>
	<path d="M28.1,70.5c0.6,0.2,0.7,1.4,0.7,1.9c0,0.1,0,0.2,0,0.4c-0.1,0.2-0.4,0.3-0.6,0.4c-2.9,0.8-4.9,2.6-5.8,5.5
		c-1,3-1.7,6.2-2.2,9.4c-0.6,3.2-0.8,6.5-1.1,9.7c-0.3,2.6-1,5.2-2.7,7.2c-0.1,0.1-0.3,0.3-0.4,0.4c-0.9,0.4-1.9-1.8-2.1-2.4
		c-1.6-3.2-0.7-6.6,0-9.9c0.8-3.8,1.7-7.6,2.7-11.3c0.3-1.3,0.6-2.5,0.9-3.8c0.5-2,1.9-3.4,3.6-4.4c2.2-1.3,4.6-2.2,6.9-3.1
		C27.9,70.5,28,70.5,28.1,70.5C28.1,70.5,28.1,70.5,28.1,70.5z"/>
	<path d="M232.7,28.6c-0.6-3-6.2-2.9-8.5-3.7c-5.6-2-11.4-3.4-17.1-5.2c-4.1-1.3-8.5-3.1-12.8-3.6c-8.4-1.1-17-0.3-25.1,2
		c-9.5,2.7-17,7.7-23.9,14.6c-2.8,2.8-7.4,1.1-10.7,0.6c-5.2-0.7-10.5-0.8-15.8-0.1c-2.3,0.3-4.6,1.1-6.8-0.1c-1.7-1-3-2.8-4.5-4.1
		c-3.5-3-7.4-5.5-11.6-7.4c-8.3-3.8-17.6-5.4-26.7-4.8c-8.6,0.5-17,2.5-25.3,4.8c-4.2,1.2-8.3,2.4-12.4,3.7
		c-1.8,0.5-6.3,1.1-8.3,2.6c-0.5,0.4-0.9,0.9-1,1.5c-0.4,2.2,0.2,4.6,2,5.6c1.6,0.9,3.4,1.8,4.1,3.6c0.7,1.9,0.5,4.6,0.6,6.6
		c0.1,2.2,0.2,4.4,0.2,6.6c0,4.3,1.2,8.3,2.8,12.2c1.9,4.5,3.7,9,6.5,13.1c7,10.1,20.3,16,32.4,16.4c9.9,0.4,20.3-2.7,28.2-8.6
		c8.6-6.5,13.2-15.6,16.1-25.8c0.9-3.2,3.2-9,1.6-12.1c-4.3-8.7,9.2-9.3,14.6-8.8c2.9,0.3,7.2,1.1,8.2,4.3c0.6,1.8,0.1,4-1.2,5.4
		c-0.9,0.9,1,7.2,1.3,8.4c0.8,3.4,2,6.7,3.4,9.8c2.8,6.2,6.6,12.2,11.6,16.9c14.8,13.7,38.2,14.5,54.4,2.9
		c5.1-3.6,8.2-8.2,10.8-13.8c1.7-3.7,3.4-7.5,4.6-11.5c1.6-5.4,1.6-10.3,1.7-15.8c0.1-2.3-0.6-5.4,0.5-7.5c1.2-2.3,3.8-1.9,5.4-3.5
		C233,32.6,233,30.3,232.7,28.6z M72.3,90.5c-22.3,0-42-23.3-40.3-43c1.8-20.6,17.1-27.8,39.4-27.8s39.4,12.5,40.3,33.1
		C112.5,72.4,94.5,90.5,72.3,90.5z M183.4,90.6c-22.3,0-40.3-18.1-39.4-37.6c0.9-20.6,18-33.1,40.3-33.1c22.3,0,37.6,7.2,39.4,27.8
		C225.4,67.3,205.6,90.6,183.4,90.6z"/>
</g>
<g id="Ebene_4" class="st1">
	<line class="st2" x1="27" y1="66" x2="17.8" y2="69.5"/>
	<path class="st3" d="M20.5,67.2c0.6,0.2,0.7,1.4,0.7,1.9c0,0.1,0,0.2,0,0.4c-0.1,0.2-0.4,0.3-0.6,0.4c-2.9,0.8-4.9,2.6-5.8,5.5
		c-1,3-1.7,6.2-2.2,9.4c-0.6,3.2-0.8,6.5-1.1,9.7c-0.3,2.6-1,5.2-2.7,7.2c-0.1,0.1-0.3,0.3-0.4,0.4c-0.9,0.4-1.9-1.8-2.1-2.4
		c-1.6-3.2-0.7-6.6,0-9.9c0.8-3.8,1.7-7.6,2.7-11.3C9,77.2,9.4,76,9.7,74.7c0.5-2,1.9-3.4,3.6-4.4c2.2-1.3,4.6-2.2,6.9-3.1
		C20.2,67.2,20.3,67.2,20.5,67.2C20.4,67.2,20.4,67.2,20.5,67.2z"/>
	<path class="st4" d="M21.5,39.5c1.9,0,3.9,0,5.8,0c-0.4,0,0,7.9,0,8.6c0.3,2.9,0.8,5.8,1.5,8.6c1.5,5.6,4,11,7.3,15.8
		c2.3,3.2,5.3,6.1,8.6,8.3c2.1,1.4,4.3,3,6.6,4.2c2.4,1.2,5.5,1.8,8.2,2.3C70.8,89.8,83.9,89,94,82.9c9.5-5.8,15.7-16.3,16.4-27.4
		c0.3-4.7-0.2-9.4-1.7-13.9c2.3-1,5-3.5,7.3-4.5c-0.2,0.1,0.2,6.3,0.3,6.8c1.2,11.5-1.8,24.3-8.9,33.6c-6.7,8.6-17.5,13.9-28.2,15.6
		c-8.7,1.3-17.2,1.1-25.5-1.7C43.1,87.6,34.1,80.4,28.4,71c-3-4.9-5.8-15.3-6.4-21C21,40,21.5,38,21.5,39.5z"/>
	<path class="st4" d="M141,37c2.6,1.5,5.2,3,7.8,4.5c-0.5,7.5-1.7,14.6,0.3,22c3.8,14,16.1,23.8,30.2,26.2
		c15,2.6,31.9-2.2,41.6-14.2c8.2-10.1,9-22.1,9-34.5c0,0,6.5,0.5,6.5,0.5c0,7.6,0.1,14.8-2.6,22.1c-4,11-12.2,20.1-22.5,25.7
		c-11.7,6.4-26.3,8.2-39.1,4.4c-14.9-4.4-26.1-17.3-30-32.1C140.3,53.6,140.1,45.2,141,37z"/>
	<path class="st3" d="M12,35.1c2.5-0.4,9.5,4.4,9.5,4.4s6,0,6,0c2.4-3.1,4.9-6,7.6-8.8c4.5-4.6,10.1-6.3,16.4-6.8
		c8.6-0.7,17.7-0.6,26.3,0.5c12.4,1.6,23.9,6.5,31,17.2c0.6,0.9,6.9-3.7,7.9-4c0.9-0.3,2.5,0,3.5,0c2.9,0,5.8,0.1,8.7,0
		c2-0.1,4.1,0,6.1,0c1.1,0,2.3,0,3.4,0c0.3,0,0.7-0.1,1,0c1.1,0.4,2,1.3,3.1,1.7c2.1,0.8,4.4,1.5,6.5,2.3c-0.5-0.2,3.5-6.6,3.9-7.1
		c5.4-7.5,16.2-9.2,24.7-10.3c8.8-1.2,17.8-0.9,26.6,0.3c5.3,0.7,10.8,1.8,15.5,4.6c4.6,2.7,7.6,7.7,9.8,12.5h7.1c0,0,0,0,1-1
		s8-3,8-3s0-9.4,0-9.4c-27-5.8-57.6-13.9-84.8-4.9c-3.6,1.2-7,2.8-10.3,4.8c-1.2,0.7-6.1,5.2-7.4,5c0,0-10.6-1.5-16.1-1.3
		c-5.5,0.2-13.9,1.2-14,1.3c-2,0.2-5.5-5.1-7.3-6.1c-9.3-5.4-20.9-6.9-31.4-7.9C61,17.7,48.1,18.8,35,20.6C33,20.9,12,23,12,25
		C12,25,12,35.1,12,35.1z"/>
	<line class="st2" x1="229.1" y1="67.1" x2="238.3" y2="70.5"/>
	<path class="st3" d="M235.7,68.3c-0.6,0.2-0.7,1.4-0.7,1.9c0,0.1,0,0.2,0,0.4c0.1,0.2,0.4,0.3,0.6,0.4c2.9,0.8,4.9,2.6,5.8,5.5
		c1,3,1.7,6.2,2.2,9.4c0.6,3.2,0.8,6.5,1.1,9.7c0.3,2.6,1,5.2,2.7,7.2c0.1,0.1,0.3,0.3,0.4,0.4c0.9,0.4,1.9-1.8,2.1-2.4
		c1.6-3.2,0.7-6.6,0-9.9c-0.8-3.8-1.7-7.6-2.7-11.3c-0.3-1.3-0.6-2.5-0.9-3.8c-0.5-2-1.9-3.4-3.6-4.4c-2.2-1.3-4.6-2.2-6.9-3.1
		C235.9,68.3,235.8,68.3,235.7,68.3C235.7,68.3,235.7,68.3,235.7,68.3z"/>
</g>
<g id="Ebene_5" class="st1">
	<path class="st5" d="M29.2,69.2c0,0-20,27.8-19.9,29.8s0.5,5,3.2,4.6c2.7-0.4,11.1-7.9,11.1-7.9s1.3-2.6,0.6-6.4
		c-0.7-3.8,2.6-8.9,2.6-8.9l6.7-9.6L29.2,69.2z"/>
	<path class="st5" d="M229.9,68.6c0,0,19.2,28.4,19.1,30.3c-0.1,2-0.7,5-3.3,4.5c-2.7-0.5-10.9-8.2-10.9-8.2s-1.2-2.6-0.4-6.4
		s-2.4-9-2.4-9l-6.5-9.8L229.9,68.6z"/>
	<path class="st6" d="M239.6,34.2l-0.1-8.7c0,0,1,0-4-2c-15.3-6.1-33.8-7.1-50.1-6c-11.4,0.8-24.8,2.2-34.9,8c-7,4-12.4,12-12.4,12
		s-2.6-1-6.6-1s-12,1-12,1S116,30,110,26s-14-6-22-8s-25-3-39-2s-31,7-31,7v9c0,0.9,2.6,2.3,3.1,3.1c1.7,3.1,0.7,7.1,0.4,10.4
		c-0.3,3.8,0.3,7.7,1.1,11.4c2.7,13.4,10.7,28.3,22.7,35.6c11.7,7.1,27,6.6,39.8,2.9c18.4-5.4,26.9-20.2,33.1-37.2
		c1.2-3.2,2.1-9.2,5.2-11.1c1.1-0.7,2.4-0.8,3.7-0.9c5.1-0.1,8.3,0.6,10.5,5.4c1.5,3.2,2,6.6,3,9.9c2.8,9.1,7.6,17.4,14.1,24.3
		c9.9,10.4,25.4,13.9,39.3,12.3c6.5-0.7,12.9-2.8,18.5-6.2c5.7-3.4,8.7-7.8,12.3-13.3c7.8-12.1,12.3-26.8,10.5-41.3
		C235,35.5,239.6,34.2,239.6,34.2z M112.9,59.6C108.6,75.1,94.7,90.5,78.3,93c-16.3,2.5-33.3-3.2-42.1-17.7
		C29.9,65.2,25.3,52.4,26,40.4c0.3-4.1,1.3-7.9,3.3-11.1c2-3.2,5-5.6,9.2-6.8c18.2-5.2,38.8-4.7,56.7,1.8
		c6.6,2.4,12.9,6.4,16.8,12.3C116.4,43.3,115,52.2,112.9,59.6z M221,77c-8.8,14.4-25.8,20.1-42.1,17.7
		c-16.5-2.5-30.3-17.8-34.6-33.4c-2.1-7.4-3.5-16.3,0.9-23c3.9-5.9,10.2-9.9,16.8-12.3c17.9-6.4,38.5-7,56.7-1.8
		c4.2,1.2,7.2,3.6,9.2,6.8c2,3.2,3,7,3.3,11.1C231.9,54.1,227.2,66.9,221,77z"/>
</g>
<g id="Ebene_3" class="st1">
	<g class="st7">
		<line class="st8" x1="35.4" y1="72.9" x2="26.3" y2="76.3"/>
		<path class="st9" d="M28.9,74.1c0.6,0.2,0.7,1.4,0.7,1.9c0,0.1,0,0.2,0,0.4c-0.1,0.2-0.4,0.3-0.6,0.4c-2.9,0.8-4.9,2.6-5.8,5.5
			c-1,3-1.7,6.2-2.2,9.4c-0.6,3.2-0.8,6.5-1.1,9.7c-0.3,2.6-1,5.2-2.7,7.2c-0.1,0.1-0.3,0.3-0.4,0.4c-0.9,0.4-1.9-1.8-2.1-2.4
			c-1.6-3.2-0.7-6.6,0-9.9c0.8-3.8,1.7-7.6,2.7-11.3c0.3-1.3,0.6-2.5,0.9-3.8c0.5-2,1.9-3.4,3.6-4.4c2.2-1.3,4.6-2.2,6.9-3.1
			C28.7,74.1,28.8,74.1,28.9,74.1C28.9,74.1,28.9,74.1,28.9,74.1z"/>
		<line class="st8" x1="221.6" y1="74.7" x2="230.7" y2="78.1"/>
		<path class="st9" d="M228.1,75.9c-0.6,0.2-0.7,1.4-0.7,1.9c0,0.1,0,0.2,0,0.4c0.1,0.2,0.4,0.3,0.6,0.4c2.9,0.8,4.9,2.6,5.8,5.5
			c1,3,1.7,6.2,2.2,9.4c0.6,3.2,0.8,6.5,1.1,9.7c0.3,2.6,1,5.2,2.7,7.2c0.1,0.1,0.3,0.3,0.4,0.4c0.9,0.4,1.9-1.8,2.1-2.4
			c1.6-3.2,0.7-6.6,0-9.9c-0.8-3.8-1.7-7.6-2.7-11.3c-0.3-1.3-0.6-2.5-0.9-3.8c-0.5-2-1.9-3.4-3.6-4.4c-2.2-1.3-4.6-2.2-6.9-3.1
			C228.3,75.9,228.2,75.9,228.1,75.9C228.1,75.9,228.1,75.9,228.1,75.9z"/>
		<path class="st10" d="M42.4,25.2c1.7-2.2,3.7-4,6.2-5.4c7.2-3.9,17-4.3,24.9-4.7c13.8-0.8,27.4,1.7,41.2,1.7
			c9.9,0,19.7,0,29.6-0.1c7.7-0.1,15.6-0.3,23.2-1.2c11.7-1.4,25.6-1.8,36.9,2c4.9,1.6,8.1,4.7,11.1,9c3.5,4.9,5.5,11.4,6.4,17.2
			c1.1,7.9,1.4,16,0.8,24c-0.5,6.2-0.8,13.8-5,18.8c-4.3,5.2-11.8,7.5-18.2,8.8c-9.5,2-20.3,1.7-29.4-1.9
			c-9.5-3.8-16.6-11.4-22-19.9c-2.8-4.3-5.1-8.9-7.3-13.6c-1-2.2-2.1-4.4-3.1-6.6c-1-2.3-1.6-4.9-3.3-6.8c-0.2-0.2-0.4-0.4-0.6-0.6
			c-2.2-1.8-5.4-1.8-7.9-0.7c-4.5,1.9-5.6,8-7.7,11.9c-3.1,5.6-5.8,11.4-9.1,17c-5.4,9-13.6,17.8-24,20.5c-8.4,2.2-17.3,2.5-25.8,1
			c-8.2-1.5-17.2-3.8-21.3-11.8c-2.1-4-2.8-8.6-3.1-13.1c-0.6-10.2-0.7-20.7,1.6-30.7C37.4,34.8,39.2,29.5,42.4,25.2z"/>
		<path class="st11" d="M56.5,18.7c8.7-2,17.6-2.6,26.5-2.4c9.7,0.2,20,0.1,28.8,4.7c3.3,1.7,6.3,4.4,7.7,7.9
			c3.8,9.6-1.5,21.8-5.2,30.6c-5.8,13.5-14,28.7-28.8,33.5c-11.5,3.7-25.5,2.9-36.6-1.6c-7.8-3.1-11.4-10-12.2-18
			c-0.9-8.9-0.7-17.8,0.1-26.6C37.9,34.7,43.5,21.6,56.5,18.7z"/>
		<path class="st12" d="M202.2,18.5c-8.8-2-17.9-2.6-26.9-2.4c-9.8,0.2-20.3,0.1-29.2,4.8c-3.4,1.7-6.4,4.4-7.8,8
			c-3.8,9.7,1.5,22,5.3,30.9c5.9,13.6,14.2,29,29.3,33.8c11.6,3.7,25.9,2.9,37.1-1.6c7.9-3.2,10.2-9.9,11-17.9
			c0.9-8.9,0.8-18.1,0-27C219.8,34.8,215.4,21.5,202.2,18.5z"/>
		<path class="st13" d="M35.5,43.5h-4.9c-0.6,0-1.1-0.5-1.1-1.1v-3.8c0-0.6,0.5-1.1,1.1-1.1h4.9V43.5z"/>
		<path class="st13" d="M222,45h4.9c0.6,0,1.1-0.5,1.1-1.1v-3.8c0-0.6-0.5-1.1-1.1-1.1H222V45z"/>
		<path class="st14" d="M201.4,18.5c-8.7-2-17.7-2.6-26.6-2.4c-9.7,0.2-20,0.1-28.9,4.8c-3.3,1.7-6.3,4.4-7.7,8
			c-3.8,9.7,1.5,22,5.2,30.9c5.8,13.6,14.1,29,28.9,33.8c11.5,3.7,25.6,2.9,36.7-1.6c7.8-3.2,11.5-10.1,12.3-18.2
			c0.9-8.9,0.7-17.9-0.1-26.9C220.1,34.7,214.5,21.5,201.4,18.5z"/>
		<path class="st15" d="M56.5,18.7c8.7-2,17.6-2.6,26.5-2.4c9.7,0.2,20,0.1,28.8,4.7c3.3,1.7,6.3,4.4,7.7,7.9
			c3.8,9.6-1.5,21.8-5.2,30.6c-5.8,13.5-14,28.7-28.8,33.5c-11.5,3.7-25.5,2.9-36.6-1.6c-7.8-3.1-11.4-10-12.2-18
			c-0.9-8.9-0.7-17.8,0.1-26.6C37.9,34.7,43.5,21.6,56.5,18.7z"/>
	</g>
</g>
</svg>
