<?xml version="1.0" encoding="utf-8"?>
<!-- Generator: Adobe Illustrator 25.2.3, SVG Export Plug-In . SVG Version: 6.00 Build 0)  -->
<svg version="1.1" id="Ebene_1" xmlns="http://www.w3.org/2000/svg" xmlns:xlink="http://www.w3.org/1999/xlink" x="0px" y="0px"
	 viewBox="0 0 1920 1080" style="enable-background:new 0 0 1920 1080;" xml:space="preserve">
<style type="text/css">
	.st0{fill-rule:evenodd;clip-rule:evenodd;fill:none;}
	.st1{fill-rule:evenodd;clip-rule:evenodd;}
	.st2{fill:#BFCFD1;}
	.st3{opacity:5.000000e-02;fill:url(#SVGID_1_);}
</style>
<pattern  width="160" height="160" patternUnits="userSpaceOnUse" id="Black_Dot_6px_H20_S1" viewBox="0 -176 160 160" style="overflow:visible;">
	<g>
		<rect y="-176" class="st0" width="160" height="160"/>
		<g>
			<g>
				<g>
					<circle class="st1" cx="173" cy="-3" r="3"/>
					<circle class="st1" cx="153" cy="-3" r="3"/>
					<circle class="st1" cx="133" cy="-3" r="3"/>
					<circle class="st1" cx="113" cy="-3" r="3"/>
					<circle class="st1" cx="93" cy="-3" r="3"/>
					<circle class="st1" cx="73" cy="-3" r="3"/>
					<circle class="st1" cx="53" cy="-3" r="3"/>
					<circle class="st1" cx="33" cy="-3" r="3"/>
					<circle class="st1" cx="13" cy="-3" r="3"/>
				</g>
				<g>
					<circle class="st1" cx="163" cy="-13" r="3"/>
					<circle class="st1" cx="143" cy="-13" r="3"/>
					<circle class="st1" cx="123" cy="-13" r="3"/>
					<circle class="st1" cx="103" cy="-13" r="3"/>
					<circle class="st1" cx="83" cy="-13" r="3"/>
					<circle class="st1" cx="63" cy="-13" r="3"/>
					<circle class="st1" cx="43" cy="-13" r="3"/>
					<circle class="st1" cx="23" cy="-13" r="3"/>
					<circle class="st1" cx="3" cy="-13" r="3"/>
				</g>
			</g>
			<g>
				<g>
					<circle class="st1" cx="173" cy="-23" r="3"/>
					<circle class="st1" cx="153" cy="-23" r="3"/>
					<circle class="st1" cx="133" cy="-23" r="3"/>
					<circle class="st1" cx="113" cy="-23" r="3"/>
					<circle class="st1" cx="93" cy="-23" r="3"/>
					<circle class="st1" cx="73" cy="-23" r="3"/>
					<circle class="st1" cx="53" cy="-23" r="3"/>
					<circle class="st1" cx="33" cy="-23" r="3"/>
					<circle class="st1" cx="13" cy="-23" r="3"/>
				</g>
				<g>
					<circle class="st1" cx="163" cy="-33" r="3"/>
					<circle class="st1" cx="143" cy="-33" r="3"/>
					<circle class="st1" cx="123" cy="-33" r="3"/>
					<circle class="st1" cx="103" cy="-33" r="3"/>
					<circle class="st1" cx="83" cy="-33" r="3"/>
					<circle class="st1" cx="63" cy="-33" r="3"/>
					<circle class="st1" cx="43" cy="-33" r="3"/>
					<circle class="st1" cx="23" cy="-33" r="3"/>
					<circle class="st1" cx="3" cy="-33" r="3"/>
				</g>
			</g>
			<g>
				<g>
					<circle class="st1" cx="173" cy="-43" r="3"/>
					<circle class="st1" cx="153" cy="-43" r="3"/>
					<circle class="st1" cx="133" cy="-43" r="3"/>
					<circle class="st1" cx="113" cy="-43" r="3"/>
					<circle class="st1" cx="93" cy="-43" r="3"/>
					<circle class="st1" cx="73" cy="-43" r="3"/>
					<circle class="st1" cx="53" cy="-43" r="3"/>
					<circle class="st1" cx="33" cy="-43" r="3"/>
					<circle class="st1" cx="13" cy="-43" r="3"/>
				</g>
				<g>
					<circle class="st1" cx="163" cy="-53" r="3"/>
					<circle class="st1" cx="143" cy="-53" r="3"/>
					<circle class="st1" cx="123" cy="-53" r="3"/>
					<circle class="st1" cx="103" cy="-53" r="3"/>
					<circle class="st1" cx="83" cy="-53" r="3"/>
					<circle class="st1" cx="63" cy="-53" r="3"/>
					<circle class="st1" cx="43" cy="-53" r="3"/>
					<circle class="st1" cx="23" cy="-53" r="3"/>
					<circle class="st1" cx="3" cy="-53" r="3"/>
				</g>
			</g>
			<g>
				<g>
					<circle class="st1" cx="173" cy="-63" r="3"/>
					<circle class="st1" cx="153" cy="-63" r="3"/>
					<circle class="st1" cx="133" cy="-63" r="3"/>
					<circle class="st1" cx="113" cy="-63" r="3"/>
					<circle class="st1" cx="93" cy="-63" r="3"/>
					<circle class="st1" cx="73" cy="-63" r="3"/>
					<circle class="st1" cx="53" cy="-63" r="3"/>
					<circle class="st1" cx="33" cy="-63" r="3"/>
					<circle class="st1" cx="13" cy="-63" r="3"/>
				</g>
				<g>
					<circle class="st1" cx="163" cy="-73" r="3"/>
					<circle class="st1" cx="143" cy="-73" r="3"/>
					<circle class="st1" cx="123" cy="-73" r="3"/>
					<circle class="st1" cx="103" cy="-73" r="3"/>
					<circle class="st1" cx="83" cy="-73" r="3"/>
					<circle class="st1" cx="63" cy="-73" r="3"/>
					<circle class="st1" cx="43" cy="-73" r="3"/>
					<circle class="st1" cx="23" cy="-73" r="3"/>
					<circle class="st1" cx="3" cy="-73" r="3"/>
				</g>
			</g>
			<g>
				<g>
					<circle class="st1" cx="173" cy="-83" r="3"/>
					<circle class="st1" cx="153" cy="-83" r="3"/>
					<circle class="st1" cx="133" cy="-83" r="3"/>
					<circle class="st1" cx="113" cy="-83" r="3"/>
					<circle class="st1" cx="93" cy="-83" r="3"/>
					<circle class="st1" cx="73" cy="-83" r="3"/>
					<circle class="st1" cx="53" cy="-83" r="3"/>
					<circle class="st1" cx="33" cy="-83" r="3"/>
					<circle class="st1" cx="13" cy="-83" r="3"/>
				</g>
				<g>
					<circle class="st1" cx="163" cy="-93" r="3"/>
					<circle class="st1" cx="143" cy="-93" r="3"/>
					<circle class="st1" cx="123" cy="-93" r="3"/>
					<circle class="st1" cx="103" cy="-93" r="3"/>
					<circle class="st1" cx="83" cy="-93" r="3"/>
					<circle class="st1" cx="63" cy="-93" r="3"/>
					<circle class="st1" cx="43" cy="-93" r="3"/>
					<circle class="st1" cx="23" cy="-93" r="3"/>
					<circle class="st1" cx="3" cy="-93" r="3"/>
				</g>
			</g>
			<g>
				<g>
					<circle class="st1" cx="173" cy="-103" r="3"/>
					<circle class="st1" cx="153" cy="-103" r="3"/>
					<circle class="st1" cx="133" cy="-103" r="3"/>
					<circle class="st1" cx="113" cy="-103" r="3"/>
					<circle class="st1" cx="93" cy="-103" r="3"/>
					<circle class="st1" cx="73" cy="-103" r="3"/>
					<circle class="st1" cx="53" cy="-103" r="3"/>
					<circle class="st1" cx="33" cy="-103" r="3"/>
					<circle class="st1" cx="13" cy="-103" r="3"/>
				</g>
				<g>
					<circle class="st1" cx="163" cy="-113" r="3"/>
					<circle class="st1" cx="143" cy="-113" r="3"/>
					<circle class="st1" cx="123" cy="-113" r="3"/>
					<circle class="st1" cx="103" cy="-113" r="3"/>
					<circle class="st1" cx="83" cy="-113" r="3"/>
					<circle class="st1" cx="63" cy="-113" r="3"/>
					<circle class="st1" cx="43" cy="-113" r="3"/>
					<circle class="st1" cx="23" cy="-113" r="3"/>
					<circle class="st1" cx="3" cy="-113" r="3"/>
				</g>
			</g>
			<g>
				<g>
					<circle class="st1" cx="173" cy="-123" r="3"/>
					<circle class="st1" cx="153" cy="-123" r="3"/>
					<circle class="st1" cx="133" cy="-123" r="3"/>
					<circle class="st1" cx="113" cy="-123" r="3"/>
					<circle class="st1" cx="93" cy="-123" r="3"/>
					<circle class="st1" cx="73" cy="-123" r="3"/>
					<circle class="st1" cx="53" cy="-123" r="3"/>
					<circle class="st1" cx="33" cy="-123" r="3"/>
					<circle class="st1" cx="13" cy="-123" r="3"/>
				</g>
				<g>
					<circle class="st1" cx="163" cy="-133" r="3"/>
					<circle class="st1" cx="143" cy="-133" r="3"/>
					<circle class="st1" cx="123" cy="-133" r="3"/>
					<circle class="st1" cx="103" cy="-133" r="3"/>
					<circle class="st1" cx="83" cy="-133" r="3"/>
					<circle class="st1" cx="63" cy="-133" r="3"/>
					<circle class="st1" cx="43" cy="-133" r="3"/>
					<circle class="st1" cx="23" cy="-133" r="3"/>
					<circle class="st1" cx="3" cy="-133" r="3"/>
				</g>
			</g>
			<g>
				<g>
					<circle class="st1" cx="173" cy="-143" r="3"/>
					<circle class="st1" cx="153" cy="-143" r="3"/>
					<circle class="st1" cx="133" cy="-143" r="3"/>
					<circle class="st1" cx="113" cy="-143" r="3"/>
					<circle class="st1" cx="93" cy="-143" r="3"/>
					<circle class="st1" cx="73" cy="-143" r="3"/>
					<circle class="st1" cx="53" cy="-143" r="3"/>
					<circle class="st1" cx="33" cy="-143" r="3"/>
					<circle class="st1" cx="13" cy="-143" r="3"/>
				</g>
				<g>
					<circle class="st1" cx="163" cy="-153" r="3"/>
					<circle class="st1" cx="143" cy="-153" r="3"/>
					<circle class="st1" cx="123" cy="-153" r="3"/>
					<circle class="st1" cx="103" cy="-153" r="3"/>
					<circle class="st1" cx="83" cy="-153" r="3"/>
					<circle class="st1" cx="63" cy="-153" r="3"/>
					<circle class="st1" cx="43" cy="-153" r="3"/>
					<circle class="st1" cx="23" cy="-153" r="3"/>
					<circle class="st1" cx="3" cy="-153" r="3"/>
				</g>
			</g>
			<g>
				<g>
					<circle class="st1" cx="173" cy="-163" r="3"/>
					<circle class="st1" cx="153" cy="-163" r="3"/>
					<circle class="st1" cx="133" cy="-163" r="3"/>
					<circle class="st1" cx="113" cy="-163" r="3"/>
					<circle class="st1" cx="93" cy="-163" r="3"/>
					<circle class="st1" cx="73" cy="-163" r="3"/>
					<circle class="st1" cx="53" cy="-163" r="3"/>
					<circle class="st1" cx="33" cy="-163" r="3"/>
					<circle class="st1" cx="13" cy="-163" r="3"/>
				</g>
				<g>
					<circle class="st1" cx="163" cy="-173" r="3"/>
					<circle class="st1" cx="143" cy="-173" r="3"/>
					<circle class="st1" cx="123" cy="-173" r="3"/>
					<circle class="st1" cx="103" cy="-173" r="3"/>
					<circle class="st1" cx="83" cy="-173" r="3"/>
					<circle class="st1" cx="63" cy="-173" r="3"/>
					<circle class="st1" cx="43" cy="-173" r="3"/>
					<circle class="st1" cx="23" cy="-173" r="3"/>
					<circle class="st1" cx="3" cy="-173" r="3"/>
				</g>
			</g>
		</g>
		<g>
			<g>
				<g>
					<circle class="st1" cx="13" cy="-23" r="3"/>
				</g>
				<g>
					<circle class="st1" cx="3" cy="-33" r="3"/>
				</g>
			</g>
			<g>
				<g>
					<circle class="st1" cx="13" cy="-43" r="3"/>
				</g>
				<g>
					<circle class="st1" cx="3" cy="-53" r="3"/>
				</g>
			</g>
			<g>
				<g>
					<circle class="st1" cx="13" cy="-63" r="3"/>
				</g>
				<g>
					<circle class="st1" cx="3" cy="-73" r="3"/>
				</g>
			</g>
			<g>
				<g>
					<circle class="st1" cx="13" cy="-83" r="3"/>
				</g>
				<g>
					<circle class="st1" cx="3" cy="-93" r="3"/>
				</g>
			</g>
			<g>
				<g>
					<circle class="st1" cx="13" cy="-103" r="3"/>
				</g>
				<g>
					<circle class="st1" cx="3" cy="-113" r="3"/>
				</g>
			</g>
			<g>
				<g>
					<circle class="st1" cx="13" cy="-123" r="3"/>
				</g>
				<g>
					<circle class="st1" cx="3" cy="-133" r="3"/>
				</g>
			</g>
			<g>
				<g>
					<circle class="st1" cx="13" cy="-143" r="3"/>
				</g>
				<g>
					<circle class="st1" cx="3" cy="-153" r="3"/>
				</g>
			</g>
			<g>
				<g>
					<circle class="st1" cx="13" cy="-163" r="3"/>
				</g>
				<g>
					<circle class="st1" cx="3" cy="-173" r="3"/>
				</g>
			</g>
		</g>
		<g>
			<g>
				<g>
					<circle class="st1" cx="153" cy="-163" r="3"/>
					<circle class="st1" cx="133" cy="-163" r="3"/>
					<circle class="st1" cx="113" cy="-163" r="3"/>
					<circle class="st1" cx="93" cy="-163" r="3"/>
					<circle class="st1" cx="73" cy="-163" r="3"/>
					<circle class="st1" cx="53" cy="-163" r="3"/>
					<circle class="st1" cx="33" cy="-163" r="3"/>
					<circle class="st1" cx="13" cy="-163" r="3"/>
				</g>
				<g>
					<circle class="st1" cx="143" cy="-173" r="3"/>
					<circle class="st1" cx="123" cy="-173" r="3"/>
					<circle class="st1" cx="103" cy="-173" r="3"/>
					<circle class="st1" cx="83" cy="-173" r="3"/>
					<circle class="st1" cx="63" cy="-173" r="3"/>
					<circle class="st1" cx="43" cy="-173" r="3"/>
					<circle class="st1" cx="23" cy="-173" r="3"/>
					<circle class="st1" cx="3" cy="-173" r="3"/>
				</g>
			</g>
		</g>
		<g>
			<g>
				<g>
					<circle class="st1" cx="13" cy="-163" r="3"/>
				</g>
				<g>
					<circle class="st1" cx="3" cy="-173" r="3"/>
				</g>
			</g>
		</g>
	</g>
</pattern>
<rect class="st2" width="1920" height="1080"/>
<pattern  id="SVGID_1_" xlink:href="#Black_Dot_6px_H20_S1" patternTransform="matrix(0.9892 0 0 1.0876 170.1391 340.6163)">
</pattern>
<rect class="st3" width="1920" height="1080"/>
</svg>
