<?xml version="1.0" encoding="utf-8"?>
<!-- Generator: Adobe Illustrator 25.2.3, SVG Export Plug-In . SVG Version: 6.00 Build 0)  -->
<svg version="1.1" id="Ebene_1" xmlns="http://www.w3.org/2000/svg" xmlns:xlink="http://www.w3.org/1999/xlink" x="0px" y="0px"
	 viewBox="0 0 1920 1080" style="enable-background:new 0 0 1920 1080;" xml:space="preserve">
<style type="text/css">
	.st0{fill:#BFCFD1;}
	.st1{opacity:0.2;}
	.st2{fill:none;stroke:#142A52;stroke-width:3;stroke-miterlimit:10;}
	.st3{fill:#142A52;}
</style>
<rect class="st0" width="1920" height="1080"/>
<g class="st1">
	<path class="st2" d="M108.8,229.4l-66.6,13.7L23.2,150l66.6-13.7c1.1-0.2,2.2,0.5,2.4,1.6l18.3,89
		C110.7,228.1,109.9,229.2,108.8,229.4z"/>
	<rect x="32.6" y="147.8" transform="matrix(0.9796 -0.2011 0.2011 0.9796 -38.5007 11.7547)" class="st3" width="12" height="95"/>
	<path class="st3" d="M89.9,212.4l-28,5.8c-0.9,0.2-1.8-0.4-2-1.3l-11-53.5c-0.2-0.9,0.4-1.8,1.3-2l28-5.8c0.9-0.2,1.8,0.4,2,1.3
		l11,53.5C91.4,211.3,90.8,212.2,89.9,212.4z"/>
	<polygon class="st3" points="75.1,139.4 94.7,150.6 92.1,137.7 90.8,136.1 	"/>
	<polygon class="st3" points="107.4,212.3 96.1,232 109.1,229.3 110.6,228 	"/>
</g>
<g class="st1">
	<path class="st2" d="M304.8,167.4l-66.6,13.7L219.2,88l66.6-13.7c1.1-0.2,2.2,0.5,2.4,1.6l18.3,89
		C306.7,166.1,305.9,167.2,304.8,167.4z"/>
	<rect x="228.6" y="85.8" transform="matrix(0.9796 -0.2011 0.2011 0.9796 -22.0242 49.9111)" class="st3" width="12" height="95"/>
	<path class="st3" d="M285.9,150.4l-28,5.8c-0.9,0.2-1.8-0.4-2-1.3l-11-53.5c-0.2-0.9,0.4-1.8,1.3-2l28-5.8c0.9-0.2,1.8,0.4,2,1.3
		l11,53.5C287.4,149.3,286.8,150.2,285.9,150.4z"/>
	<polygon class="st3" points="271.1,77.4 290.7,88.6 288.1,75.7 286.8,74.1 	"/>
	<polygon class="st3" points="303.4,150.3 292.1,170 305.1,167.3 306.6,166 	"/>
</g>
<g class="st1">
	<path class="st2" d="M260.8,364.4l-66.6,13.7L175.2,285l66.6-13.7c1.1-0.2,2.2,0.5,2.4,1.6l18.3,89
		C262.7,363.1,261.9,364.2,260.8,364.4z"/>
	
		<rect x="184.6" y="282.8" transform="matrix(0.9796 -0.2011 0.2011 0.9796 -62.5481 45.0871)" class="st3" width="12" height="95"/>
	<path class="st3" d="M241.9,347.4l-28,5.8c-0.9,0.2-1.8-0.4-2-1.3l-11-53.5c-0.2-0.9,0.4-1.8,1.3-2l28-5.8c0.9-0.2,1.8,0.4,2,1.3
		l11,53.5C243.4,346.3,242.8,347.2,241.9,347.4z"/>
	<polygon class="st3" points="227.1,274.4 246.7,285.6 244.1,272.7 242.8,271.1 	"/>
	<polygon class="st3" points="259.4,347.3 248.1,367 261.1,364.3 262.6,363 	"/>
</g>
<g class="st1">
	<path class="st2" d="M570.8,219.4l-66.6,13.7L485.2,140l66.6-13.7c1.1-0.2,2.2,0.5,2.4,1.6l18.3,89
		C572.7,218.1,571.9,219.2,570.8,219.4z"/>
	
		<rect x="494.6" y="137.8" transform="matrix(0.9796 -0.2011 0.2011 0.9796 -27.0471 104.4773)" class="st3" width="12" height="95"/>
	<path class="st3" d="M551.9,202.4l-28,5.8c-0.9,0.2-1.8-0.4-2-1.3l-11-53.5c-0.2-0.9,0.4-1.8,1.3-2l28-5.8c0.9-0.2,1.8,0.4,2,1.3
		l11,53.5C553.4,201.3,552.8,202.2,551.9,202.4z"/>
	<polygon class="st3" points="537.1,129.4 556.7,140.6 554.1,127.7 552.8,126.1 	"/>
	<polygon class="st3" points="569.4,202.3 558.1,222 571.1,219.3 572.6,218 	"/>
</g>
<g class="st1">
	<path class="st2" d="M778.8,146.4l-66.6,13.7L693.2,67l66.6-13.7c1.1-0.2,2.2,0.5,2.4,1.6l18.3,89
		C780.7,145.1,779.9,146.2,778.8,146.4z"/>
	<rect x="702.6" y="64.8" transform="matrix(0.9796 -0.2011 0.2011 0.9796 -8.1128 144.8225)" class="st3" width="12" height="95"/>
	<path class="st3" d="M759.9,129.4l-28,5.8c-0.9,0.2-1.8-0.4-2-1.3l-11-53.5c-0.2-0.9,0.4-1.8,1.3-2l28-5.8c0.9-0.2,1.8,0.4,2,1.3
		l11,53.5C761.4,128.3,760.8,129.2,759.9,129.4z"/>
	<polygon class="st3" points="745.1,56.4 764.7,67.6 762.1,54.7 760.8,53.1 	"/>
	<polygon class="st3" points="777.4,129.3 766.1,149 779.1,146.3 780.6,145 	"/>
</g>
<g class="st1">
	<path class="st2" d="M1025.8,221.4l-66.6,13.7L940.2,142l66.6-13.7c1.1-0.2,2.2,0.5,2.4,1.6l18.3,89
		C1027.7,220.1,1026.9,221.2,1025.8,221.4z"/>
	
		<rect x="949.6" y="139.8" transform="matrix(0.9796 -0.2011 0.2011 0.9796 -18.1502 196.0371)" class="st3" width="12" height="95"/>
	<path class="st3" d="M1006.9,204.4l-28,5.8c-0.9,0.2-1.8-0.4-2-1.3l-11-53.5c-0.2-0.9,0.4-1.8,1.3-2l28-5.8c0.9-0.2,1.8,0.4,2,1.3
		l11,53.5C1008.4,203.3,1007.8,204.2,1006.9,204.4z"/>
	<polygon class="st3" points="992.1,131.4 1011.7,142.6 1009.1,129.7 1007.8,128.1 	"/>
	<polygon class="st3" points="1024.4,204.3 1013.1,224 1026.1,221.3 1027.6,220 	"/>
</g>
<g class="st1">
	<path class="st2" d="M1364.8,490.4l-66.6,13.7l-19.1-93.1l66.6-13.7c1.1-0.2,2.2,0.5,2.4,1.6l18.3,89
		C1366.7,489.1,1365.9,490.2,1364.8,490.4z"/>
	
		<rect x="1288.6" y="408.8" transform="matrix(0.9796 -0.2011 0.2011 0.9796 -65.3287 269.7214)" class="st3" width="12" height="95"/>
	<path class="st3" d="M1345.9,473.4l-28,5.8c-0.9,0.2-1.8-0.4-2-1.3l-11-53.5c-0.2-0.9,0.4-1.8,1.3-2l28-5.8c0.9-0.2,1.8,0.4,2,1.3
		l11,53.5C1347.4,472.3,1346.8,473.2,1345.9,473.4z"/>
	<polygon class="st3" points="1331.1,400.4 1350.7,411.6 1348.1,398.7 1346.8,397.1 	"/>
	<polygon class="st3" points="1363.4,473.3 1352.1,493 1365.1,490.3 1366.6,489 	"/>
</g>
<g class="st1">
	<path class="st2" d="M1645.8,501.4l-66.6,13.7l-19.1-93.1l66.6-13.7c1.1-0.2,2.2,0.5,2.4,1.6l18.3,89
		C1647.7,500.1,1646.9,501.2,1645.8,501.4z"/>
	
		<rect x="1569.6" y="419.8" transform="matrix(0.9796 -0.2011 0.2011 0.9796 -61.7983 326.4667)" class="st3" width="12" height="95"/>
	<path class="st3" d="M1626.9,484.4l-28,5.8c-0.9,0.2-1.8-0.4-2-1.3l-11-53.5c-0.2-0.9,0.4-1.8,1.3-2l28-5.8c0.9-0.2,1.8,0.4,2,1.3
		l11,53.5C1628.4,483.3,1627.8,484.2,1626.9,484.4z"/>
	<polygon class="st3" points="1612.1,411.4 1631.7,422.6 1629.1,409.7 1627.8,408.1 	"/>
	<polygon class="st3" points="1644.4,484.3 1633.1,504 1646.1,501.3 1647.6,500 	"/>
</g>
<g class="st1">
	<path class="st2" d="M1054.8,501.4l-66.6,13.7L969.2,422l66.6-13.7c1.1-0.2,2.2,0.5,2.4,1.6l18.3,89
		C1056.7,500.1,1055.9,501.2,1054.8,501.4z"/>
	
		<rect x="978.6" y="419.8" transform="matrix(0.9796 -0.2011 0.2011 0.9796 -73.8769 207.5927)" class="st3" width="12" height="95"/>
	<path class="st3" d="M1035.9,484.4l-28,5.8c-0.9,0.2-1.8-0.4-2-1.3l-11-53.5c-0.2-0.9,0.4-1.8,1.3-2l28-5.8c0.9-0.2,1.8,0.4,2,1.3
		l11,53.5C1037.4,483.3,1036.8,484.2,1035.9,484.4z"/>
	<polygon class="st3" points="1021.1,411.4 1040.7,422.6 1038.1,409.7 1036.8,408.1 	"/>
	<polygon class="st3" points="1053.4,484.3 1042.1,504 1055.1,501.3 1056.6,500 	"/>
</g>
<g class="st1">
	<path class="st2" d="M1350.8,795.4l-66.6,13.7l-19.1-93.1l66.6-13.7c1.1-0.2,2.2,0.5,2.4,1.6l18.3,89
		C1352.7,794.1,1351.9,795.2,1350.8,795.4z"/>
	
		<rect x="1274.6" y="713.8" transform="matrix(0.9796 -0.2011 0.2011 0.9796 -126.9627 273.1389)" class="st3" width="12" height="95"/>
	<path class="st3" d="M1331.9,778.4l-28,5.8c-0.9,0.2-1.8-0.4-2-1.3l-11-53.5c-0.2-0.9,0.4-1.8,1.3-2l28-5.8c0.9-0.2,1.8,0.4,2,1.3
		l11,53.5C1333.4,777.3,1332.8,778.2,1331.9,778.4z"/>
	<polygon class="st3" points="1317.1,705.4 1336.7,716.6 1334.1,703.7 1332.8,702.1 	"/>
	<polygon class="st3" points="1349.4,778.3 1338.1,798 1351.1,795.3 1352.6,794 	"/>
</g>
<g class="st1">
	<path class="st2" d="M1650.8,1095.4l-66.6,13.7l-19.1-93.1l66.6-13.7c1.1-0.2,2.2,0.5,2.4,1.6l18.3,89
		C1652.7,1094.1,1651.9,1095.2,1650.8,1095.4z"/>
	
		<rect x="1574.6" y="1013.8" transform="matrix(0.9796 -0.2011 0.2011 0.9796 -181.1736 339.6124)" class="st3" width="12" height="95"/>
	<path class="st3" d="M1631.9,1078.4l-28,5.8c-0.9,0.2-1.8-0.4-2-1.3l-11-53.5c-0.2-0.9,0.4-1.8,1.3-2l28-5.8c0.9-0.2,1.8,0.4,2,1.3
		l11,53.5C1633.4,1077.3,1632.8,1078.2,1631.9,1078.4z"/>
	<polygon class="st3" points="1617.1,1005.4 1636.7,1016.6 1634.1,1003.7 1632.8,1002.1 	"/>
	<polygon class="st3" points="1649.4,1078.3 1638.1,1098 1651.1,1095.3 1652.6,1094 	"/>
</g>
<g class="st1">
	<path class="st2" d="M1686.8,822.4l-66.6,13.7l-19.1-93.1l66.6-13.7c1.1-0.2,2.2,0.5,2.4,1.6l18.3,89
		C1688.7,821.1,1687.9,822.2,1686.8,822.4z"/>
	
		<rect x="1610.6" y="740.8" transform="matrix(0.9796 -0.2011 0.2011 0.9796 -125.5265 341.274)" class="st3" width="12" height="95"/>
	<path class="st3" d="M1667.9,805.4l-28,5.8c-0.9,0.2-1.8-0.4-2-1.3l-11-53.5c-0.2-0.9,0.4-1.8,1.3-2l28-5.8c0.9-0.2,1.8,0.4,2,1.3
		l11,53.5C1669.4,804.3,1668.8,805.2,1667.9,805.4z"/>
	<polygon class="st3" points="1653.1,732.4 1672.7,743.6 1670.1,730.7 1668.8,729.1 	"/>
	<polygon class="st3" points="1685.4,805.3 1674.1,825 1687.1,822.3 1688.6,821 	"/>
</g>
<g class="st1">
	<path class="st2" d="M1933.8,801.4l-66.6,13.7l-19.1-93.1l66.6-13.7c1.1-0.2,2.2,0.5,2.4,1.6l18.3,89
		C1935.7,800.1,1934.9,801.2,1933.8,801.4z"/>
	
		<rect x="1857.6" y="719.8" transform="matrix(0.9796 -0.2011 0.2011 0.9796 -116.2544 390.5265)" class="st3" width="12" height="95"/>
	<path class="st3" d="M1914.9,784.4l-28,5.8c-0.9,0.2-1.8-0.4-2-1.3l-11-53.5c-0.2-0.9,0.4-1.8,1.3-2l28-5.8c0.9-0.2,1.8,0.4,2,1.3
		l11,53.5C1916.4,783.3,1915.8,784.2,1914.9,784.4z"/>
	<polygon class="st3" points="1900.1,711.4 1919.7,722.6 1917.1,709.7 1915.8,708.1 	"/>
	<polygon class="st3" points="1932.4,784.3 1921.1,804 1934.1,801.3 1935.6,800 	"/>
</g>
<g class="st1">
	<path class="st2" d="M953.8,795.4l-66.6,13.7L868.2,716l66.6-13.7c1.1-0.2,2.2,0.5,2.4,1.6l18.3,89
		C955.7,794.1,954.9,795.2,953.8,795.4z"/>
	
		<rect x="877.6" y="713.8" transform="matrix(0.9796 -0.2011 0.2011 0.9796 -135.0764 193.2861)" class="st3" width="12" height="95"/>
	<path class="st3" d="M934.9,778.4l-28,5.8c-0.9,0.2-1.8-0.4-2-1.3l-11-53.5c-0.2-0.9,0.4-1.8,1.3-2l28-5.8c0.9-0.2,1.8,0.4,2,1.3
		l11,53.5C936.4,777.3,935.8,778.2,934.9,778.4z"/>
	<polygon class="st3" points="920.1,705.4 939.7,716.6 937.1,703.7 935.8,702.1 	"/>
	<polygon class="st3" points="952.4,778.3 941.1,798 954.1,795.3 955.6,794 	"/>
</g>
<g class="st1">
	<path class="st2" d="M620.8,566.4l-66.6,13.7L535.2,487l66.6-13.7c1.1-0.2,2.2,0.5,2.4,1.6l18.3,89
		C622.7,565.1,621.9,566.2,620.8,566.4z"/>
	
		<rect x="544.6" y="484.8" transform="matrix(0.9796 -0.2011 0.2011 0.9796 -95.821 121.6261)" class="st3" width="12" height="95"/>
	<path class="st3" d="M601.9,549.4l-28,5.8c-0.9,0.2-1.8-0.4-2-1.3l-11-53.5c-0.2-0.9,0.4-1.8,1.3-2l28-5.8c0.9-0.2,1.8,0.4,2,1.3
		l11,53.5C603.4,548.3,602.8,549.2,601.9,549.4z"/>
	<polygon class="st3" points="587.1,476.4 606.7,487.6 604.1,474.7 602.8,473.1 	"/>
	<polygon class="st3" points="619.4,549.3 608.1,569 621.1,566.3 622.6,565 	"/>
</g>
<g class="st1">
	<path class="st2" d="M638.8,809.4l-66.6,13.7L553.2,730l66.6-13.7c1.1-0.2,2.2,0.5,2.4,1.6l18.3,89
		C640.7,808.1,639.9,809.2,638.8,809.4z"/>
	
		<rect x="562.6" y="727.8" transform="matrix(0.9796 -0.2011 0.2011 0.9796 -144.3302 130.213)" class="st3" width="12" height="95"/>
	<path class="st3" d="M619.9,792.4l-28,5.8c-0.9,0.2-1.8-0.4-2-1.3l-11-53.5c-0.2-0.9,0.4-1.8,1.3-2l28-5.8c0.9-0.2,1.8,0.4,2,1.3
		l11,53.5C621.4,791.3,620.8,792.2,619.9,792.4z"/>
	<polygon class="st3" points="605.1,719.4 624.7,730.6 622.1,717.7 620.8,716.1 	"/>
	<polygon class="st3" points="637.4,792.3 626.1,812 639.1,809.3 640.6,808 	"/>
</g>
<g class="st1">
	<path class="st2" d="M762.8,387.4l-66.6,13.7L677.2,308l66.6-13.7c1.1-0.2,2.2,0.5,2.4,1.6l18.3,89
		C764.7,386.1,763.9,387.2,762.8,387.4z"/>
	
		<rect x="686.6" y="305.8" transform="matrix(0.9796 -0.2011 0.2011 0.9796 -56.9147 146.5298)" class="st3" width="12" height="95"/>
	<path class="st3" d="M743.9,370.4l-28,5.8c-0.9,0.2-1.8-0.4-2-1.3l-11-53.5c-0.2-0.9,0.4-1.8,1.3-2l28-5.8c0.9-0.2,1.8,0.4,2,1.3
		l11,53.5C745.4,369.3,744.8,370.2,743.9,370.4z"/>
	<polygon class="st3" points="729.1,297.4 748.7,308.6 746.1,295.7 744.8,294.1 	"/>
	<polygon class="st3" points="761.4,370.3 750.1,390 763.1,387.3 764.6,386 	"/>
</g>
<g class="st1">
	<path class="st2" d="M1207.8,133.4l-66.6,13.7L1122.2,54l66.6-13.7c1.1-0.2,2.2,0.5,2.4,1.6l18.3,89
		C1209.7,132.1,1208.9,133.2,1207.8,133.4z"/>
	<rect x="1131.6" y="51.8" transform="matrix(0.9796 -0.2011 0.2011 0.9796 3.2698 230.8461)" class="st3" width="12" height="95"/>
	<path class="st3" d="M1188.9,116.4l-28,5.8c-0.9,0.2-1.8-0.4-2-1.3l-11-53.5c-0.2-0.9,0.4-1.8,1.3-2l28-5.8c0.9-0.2,1.8,0.4,2,1.3
		l11,53.5C1190.4,115.3,1189.8,116.2,1188.9,116.4z"/>
	<polygon class="st3" points="1174.1,43.4 1193.7,54.6 1191.1,41.7 1189.8,40.1 	"/>
	<polygon class="st3" points="1206.4,116.3 1195.1,136 1208.1,133.3 1209.6,132 	"/>
</g>
<g class="st1">
	<path class="st2" d="M1419.8,219.4l-66.6,13.7l-19.1-93.1l66.6-13.7c1.1-0.2,2.2,0.5,2.4,1.6l18.3,89
		C1421.7,218.1,1420.9,219.2,1419.8,219.4z"/>
	
		<rect x="1343.6" y="137.8" transform="matrix(0.9796 -0.2011 0.2011 0.9796 -9.6955 275.2456)" class="st3" width="12" height="95"/>
	<path class="st3" d="M1400.9,202.4l-28,5.8c-0.9,0.2-1.8-0.4-2-1.3l-11-53.5c-0.2-0.9,0.4-1.8,1.3-2l28-5.8c0.9-0.2,1.8,0.4,2,1.3
		l11,53.5C1402.4,201.3,1401.8,202.2,1400.9,202.4z"/>
	<polygon class="st3" points="1386.1,129.4 1405.7,140.6 1403.1,127.7 1401.8,126.1 	"/>
	<polygon class="st3" points="1418.4,202.3 1407.1,222 1420.1,219.3 1421.6,218 	"/>
</g>
<g class="st1">
	<path class="st2" d="M1650.8,130.4l-66.6,13.7L1565.2,51l66.6-13.7c1.1-0.2,2.2,0.5,2.4,1.6l18.3,89
		C1652.7,129.1,1651.9,130.2,1650.8,130.4z"/>
	<rect x="1574.6" y="48.8" transform="matrix(0.9796 -0.2011 0.2011 0.9796 12.927 319.8901)" class="st3" width="12" height="95"/>
	<path class="st3" d="M1631.9,113.4l-28,5.8c-0.9,0.2-1.8-0.4-2-1.3l-11-53.5c-0.2-0.9,0.4-1.8,1.3-2l28-5.8c0.9-0.2,1.8,0.4,2,1.3
		l11,53.5C1633.4,112.3,1632.8,113.2,1631.9,113.4z"/>
	<polygon class="st3" points="1617.1,40.4 1636.7,51.6 1634.1,38.7 1632.8,37.1 	"/>
	<polygon class="st3" points="1649.4,113.3 1638.1,133 1651.1,130.3 1652.6,129 	"/>
</g>
<g class="st1">
	<path class="st2" d="M1885.8,209.4l-66.6,13.7l-19.1-93.1l66.6-13.7c1.1-0.2,2.2,0.5,2.4,1.6l18.3,89
		C1887.7,208.1,1886.9,209.2,1885.8,209.4z"/>
	
		<rect x="1809.6" y="127.8" transform="matrix(0.9796 -0.2011 0.2011 0.9796 1.8398 368.7727)" class="st3" width="12" height="95"/>
	<path class="st3" d="M1866.9,192.4l-28,5.8c-0.9,0.2-1.8-0.4-2-1.3l-11-53.5c-0.2-0.9,0.4-1.8,1.3-2l28-5.8c0.9-0.2,1.8,0.4,2,1.3
		l11,53.5C1868.4,191.3,1867.8,192.2,1866.9,192.4z"/>
	<polygon class="st3" points="1852.1,119.4 1871.7,130.6 1869.1,117.7 1867.8,116.1 	"/>
	<polygon class="st3" points="1884.4,192.3 1873.1,212 1886.1,209.3 1887.6,208 	"/>
</g>
<g class="st1">
	<path class="st2" d="M1849.8,393.4l-66.6,13.7l-19.1-93.1l66.6-13.7c1.1-0.2,2.2,0.5,2.4,1.6l18.3,89
		C1851.7,392.1,1850.9,393.2,1849.8,393.4z"/>
	
		<rect x="1773.6" y="311.8" transform="matrix(0.9796 -0.2011 0.2011 0.9796 -35.9058 365.2922)" class="st3" width="12" height="95"/>
	<path class="st3" d="M1830.9,376.4l-28,5.8c-0.9,0.2-1.8-0.4-2-1.3l-11-53.5c-0.2-0.9,0.4-1.8,1.3-2l28-5.8c0.9-0.2,1.8,0.4,2,1.3
		l11,53.5C1832.4,375.3,1831.8,376.2,1830.9,376.4z"/>
	<polygon class="st3" points="1816.1,303.4 1835.7,314.6 1833.1,301.7 1831.8,300.1 	"/>
	<polygon class="st3" points="1848.4,376.3 1837.1,396 1850.1,393.3 1851.6,392 	"/>
</g>
<g class="st1">
	<path class="st2" d="M1939.8,575.4l-66.6,13.7l-19.1-93.1l66.6-13.7c1.1-0.2,2.2,0.5,2.4,1.6l18.3,89
		C1941.7,574.1,1940.9,575.2,1939.8,575.4z"/>
	
		<rect x="1863.6" y="493.8" transform="matrix(0.9796 -0.2011 0.2011 0.9796 -70.674 387.1144)" class="st3" width="12" height="95"/>
	<path class="st3" d="M1920.9,558.4l-28,5.8c-0.9,0.2-1.8-0.4-2-1.3l-11-53.5c-0.2-0.9,0.4-1.8,1.3-2l28-5.8c0.9-0.2,1.8,0.4,2,1.3
		l11,53.5C1922.4,557.3,1921.8,558.2,1920.9,558.4z"/>
	<polygon class="st3" points="1906.1,485.4 1925.7,496.6 1923.1,483.7 1921.8,482.1 	"/>
	<polygon class="st3" points="1938.4,558.3 1927.1,578 1940.1,575.3 1941.6,574 	"/>
</g>
<g class="st1">
	<path class="st2" d="M366.8,554.4l-66.6,13.7L281.2,475l66.6-13.7c1.1-0.2,2.2,0.5,2.4,1.6l18.3,89
		C368.7,553.1,367.9,554.2,366.8,554.4z"/>
	
		<rect x="290.6" y="472.8" transform="matrix(0.9796 -0.2011 0.2011 0.9796 -98.5984 70.2912)" class="st3" width="12" height="95"/>
	<path class="st3" d="M347.9,537.4l-28,5.8c-0.9,0.2-1.8-0.4-2-1.3l-11-53.5c-0.2-0.9,0.4-1.8,1.3-2l28-5.8c0.9-0.2,1.8,0.4,2,1.3
		l11,53.5C349.4,536.3,348.8,537.2,347.9,537.4z"/>
	<polygon class="st3" points="333.1,464.4 352.7,475.6 350.1,462.7 348.8,461.1 	"/>
	<polygon class="st3" points="365.4,537.3 354.1,557 367.1,554.3 368.6,553 	"/>
</g>
<g class="st1">
	<path class="st2" d="M366.8,1012.4l-66.6,13.7L281.2,933l66.6-13.7c1.1-0.2,2.2,0.5,2.4,1.6l18.3,89
		C368.7,1011.1,367.9,1012.2,366.8,1012.4z"/>
	
		<rect x="290.6" y="930.8" transform="matrix(0.9796 -0.2011 0.2011 0.9796 -190.7208 79.6516)" class="st3" width="12" height="95"/>
	<path class="st3" d="M347.9,995.4l-28,5.8c-0.9,0.2-1.8-0.4-2-1.3l-11-53.5c-0.2-0.9,0.4-1.8,1.3-2l28-5.8c0.9-0.2,1.8,0.4,2,1.3
		l11,53.5C349.4,994.3,348.8,995.2,347.9,995.4z"/>
	<polygon class="st3" points="333.1,922.4 352.7,933.6 350.1,920.7 348.8,919.1 	"/>
	<polygon class="st3" points="365.4,995.3 354.1,1015 367.1,1012.3 368.6,1011 	"/>
</g>
<g class="st1">
	<path class="st2" d="M164.8,1110.4l-66.6,13.7L79.2,1031l66.6-13.7c1.1-0.2,2.2,0.5,2.4,1.6l18.3,89
		C166.7,1109.1,165.9,1110.2,164.8,1110.4z"/>
	
		<rect x="88.6" y="1028.8" transform="matrix(0.9796 -0.2011 0.2011 0.9796 -214.561 41.0241)" class="st3" width="12" height="95"/>
	<path class="st3" d="M145.9,1093.4l-28,5.8c-0.9,0.2-1.8-0.4-2-1.3l-11-53.5c-0.2-0.9,0.4-1.8,1.3-2l28-5.8c0.9-0.2,1.8,0.4,2,1.3
		l11,53.5C147.4,1092.3,146.8,1093.2,145.9,1093.4z"/>
	<polygon class="st3" points="131.1,1020.4 150.7,1031.6 148.1,1018.7 146.8,1017.1 	"/>
	<polygon class="st3" points="163.4,1093.3 152.1,1113 165.1,1110.3 166.6,1109 	"/>
</g>
<g class="st1">
	<path class="st2" d="M369.8,789.4l-66.6,13.7L284.2,710l66.6-13.7c1.1-0.2,2.2,0.5,2.4,1.6l18.3,89
		C371.7,788.1,370.9,789.2,369.8,789.4z"/>
	
		<rect x="293.6" y="707.8" transform="matrix(0.9796 -0.2011 0.2011 0.9796 -145.8051 75.6974)" class="st3" width="12" height="95"/>
	<path class="st3" d="M350.9,772.4l-28,5.8c-0.9,0.2-1.8-0.4-2-1.3l-11-53.5c-0.2-0.9,0.4-1.8,1.3-2l28-5.8c0.9-0.2,1.8,0.4,2,1.3
		l11,53.5C352.4,771.3,351.8,772.2,350.9,772.4z"/>
	<polygon class="st3" points="336.1,699.4 355.7,710.6 353.1,697.7 351.8,696.1 	"/>
	<polygon class="st3" points="368.4,772.3 357.1,792 370.1,789.3 371.6,788 	"/>
</g>
<g class="st1">
	<path class="st2" d="M152.8,855.4l-66.6,13.7L67.2,776l66.6-13.7c1.1-0.2,2.2,0.5,2.4,1.6l18.3,89
		C154.7,854.1,153.9,855.2,152.8,855.4z"/>
	
		<rect x="76.6" y="773.8" transform="matrix(0.9796 -0.2011 0.2011 0.9796 -163.5154 33.3988)" class="st3" width="12" height="95"/>
	<path class="st3" d="M133.9,838.4l-28,5.8c-0.9,0.2-1.8-0.4-2-1.3l-11-53.5c-0.2-0.9,0.4-1.8,1.3-2l28-5.8c0.9-0.2,1.8,0.4,2,1.3
		l11,53.5C135.4,837.3,134.8,838.2,133.9,838.4z"/>
	<polygon class="st3" points="119.1,765.4 138.7,776.6 136.1,763.7 134.8,762.1 	"/>
	<polygon class="st3" points="151.4,838.3 140.1,858 153.1,855.3 154.6,854 	"/>
</g>
<g class="st1">
	<path class="st2" d="M111.8,587.4l-66.6,13.7L26.2,508l66.6-13.7c1.1-0.2,2.2,0.5,2.4,1.6l18.3,89
		C113.7,586.1,112.9,587.2,111.8,587.4z"/>
	
		<rect x="35.6" y="505.8" transform="matrix(0.9796 -0.2011 0.2011 0.9796 -110.4477 19.6748)" class="st3" width="12" height="95"/>
	<path class="st3" d="M92.9,570.4l-28,5.8c-0.9,0.2-1.8-0.4-2-1.3l-11-53.5c-0.2-0.9,0.4-1.8,1.3-2l28-5.8c0.9-0.2,1.8,0.4,2,1.3
		l11,53.5C94.4,569.3,93.8,570.2,92.9,570.4z"/>
	<polygon class="st3" points="78.1,497.4 97.7,508.6 95.1,495.7 93.8,494.1 	"/>
	<polygon class="st3" points="110.4,570.3 99.1,590 112.1,587.3 113.6,586 	"/>
</g>
<g class="st1">
	<path class="st2" d="M555.8,1098.4l-66.6,13.7l-19.1-93.1l66.6-13.7c1.1-0.2,2.2,0.5,2.4,1.6l18.3,89
		C557.7,1097.1,556.9,1098.2,555.8,1098.4z"/>
	
		<rect x="479.6" y="1016.8" transform="matrix(0.9796 -0.2011 0.2011 0.9796 -204.1562 119.4248)" class="st3" width="12" height="95"/>
	<path class="st3" d="M536.9,1081.4l-28,5.8c-0.9,0.2-1.8-0.4-2-1.3l-11-53.5c-0.2-0.9,0.4-1.8,1.3-2l28-5.8c0.9-0.2,1.8,0.4,2,1.3
		l11,53.5C538.4,1080.3,537.8,1081.2,536.9,1081.4z"/>
	<polygon class="st3" points="522.1,1008.4 541.7,1019.6 539.1,1006.7 537.8,1005.1 	"/>
	<polygon class="st3" points="554.4,1081.3 543.1,1101 556.1,1098.3 557.6,1097 	"/>
</g>
<g class="st1">
	<path class="st2" d="M764.8,1018.4l-66.6,13.7L679.2,939l66.6-13.7c1.1-0.2,2.2,0.5,2.4,1.6l18.3,89
		C766.7,1017.1,765.9,1018.2,764.8,1018.4z"/>
	
		<rect x="688.6" y="936.8" transform="matrix(0.9796 -0.2011 0.2011 0.9796 -183.7935 159.8282)" class="st3" width="12" height="95"/>
	<path class="st3" d="M745.9,1001.4l-28,5.8c-0.9,0.2-1.8-0.4-2-1.3l-11-53.5c-0.2-0.9,0.4-1.8,1.3-2l28-5.8c0.9-0.2,1.8,0.4,2,1.3
		l11,53.5C747.4,1000.3,746.8,1001.2,745.9,1001.4z"/>
	<polygon class="st3" points="731.1,928.4 750.7,939.6 748.1,926.7 746.8,925.1 	"/>
	<polygon class="st3" points="763.4,1001.3 752.1,1021 765.1,1018.3 766.6,1017 	"/>
</g>
<g class="st1">
	<path class="st2" d="M959.8,1113.4l-66.6,13.7l-19.1-93.1l66.6-13.7c1.1-0.2,2.2,0.5,2.4,1.6l18.3,89
		C961.7,1112.1,960.9,1113.2,959.8,1113.4z"/>
	
		<rect x="883.6" y="1031.8" transform="matrix(0.9796 -0.2011 0.2011 0.9796 -198.9165 200.9922)" class="st3" width="12" height="95"/>
	<path class="st3" d="M940.9,1096.4l-28,5.8c-0.9,0.2-1.8-0.4-2-1.3l-11-53.5c-0.2-0.9,0.4-1.8,1.3-2l28-5.8c0.9-0.2,1.8,0.4,2,1.3
		l11,53.5C942.4,1095.3,941.8,1096.2,940.9,1096.4z"/>
	<polygon class="st3" points="926.1,1023.4 945.7,1034.6 943.1,1021.7 941.8,1020.1 	"/>
	<polygon class="st3" points="958.4,1096.3 947.1,1116 960.1,1113.3 961.6,1112 	"/>
</g>
<g class="st1">
	<path class="st2" d="M1098.8,1024.4l-66.6,13.7l-19.1-93.1l66.6-13.7c1.1-0.2,2.2,0.5,2.4,1.6l18.3,89
		C1100.7,1023.1,1099.9,1024.2,1098.8,1024.4z"/>
	
		<rect x="1022.6" y="942.8" transform="matrix(0.9796 -0.2011 0.2011 0.9796 -178.1742 227.1317)" class="st3" width="12" height="95"/>
	<path class="st3" d="M1079.9,1007.4l-28,5.8c-0.9,0.2-1.8-0.4-2-1.3l-11-53.5c-0.2-0.9,0.4-1.8,1.3-2l28-5.8c0.9-0.2,1.8,0.4,2,1.3
		l11,53.5C1081.4,1006.3,1080.8,1007.2,1079.9,1007.4z"/>
	<polygon class="st3" points="1065.1,934.4 1084.7,945.6 1082.1,932.7 1080.8,931.1 	"/>
	<polygon class="st3" points="1097.4,1007.3 1086.1,1027 1099.1,1024.3 1100.6,1023 	"/>
</g>
<g class="st1">
	<path class="st2" d="M1328.8,1095.4l-66.6,13.7l-19.1-93.1l66.6-13.7c1.1-0.2,2.2,0.5,2.4,1.6l18.3,89
		C1330.7,1094.1,1329.9,1095.2,1328.8,1095.4z"/>
	
		<rect x="1252.6" y="1013.8" transform="matrix(0.9796 -0.2011 0.2011 0.9796 -187.7545 274.8451)" class="st3" width="12" height="95"/>
	<path class="st3" d="M1309.9,1078.4l-28,5.8c-0.9,0.2-1.8-0.4-2-1.3l-11-53.5c-0.2-0.9,0.4-1.8,1.3-2l28-5.8c0.9-0.2,1.8,0.4,2,1.3
		l11,53.5C1311.4,1077.3,1310.8,1078.2,1309.9,1078.4z"/>
	<polygon class="st3" points="1295.1,1005.4 1314.7,1016.6 1312.1,1003.7 1310.8,1002.1 	"/>
	<polygon class="st3" points="1327.4,1078.3 1316.1,1098 1329.1,1095.3 1330.6,1094 	"/>
</g>
<g class="st1">
	<path class="st2" d="M1939.8,1045.4l-66.6,13.7l-19.1-93.1l66.6-13.7c1.1-0.2,2.2,0.5,2.4,1.6l18.3,89
		C1941.7,1044.1,1940.9,1045.2,1939.8,1045.4z"/>
	
		<rect x="1863.6" y="963.8" transform="matrix(0.9796 -0.2011 0.2011 0.9796 -165.2101 396.7201)" class="st3" width="12" height="95"/>
	<path class="st3" d="M1920.9,1028.4l-28,5.8c-0.9,0.2-1.8-0.4-2-1.3l-11-53.5c-0.2-0.9,0.4-1.8,1.3-2l28-5.8c0.9-0.2,1.8,0.4,2,1.3
		l11,53.5C1922.4,1027.3,1921.8,1028.2,1920.9,1028.4z"/>
	<polygon class="st3" points="1906.1,955.4 1925.7,966.6 1923.1,953.7 1921.8,952.1 	"/>
	<polygon class="st3" points="1938.4,1028.3 1927.1,1048 1940.1,1045.3 1941.6,1044 	"/>
</g>
</svg>
