<?xml version="1.0" encoding="utf-8"?>
<!-- Generator: Adobe Illustrator 25.2.3, SVG Export Plug-In . SVG Version: 6.00 Build 0)  -->
<svg version="1.1" id="Ebene_1" xmlns="http://www.w3.org/2000/svg" xmlns:xlink="http://www.w3.org/1999/xlink" x="0px" y="0px"
	 viewBox="0 0 1920 1080" style="enable-background:new 0 0 1920 1080;" xml:space="preserve">
<style type="text/css">
	.st0{fill:#BDCCD4;}
	.st1{opacity:0.2;}
	.st2{fill:none;stroke:#142A52;stroke-width:2.092;stroke-miterlimit:10;}
	.st3{fill:none;stroke:#142A52;stroke-width:2.0938;stroke-miterlimit:10;}
	.st4{opacity:0.2;fill:#142A52;}
	.st5{opacity:0.6;}
</style>
<rect x="1377" class="st0" width="543" height="1086"/>
<rect x="-1" class="st0" width="1378" height="1085"/>
<g class="st1">
	<path class="st2" d="M482.4,102.4c11.9-3.8,11.8-7.2,23.2-10.9c7.1-2.3,13.7-3.1,19.4-3.2c-4.1-12.8-22.1-18.9-40.5-13.7
		c-17.9,5.1-29.8,19-27.6,31.7C466.4,104.8,471.8,105.8,482.4,102.4z"/>
	<path class="st2" d="M506.9,96.9c-11.4,3.7-11.3,7.1-23.2,10.9c-10.6,3.4-16,2.4-25.6,3.9c0.1,0.6,0.2,1.2,0.4,1.8
		c3.7,13.2,22,19.6,40.7,14.3s31-20.3,27.2-33.5c-0.1-0.2-0.1-0.4-0.2-0.7C520.6,93.9,514,94.7,506.9,96.9z"/>
</g>
<g class="st1">
	<path class="st2" d="M8.4,203.4c11.9-3.8,11.8-7.2,23.2-10.9c7.1-2.3,13.7-3.1,19.4-3.2c-4.1-12.8-22.1-18.9-40.5-13.7
		c-17.9,5.1-29.8,19-27.6,31.7C-7.6,205.8-2.2,206.8,8.4,203.4z"/>
	<path class="st2" d="M32.9,197.9c-11.4,3.7-11.3,7.1-23.2,10.9c-10.6,3.4-16,2.4-25.6,3.9c0.1,0.6,0.2,1.2,0.4,1.8
		c3.7,13.2,22,19.6,40.7,14.3s31-20.3,27.2-33.5c-0.1-0.2-0.1-0.4-0.2-0.7C46.6,194.9,40,195.7,32.9,197.9z"/>
</g>
<g class="st1">
	<path class="st2" d="M261.4,222.4c11.9-3.8,11.8-7.2,23.2-10.9c7.1-2.3,13.7-3.1,19.4-3.2c-4.1-12.8-22.1-18.9-40.5-13.7
		c-17.9,5.1-29.8,19-27.6,31.7C245.4,224.8,250.8,225.8,261.4,222.4z"/>
	<path class="st2" d="M285.9,216.9c-11.4,3.7-11.3,7.1-23.2,10.9c-10.6,3.4-16,2.4-25.6,3.9c0.1,0.6,0.2,1.2,0.4,1.8
		c3.7,13.2,22,19.6,40.7,14.3s31-20.3,27.2-33.5c-0.1-0.2-0.1-0.4-0.2-0.7C299.6,213.9,293,214.7,285.9,216.9z"/>
</g>
<g class="st1">
	<path class="st2" d="M263.4,28.4c11.9-3.8,11.8-7.2,23.2-10.9c7.1-2.3,13.7-3.1,19.4-3.2c-4.1-12.8-22.1-18.9-40.5-13.7
		c-17.9,5.1-29.8,19-27.6,31.7C247.4,30.8,252.8,31.8,263.4,28.4z"/>
	<path class="st2" d="M287.9,22.9c-11.4,3.7-11.3,7.1-23.2,10.9c-10.6,3.4-16,2.4-25.6,3.9c0.1,0.6,0.2,1.2,0.4,1.8
		c3.7,13.2,22,19.6,40.7,14.3s31-20.3,27.2-33.5c-0.1-0.2-0.1-0.4-0.2-0.7C301.6,19.9,295,20.7,287.9,22.9z"/>
</g>
<g class="st1">
	<path class="st2" d="M128.4,122.4c11.9-3.8,11.8-7.2,23.2-10.9c7.1-2.3,13.7-3.1,19.4-3.2c-4.1-12.8-22.1-18.9-40.5-13.7
		c-17.9,5.1-29.8,19-27.6,31.7C112.4,124.8,117.8,125.8,128.4,122.4z"/>
	<path class="st2" d="M152.9,116.9c-11.4,3.7-11.3,7.1-23.2,10.9c-10.6,3.4-16,2.4-25.6,3.9c0.1,0.6,0.2,1.2,0.4,1.8
		c3.7,13.2,22,19.6,40.7,14.3s31-20.3,27.2-33.5c-0.1-0.2-0.1-0.4-0.2-0.7C166.6,113.9,160,114.7,152.9,116.9z"/>
</g>
<g class="st1">
	<path class="st2" d="M413.4,214.4c11.9-3.8,11.8-7.2,23.2-10.9c7.1-2.3,13.7-3.1,19.4-3.2c-4.1-12.8-22.1-18.9-40.5-13.7
		c-17.9,5.1-29.8,19-27.6,31.7C397.4,216.8,402.8,217.8,413.4,214.4z"/>
	<path class="st2" d="M437.9,208.9c-11.4,3.7-11.3,7.1-23.2,10.9c-10.6,3.4-16,2.4-25.6,3.9c0.1,0.6,0.2,1.2,0.4,1.8
		c3.7,13.2,22,19.6,40.7,14.3s31-20.3,27.2-33.5c-0.1-0.2-0.1-0.4-0.2-0.7C451.6,205.9,445,206.7,437.9,208.9z"/>
</g>
<g class="st1">
	<path class="st3" d="M515.5,299.4c11.9-3.8,11.8-7.2,23.2-10.9c7.1-2.3,13.7-3.1,19.4-3.2c-4.1-12.8-22.1-18.9-40.6-13.6
		c-17.9,5.1-29.9,19-27.7,31.7C499.4,301.8,504.9,302.8,515.5,299.4z"/>
	<path class="st3" d="M540,293.9c-11.4,3.7-11.3,7.1-23.2,10.9c-10.6,3.4-16.1,2.4-25.7,4c0.1,0.6,0.2,1.2,0.4,1.8
		c3.7,13.2,22,19.6,40.8,14.3s31-20.3,27.3-33.5c-0.1-0.2-0.1-0.4-0.2-0.7C553.7,290.8,547.1,291.6,540,293.9z"/>
</g>
<g class="st1">
	<path class="st2" d="M176.4,366.4c11.9-3.8,11.8-7.2,23.2-10.9c7.1-2.3,13.7-3.1,19.4-3.2c-4.1-12.8-22.1-18.9-40.5-13.7
		c-17.9,5.1-29.8,19-27.6,31.7C160.4,368.8,165.8,369.8,176.4,366.4z"/>
	<path class="st2" d="M200.9,360.9c-11.4,3.7-11.3,7.1-23.2,10.9c-10.6,3.4-16,2.4-25.6,3.9c0.1,0.6,0.2,1.2,0.4,1.8
		c3.7,13.2,22,19.6,40.7,14.3s31-20.3,27.2-33.5c-0.1-0.2-0.1-0.4-0.2-0.7C214.6,357.9,208,358.7,200.9,360.9z"/>
</g>
<g class="st1">
	<path class="st2" d="M7.4,371.4c11.9-3.8,11.8-7.2,23.2-10.9c7.1-2.3,13.7-3.1,19.4-3.2c-4.1-12.8-22.1-18.9-40.5-13.7
		c-17.9,5.1-29.8,19-27.6,31.7C-8.6,373.8-3.2,374.8,7.4,371.4z"/>
	<path class="st2" d="M31.9,365.9c-11.4,3.7-11.3,7.1-23.2,10.9c-10.6,3.4-16,2.4-25.6,3.9c0.1,0.6,0.2,1.2,0.4,1.8
		c3.7,13.2,22,19.6,40.7,14.3s31-20.3,27.2-33.5c-0.1-0.2-0.1-0.4-0.2-0.7C45.6,362.9,39,363.7,31.9,365.9z"/>
</g>
<g class="st1">
	<path class="st2" d="M227.4,468.4c11.9-3.8,11.8-7.2,23.2-10.9c7.1-2.3,13.7-3.1,19.4-3.2c-4.1-12.8-22.1-18.9-40.5-13.7
		c-17.9,5.1-29.8,19-27.6,31.7C211.4,470.8,216.8,471.8,227.4,468.4z"/>
	<path class="st2" d="M251.9,462.9c-11.4,3.7-11.3,7.1-23.2,10.9c-10.6,3.4-16,2.4-25.6,3.9c0.1,0.6,0.2,1.2,0.4,1.8
		c3.7,13.2,22,19.6,40.7,14.3c18.8-5.3,31-20.3,27.2-33.5c-0.1-0.2-0.1-0.4-0.2-0.7C265.6,459.9,259,460.7,251.9,462.9z"/>
</g>
<g class="st1">
	<path class="st2" d="M434.4,440.4c11.9-3.8,11.8-7.2,23.2-10.9c7.1-2.3,13.7-3.1,19.4-3.2c-4.1-12.8-22.1-18.9-40.5-13.7
		c-17.9,5.1-29.8,19-27.6,31.7C418.4,442.8,423.8,443.8,434.4,440.4z"/>
	<path class="st2" d="M458.9,434.9c-11.4,3.7-11.3,7.1-23.2,10.9c-10.6,3.4-16,2.4-25.6,3.9c0.1,0.6,0.2,1.2,0.4,1.8
		c3.7,13.2,22,19.6,40.7,14.3s31-20.3,27.2-33.5c-0.1-0.2-0.1-0.4-0.2-0.7C472.6,431.9,466,432.7,458.9,434.9z"/>
</g>
<g class="st1">
	<path class="st2" d="M514.4,546.4c11.9-3.8,11.8-7.2,23.2-10.9c7.1-2.3,13.7-3.1,19.4-3.2c-4.1-12.8-22.1-18.9-40.5-13.7
		c-17.9,5.1-29.8,19-27.6,31.7C498.4,548.8,503.8,549.8,514.4,546.4z"/>
	<path class="st2" d="M538.9,540.9c-11.4,3.7-11.3,7.1-23.2,10.9c-10.6,3.4-16,2.4-25.6,3.9c0.1,0.6,0.2,1.2,0.4,1.8
		c3.7,13.2,22,19.6,40.7,14.3c18.8-5.3,31-20.3,27.2-33.5c-0.1-0.2-0.1-0.4-0.2-0.7C552.6,537.9,546,538.7,538.9,540.9z"/>
</g>
<g class="st1">
	<path class="st2" d="M143.4,602.4c11.9-3.8,11.8-7.2,23.2-10.9c7.1-2.3,13.7-3.1,19.4-3.2c-4.1-12.8-22.1-18.9-40.5-13.7
		c-17.9,5.1-29.8,19-27.6,31.7C127.4,604.8,132.8,605.8,143.4,602.4z"/>
	<path class="st2" d="M167.9,596.9c-11.4,3.7-11.3,7.1-23.2,10.9c-10.6,3.4-16,2.4-25.6,3.9c0.1,0.6,0.2,1.2,0.4,1.8
		c3.7,13.2,22,19.6,40.7,14.3c18.8-5.3,31-20.3,27.2-33.5c-0.1-0.2-0.1-0.4-0.2-0.7C181.6,593.9,175,594.7,167.9,596.9z"/>
</g>
<g class="st1">
	<path class="st2" d="M9.4,670.4c11.9-3.8,11.8-7.2,23.2-10.9c7.1-2.3,13.7-3.1,19.4-3.2c-4.1-12.8-22.1-18.9-40.5-13.7
		c-17.9,5.1-29.8,19-27.6,31.7C-6.6,672.8-1.2,673.8,9.4,670.4z"/>
	<path class="st2" d="M33.9,664.9c-11.4,3.7-11.3,7.1-23.2,10.9c-10.6,3.4-16,2.4-25.6,3.9c0.1,0.6,0.2,1.2,0.4,1.8
		c3.7,13.2,22,19.6,40.7,14.3c18.8-5.3,31-20.3,27.2-33.5c-0.1-0.2-0.1-0.4-0.2-0.7C47.6,661.9,41,662.7,33.9,664.9z"/>
</g>
<g class="st1">
	<path class="st2" d="M262.4,719.4c11.9-3.8,11.8-7.2,23.2-10.9c7.1-2.3,13.7-3.1,19.4-3.2c-4.1-12.8-22.1-18.9-40.5-13.7
		c-17.9,5.1-29.8,19-27.6,31.7C246.4,721.8,251.8,722.8,262.4,719.4z"/>
	<path class="st2" d="M286.9,713.9c-11.4,3.7-11.3,7.1-23.2,10.9c-10.6,3.4-16,2.4-25.6,3.9c0.1,0.6,0.2,1.2,0.4,1.8
		c3.7,13.2,22,19.6,40.7,14.3c18.8-5.3,31-20.3,27.2-33.5c-0.1-0.2-0.1-0.4-0.2-0.7C300.6,710.9,294,711.7,286.9,713.9z"/>
</g>
<g class="st1">
	<path class="st2" d="M430.4,954.4c11.9-3.8,11.8-7.2,23.2-10.9c7.1-2.3,13.7-3.1,19.4-3.2c-4.1-12.8-22.1-18.9-40.5-13.7
		c-17.9,5.1-29.8,19-27.6,31.7C414.4,956.8,419.8,957.8,430.4,954.4z"/>
	<path class="st2" d="M454.9,948.9c-11.4,3.7-11.3,7.1-23.2,10.9c-10.6,3.4-16,2.4-25.6,3.9c0.1,0.6,0.2,1.2,0.4,1.8
		c3.7,13.2,22,19.6,40.7,14.3c18.8-5.3,31-20.3,27.2-33.5c-0.1-0.2-0.1-0.4-0.2-0.7C468.6,945.9,462,946.7,454.9,948.9z"/>
</g>
<g class="st1">
	<path class="st2" d="M619.4,1070.4c11.9-3.8,11.8-7.2,23.2-10.9c7.1-2.3,13.7-3.1,19.4-3.2c-4.1-12.8-22.1-18.9-40.5-13.7
		c-17.9,5.1-29.8,19-27.6,31.7C603.4,1072.8,608.8,1073.8,619.4,1070.4z"/>
	<path class="st2" d="M643.9,1064.9c-11.4,3.7-11.3,7.1-23.2,10.9c-10.6,3.4-16,2.4-25.6,3.9c0.1,0.6,0.2,1.2,0.4,1.8
		c3.7,13.2,22,19.6,40.7,14.3c18.8-5.3,31-20.3,27.2-33.5c-0.1-0.2-0.1-0.4-0.2-0.7C657.6,1061.9,651,1062.7,643.9,1064.9z"/>
</g>
<g class="st1">
	<path class="st2" d="M745.4,960.4c11.9-3.8,11.8-7.2,23.2-10.9c7.1-2.3,13.7-3.1,19.4-3.2c-4.1-12.8-22.1-18.9-40.5-13.7
		c-17.9,5.1-29.8,19-27.6,31.7C729.4,962.8,734.8,963.8,745.4,960.4z"/>
	<path class="st2" d="M769.9,954.9c-11.4,3.7-11.3,7.1-23.2,10.9c-10.6,3.4-16,2.4-25.6,3.9c0.1,0.6,0.2,1.2,0.4,1.8
		c3.7,13.2,22,19.6,40.7,14.3c18.8-5.3,31-20.3,27.2-33.5c-0.1-0.2-0.1-0.4-0.2-0.7C783.6,951.9,777,952.7,769.9,954.9z"/>
</g>
<g class="st1">
	<path class="st2" d="M712.4,519.4c11.9-3.8,11.8-7.2,23.2-10.9c7.1-2.3,13.7-3.1,19.4-3.2c-4.1-12.8-22.1-18.9-40.5-13.7
		c-17.9,5.1-29.8,19-27.6,31.7C696.4,521.8,701.8,522.8,712.4,519.4z"/>
	<path class="st2" d="M736.9,513.9c-11.4,3.7-11.3,7.1-23.2,10.9c-10.6,3.4-16,2.4-25.6,3.9c0.1,0.6,0.2,1.2,0.4,1.8
		c3.7,13.2,22,19.6,40.7,14.3c18.8-5.3,31-20.3,27.2-33.5c-0.1-0.2-0.1-0.4-0.2-0.7C750.6,510.9,744,511.7,736.9,513.9z"/>
</g>
<g class="st1">
	<path class="st2" d="M680.4,287.4c11.9-3.8,11.8-7.2,23.2-10.9c7.1-2.3,13.7-3.1,19.4-3.2c-4.1-12.8-22.1-18.9-40.5-13.7
		c-17.9,5.1-29.8,19-27.6,31.7C664.4,289.8,669.8,290.8,680.4,287.4z"/>
	<path class="st2" d="M704.9,281.9c-11.4,3.7-11.3,7.1-23.2,10.9c-10.6,3.4-16,2.4-25.6,3.9c0.1,0.6,0.2,1.2,0.4,1.8
		c3.7,13.2,22,19.6,40.7,14.3c18.8-5.3,31-20.3,27.2-33.5c-0.1-0.2-0.1-0.4-0.2-0.7C718.6,278.9,712,279.7,704.9,281.9z"/>
</g>
<g class="st1">
	<path class="st2" d="M757.4,681.4c11.9-3.8,11.8-7.2,23.2-10.9c7.1-2.3,13.7-3.1,19.4-3.2c-4.1-12.8-22.1-18.9-40.5-13.7
		c-17.9,5.1-29.8,19-27.6,31.7C741.4,683.8,746.8,684.8,757.4,681.4z"/>
	<path class="st2" d="M781.9,675.9c-11.4,3.7-11.3,7.1-23.2,10.9c-10.6,3.4-16,2.4-25.6,3.9c0.1,0.6,0.2,1.2,0.4,1.8
		c3.7,13.2,22,19.6,40.7,14.3c18.8-5.3,31-20.3,27.2-33.5c-0.1-0.2-0.1-0.4-0.2-0.7C795.6,672.9,789,673.7,781.9,675.9z"/>
</g>
<g class="st1">
	<path class="st2" d="M715.4,114.4c11.9-3.8,11.8-7.2,23.2-10.9c7.1-2.3,13.7-3.1,19.4-3.2c-4.1-12.8-22.1-18.9-40.5-13.7
		c-17.9,5.1-29.8,19-27.6,31.7C699.4,116.8,704.8,117.8,715.4,114.4z"/>
	<path class="st2" d="M739.9,108.9c-11.4,3.7-11.3,7.1-23.2,10.9c-10.6,3.4-16,2.4-25.6,3.9c0.1,0.6,0.2,1.2,0.4,1.8
		c3.7,13.2,22,19.6,40.7,14.3c18.8-5.3,31-20.3,27.2-33.5c-0.1-0.2-0.1-0.4-0.2-0.7C753.6,105.9,747,106.7,739.9,108.9z"/>
</g>
<g class="st1">
	<path class="st2" d="M833.4,16.4c11.9-3.8,11.8-7.2,23.2-10.9c7.1-2.3,13.7-3.1,19.4-3.2c-4.1-12.8-22.1-18.9-40.5-13.7
		c-17.9,5.1-29.8,19-27.6,31.7C817.4,18.8,822.8,19.8,833.4,16.4z"/>
	<path class="st2" d="M857.9,10.9c-11.4,3.7-11.3,7.1-23.2,10.9c-10.6,3.4-16,2.4-25.6,3.9c0.1,0.6,0.2,1.2,0.4,1.8
		c3.7,13.2,22,19.6,40.7,14.3c18.8-5.3,31-20.3,27.2-33.5c-0.1-0.2-0.1-0.4-0.2-0.7C871.6,7.9,865,8.7,857.9,10.9z"/>
</g>
<g class="st1">
	<path class="st2" d="M950.4,94.4c11.9-3.8,11.8-7.2,23.2-10.9c7.1-2.3,13.7-3.1,19.4-3.2c-4.1-12.8-22.1-18.9-40.5-13.7
		c-17.9,5.1-29.8,19-27.6,31.7C934.4,96.8,939.8,97.8,950.4,94.4z"/>
	<path class="st2" d="M974.9,88.9c-11.4,3.7-11.3,7.1-23.2,10.9c-10.6,3.4-16,2.4-25.6,3.9c0.1,0.6,0.2,1.2,0.4,1.8
		c3.7,13.2,22,19.6,40.7,14.3c18.8-5.3,31-20.3,27.2-33.5c-0.1-0.2-0.1-0.4-0.2-0.7C988.6,85.9,982,86.7,974.9,88.9z"/>
</g>
<g class="st1">
	<path class="st2" d="M916.4,257.4c11.9-3.8,11.8-7.2,23.2-10.9c7.1-2.3,13.7-3.1,19.4-3.2c-4.1-12.8-22.1-18.9-40.5-13.7
		c-17.9,5.1-29.8,19-27.6,31.7C900.4,259.8,905.8,260.8,916.4,257.4z"/>
	<path class="st2" d="M940.9,251.9c-11.4,3.7-11.3,7.1-23.2,10.9c-10.6,3.4-16,2.4-25.6,3.9c0.1,0.6,0.2,1.2,0.4,1.8
		c3.7,13.2,22,19.6,40.7,14.3c18.8-5.3,31-20.3,27.2-33.5c-0.1-0.2-0.1-0.4-0.2-0.7C954.6,248.9,948,249.7,940.9,251.9z"/>
</g>
<g class="st1">
	<path class="st2" d="M936.4,415.4c11.9-3.8,11.8-7.2,23.2-10.9c7.1-2.3,13.7-3.1,19.4-3.2c-4.1-12.8-22.1-18.9-40.5-13.7
		c-17.9,5.1-29.8,19-27.6,31.7C920.4,417.8,925.8,418.8,936.4,415.4z"/>
	<path class="st2" d="M960.9,409.9c-11.4,3.7-11.3,7.1-23.2,10.9c-10.6,3.4-16,2.4-25.6,3.9c0.1,0.6,0.2,1.2,0.4,1.8
		c3.7,13.2,22,19.6,40.7,14.3c18.8-5.3,31-20.3,27.2-33.5c-0.1-0.2-0.1-0.4-0.2-0.7C974.6,406.9,968,407.7,960.9,409.9z"/>
</g>
<g class="st1">
	<path class="st2" d="M969.4,627.4c11.9-3.8,11.8-7.2,23.2-10.9c7.1-2.3,13.7-3.1,19.4-3.2c-4.1-12.8-22.1-18.9-40.5-13.7
		c-17.9,5.1-29.8,19-27.6,31.7C953.4,629.8,958.8,630.8,969.4,627.4z"/>
	<path class="st2" d="M993.9,621.9c-11.4,3.7-11.3,7.1-23.2,10.9c-10.6,3.4-16,2.4-25.6,3.9c0.1,0.6,0.2,1.2,0.4,1.8
		c3.7,13.2,22,19.6,40.7,14.3c18.8-5.3,31-20.3,27.2-33.5c-0.1-0.2-0.1-0.4-0.2-0.7C1007.6,618.9,1001,619.7,993.9,621.9z"/>
</g>
<g class="st1">
	<path class="st2" d="M1049.4,305.4c11.9-3.8,11.8-7.2,23.2-10.9c7.1-2.3,13.7-3.1,19.4-3.2c-4.1-12.8-22.1-18.9-40.5-13.7
		c-17.9,5.1-29.8,19-27.6,31.7C1033.4,307.8,1038.8,308.8,1049.4,305.4z"/>
	<path class="st2" d="M1073.9,299.9c-11.4,3.7-11.3,7.1-23.2,10.9c-10.6,3.4-16,2.4-25.6,3.9c0.1,0.6,0.2,1.2,0.4,1.8
		c3.7,13.2,22,19.6,40.7,14.3c18.8-5.3,31-20.3,27.2-33.5c-0.1-0.2-0.1-0.4-0.2-0.7C1087.6,296.9,1081,297.7,1073.9,299.9z"/>
</g>
<g class="st1">
	<path class="st2" d="M1271.4,22.4c11.9-3.8,11.8-7.2,23.2-10.9c7.1-2.3,13.7-3.1,19.4-3.2c-4.1-12.8-22.1-18.9-40.5-13.7
		c-17.9,5.1-29.8,19-27.6,31.7C1255.4,24.8,1260.8,25.8,1271.4,22.4z"/>
	<path class="st2" d="M1295.9,16.9c-11.4,3.7-11.3,7.1-23.2,10.9c-10.6,3.4-16,2.4-25.6,3.9c0.1,0.6,0.2,1.2,0.4,1.8
		c3.7,13.2,22,19.6,40.7,14.3c18.8-5.3,31-20.3,27.2-33.5c-0.1-0.2-0.1-0.4-0.2-0.7C1309.6,13.9,1303,14.7,1295.9,16.9z"/>
</g>
<g class="st1">
	<path class="st2" d="M1612.4,33.4c11.9-3.8,11.8-7.2,23.2-10.9c7.1-2.3,13.7-3.1,19.4-3.2c-4.1-12.8-22.1-18.9-40.5-13.7
		c-17.9,5.1-29.8,19-27.6,31.7C1596.4,35.8,1601.8,36.8,1612.4,33.4z"/>
	<path class="st2" d="M1636.9,27.9c-11.4,3.7-11.3,7.1-23.2,10.9c-10.6,3.4-16,2.4-25.6,3.9c0.1,0.6,0.2,1.2,0.4,1.8
		c3.7,13.2,22,19.6,40.7,14.3c18.8-5.3,31-20.3,27.2-33.5c-0.1-0.2-0.1-0.4-0.2-0.7C1650.6,24.9,1644,25.7,1636.9,27.9z"/>
</g>
<g class="st1">
	<path class="st2" d="M1774.4,15.4c11.9-3.8,11.8-7.2,23.2-10.9c7.1-2.3,13.7-3.1,19.4-3.2c-4.1-12.8-22.1-18.9-40.5-13.7
		c-17.9,5.1-29.8,19-27.6,31.7C1758.4,17.8,1763.8,18.8,1774.4,15.4z"/>
	<path class="st2" d="M1798.9,9.9c-11.4,3.7-11.3,7.1-23.2,10.9c-10.6,3.4-16,2.4-25.6,3.9c0.1,0.6,0.2,1.2,0.4,1.8
		c3.7,13.2,22,19.6,40.7,14.3c18.8-5.3,31-20.3,27.2-33.5c-0.1-0.2-0.1-0.4-0.2-0.7C1812.6,6.9,1806,7.7,1798.9,9.9z"/>
</g>
<g class="st1">
	<path class="st2" d="M1260.4,266.4c11.9-3.8,11.8-7.2,23.2-10.9c7.1-2.3,13.7-3.1,19.4-3.2c-4.1-12.8-22.1-18.9-40.5-13.7
		c-17.9,5.1-29.8,19-27.6,31.7C1244.4,268.8,1249.8,269.8,1260.4,266.4z"/>
	<path class="st2" d="M1284.9,260.9c-11.4,3.7-11.3,7.1-23.2,10.9c-10.6,3.4-16,2.4-25.6,3.9c0.1,0.6,0.2,1.2,0.4,1.8
		c3.7,13.2,22,19.6,40.7,14.3c18.8-5.3,31-20.3,27.2-33.5c-0.1-0.2-0.1-0.4-0.2-0.7C1298.6,257.9,1292,258.7,1284.9,260.9z"/>
</g>
<g class="st1">
	<path class="st2" d="M1259.4,481.4c11.9-3.8,11.8-7.2,23.2-10.9c7.1-2.3,13.7-3.1,19.4-3.2c-4.1-12.8-22.1-18.9-40.5-13.7
		c-17.9,5.1-29.8,19-27.6,31.7C1243.4,483.8,1248.8,484.8,1259.4,481.4z"/>
	<path class="st2" d="M1283.9,475.9c-11.4,3.7-11.3,7.1-23.2,10.9c-10.6,3.4-16,2.4-25.6,3.9c0.1,0.6,0.2,1.2,0.4,1.8
		c3.7,13.2,22,19.6,40.7,14.3c18.8-5.3,31-20.3,27.2-33.5c-0.1-0.2-0.1-0.4-0.2-0.7C1297.6,472.9,1291,473.7,1283.9,475.9z"/>
</g>
<g class="st1">
	<path class="st2" d="M1149.4,615.4c11.9-3.8,11.8-7.2,23.2-10.9c7.1-2.3,13.7-3.1,19.4-3.2c-4.1-12.8-22.1-18.9-40.5-13.7
		c-17.9,5.1-29.8,19-27.6,31.7C1133.4,617.8,1138.8,618.8,1149.4,615.4z"/>
	<path class="st2" d="M1173.9,609.9c-11.4,3.7-11.3,7.1-23.2,10.9c-10.6,3.4-16,2.4-25.6,3.9c0.1,0.6,0.2,1.2,0.4,1.8
		c3.7,13.2,22,19.6,40.7,14.3c18.8-5.3,31-20.3,27.2-33.5c-0.1-0.2-0.1-0.4-0.2-0.7C1187.6,606.9,1181,607.7,1173.9,609.9z"/>
</g>
<g class="st1">
	<path class="st2" d="M1048.4,854.4c11.9-3.8,11.8-7.2,23.2-10.9c7.1-2.3,13.7-3.1,19.4-3.2c-4.1-12.8-22.1-18.9-40.5-13.7
		c-17.9,5.1-29.8,19-27.6,31.7C1032.4,856.8,1037.8,857.8,1048.4,854.4z"/>
	<path class="st2" d="M1072.9,848.9c-11.4,3.7-11.3,7.1-23.2,10.9c-10.6,3.4-16,2.4-25.6,3.9c0.1,0.6,0.2,1.2,0.4,1.8
		c3.7,13.2,22,19.6,40.7,14.3c18.8-5.3,31-20.3,27.2-33.5c-0.1-0.2-0.1-0.4-0.2-0.7C1086.6,845.9,1080,846.7,1072.9,848.9z"/>
</g>
<g class="st1">
	<path class="st2" d="M1891.4,1066.4c11.9-3.8,11.8-7.2,23.2-10.9c7.1-2.3,13.7-3.1,19.4-3.2c-4.1-12.8-22.1-18.9-40.5-13.7
		c-17.9,5.1-29.8,19-27.6,31.7C1875.4,1068.8,1880.8,1069.8,1891.4,1066.4z"/>
	<path class="st2" d="M1915.9,1060.9c-11.4,3.7-11.3,7.1-23.2,10.9c-10.6,3.4-16,2.4-25.6,3.9c0.1,0.6,0.2,1.2,0.4,1.8
		c3.7,13.2,22,19.6,40.7,14.3c18.8-5.3,31-20.3,27.2-33.5c-0.1-0.2-0.1-0.4-0.2-0.7C1929.6,1057.9,1923,1058.7,1915.9,1060.9z"/>
</g>
<g class="st1">
	<path class="st2" d="M866.4,763.4c11.9-3.8,11.8-7.2,23.2-10.9c7.1-2.3,13.7-3.1,19.4-3.2c-4.1-12.8-22.1-18.9-40.5-13.7
		c-17.9,5.1-29.8,19-27.6,31.7C850.4,765.8,855.8,766.8,866.4,763.4z"/>
	<path class="st2" d="M890.9,757.9c-11.4,3.7-11.3,7.1-23.2,10.9c-10.6,3.4-16,2.4-25.6,3.9c0.1,0.6,0.2,1.2,0.4,1.8
		c3.7,13.2,22,19.6,40.7,14.3c18.8-5.3,31-20.3,27.2-33.5c-0.1-0.2-0.1-0.4-0.2-0.7C904.6,754.9,898,755.7,890.9,757.9z"/>
</g>
<g class="st1">
	<path class="st2" d="M951.4,974.4c11.9-3.8,11.8-7.2,23.2-10.9c7.1-2.3,13.7-3.1,19.4-3.2c-4.1-12.8-22.1-18.9-40.5-13.7
		c-17.9,5.1-29.8,19-27.6,31.7C935.4,976.8,940.8,977.8,951.4,974.4z"/>
	<path class="st2" d="M975.9,968.9c-11.4,3.7-11.3,7.1-23.2,10.9c-10.6,3.4-16,2.4-25.6,3.9c0.1,0.6,0.2,1.2,0.4,1.8
		c3.7,13.2,22,19.6,40.7,14.3c18.8-5.3,31-20.3,27.2-33.5c-0.1-0.2-0.1-0.4-0.2-0.7C989.6,965.9,983,966.7,975.9,968.9z"/>
</g>
<g class="st1">
	<path class="st2" d="M1088.4,1070.4c11.9-3.8,11.8-7.2,23.2-10.9c7.1-2.3,13.7-3.1,19.4-3.2c-4.1-12.8-22.1-18.9-40.5-13.7
		c-17.9,5.1-29.8,19-27.6,31.7C1072.4,1072.8,1077.8,1073.8,1088.4,1070.4z"/>
	<path class="st2" d="M1112.9,1064.9c-11.4,3.7-11.3,7.1-23.2,10.9c-10.6,3.4-16,2.4-25.6,3.9c0.1,0.6,0.2,1.2,0.4,1.8
		c3.7,13.2,22,19.6,40.7,14.3c18.8-5.3,31-20.3,27.2-33.5c-0.1-0.2-0.1-0.4-0.2-0.7C1126.6,1061.9,1120,1062.7,1112.9,1064.9z"/>
</g>
<g class="st1">
	<path class="st2" d="M278.4,959.4c11.9-3.8,11.8-7.2,23.2-10.9c7.1-2.3,13.7-3.1,19.4-3.2c-4.1-12.8-22.1-18.9-40.5-13.7
		c-17.9,5.1-29.8,19-27.6,31.7C262.4,961.8,267.8,962.8,278.4,959.4z"/>
	<path class="st2" d="M302.9,953.9c-11.4,3.7-11.3,7.1-23.2,10.9c-10.6,3.4-16,2.4-25.6,3.9c0.1,0.6,0.2,1.2,0.4,1.8
		c3.7,13.2,22,19.6,40.7,14.3c18.8-5.3,31-20.3,27.2-33.5c-0.1-0.2-0.1-0.4-0.2-0.7C316.6,950.9,310,951.7,302.9,953.9z"/>
</g>
<g class="st1">
	<path class="st2" d="M178.4,1055.4c11.9-3.8,11.8-7.2,23.2-10.9c7.1-2.3,13.7-3.1,19.4-3.2c-4.1-12.8-22.1-18.9-40.5-13.7
		c-17.9,5.1-29.8,19-27.6,31.7C162.4,1057.8,167.8,1058.8,178.4,1055.4z"/>
	<path class="st2" d="M202.9,1049.9c-11.4,3.7-11.3,7.1-23.2,10.9c-10.6,3.4-16,2.4-25.6,3.9c0.1,0.6,0.2,1.2,0.4,1.8
		c3.7,13.2,22,19.6,40.7,14.3s31-20.3,27.2-33.5c-0.1-0.2-0.1-0.4-0.2-0.7C216.6,1046.9,210,1047.7,202.9,1049.9z"/>
</g>
<g class="st1">
	<path class="st2" d="M10.4,1063.4c11.9-3.8,11.8-7.2,23.2-10.9c7.1-2.3,13.7-3.1,19.4-3.2c-4.1-12.8-22.1-18.9-40.5-13.7
		c-17.9,5.1-29.8,19-27.6,31.7C-5.6,1065.8-0.2,1066.8,10.4,1063.4z"/>
	<path class="st2" d="M34.9,1057.9c-11.4,3.7-11.3,7.1-23.2,10.9c-10.6,3.4-16,2.4-25.6,3.9c0.1,0.6,0.2,1.2,0.4,1.8
		c3.7,13.2,22,19.6,40.7,14.3s31-20.3,27.2-33.5c-0.1-0.2-0.1-0.4-0.2-0.7C48.6,1054.9,42,1055.7,34.9,1057.9z"/>
</g>
<g class="st1">
	<path class="st2" d="M192.4,839.4c11.9-3.8,11.8-7.2,23.2-10.9c7.1-2.3,13.7-3.1,19.4-3.2c-4.1-12.8-22.1-18.9-40.5-13.7
		c-17.9,5.1-29.8,19-27.6,31.7C176.4,841.8,181.8,842.8,192.4,839.4z"/>
	<path class="st2" d="M216.9,833.9c-11.4,3.7-11.3,7.1-23.2,10.9c-10.6,3.4-16,2.4-25.6,3.9c0.1,0.6,0.2,1.2,0.4,1.8
		c3.7,13.2,22,19.6,40.7,14.3c18.8-5.3,31-20.3,27.2-33.5c-0.1-0.2-0.1-0.4-0.2-0.7C230.6,830.9,224,831.7,216.9,833.9z"/>
</g>
<g class="st1">
	<path class="st2" d="M432.4,704.4c11.9-3.8,11.8-7.2,23.2-10.9c7.1-2.3,13.7-3.1,19.4-3.2c-4.1-12.8-22.1-18.9-40.5-13.7
		c-17.9,5.1-29.8,19-27.6,31.7C416.4,706.8,421.8,707.8,432.4,704.4z"/>
	<path class="st2" d="M456.9,698.9c-11.4,3.7-11.3,7.1-23.2,10.9c-10.6,3.4-16,2.4-25.6,3.9c0.1,0.6,0.2,1.2,0.4,1.8
		c3.7,13.2,22,19.6,40.7,14.3c18.8-5.3,31-20.3,27.2-33.5c-0.1-0.2-0.1-0.4-0.2-0.7C470.6,695.9,464,696.7,456.9,698.9z"/>
</g>
<g class="st1">
	<path class="st2" d="M6.4,864.4c11.9-3.8,11.8-7.2,23.2-10.9c7.1-2.3,13.7-3.1,19.4-3.2c-4.1-12.8-22.1-18.9-40.5-13.7
		c-17.9,5.1-29.8,19-27.6,31.7C-9.6,866.8-4.2,867.8,6.4,864.4z"/>
	<path class="st2" d="M30.9,858.9c-11.4,3.7-11.3,7.1-23.2,10.9c-10.6,3.4-16,2.4-25.6,3.9c0.1,0.6,0.2,1.2,0.4,1.8
		c3.7,13.2,22,19.6,40.7,14.3c18.8-5.3,31-20.3,27.2-33.5c-0.1-0.2-0.1-0.4-0.2-0.7C44.6,855.9,38,856.7,30.9,858.9z"/>
</g>
<g class="st1">
	<path class="st2" d="M513.4,829.4c11.9-3.8,11.8-7.2,23.2-10.9c7.1-2.3,13.7-3.1,19.4-3.2c-4.1-12.8-22.1-18.9-40.5-13.7
		c-17.9,5.1-29.8,19-27.6,31.7C497.4,831.8,502.8,832.8,513.4,829.4z"/>
	<path class="st2" d="M537.9,823.9c-11.4,3.7-11.3,7.1-23.2,10.9c-10.6,3.4-16,2.4-25.6,3.9c0.1,0.6,0.2,1.2,0.4,1.8
		c3.7,13.2,22,19.6,40.7,14.3c18.8-5.3,31-20.3,27.2-33.5c-0.1-0.2-0.1-0.4-0.2-0.7C551.6,820.9,545,821.7,537.9,823.9z"/>
</g>
<path class="st4" d="M404.1,85.4c-1.1-1.5-4.1,0.1-5.6,0.3c-3.6,0.4-7.1,1.2-10.7,1.8c-2.6,0.4-5.4,0.6-7.9,1.5
	c-4.9,1.7-9.3,4.4-13.1,7.9c-4.4,4-7.2,8.8-9,14.4c-0.8,2.3-3.7,2.6-5.7,3.2c-3,1-5.9,2.4-8.6,4.2c-1.2,0.8-2.2,1.9-3.8,1.8
	c-1.2-0.1-2.4-0.7-3.6-1c-2.7-0.7-5.5-1-8.3-0.9c-5.5,0.2-11,1.9-15.9,4.6c-4.5,2.6-8.6,6-12.5,9.5c-1.9,1.8-3.8,3.6-5.7,5.4
	c-0.8,0.8-3.1,2.3-3.8,3.7c-0.2,0.4-0.3,0.7-0.1,1.1c0.4,1.3,1.4,2.4,2.6,2.5c1.1,0.1,2.3,0,3.2,0.9c0.9,0.8,1.5,2.4,2.1,3.4
	c0.7,1.2,1.3,2.4,1.9,3.6c1.1,2.3,2.9,4.2,4.8,5.9c2.3,2,4.4,3.9,7.1,5.4c6.6,3.6,15.4,3.2,22.1,0.2c5.5-2.5,10.3-6.9,13-12.3
	c2.9-5.9,2.9-12,1.8-18.4c-0.4-2-0.7-5.7-2.4-7c-4.7-3.5,2.5-7.6,5.5-8.7c1.7-0.7,4.2-1.4,5.6,0.1c0.8,0.8,1.2,2.2,0.8,3.3
	c-0.3,0.8,2.5,3.6,3,4.2c1.4,1.6,2.9,3.1,4.5,4.4c3.2,2.6,6.9,4.9,10.9,6c11.8,3.5,24.7-2.4,30.4-13.2c1.8-3.4,2.2-6.7,2.1-10.4
	c-0.1-2.5-0.2-5-0.6-7.5c-0.6-3.4-1.9-6-3.3-9.1c-0.6-1.3-1.8-2.7-1.8-4.2c0-1.6,1.5-2,2-3.3C405.3,87.5,404.7,86.2,404.1,85.4z
	 M333.6,162.5c-12.1,6-29.2-1.3-33.6-12.5c-4.6-11.7,1.8-19.7,13.9-25.8c12.1-6,24.8-3.9,30.9,7.1
	C350.6,141.8,345.7,156.5,333.6,162.5z M394.1,132.5c-12.1,6-26.8,1.1-31.6-9.8c-5.1-11.4,0.8-22.9,12.9-28.9
	c12.1-6,22.4-6.3,29,4.4C410.6,108.4,406.2,126.5,394.1,132.5z"/>
<path class="st4" d="M513.1-35.6c-1.1-1.5-4.1,0.1-5.6,0.3c-3.6,0.4-7.1,1.2-10.7,1.8c-2.6,0.4-5.4,0.6-7.9,1.5
	c-4.9,1.7-9.3,4.4-13.1,7.9c-4.4,4-7.2,8.8-9,14.4c-0.8,2.3-3.7,2.6-5.7,3.2c-3,1-5.9,2.4-8.6,4.2c-1.2,0.8-2.2,1.9-3.8,1.8
	c-1.2-0.1-2.4-0.7-3.6-1c-2.7-0.7-5.5-1-8.3-0.9c-5.5,0.2-11,1.9-15.9,4.6c-4.5,2.6-8.6,6-12.5,9.5c-1.9,1.8-3.8,3.6-5.7,5.4
	c-0.8,0.8-3.1,2.3-3.8,3.7c-0.2,0.4-0.3,0.7-0.1,1.1c0.4,1.3,1.4,2.4,2.6,2.5c1.1,0.1,2.3,0,3.2,0.9c0.9,0.8,1.5,2.4,2.1,3.4
	c0.7,1.2,1.3,2.4,1.9,3.6c1.1,2.3,2.9,4.2,4.8,5.9c2.3,2,4.4,3.9,7.1,5.4c6.6,3.6,15.4,3.2,22.1,0.2c5.5-2.5,10.3-6.9,13-12.3
	c2.9-5.9,2.9-12,1.8-18.4c-0.4-2-0.7-5.7-2.4-7c-4.7-3.5,2.5-7.6,5.5-8.7c1.7-0.7,4.2-1.4,5.6,0.1c0.8,0.8,1.2,2.2,0.8,3.3
	c-0.3,0.8,2.5,3.6,3,4.2c1.4,1.6,2.9,3.1,4.5,4.4c3.2,2.6,6.9,4.9,10.9,6c11.8,3.5,24.7-2.4,30.4-13.2c1.8-3.4,2.2-6.7,2.1-10.4
	c-0.1-2.5-0.2-5-0.6-7.5c-0.6-3.4-1.9-6-3.3-9.1c-0.6-1.3-1.8-2.7-1.8-4.2c0-1.6,1.5-2,2-3.3C514.3-33.5,513.7-34.8,513.1-35.6z
	 M442.6,41.5c-12.1,6-29.2-1.3-33.6-12.5c-4.6-11.7,1.8-19.7,13.9-25.8s24.8-3.9,30.9,7.1C459.6,20.8,454.7,35.5,442.6,41.5z
	 M503.1,11.5c-12.1,6-26.8,1.1-31.6-9.8c-5.1-11.4,0.8-22.9,12.9-28.9c12.1-6,22.4-6.3,29,4.4C519.6-12.6,515.2,5.5,503.1,11.5z"/>
<path class="st4" d="M675.1,5.4C674,4,671,5.5,669.5,5.7c-3.6,0.4-7.1,1.2-10.7,1.8c-2.6,0.4-5.4,0.6-7.9,1.5
	c-4.9,1.7-9.3,4.4-13.1,7.9c-4.4,4-7.2,8.8-9,14.4c-0.8,2.3-3.7,2.6-5.7,3.2c-3,1-5.9,2.4-8.6,4.2c-1.2,0.8-2.2,1.9-3.8,1.8
	c-1.2-0.1-2.4-0.7-3.6-1c-2.7-0.7-5.5-1-8.3-0.9c-5.5,0.2-11,1.9-15.9,4.6c-4.5,2.6-8.6,6-12.5,9.5c-1.9,1.8-3.8,3.6-5.7,5.4
	c-0.8,0.8-3.1,2.3-3.8,3.7c-0.2,0.4-0.3,0.7-0.1,1.1c0.4,1.3,1.4,2.4,2.6,2.5c1.1,0.1,2.3,0,3.2,0.9c0.9,0.8,1.5,2.4,2.1,3.4
	c0.7,1.2,1.3,2.4,1.9,3.6c1.1,2.3,2.9,4.2,4.8,5.9c2.3,2,4.4,3.9,7.1,5.4c6.6,3.6,15.4,3.2,22.1,0.2c5.5-2.5,10.3-6.9,13-12.3
	c2.9-5.9,2.9-12,1.8-18.4c-0.4-2-0.7-5.7-2.4-7c-4.7-3.5,2.5-7.6,5.5-8.7c1.7-0.7,4.2-1.4,5.6,0.1c0.8,0.8,1.2,2.2,0.8,3.3
	c-0.3,0.8,2.5,3.6,3,4.2c1.4,1.6,2.9,3.1,4.5,4.4c3.2,2.6,6.9,4.9,10.9,6c11.8,3.5,24.7-2.4,30.4-13.2c1.8-3.4,2.2-6.7,2.1-10.4
	c-0.1-2.5-0.2-5-0.6-7.5c-0.6-3.4-1.9-6-3.3-9.1c-0.6-1.3-1.8-2.7-1.8-4.2c0-1.6,1.5-2,2-3.3C676.3,7.5,675.7,6.2,675.1,5.4z
	 M604.6,82.5c-12.1,6-29.2-1.3-33.6-12.5c-4.6-11.7,1.8-19.7,13.9-25.8s24.8-3.9,30.9,7.1C621.6,61.8,616.7,76.5,604.6,82.5z
	 M665.1,52.5c-12.1,6-26.8,1.1-31.6-9.8c-5.1-11.4,0.8-22.9,12.9-28.9c12.1-6,22.4-6.3,29,4.4C681.6,28.4,677.2,46.5,665.1,52.5z"/>
<path class="st4" d="M624.1,150.4c-1.1-1.5-4.1,0.1-5.6,0.3c-3.6,0.4-7.1,1.2-10.7,1.8c-2.6,0.4-5.4,0.6-7.9,1.5
	c-4.9,1.7-9.3,4.4-13.1,7.9c-4.4,4-7.2,8.8-9,14.4c-0.8,2.3-3.7,2.6-5.7,3.2c-3,1-5.9,2.4-8.6,4.2c-1.2,0.8-2.2,1.9-3.8,1.8
	c-1.2-0.1-2.4-0.7-3.6-1c-2.7-0.7-5.5-1-8.3-0.9c-5.5,0.2-11,1.9-15.9,4.6c-4.5,2.6-8.6,6-12.5,9.5c-1.9,1.8-3.8,3.6-5.7,5.4
	c-0.8,0.8-3.1,2.3-3.8,3.7c-0.2,0.4-0.3,0.7-0.1,1.1c0.4,1.3,1.4,2.4,2.6,2.5c1.1,0.1,2.3,0,3.2,0.9c0.9,0.8,1.5,2.4,2.1,3.4
	c0.7,1.2,1.3,2.4,1.9,3.6c1.1,2.3,2.9,4.2,4.8,5.9c2.3,2,4.4,3.9,7.1,5.4c6.6,3.6,15.4,3.2,22.1,0.2c5.5-2.5,10.3-6.9,13-12.3
	c2.9-5.9,2.9-12,1.8-18.4c-0.4-2-0.7-5.7-2.4-7c-4.7-3.5,2.5-7.6,5.5-8.7c1.7-0.7,4.2-1.4,5.6,0.1c0.8,0.8,1.2,2.2,0.8,3.3
	c-0.3,0.8,2.5,3.6,3,4.2c1.4,1.6,2.9,3.1,4.5,4.4c3.2,2.6,6.9,4.9,10.9,6c11.8,3.5,24.7-2.4,30.4-13.2c1.8-3.4,2.2-6.7,2.1-10.4
	c-0.1-2.5-0.2-5-0.6-7.5c-0.6-3.4-1.9-6-3.3-9.1c-0.6-1.3-1.8-2.7-1.8-4.2c0-1.6,1.5-2,2-3.3C625.3,152.5,624.7,151.2,624.1,150.4z
	 M553.6,227.5c-12.1,6-29.2-1.3-33.6-12.5c-4.6-11.7,1.8-19.7,13.9-25.8s24.8-3.9,30.9,7.1C570.6,206.8,565.7,221.5,553.6,227.5z
	 M614.1,197.5c-12.1,6-26.8,1.1-31.6-9.8c-5.1-11.4,0.8-22.9,12.9-28.9c12.1-6,22.4-6.3,29,4.4C630.6,173.4,626.2,191.5,614.1,197.5
	z"/>
<path class="st4" d="M649.1,373.4c-1.1-1.5-4.1,0.1-5.6,0.3c-3.6,0.4-7.1,1.2-10.7,1.8c-2.6,0.4-5.4,0.6-7.9,1.5
	c-4.9,1.7-9.3,4.4-13.1,7.9c-4.4,4-7.2,8.8-9,14.4c-0.8,2.3-3.7,2.6-5.7,3.2c-3,1-5.9,2.4-8.6,4.2c-1.2,0.8-2.2,1.9-3.8,1.8
	c-1.2-0.1-2.4-0.7-3.6-1c-2.7-0.7-5.5-1-8.3-0.9c-5.5,0.2-11,1.9-15.9,4.6c-4.5,2.6-8.6,6-12.5,9.5c-1.9,1.8-3.8,3.6-5.7,5.4
	c-0.8,0.8-3.1,2.3-3.8,3.7c-0.2,0.4-0.3,0.7-0.1,1.1c0.4,1.3,1.4,2.4,2.6,2.5c1.1,0.1,2.3,0,3.2,0.9c0.9,0.8,1.5,2.4,2.1,3.4
	c0.7,1.2,1.3,2.4,1.9,3.6c1.1,2.3,2.9,4.2,4.8,5.9c2.3,2,4.4,3.9,7.1,5.4c6.6,3.6,15.4,3.2,22.1,0.2c5.5-2.5,10.3-6.9,13-12.3
	c2.9-5.9,2.9-12,1.8-18.4c-0.4-2-0.7-5.7-2.4-7c-4.7-3.5,2.5-7.6,5.5-8.7c1.7-0.7,4.2-1.4,5.6,0.1c0.8,0.8,1.2,2.2,0.8,3.3
	c-0.3,0.8,2.5,3.6,3,4.2c1.4,1.6,2.9,3.1,4.5,4.4c3.2,2.6,6.9,4.9,10.9,6c11.8,3.5,24.7-2.4,30.4-13.2c1.8-3.4,2.2-6.7,2.1-10.4
	c-0.1-2.5-0.2-5-0.6-7.5c-0.6-3.4-1.9-6-3.3-9.1c-0.6-1.3-1.8-2.7-1.8-4.2c0-1.6,1.5-2,2-3.3C650.3,375.5,649.7,374.2,649.1,373.4z
	 M578.6,450.5c-12.1,6-29.2-1.3-33.6-12.5c-4.6-11.7,1.8-19.7,13.9-25.8c12.1-6,24.8-3.9,30.9,7.1
	C595.6,429.8,590.7,444.5,578.6,450.5z M639.1,420.5c-12.1,6-26.8,1.1-31.6-9.8c-5.1-11.4,0.8-22.9,12.9-28.9
	c12.1-6,22.4-6.3,29,4.4C655.6,396.4,651.2,414.5,639.1,420.5z"/>
<path class="st4" d="M635.1,622.4c-1.1-1.5-4.1,0.1-5.6,0.3c-3.6,0.4-7.1,1.2-10.7,1.8c-2.6,0.4-5.4,0.6-7.9,1.5
	c-4.9,1.7-9.3,4.4-13.1,7.9c-4.4,4-7.2,8.8-9,14.4c-0.8,2.3-3.7,2.6-5.7,3.2c-3,1-5.9,2.4-8.6,4.2c-1.2,0.8-2.2,1.9-3.8,1.8
	c-1.2-0.1-2.4-0.7-3.6-1c-2.7-0.7-5.5-1-8.3-0.9c-5.5,0.2-11,1.9-15.9,4.6c-4.5,2.6-8.6,6-12.5,9.5c-1.9,1.8-3.8,3.6-5.7,5.4
	c-0.8,0.8-3.1,2.3-3.8,3.7c-0.2,0.4-0.3,0.7-0.1,1.1c0.4,1.3,1.4,2.4,2.6,2.5c1.1,0.1,2.3,0,3.2,0.9c0.9,0.8,1.5,2.4,2.1,3.4
	c0.7,1.2,1.3,2.4,1.9,3.6c1.1,2.3,2.9,4.2,4.8,5.9c2.3,2,4.4,3.9,7.1,5.4c6.6,3.6,15.4,3.2,22.1,0.2c5.5-2.5,10.3-6.9,13-12.3
	c2.9-5.9,2.9-12,1.8-18.4c-0.4-2-0.7-5.7-2.4-7c-4.7-3.5,2.5-7.6,5.5-8.7c1.7-0.7,4.2-1.4,5.6,0.1c0.8,0.8,1.2,2.2,0.8,3.3
	c-0.3,0.8,2.5,3.6,3,4.2c1.4,1.6,2.9,3.1,4.5,4.4c3.2,2.6,6.9,4.9,10.9,6c11.8,3.5,24.7-2.4,30.4-13.2c1.8-3.4,2.2-6.7,2.1-10.4
	c-0.1-2.5-0.2-5-0.6-7.5c-0.6-3.4-1.9-6-3.3-9.1c-0.6-1.3-1.8-2.7-1.8-4.2c0-1.6,1.5-2,2-3.3C636.3,624.5,635.7,623.2,635.1,622.4z
	 M564.6,699.5c-12.1,6-29.2-1.3-33.6-12.5c-4.6-11.7,1.8-19.7,13.9-25.8s24.8-3.9,30.9,7.1C581.6,678.8,576.7,693.5,564.6,699.5z
	 M625.1,669.5c-12.1,6-26.8,1.1-31.6-9.8c-5.1-11.4,0.8-22.9,12.9-28.9c12.1-6,22.4-6.3,29,4.4C641.6,645.4,637.2,663.5,625.1,669.5
	z"/>
<path class="st4" d="M754.1,774.4c-1.1-1.5-4.1,0.1-5.6,0.3c-3.6,0.4-7.1,1.2-10.7,1.8c-2.6,0.4-5.4,0.6-7.9,1.5
	c-4.9,1.7-9.3,4.4-13.1,7.9c-4.4,4-7.2,8.8-9,14.4c-0.8,2.3-3.7,2.6-5.7,3.2c-3,1-5.9,2.4-8.6,4.2c-1.2,0.8-2.2,1.9-3.8,1.8
	c-1.2-0.1-2.4-0.7-3.6-1c-2.7-0.7-5.5-1-8.3-0.9c-5.5,0.2-11,1.9-15.9,4.6c-4.5,2.6-8.6,6-12.5,9.5c-1.9,1.8-3.8,3.6-5.7,5.4
	c-0.8,0.8-3.1,2.3-3.8,3.7c-0.2,0.4-0.3,0.7-0.1,1.1c0.4,1.3,1.4,2.4,2.6,2.5c1.1,0.1,2.3,0,3.2,0.9c0.9,0.8,1.5,2.4,2.1,3.4
	c0.7,1.2,1.3,2.4,1.9,3.6c1.1,2.3,2.9,4.2,4.8,5.9c2.3,2,4.4,3.9,7.1,5.4c6.6,3.6,15.4,3.2,22.1,0.2c5.5-2.5,10.3-6.9,13-12.3
	c2.9-5.9,2.9-12,1.8-18.4c-0.4-2-0.7-5.7-2.4-7c-4.7-3.5,2.5-7.6,5.5-8.7c1.7-0.7,4.2-1.4,5.6,0.1c0.8,0.8,1.2,2.2,0.8,3.3
	c-0.3,0.8,2.5,3.6,3,4.2c1.4,1.6,2.9,3.1,4.5,4.4c3.2,2.6,6.9,4.9,10.9,6c11.8,3.5,24.7-2.4,30.4-13.2c1.8-3.4,2.2-6.7,2.1-10.4
	c-0.1-2.5-0.2-5-0.6-7.5c-0.6-3.4-1.9-6-3.3-9.1c-0.6-1.3-1.8-2.7-1.8-4.2c0-1.6,1.5-2,2-3.3C755.3,776.5,754.7,775.2,754.1,774.4z
	 M683.6,851.5c-12.1,6-29.2-1.3-33.6-12.5c-4.6-11.7,1.8-19.7,13.9-25.8s24.8-3.9,30.9,7.1C700.6,830.8,695.7,845.5,683.6,851.5z
	 M744.1,821.5c-12.1,6-26.8,1.1-31.6-9.8c-5.1-11.4,0.8-22.9,12.9-28.9c12.1-6,22.4-6.3,29,4.4C760.6,797.4,756.2,815.5,744.1,821.5
	z"/>
<path class="st4" d="M871.1,1011.4c-1.1-1.5-4.1,0.1-5.6,0.3c-3.6,0.4-7.1,1.2-10.7,1.8c-2.6,0.4-5.4,0.6-7.9,1.5
	c-4.9,1.7-9.3,4.4-13.1,7.9c-4.4,4-7.2,8.8-9,14.4c-0.8,2.3-3.7,2.6-5.7,3.2c-3,1-5.9,2.4-8.6,4.2c-1.2,0.8-2.2,1.9-3.8,1.8
	c-1.2-0.1-2.4-0.7-3.6-1c-2.7-0.7-5.5-1-8.3-0.9c-5.5,0.2-11,1.9-15.9,4.6c-4.5,2.6-8.6,6-12.5,9.5c-1.9,1.8-3.8,3.6-5.7,5.4
	c-0.8,0.8-3.1,2.3-3.8,3.7c-0.2,0.4-0.3,0.7-0.1,1.1c0.4,1.3,1.4,2.4,2.6,2.5c1.1,0.1,2.3,0,3.2,0.9c0.9,0.8,1.5,2.4,2.1,3.4
	c0.7,1.2,1.3,2.4,1.9,3.6c1.1,2.3,2.9,4.2,4.8,5.9c2.3,2,4.4,3.9,7.1,5.4c6.6,3.6,15.4,3.2,22.1,0.2c5.5-2.5,10.3-6.9,13-12.3
	c2.9-5.9,2.9-12,1.8-18.4c-0.4-2-0.7-5.7-2.4-7c-4.7-3.5,2.5-7.6,5.5-8.7c1.7-0.7,4.2-1.4,5.6,0.1c0.8,0.8,1.2,2.2,0.8,3.3
	c-0.3,0.8,2.5,3.6,3,4.2c1.4,1.6,2.9,3.1,4.5,4.4c3.2,2.6,6.9,4.9,10.9,6c11.8,3.5,24.7-2.4,30.4-13.2c1.8-3.4,2.2-6.7,2.1-10.4
	c-0.1-2.5-0.2-5-0.6-7.5c-0.6-3.4-1.9-6-3.3-9.1c-0.6-1.3-1.8-2.7-1.8-4.2c0-1.6,1.5-2,2-3.3
	C872.3,1013.5,871.7,1012.2,871.1,1011.4z M800.6,1088.5c-12.1,6-29.2-1.3-33.6-12.5c-4.6-11.7,1.8-19.7,13.9-25.8
	s24.8-3.9,30.9,7.1C817.6,1067.8,812.7,1082.5,800.6,1088.5z M861.1,1058.5c-12.1,6-26.8,1.1-31.6-9.8c-5.1-11.4,0.8-22.9,12.9-28.9
	c12.1-6,22.4-6.3,29,4.4C877.6,1034.4,873.2,1052.5,861.1,1058.5z"/>
<path class="st4" d="M929.1,833.4c-1.1-1.5-4.1,0.1-5.6,0.3c-3.6,0.4-7.1,1.2-10.7,1.8c-2.6,0.4-5.4,0.6-7.9,1.5
	c-4.9,1.7-9.3,4.4-13.1,7.9c-4.4,4-7.2,8.8-9,14.4c-0.8,2.3-3.7,2.6-5.7,3.2c-3,1-5.9,2.4-8.6,4.2c-1.2,0.8-2.2,1.9-3.8,1.8
	c-1.2-0.1-2.4-0.7-3.6-1c-2.7-0.7-5.5-1-8.3-0.9c-5.5,0.2-11,1.9-15.9,4.6c-4.5,2.6-8.6,6-12.5,9.5c-1.9,1.8-3.8,3.6-5.7,5.4
	c-0.8,0.8-3.1,2.3-3.8,3.7c-0.2,0.4-0.3,0.7-0.1,1.1c0.4,1.3,1.4,2.4,2.6,2.5c1.1,0.1,2.3,0,3.2,0.9c0.9,0.8,1.5,2.4,2.1,3.4
	c0.7,1.2,1.3,2.4,1.9,3.6c1.1,2.3,2.9,4.2,4.8,5.9c2.3,2,4.4,3.9,7.1,5.4c6.6,3.6,15.4,3.2,22.1,0.2c5.5-2.5,10.3-6.9,13-12.3
	c2.9-5.9,2.9-12,1.8-18.4c-0.4-2-0.7-5.7-2.4-7c-4.7-3.5,2.5-7.6,5.5-8.7c1.7-0.7,4.2-1.4,5.6,0.1c0.8,0.8,1.2,2.2,0.8,3.3
	c-0.3,0.8,2.5,3.6,3,4.2c1.4,1.6,2.9,3.1,4.5,4.4c3.2,2.6,6.9,4.9,10.9,6c11.8,3.5,24.7-2.4,30.4-13.2c1.8-3.4,2.2-6.7,2.1-10.4
	c-0.1-2.5-0.2-5-0.6-7.5c-0.6-3.4-1.9-6-3.3-9.1c-0.6-1.3-1.8-2.7-1.8-4.2c0-1.6,1.5-2,2-3.3C930.3,835.5,929.7,834.2,929.1,833.4z
	 M858.6,910.5c-12.1,6-29.2-1.3-33.6-12.5c-4.6-11.7,1.8-19.7,13.9-25.8s24.8-3.9,30.9,7.1C875.6,889.8,870.7,904.5,858.6,910.5z
	 M919.1,880.5c-12.1,6-26.8,1.1-31.6-9.8c-5.1-11.4,0.8-22.9,12.9-28.9c12.1-6,22.4-6.3,29,4.4C935.6,856.4,931.2,874.5,919.1,880.5
	z"/>
<path class="st4" d="M906.1,505.4c-1.1-1.5-4.1,0.1-5.6,0.3c-3.6,0.4-7.1,1.2-10.7,1.8c-2.6,0.4-5.4,0.6-7.9,1.5
	c-4.9,1.7-9.3,4.4-13.1,7.9c-4.4,4-7.2,8.8-9,14.4c-0.8,2.3-3.7,2.6-5.7,3.2c-3,1-5.9,2.4-8.6,4.2c-1.2,0.8-2.2,1.9-3.8,1.8
	c-1.2-0.1-2.4-0.7-3.6-1c-2.7-0.7-5.5-1-8.3-0.9c-5.5,0.2-11,1.9-15.9,4.6c-4.5,2.6-8.6,6-12.5,9.5c-1.9,1.8-3.8,3.6-5.7,5.4
	c-0.8,0.8-3.1,2.3-3.8,3.7c-0.2,0.4-0.3,0.7-0.1,1.1c0.4,1.3,1.4,2.4,2.6,2.5c1.1,0.1,2.3,0,3.2,0.9c0.9,0.8,1.5,2.4,2.1,3.4
	c0.7,1.2,1.3,2.4,1.9,3.6c1.1,2.3,2.9,4.2,4.8,5.9c2.3,2,4.4,3.9,7.1,5.4c6.6,3.6,15.4,3.2,22.1,0.2c5.5-2.5,10.3-6.9,13-12.3
	c2.9-5.9,2.9-12,1.8-18.4c-0.4-2-0.7-5.7-2.4-7c-4.7-3.5,2.5-7.6,5.5-8.7c1.7-0.7,4.2-1.4,5.6,0.1c0.8,0.8,1.2,2.2,0.8,3.3
	c-0.3,0.8,2.5,3.6,3,4.2c1.4,1.6,2.9,3.1,4.5,4.4c3.2,2.6,6.9,4.9,10.9,6c11.8,3.5,24.7-2.4,30.4-13.2c1.8-3.4,2.2-6.7,2.1-10.4
	c-0.1-2.5-0.2-5-0.6-7.5c-0.6-3.4-1.9-6-3.3-9.1c-0.6-1.3-1.8-2.7-1.8-4.2c0-1.6,1.5-2,2-3.3C907.3,507.5,906.7,506.2,906.1,505.4z
	 M835.6,582.5c-12.1,6-29.2-1.3-33.6-12.5c-4.6-11.7,1.8-19.7,13.9-25.8s24.8-3.9,30.9,7.1C852.6,561.8,847.7,576.5,835.6,582.5z
	 M896.1,552.5c-12.1,6-26.8,1.1-31.6-9.8c-5.1-11.4,0.8-22.9,12.9-28.9c12.1-6,22.4-6.3,29,4.4C912.6,528.4,908.2,546.5,896.1,552.5
	z"/>
<path class="st4" d="M857.1,327.4c-1.1-1.5-4.1,0.1-5.6,0.3c-3.6,0.4-7.1,1.2-10.7,1.8c-2.6,0.4-5.4,0.6-7.9,1.5
	c-4.9,1.7-9.3,4.4-13.1,7.9c-4.4,4-7.2,8.8-9,14.4c-0.8,2.3-3.7,2.6-5.7,3.2c-3,1-5.9,2.4-8.6,4.2c-1.2,0.8-2.2,1.9-3.8,1.8
	c-1.2-0.1-2.4-0.7-3.6-1c-2.7-0.7-5.5-1-8.3-0.9c-5.5,0.2-11,1.9-15.9,4.6c-4.5,2.6-8.6,6-12.5,9.5c-1.9,1.8-3.8,3.6-5.7,5.4
	c-0.8,0.8-3.1,2.3-3.8,3.7c-0.2,0.4-0.3,0.7-0.1,1.1c0.4,1.3,1.4,2.4,2.6,2.5c1.1,0.1,2.3,0,3.2,0.9c0.9,0.8,1.5,2.4,2.1,3.4
	c0.7,1.2,1.3,2.4,1.9,3.6c1.1,2.3,2.9,4.2,4.8,5.9c2.3,2,4.4,3.9,7.1,5.4c6.6,3.6,15.4,3.2,22.1,0.2c5.5-2.5,10.3-6.9,13-12.3
	c2.9-5.9,2.9-12,1.8-18.4c-0.4-2-0.7-5.7-2.4-7c-4.7-3.5,2.5-7.6,5.5-8.7c1.7-0.7,4.2-1.4,5.6,0.1c0.8,0.8,1.2,2.2,0.8,3.3
	c-0.3,0.8,2.5,3.6,3,4.2c1.4,1.6,2.9,3.1,4.5,4.4c3.2,2.6,6.9,4.9,10.9,6c11.8,3.5,24.7-2.4,30.4-13.2c1.8-3.4,2.2-6.7,2.1-10.4
	c-0.1-2.5-0.2-5-0.6-7.5c-0.6-3.4-1.9-6-3.3-9.1c-0.6-1.3-1.8-2.7-1.8-4.2c0-1.6,1.5-2,2-3.3C858.3,329.5,857.7,328.2,857.1,327.4z
	 M786.6,404.5c-12.1,6-29.2-1.3-33.6-12.5c-4.6-11.7,1.8-19.7,13.9-25.8c12.1-6,24.8-3.9,30.9,7.1
	C803.6,383.8,798.7,398.5,786.6,404.5z M847.1,374.5c-12.1,6-26.8,1.1-31.6-9.8c-5.1-11.4,0.8-22.9,12.9-28.9
	c12.1-6,22.4-6.3,29,4.4C863.6,350.4,859.2,368.5,847.1,374.5z"/>
<path class="st4" d="M878.1,145.4c-1.1-1.5-4.1,0.1-5.6,0.3c-3.6,0.4-7.1,1.2-10.7,1.8c-2.6,0.4-5.4,0.6-7.9,1.5
	c-4.9,1.7-9.3,4.4-13.1,7.9c-4.4,4-7.2,8.8-9,14.4c-0.8,2.3-3.7,2.6-5.7,3.2c-3,1-5.9,2.4-8.6,4.2c-1.2,0.8-2.2,1.9-3.8,1.8
	c-1.2-0.1-2.4-0.7-3.6-1c-2.7-0.7-5.5-1-8.3-0.9c-5.5,0.2-11,1.9-15.9,4.6c-4.5,2.6-8.6,6-12.5,9.5c-1.9,1.8-3.8,3.6-5.7,5.4
	c-0.8,0.8-3.1,2.3-3.8,3.7c-0.2,0.4-0.3,0.7-0.1,1.1c0.4,1.3,1.4,2.4,2.6,2.5c1.1,0.1,2.3,0,3.2,0.9c0.9,0.8,1.5,2.4,2.1,3.4
	c0.7,1.2,1.3,2.4,1.9,3.6c1.1,2.3,2.9,4.2,4.8,5.9c2.3,2,4.4,3.9,7.1,5.4c6.6,3.6,15.4,3.2,22.1,0.2c5.5-2.5,10.3-6.9,13-12.3
	c2.9-5.9,2.9-12,1.8-18.4c-0.4-2-0.7-5.7-2.4-7c-4.7-3.5,2.5-7.6,5.5-8.7c1.7-0.7,4.2-1.4,5.6,0.1c0.8,0.8,1.2,2.2,0.8,3.3
	c-0.3,0.8,2.5,3.6,3,4.2c1.4,1.6,2.9,3.1,4.5,4.4c3.2,2.6,6.9,4.9,10.9,6c11.8,3.5,24.7-2.4,30.4-13.2c1.8-3.4,2.2-6.7,2.1-10.4
	c-0.1-2.5-0.2-5-0.6-7.5c-0.6-3.4-1.9-6-3.3-9.1c-0.6-1.3-1.8-2.7-1.8-4.2c0-1.6,1.5-2,2-3.3C879.3,147.5,878.7,146.2,878.1,145.4z
	 M807.6,222.5c-12.1,6-29.2-1.3-33.6-12.5c-4.6-11.7,1.8-19.7,13.9-25.8s24.8-3.9,30.9,7.1C824.6,201.8,819.7,216.5,807.6,222.5z
	 M868.1,192.5c-12.1,6-26.8,1.1-31.6-9.8c-5.1-11.4,0.8-22.9,12.9-28.9c12.1-6,22.4-6.3,29,4.4C884.6,168.4,880.2,186.5,868.1,192.5
	z"/>
<path class="st4" d="M633.1,923.4c-1.1-1.5-4.1,0.1-5.6,0.3c-3.6,0.4-7.1,1.2-10.7,1.8c-2.6,0.4-5.4,0.6-7.9,1.5
	c-4.9,1.7-9.3,4.4-13.1,7.9c-4.4,4-7.2,8.8-9,14.4c-0.8,2.3-3.7,2.6-5.7,3.2c-3,1-5.9,2.4-8.6,4.2c-1.2,0.8-2.2,1.9-3.8,1.8
	c-1.2-0.1-2.4-0.7-3.6-1c-2.7-0.7-5.5-1-8.3-0.9c-5.5,0.2-11,1.9-15.9,4.6c-4.5,2.6-8.6,6-12.5,9.5c-1.9,1.8-3.8,3.6-5.7,5.4
	c-0.8,0.8-3.1,2.3-3.8,3.7c-0.2,0.4-0.3,0.7-0.1,1.1c0.4,1.3,1.4,2.4,2.6,2.5c1.1,0.1,2.3,0,3.2,0.9c0.9,0.8,1.5,2.4,2.1,3.4
	c0.7,1.2,1.3,2.4,1.9,3.6c1.1,2.3,2.9,4.2,4.8,5.9c2.3,2,4.4,3.9,7.1,5.4c6.6,3.6,15.4,3.2,22.1,0.2c5.5-2.5,10.3-6.9,13-12.3
	c2.9-5.9,2.9-12,1.8-18.4c-0.4-2-0.7-5.7-2.4-7c-4.7-3.5,2.5-7.6,5.5-8.7c1.7-0.7,4.2-1.4,5.6,0.1c0.8,0.8,1.2,2.2,0.8,3.3
	c-0.3,0.8,2.5,3.6,3,4.2c1.4,1.6,2.9,3.1,4.5,4.4c3.2,2.6,6.9,4.9,10.9,6c11.8,3.5,24.7-2.4,30.4-13.2c1.8-3.4,2.2-6.7,2.1-10.4
	c-0.1-2.5-0.2-5-0.6-7.5c-0.6-3.4-1.9-6-3.3-9.1c-0.6-1.3-1.8-2.7-1.8-4.2c0-1.6,1.5-2,2-3.3C634.3,925.5,633.7,924.2,633.1,923.4z
	 M562.6,1000.5c-12.1,6-29.2-1.3-33.6-12.5c-4.6-11.7,1.8-19.7,13.9-25.8s24.8-3.9,30.9,7.1C579.6,979.8,574.7,994.5,562.6,1000.5z
	 M623.1,970.5c-12.1,6-26.8,1.1-31.6-9.8c-5.1-11.4,0.8-22.9,12.9-28.9c12.1-6,22.4-6.3,29,4.4C639.6,946.4,635.2,964.5,623.1,970.5
	z"/>
<path class="st4" d="M115.1,0.4C114-1,111,0.5,109.5,0.7c-3.6,0.4-7.1,1.2-10.7,1.8c-2.6,0.4-5.4,0.6-7.9,1.5
	c-4.9,1.7-9.3,4.4-13.1,7.9c-4.4,4-7.2,8.8-9,14.4c-0.8,2.3-3.7,2.6-5.7,3.2c-3,1-5.9,2.4-8.6,4.2c-1.2,0.8-2.2,1.9-3.8,1.8
	c-1.2-0.1-2.4-0.7-3.6-1c-2.7-0.7-5.5-1-8.3-0.9c-5.5,0.2-11,1.9-15.9,4.6c-4.5,2.6-8.6,6-12.5,9.5c-1.9,1.8-3.8,3.6-5.7,5.4
	c-0.8,0.8-3.1,2.3-3.8,3.7c-0.2,0.4-0.3,0.7-0.1,1.1c0.4,1.3,1.4,2.4,2.6,2.5c1.1,0.1,2.3,0,3.2,0.9c0.9,0.8,1.5,2.4,2.1,3.4
	c0.7,1.2,1.3,2.4,1.9,3.6c1.1,2.3,2.9,4.2,4.8,5.9c2.3,2,4.4,3.9,7.1,5.4c6.6,3.6,15.4,3.2,22.1,0.2c5.5-2.5,10.3-6.9,13-12.3
	c2.9-5.9,2.9-12,1.8-18.4c-0.4-2-0.7-5.7-2.4-7c-4.7-3.5,2.5-7.6,5.5-8.7c1.7-0.7,4.2-1.4,5.6,0.1c0.8,0.8,1.2,2.2,0.8,3.3
	c-0.3,0.8,2.5,3.6,3,4.2c1.4,1.6,2.9,3.1,4.5,4.4c3.2,2.6,6.9,4.9,10.9,6c11.8,3.5,24.7-2.4,30.4-13.2c1.8-3.4,2.2-6.7,2.1-10.4
	c-0.1-2.5-0.2-5-0.6-7.5c-0.6-3.4-1.9-6-3.3-9.1c-0.6-1.3-1.8-2.7-1.8-4.2c0-1.6,1.5-2,2-3.3C116.3,2.5,115.7,1.2,115.1,0.4z
	 M44.6,77.5c-12.1,6-29.2-1.3-33.6-12.5c-4.6-11.7,1.8-19.7,13.9-25.8s24.8-3.9,30.9,7.1C61.6,56.8,56.7,71.5,44.6,77.5z
	 M105.1,47.5c-12.1,6-26.8,1.1-31.6-9.8c-5.1-11.4,0.8-22.9,12.9-28.9c12.1-6,22.4-6.3,29,4.4C121.6,23.4,117.2,41.5,105.1,47.5z"/>
<path class="st4" d="M406.1,286.4c-1.1-1.5-4.1,0.1-5.6,0.3c-3.6,0.4-7.1,1.2-10.7,1.8c-2.6,0.4-5.4,0.6-7.9,1.5
	c-4.9,1.7-9.3,4.4-13.1,7.9c-4.4,4-7.2,8.8-9,14.4c-0.8,2.3-3.7,2.6-5.7,3.2c-3,1-5.9,2.4-8.6,4.2c-1.2,0.8-2.2,1.9-3.8,1.8
	c-1.2-0.1-2.4-0.7-3.6-1c-2.7-0.7-5.5-1-8.3-0.9c-5.5,0.2-11,1.9-15.9,4.6c-4.5,2.6-8.6,6-12.5,9.5c-1.9,1.8-3.8,3.6-5.7,5.4
	c-0.8,0.8-3.1,2.3-3.8,3.7c-0.2,0.4-0.3,0.7-0.1,1.1c0.4,1.3,1.4,2.4,2.6,2.5c1.1,0.1,2.3,0,3.2,0.9c0.9,0.8,1.5,2.4,2.1,3.4
	c0.7,1.2,1.3,2.4,1.9,3.6c1.1,2.3,2.9,4.2,4.8,5.9c2.3,2,4.4,3.9,7.1,5.4c6.6,3.6,15.4,3.2,22.1,0.2c5.5-2.5,10.3-6.9,13-12.3
	c2.9-5.9,2.9-12,1.8-18.4c-0.4-2-0.7-5.7-2.4-7c-4.7-3.5,2.5-7.6,5.5-8.7c1.7-0.7,4.2-1.4,5.6,0.1c0.8,0.8,1.2,2.2,0.8,3.3
	c-0.3,0.8,2.5,3.6,3,4.2c1.4,1.6,2.9,3.1,4.5,4.4c3.2,2.6,6.9,4.9,10.9,6c11.8,3.5,24.7-2.4,30.4-13.2c1.8-3.4,2.2-6.7,2.1-10.4
	c-0.1-2.5-0.2-5-0.6-7.5c-0.6-3.4-1.9-6-3.3-9.1c-0.6-1.3-1.8-2.7-1.8-4.2c0-1.6,1.5-2,2-3.3C407.3,288.5,406.7,287.2,406.1,286.4z
	 M335.6,363.5c-12.1,6-29.2-1.3-33.6-12.5c-4.6-11.7,1.8-19.7,13.9-25.8c12.1-6,24.8-3.9,30.9,7.1
	C352.6,342.8,347.7,357.5,335.6,363.5z M396.1,333.5c-12.1,6-26.8,1.1-31.6-9.8c-5.1-11.4,0.8-22.9,12.9-28.9
	c12.1-6,22.4-6.3,29,4.4C412.6,309.4,408.2,327.5,396.1,333.5z"/>
<path class="st4" d="M395.1,527.4c-1.1-1.5-4.1,0.1-5.6,0.3c-3.6,0.4-7.1,1.2-10.7,1.8c-2.6,0.4-5.4,0.6-7.9,1.5
	c-4.9,1.7-9.3,4.4-13.1,7.9c-4.4,4-7.2,8.8-9,14.4c-0.8,2.3-3.7,2.6-5.7,3.2c-3,1-5.9,2.4-8.6,4.2c-1.2,0.8-2.2,1.9-3.8,1.8
	c-1.2-0.1-2.4-0.7-3.6-1c-2.7-0.7-5.5-1-8.3-0.9c-5.5,0.2-11,1.9-15.9,4.6c-4.5,2.6-8.6,6-12.5,9.5c-1.9,1.8-3.8,3.6-5.7,5.4
	c-0.8,0.8-3.1,2.3-3.8,3.7c-0.2,0.4-0.3,0.7-0.1,1.1c0.4,1.3,1.4,2.4,2.6,2.5c1.1,0.1,2.3,0,3.2,0.9c0.9,0.8,1.5,2.4,2.1,3.4
	c0.7,1.2,1.3,2.4,1.9,3.6c1.1,2.3,2.9,4.2,4.8,5.9c2.3,2,4.4,3.9,7.1,5.4c6.6,3.6,15.4,3.2,22.1,0.2c5.5-2.5,10.3-6.9,13-12.3
	c2.9-5.9,2.9-12,1.8-18.4c-0.4-2-0.7-5.7-2.4-7c-4.7-3.5,2.5-7.6,5.5-8.7c1.7-0.7,4.2-1.4,5.6,0.1c0.8,0.8,1.2,2.2,0.8,3.3
	c-0.3,0.8,2.5,3.6,3,4.2c1.4,1.6,2.9,3.1,4.5,4.4c3.2,2.6,6.9,4.9,10.9,6c11.8,3.5,24.7-2.4,30.4-13.2c1.8-3.4,2.2-6.7,2.1-10.4
	c-0.1-2.5-0.2-5-0.6-7.5c-0.6-3.4-1.9-6-3.3-9.1c-0.6-1.3-1.8-2.7-1.8-4.2c0-1.6,1.5-2,2-3.3C396.3,529.5,395.7,528.2,395.1,527.4z
	 M324.6,604.5c-12.1,6-29.2-1.3-33.6-12.5c-4.6-11.7,1.8-19.7,13.9-25.8s24.8-3.9,30.9,7.1C341.6,583.8,336.7,598.5,324.6,604.5z
	 M385.1,574.5c-12.1,6-26.8,1.1-31.6-9.8c-5.1-11.4,0.8-22.9,12.9-28.9c12.1-6,22.4-6.3,29,4.4C401.6,550.4,397.2,568.5,385.1,574.5
	z"/>
<path class="st4" d="M166.1,917.4c-1.1-1.5-4.1,0.1-5.6,0.3c-3.6,0.4-7.1,1.2-10.7,1.8c-2.6,0.4-5.4,0.6-7.9,1.5
	c-4.9,1.7-9.3,4.4-13.1,7.9c-4.4,4-7.2,8.8-9,14.4c-0.8,2.3-3.7,2.6-5.7,3.2c-3,1-5.9,2.4-8.6,4.2c-1.2,0.8-2.2,1.9-3.8,1.8
	c-1.2-0.1-2.4-0.7-3.6-1c-2.7-0.7-5.5-1-8.3-0.9c-5.5,0.2-11,1.9-15.9,4.6c-4.5,2.6-8.6,6-12.5,9.5c-1.9,1.8-3.8,3.6-5.7,5.4
	c-0.8,0.8-3.1,2.3-3.8,3.7c-0.2,0.4-0.3,0.7-0.1,1.1c0.4,1.3,1.4,2.4,2.6,2.5c1.1,0.1,2.3,0,3.2,0.9c0.9,0.8,1.5,2.4,2.1,3.4
	c0.7,1.2,1.3,2.4,1.9,3.6c1.1,2.3,2.9,4.2,4.8,5.9c2.3,2,4.4,3.9,7.1,5.4c6.6,3.6,15.4,3.2,22.1,0.2c5.5-2.5,10.3-6.9,13-12.3
	c2.9-5.9,2.9-12,1.8-18.4c-0.4-2-0.7-5.7-2.4-7c-4.7-3.5,2.5-7.6,5.5-8.7c1.7-0.7,4.2-1.4,5.6,0.1c0.8,0.8,1.2,2.2,0.8,3.3
	c-0.3,0.8,2.5,3.6,3,4.2c1.4,1.6,2.9,3.1,4.5,4.4c3.2,2.6,6.9,4.9,10.9,6c11.8,3.5,24.7-2.4,30.4-13.2c1.8-3.4,2.2-6.7,2.1-10.4
	c-0.1-2.5-0.2-5-0.6-7.5c-0.6-3.4-1.9-6-3.3-9.1c-0.6-1.3-1.8-2.7-1.8-4.2c0-1.6,1.5-2,2-3.3C167.3,919.5,166.7,918.2,166.1,917.4z
	 M95.6,994.5c-12.1,6-29.2-1.3-33.6-12.5c-4.6-11.7,1.8-19.7,13.9-25.8s24.8-3.9,30.9,7.1C112.6,973.8,107.7,988.5,95.6,994.5z
	 M156.1,964.5c-12.1,6-26.8,1.1-31.6-9.8c-5.1-11.4,0.8-22.9,12.9-28.9c12.1-6,22.4-6.3,29,4.4C172.6,940.4,168.2,958.5,156.1,964.5
	z"/>
<path class="st4" d="M417.1,786.4c-1.1-1.5-4.1,0.1-5.6,0.3c-3.6,0.4-7.1,1.2-10.7,1.8c-2.6,0.4-5.4,0.6-7.9,1.5
	c-4.9,1.7-9.3,4.4-13.1,7.9c-4.4,4-7.2,8.8-9,14.4c-0.8,2.3-3.7,2.6-5.7,3.2c-3,1-5.9,2.4-8.6,4.2c-1.2,0.8-2.2,1.9-3.8,1.8
	c-1.2-0.1-2.4-0.7-3.6-1c-2.7-0.7-5.5-1-8.3-0.9c-5.5,0.2-11,1.9-15.9,4.6c-4.5,2.6-8.6,6-12.5,9.5c-1.9,1.8-3.8,3.6-5.7,5.4
	c-0.8,0.8-3.1,2.3-3.8,3.7c-0.2,0.4-0.3,0.7-0.1,1.1c0.4,1.3,1.4,2.4,2.6,2.5c1.1,0.1,2.3,0,3.2,0.9c0.9,0.8,1.5,2.4,2.1,3.4
	c0.7,1.2,1.3,2.4,1.9,3.6c1.1,2.3,2.9,4.2,4.8,5.9c2.3,2,4.4,3.9,7.1,5.4c6.6,3.6,15.4,3.2,22.1,0.2c5.5-2.5,10.3-6.9,13-12.3
	c2.9-5.9,2.9-12,1.8-18.4c-0.4-2-0.7-5.7-2.4-7c-4.7-3.5,2.5-7.6,5.5-8.7c1.7-0.7,4.2-1.4,5.6,0.1c0.8,0.8,1.2,2.2,0.8,3.3
	c-0.3,0.8,2.5,3.6,3,4.2c1.4,1.6,2.9,3.1,4.5,4.4c3.2,2.6,6.9,4.9,10.9,6c11.8,3.5,24.7-2.4,30.4-13.2c1.8-3.4,2.2-6.7,2.1-10.4
	c-0.1-2.5-0.2-5-0.6-7.5c-0.6-3.4-1.9-6-3.3-9.1c-0.6-1.3-1.8-2.7-1.8-4.2c0-1.6,1.5-2,2-3.3C418.3,788.5,417.7,787.2,417.1,786.4z
	 M346.6,863.5c-12.1,6-29.2-1.3-33.6-12.5c-4.6-11.7,1.8-19.7,13.9-25.8s24.8-3.9,30.9,7.1C363.6,842.8,358.7,857.5,346.6,863.5z
	 M407.1,833.5c-12.1,6-26.8,1.1-31.6-9.8c-5.1-11.4,0.8-22.9,12.9-28.9c12.1-6,22.4-6.3,29,4.4C423.6,809.4,419.2,827.5,407.1,833.5
	z"/>
<path class="st4" d="M417.1,1018.4c-1.1-1.5-4.1,0.1-5.6,0.3c-3.6,0.4-7.1,1.2-10.7,1.8c-2.6,0.4-5.4,0.6-7.9,1.5
	c-4.9,1.7-9.3,4.4-13.1,7.9c-4.4,4-7.2,8.8-9,14.4c-0.8,2.3-3.7,2.6-5.7,3.2c-3,1-5.9,2.4-8.6,4.2c-1.2,0.8-2.2,1.9-3.8,1.8
	c-1.2-0.1-2.4-0.7-3.6-1c-2.7-0.7-5.5-1-8.3-0.9c-5.5,0.2-11,1.9-15.9,4.6c-4.5,2.6-8.6,6-12.5,9.5c-1.9,1.8-3.8,3.6-5.7,5.4
	c-0.8,0.8-3.1,2.3-3.8,3.7c-0.2,0.4-0.3,0.7-0.1,1.1c0.4,1.3,1.4,2.4,2.6,2.5c1.1,0.1,2.3,0,3.2,0.9c0.9,0.8,1.5,2.4,2.1,3.4
	c0.7,1.2,1.3,2.4,1.9,3.6c1.1,2.3,2.9,4.2,4.8,5.9c2.3,2,4.4,3.9,7.1,5.4c6.6,3.6,15.4,3.2,22.1,0.2c5.5-2.5,10.3-6.9,13-12.3
	c2.9-5.9,2.9-12,1.8-18.4c-0.4-2-0.7-5.7-2.4-7c-4.7-3.5,2.5-7.6,5.5-8.7c1.7-0.7,4.2-1.4,5.6,0.1c0.8,0.8,1.2,2.2,0.8,3.3
	c-0.3,0.8,2.5,3.6,3,4.2c1.4,1.6,2.9,3.1,4.5,4.4c3.2,2.6,6.9,4.9,10.9,6c11.8,3.5,24.7-2.4,30.4-13.2c1.8-3.4,2.2-6.7,2.1-10.4
	c-0.1-2.5-0.2-5-0.6-7.5c-0.6-3.4-1.9-6-3.3-9.1c-0.6-1.3-1.8-2.7-1.8-4.2c0-1.6,1.5-2,2-3.3
	C418.3,1020.5,417.7,1019.2,417.1,1018.4z M346.6,1095.5c-12.1,6-29.2-1.3-33.6-12.5c-4.6-11.7,1.8-19.7,13.9-25.8
	s24.8-3.9,30.9,7.1C363.6,1074.8,358.7,1089.5,346.6,1095.5z M407.1,1065.5c-12.1,6-26.8,1.1-31.6-9.8c-5.1-11.4,0.8-22.9,12.9-28.9
	c12.1-6,22.4-6.3,29,4.4C423.6,1041.4,419.2,1059.5,407.1,1065.5z"/>
<path class="st4" d="M166.1,703.4c-1.1-1.5-4.1,0.1-5.6,0.3c-3.6,0.4-7.1,1.2-10.7,1.8c-2.6,0.4-5.4,0.6-7.9,1.5
	c-4.9,1.7-9.3,4.4-13.1,7.9c-4.4,4-7.2,8.8-9,14.4c-0.8,2.3-3.7,2.6-5.7,3.2c-3,1-5.9,2.4-8.6,4.2c-1.2,0.8-2.2,1.9-3.8,1.8
	c-1.2-0.1-2.4-0.7-3.6-1c-2.7-0.7-5.5-1-8.3-0.9c-5.5,0.2-11,1.9-15.9,4.6c-4.5,2.6-8.6,6-12.5,9.5c-1.9,1.8-3.8,3.6-5.7,5.4
	c-0.8,0.8-3.1,2.3-3.8,3.7c-0.2,0.4-0.3,0.7-0.1,1.1c0.4,1.3,1.4,2.4,2.6,2.5c1.1,0.1,2.3,0,3.2,0.9c0.9,0.8,1.5,2.4,2.1,3.4
	c0.7,1.2,1.3,2.4,1.9,3.6c1.1,2.3,2.9,4.2,4.8,5.9c2.3,2,4.4,3.9,7.1,5.4c6.6,3.6,15.4,3.2,22.1,0.2c5.5-2.5,10.3-6.9,13-12.3
	c2.9-5.9,2.9-12,1.8-18.4c-0.4-2-0.7-5.7-2.4-7c-4.7-3.5,2.5-7.6,5.5-8.7c1.7-0.7,4.2-1.4,5.6,0.1c0.8,0.8,1.2,2.2,0.8,3.3
	c-0.3,0.8,2.5,3.6,3,4.2c1.4,1.6,2.9,3.1,4.5,4.4c3.2,2.6,6.9,4.9,10.9,6c11.8,3.5,24.7-2.4,30.4-13.2c1.8-3.4,2.2-6.7,2.1-10.4
	c-0.1-2.5-0.2-5-0.6-7.5c-0.6-3.4-1.9-6-3.3-9.1c-0.6-1.3-1.8-2.7-1.8-4.2c0-1.6,1.5-2,2-3.3C167.3,705.5,166.7,704.2,166.1,703.4z
	 M95.6,780.5c-12.1,6-29.2-1.3-33.6-12.5c-4.6-11.7,1.8-19.7,13.9-25.8s24.8-3.9,30.9,7.1C112.6,759.8,107.7,774.5,95.6,780.5z
	 M156.1,750.5c-12.1,6-26.8,1.1-31.6-9.8c-5.1-11.4,0.8-22.9,12.9-28.9c12.1-6,22.4-6.3,29,4.4C172.6,726.4,168.2,744.5,156.1,750.5
	z"/>
<path class="st4" d="M158.1,229.4c-1.1-1.5-4.1,0.1-5.6,0.3c-3.6,0.4-7.1,1.2-10.7,1.8c-2.6,0.4-5.4,0.6-7.9,1.5
	c-4.9,1.7-9.3,4.4-13.1,7.9c-4.4,4-7.2,8.8-9,14.4c-0.8,2.3-3.7,2.6-5.7,3.2c-3,1-5.9,2.4-8.6,4.2c-1.2,0.8-2.2,1.9-3.8,1.8
	c-1.2-0.1-2.4-0.7-3.6-1c-2.7-0.7-5.5-1-8.3-0.9c-5.5,0.2-11,1.9-15.9,4.6c-4.5,2.6-8.6,6-12.5,9.5c-1.9,1.8-3.8,3.6-5.7,5.4
	c-0.8,0.8-3.1,2.3-3.8,3.7c-0.2,0.4-0.3,0.7-0.1,1.1c0.4,1.3,1.4,2.4,2.6,2.5c1.1,0.1,2.3,0,3.2,0.9c0.9,0.8,1.5,2.4,2.1,3.4
	c0.7,1.2,1.3,2.4,1.9,3.6c1.1,2.3,2.9,4.2,4.8,5.9c2.3,2,4.4,3.9,7.1,5.4c6.6,3.6,15.4,3.2,22.1,0.2c5.5-2.5,10.3-6.9,13-12.3
	c2.9-5.9,2.9-12,1.8-18.4c-0.4-2-0.7-5.7-2.4-7c-4.7-3.5,2.5-7.6,5.5-8.7c1.7-0.7,4.2-1.4,5.6,0.1c0.8,0.8,1.2,2.2,0.8,3.3
	c-0.3,0.8,2.5,3.6,3,4.2c1.4,1.6,2.9,3.1,4.5,4.4c3.2,2.6,6.9,4.9,10.9,6c11.8,3.5,24.7-2.4,30.4-13.2c1.8-3.4,2.2-6.7,2.1-10.4
	c-0.1-2.5-0.2-5-0.6-7.5c-0.6-3.4-1.9-6-3.3-9.1c-0.6-1.3-1.8-2.7-1.8-4.2c0-1.6,1.5-2,2-3.3C159.3,231.5,158.7,230.2,158.1,229.4z
	 M87.6,306.5c-12.1,6-29.2-1.3-33.6-12.5c-4.6-11.7,1.8-19.7,13.9-25.8c12.1-6,24.8-3.9,30.9,7.1C104.6,285.8,99.7,300.5,87.6,306.5
	z M148.1,276.5c-12.1,6-26.8,1.1-31.6-9.8c-5.1-11.4,0.8-22.9,12.9-28.9c12.1-6,22.4-6.3,29,4.4
	C164.6,252.4,160.2,270.5,148.1,276.5z"/>
<path class="st4" d="M136.1,409.4c-1.1-1.5-4.1,0.1-5.6,0.3c-3.6,0.4-7.1,1.2-10.7,1.8c-2.6,0.4-5.4,0.6-7.9,1.5
	c-4.9,1.7-9.3,4.4-13.1,7.9c-4.4,4-7.2,8.8-9,14.4c-0.8,2.3-3.7,2.6-5.7,3.2c-3,1-5.9,2.4-8.6,4.2c-1.2,0.8-2.2,1.9-3.8,1.8
	c-1.2-0.1-2.4-0.7-3.6-1c-2.7-0.7-5.5-1-8.3-0.9c-5.5,0.2-11,1.9-15.9,4.6c-4.5,2.6-8.6,6-12.5,9.5c-1.9,1.8-3.8,3.6-5.7,5.4
	c-0.8,0.8-3.1,2.3-3.8,3.7c-0.2,0.4-0.3,0.7-0.1,1.1c0.4,1.3,1.4,2.4,2.6,2.5c1.1,0.1,2.3,0,3.2,0.9c0.9,0.8,1.5,2.4,2.1,3.4
	c0.7,1.2,1.3,2.4,1.9,3.6c1.1,2.3,2.9,4.2,4.8,5.9c2.3,2,4.4,3.9,7.1,5.4c6.6,3.6,15.4,3.2,22.1,0.2c5.5-2.5,10.3-6.9,13-12.3
	c2.9-5.9,2.9-12,1.8-18.4c-0.4-2-0.7-5.7-2.4-7c-4.7-3.5,2.5-7.6,5.5-8.7c1.7-0.7,4.2-1.4,5.6,0.1c0.8,0.8,1.2,2.2,0.8,3.3
	c-0.3,0.8,2.5,3.6,3,4.2c1.4,1.6,2.9,3.1,4.5,4.4c3.2,2.6,6.9,4.9,10.9,6c11.8,3.5,24.7-2.4,30.4-13.2c1.8-3.4,2.2-6.7,2.1-10.4
	c-0.1-2.5-0.2-5-0.6-7.5c-0.6-3.4-1.9-6-3.3-9.1c-0.6-1.3-1.8-2.7-1.8-4.2c0-1.6,1.5-2,2-3.3C137.3,411.5,136.7,410.2,136.1,409.4z
	 M65.6,486.5c-12.1,6-29.2-1.3-33.6-12.5c-4.6-11.7,1.8-19.7,13.9-25.8c12.1-6,24.8-3.9,30.9,7.1C82.6,465.8,77.7,480.5,65.6,486.5z
	 M126.1,456.5c-12.1,6-26.8,1.1-31.6-9.8c-5.1-11.4,0.8-22.9,12.9-28.9c12.1-6,22.4-6.3,29,4.4C142.6,432.4,138.2,450.5,126.1,456.5
	z"/>
<g class="st1">
	<path class="st2" d="M1640.4,223.4c11.9-3.8,11.8-7.2,23.2-10.9c7.1-2.3,13.7-3.1,19.4-3.2c-4.1-12.8-22.1-18.9-40.5-13.7
		c-17.9,5.1-29.8,19-27.6,31.7C1624.4,225.8,1629.8,226.8,1640.4,223.4z"/>
	<path class="st2" d="M1664.9,217.9c-11.4,3.7-11.3,7.1-23.2,10.9c-10.6,3.4-16,2.4-25.6,3.9c0.1,0.6,0.2,1.2,0.4,1.8
		c3.7,13.2,22,19.6,40.7,14.3c18.8-5.3,31-20.3,27.2-33.5c-0.1-0.2-0.1-0.4-0.2-0.7C1678.6,214.9,1672,215.7,1664.9,217.9z"/>
</g>
<g class="st1">
	<path class="st2" d="M1555.4,367.4c11.9-3.8,11.8-7.2,23.2-10.9c7.1-2.3,13.7-3.1,19.4-3.2c-4.1-12.8-22.1-18.9-40.5-13.7
		c-17.9,5.1-29.8,19-27.6,31.7C1539.4,369.8,1544.8,370.8,1555.4,367.4z"/>
	<path class="st2" d="M1579.9,361.9c-11.4,3.7-11.3,7.1-23.2,10.9c-10.6,3.4-16,2.4-25.6,3.9c0.1,0.6,0.2,1.2,0.4,1.8
		c3.7,13.2,22,19.6,40.7,14.3c18.8-5.3,31-20.3,27.2-33.5c-0.1-0.2-0.1-0.4-0.2-0.7C1593.6,358.9,1587,359.7,1579.9,361.9z"/>
</g>
<g class="st1">
	<path class="st2" d="M1606.4,469.4c11.9-3.8,11.8-7.2,23.2-10.9c7.1-2.3,13.7-3.1,19.4-3.2c-4.1-12.8-22.1-18.9-40.5-13.7
		c-17.9,5.1-29.8,19-27.6,31.7C1590.4,471.8,1595.8,472.8,1606.4,469.4z"/>
	<path class="st2" d="M1630.9,463.9c-11.4,3.7-11.3,7.1-23.2,10.9c-10.6,3.4-16,2.4-25.6,3.9c0.1,0.6,0.2,1.2,0.4,1.8
		c3.7,13.2,22,19.6,40.7,14.3c18.8-5.3,31-20.3,27.2-33.5c-0.1-0.2-0.1-0.4-0.2-0.7C1644.6,460.9,1638,461.7,1630.9,463.9z"/>
</g>
<g class="st1">
	<path class="st2" d="M1522.4,603.4c11.9-3.8,11.8-7.2,23.2-10.9c7.1-2.3,13.7-3.1,19.4-3.2c-4.1-12.8-22.1-18.9-40.5-13.7
		c-17.9,5.1-29.8,19-27.6,31.7C1506.4,605.8,1511.8,606.8,1522.4,603.4z"/>
	<path class="st2" d="M1546.9,597.9c-11.4,3.7-11.3,7.1-23.2,10.9c-10.6,3.4-16,2.4-25.6,3.9c0.1,0.6,0.2,1.2,0.4,1.8
		c3.7,13.2,22,19.6,40.7,14.3c18.8-5.3,31-20.3,27.2-33.5c-0.1-0.2-0.1-0.4-0.2-0.7C1560.6,594.9,1554,595.7,1546.9,597.9z"/>
</g>
<g class="st1">
	<path class="st2" d="M1388.4,671.4c11.9-3.8,11.8-7.2,23.2-10.9c7.1-2.3,13.7-3.1,19.4-3.2c-4.1-12.8-22.1-18.9-40.5-13.7
		c-17.9,5.1-29.8,19-27.6,31.7C1372.4,673.8,1377.8,674.8,1388.4,671.4z"/>
	<path class="st2" d="M1412.9,665.9c-11.4,3.7-11.3,7.1-23.2,10.9c-10.6,3.4-16,2.4-25.6,3.9c0.1,0.6,0.2,1.2,0.4,1.8
		c3.7,13.2,22,19.6,40.7,14.3c18.8-5.3,31-20.3,27.2-33.5c-0.1-0.2-0.1-0.4-0.2-0.7C1426.6,662.9,1420,663.7,1412.9,665.9z"/>
</g>
<g class="st1">
	<path class="st2" d="M1641.4,720.4c11.9-3.8,11.8-7.2,23.2-10.9c7.1-2.3,13.7-3.1,19.4-3.2c-4.1-12.8-22.1-18.9-40.5-13.7
		c-17.9,5.1-29.8,19-27.6,31.7C1625.4,722.8,1630.8,723.8,1641.4,720.4z"/>
	<path class="st2" d="M1665.9,714.9c-11.4,3.7-11.3,7.1-23.2,10.9c-10.6,3.4-16,2.4-25.6,3.9c0.1,0.6,0.2,1.2,0.4,1.8
		c3.7,13.2,22,19.6,40.7,14.3c18.8-5.3,31-20.3,27.2-33.5c-0.1-0.2-0.1-0.4-0.2-0.7C1679.6,711.9,1673,712.7,1665.9,714.9z"/>
</g>
<g class="st1">
	<path class="st2" d="M1809.4,955.4c11.9-3.8,11.8-7.2,23.2-10.9c7.1-2.3,13.7-3.1,19.4-3.2c-4.1-12.8-22.1-18.9-40.5-13.7
		c-17.9,5.1-29.8,19-27.6,31.7C1793.4,957.8,1798.8,958.8,1809.4,955.4z"/>
	<path class="st2" d="M1833.9,949.9c-11.4,3.7-11.3,7.1-23.2,10.9c-10.6,3.4-16,2.4-25.6,3.9c0.1,0.6,0.2,1.2,0.4,1.8
		c3.7,13.2,22,19.6,40.7,14.3c18.8-5.3,31-20.3,27.2-33.5c-0.1-0.2-0.1-0.4-0.2-0.7C1847.6,946.9,1841,947.7,1833.9,949.9z"/>
</g>
<g class="st1">
	<path class="st2" d="M1657.4,960.4c11.9-3.8,11.8-7.2,23.2-10.9c7.1-2.3,13.7-3.1,19.4-3.2c-4.1-12.8-22.1-18.9-40.5-13.7
		c-17.9,5.1-29.8,19-27.6,31.7C1641.4,962.8,1646.8,963.8,1657.4,960.4z"/>
	<path class="st2" d="M1681.9,954.9c-11.4,3.7-11.3,7.1-23.2,10.9c-10.6,3.4-16,2.4-25.6,3.9c0.1,0.6,0.2,1.2,0.4,1.8
		c3.7,13.2,22,19.6,40.7,14.3c18.8-5.3,31-20.3,27.2-33.5c-0.1-0.2-0.1-0.4-0.2-0.7C1695.6,951.9,1689,952.7,1681.9,954.9z"/>
</g>
<g class="st1">
	<path class="st2" d="M1557.4,1056.4c11.9-3.8,11.8-7.2,23.2-10.9c7.1-2.3,13.7-3.1,19.4-3.2c-4.1-12.8-22.1-18.9-40.5-13.7
		c-17.9,5.1-29.8,19-27.6,31.7C1541.4,1058.8,1546.8,1059.8,1557.4,1056.4z"/>
	<path class="st2" d="M1581.9,1050.9c-11.4,3.7-11.3,7.1-23.2,10.9c-10.6,3.4-16,2.4-25.6,3.9c0.1,0.6,0.2,1.2,0.4,1.8
		c3.7,13.2,22,19.6,40.7,14.3c18.8-5.3,31-20.3,27.2-33.5c-0.1-0.2-0.1-0.4-0.2-0.7C1595.6,1047.9,1589,1048.7,1581.9,1050.9z"/>
</g>
<g class="st1">
	<path class="st2" d="M1389.4,1064.4c11.9-3.8,11.8-7.2,23.2-10.9c7.1-2.3,13.7-3.1,19.4-3.2c-4.1-12.8-22.1-18.9-40.5-13.7
		c-17.9,5.1-29.8,19-27.6,31.7C1373.4,1066.8,1378.8,1067.8,1389.4,1064.4z"/>
	<path class="st2" d="M1413.9,1058.9c-11.4,3.7-11.3,7.1-23.2,10.9c-10.6,3.4-16,2.4-25.6,3.9c0.1,0.6,0.2,1.2,0.4,1.8
		c3.7,13.2,22,19.6,40.7,14.3c18.8-5.3,31-20.3,27.2-33.5c-0.1-0.2-0.1-0.4-0.2-0.7C1427.6,1055.9,1421,1056.7,1413.9,1058.9z"/>
</g>
<g class="st1">
	<path class="st2" d="M1571.4,840.4c11.9-3.8,11.8-7.2,23.2-10.9c7.1-2.3,13.7-3.1,19.4-3.2c-4.1-12.8-22.1-18.9-40.5-13.7
		c-17.9,5.1-29.8,19-27.6,31.7C1555.4,842.8,1560.8,843.8,1571.4,840.4z"/>
	<path class="st2" d="M1595.9,834.9c-11.4,3.7-11.3,7.1-23.2,10.9c-10.6,3.4-16,2.4-25.6,3.9c0.1,0.6,0.2,1.2,0.4,1.8
		c3.7,13.2,22,19.6,40.7,14.3c18.8-5.3,31-20.3,27.2-33.5c-0.1-0.2-0.1-0.4-0.2-0.7C1609.6,831.9,1603,832.7,1595.9,834.9z"/>
</g>
<g class="st1">
	<path class="st2" d="M1811.4,705.4c11.9-3.8,11.8-7.2,23.2-10.9c7.1-2.3,13.7-3.1,19.4-3.2c-4.1-12.8-22.1-18.9-40.5-13.7
		c-17.9,5.1-29.8,19-27.6,31.7C1795.4,707.8,1800.8,708.8,1811.4,705.4z"/>
	<path class="st2" d="M1835.9,699.9c-11.4,3.7-11.3,7.1-23.2,10.9c-10.6,3.4-16,2.4-25.6,3.9c0.1,0.6,0.2,1.2,0.4,1.8
		c3.7,13.2,22,19.6,40.7,14.3c18.8-5.3,31-20.3,27.2-33.5c-0.1-0.2-0.1-0.4-0.2-0.7C1849.6,696.9,1843,697.7,1835.9,699.9z"/>
</g>
<g class="st1">
	<path class="st2" d="M1385.4,865.4c11.9-3.8,11.8-7.2,23.2-10.9c7.1-2.3,13.7-3.1,19.4-3.2c-4.1-12.8-22.1-18.9-40.5-13.7
		c-17.9,5.1-29.8,19-27.6,31.7C1369.4,867.8,1374.8,868.8,1385.4,865.4z"/>
	<path class="st2" d="M1409.9,859.9c-11.4,3.7-11.3,7.1-23.2,10.9c-10.6,3.4-16,2.4-25.6,3.9c0.1,0.6,0.2,1.2,0.4,1.8
		c3.7,13.2,22,19.6,40.7,14.3c18.8-5.3,31-20.3,27.2-33.5c-0.1-0.2-0.1-0.4-0.2-0.7C1423.6,856.9,1417,857.7,1409.9,859.9z"/>
</g>
<g class="st1">
	<path class="st2" d="M1892.4,830.4c11.9-3.8,11.8-7.2,23.2-10.9c7.1-2.3,13.7-3.1,19.4-3.2c-4.1-12.8-22.1-18.9-40.5-13.7
		c-17.9,5.1-29.8,19-27.6,31.7C1876.4,832.8,1881.8,833.8,1892.4,830.4z"/>
	<path class="st2" d="M1916.9,824.9c-11.4,3.7-11.3,7.1-23.2,10.9c-10.6,3.4-16,2.4-25.6,3.9c0.1,0.6,0.2,1.2,0.4,1.8
		c3.7,13.2,22,19.6,40.7,14.3c18.8-5.3,31-20.3,27.2-33.5c-0.1-0.2-0.1-0.4-0.2-0.7C1930.6,821.9,1924,822.7,1916.9,824.9z"/>
</g>
<g class="st5">
	<g class="st1">
		<path class="st2" d="M1861.4,103.4c11.9-3.8,11.8-7.2,23.2-10.9c7.1-2.3,13.7-3.1,19.4-3.2c-4.1-12.8-22.1-18.9-40.5-13.7
			c-17.9,5.1-29.8,19-27.6,31.7C1845.4,105.8,1850.8,106.8,1861.4,103.4z"/>
		<path class="st2" d="M1885.9,97.9c-11.4,3.7-11.3,7.1-23.2,10.9c-10.6,3.4-16,2.4-25.6,3.9c0.1,0.6,0.2,1.2,0.4,1.8
			c3.7,13.2,22,19.6,40.7,14.3c18.8-5.3,31-20.3,27.2-33.5c-0.1-0.2-0.1-0.4-0.2-0.7C1899.6,94.9,1893,95.7,1885.9,97.9z"/>
	</g>
	<g class="st1">
		<path class="st2" d="M1387.4,204.4c11.9-3.8,11.8-7.2,23.2-10.9c7.1-2.3,13.7-3.1,19.4-3.2c-4.1-12.8-22.1-18.9-40.5-13.7
			c-17.9,5.1-29.8,19-27.6,31.7C1371.4,206.8,1376.8,207.8,1387.4,204.4z"/>
		<path class="st2" d="M1411.9,198.9c-11.4,3.7-11.3,7.1-23.2,10.9c-10.6,3.4-16,2.4-25.6,3.9c0.1,0.6,0.2,1.2,0.4,1.8
			c3.7,13.2,22,19.6,40.7,14.3c18.8-5.3,31-20.3,27.2-33.5c-0.1-0.2-0.1-0.4-0.2-0.7C1425.6,195.9,1419,196.7,1411.9,198.9z"/>
	</g>
	<g class="st1">
		<path class="st2" d="M1492.4,122.4c11.9-3.8,11.8-7.2,23.2-10.9c7.1-2.3,13.7-3.1,19.4-3.2c-4.1-12.8-22.1-18.9-40.5-13.7
			c-17.9,5.1-29.8,19-27.6,31.7C1476.4,124.8,1481.8,125.8,1492.4,122.4z"/>
		<path class="st2" d="M1516.9,116.9c-11.4,3.7-11.3,7.1-23.2,10.9c-10.6,3.4-16,2.4-25.6,3.9c0.1,0.6,0.2,1.2,0.4,1.8
			c3.7,13.2,22,19.6,40.7,14.3c18.8-5.3,31-20.3,27.2-33.5c-0.1-0.2-0.1-0.4-0.2-0.7C1530.6,113.9,1524,114.7,1516.9,116.9z"/>
	</g>
	<g class="st1">
		<path class="st2" d="M1792.4,215.4c11.9-3.8,11.8-7.2,23.2-10.9c7.1-2.3,13.7-3.1,19.4-3.2c-4.1-12.8-22.1-18.9-40.5-13.7
			c-17.9,5.1-29.8,19-27.6,31.7C1776.4,217.8,1781.8,218.8,1792.4,215.4z"/>
		<path class="st2" d="M1816.9,209.9c-11.4,3.7-11.3,7.1-23.2,10.9c-10.6,3.4-16,2.4-25.6,3.9c0.1,0.6,0.2,1.2,0.4,1.8
			c3.7,13.2,22,19.6,40.7,14.3c18.8-5.3,31-20.3,27.2-33.5c-0.1-0.2-0.1-0.4-0.2-0.7C1830.6,206.9,1824,207.7,1816.9,209.9z"/>
	</g>
	<g class="st1">
		<path class="st3" d="M1894.5,300.4c11.9-3.8,11.8-7.2,23.2-10.9c7.1-2.3,13.7-3.1,19.4-3.2c-4.1-12.8-22.1-18.9-40.6-13.6
			c-17.9,5.1-29.9,19-27.7,31.7C1878.4,302.8,1883.9,303.8,1894.5,300.4z"/>
		<path class="st3" d="M1919,294.9c-11.4,3.7-11.3,7.1-23.2,10.9c-10.6,3.4-16.1,2.4-25.7,4c0.1,0.6,0.2,1.2,0.4,1.8
			c3.7,13.2,22,19.6,40.8,14.3c18.8-5.3,31-20.3,27.3-33.5c-0.1-0.2-0.1-0.4-0.2-0.7C1932.7,291.8,1926.1,292.6,1919,294.9z"/>
	</g>
	<g class="st1">
		<path class="st2" d="M1386.4,372.4c11.9-3.8,11.8-7.2,23.2-10.9c7.1-2.3,13.7-3.1,19.4-3.2c-4.1-12.8-22.1-18.9-40.5-13.7
			c-17.9,5.1-29.8,19-27.6,31.7C1370.4,374.8,1375.8,375.8,1386.4,372.4z"/>
		<path class="st2" d="M1410.9,366.9c-11.4,3.7-11.3,7.1-23.2,10.9c-10.6,3.4-16,2.4-25.6,3.9c0.1,0.6,0.2,1.2,0.4,1.8
			c3.7,13.2,22,19.6,40.7,14.3c18.8-5.3,31-20.3,27.2-33.5c-0.1-0.2-0.1-0.4-0.2-0.7C1424.6,363.9,1418,364.7,1410.9,366.9z"/>
	</g>
	<g class="st1">
		<path class="st2" d="M1813.4,441.4c11.9-3.8,11.8-7.2,23.2-10.9c7.1-2.3,13.7-3.1,19.4-3.2c-4.1-12.8-22.1-18.9-40.5-13.7
			c-17.9,5.1-29.8,19-27.6,31.7C1797.4,443.8,1802.8,444.8,1813.4,441.4z"/>
		<path class="st2" d="M1837.9,435.9c-11.4,3.7-11.3,7.1-23.2,10.9c-10.6,3.4-16,2.4-25.6,3.9c0.1,0.6,0.2,1.2,0.4,1.8
			c3.7,13.2,22,19.6,40.7,14.3c18.8-5.3,31-20.3,27.2-33.5c-0.1-0.2-0.1-0.4-0.2-0.7C1851.6,432.9,1845,433.7,1837.9,435.9z"/>
	</g>
	<g class="st1">
		<path class="st2" d="M1893.4,547.4c11.9-3.8,11.8-7.2,23.2-10.9c7.1-2.3,13.7-3.1,19.4-3.2c-4.1-12.8-22.1-18.9-40.5-13.7
			c-17.9,5.1-29.8,19-27.6,31.7C1877.4,549.8,1882.8,550.8,1893.4,547.4z"/>
		<path class="st2" d="M1917.9,541.9c-11.4,3.7-11.3,7.1-23.2,10.9c-10.6,3.4-16,2.4-25.6,3.9c0.1,0.6,0.2,1.2,0.4,1.8
			c3.7,13.2,22,19.6,40.7,14.3c18.8-5.3,31-20.3,27.2-33.5c-0.1-0.2-0.1-0.4-0.2-0.7C1931.6,538.9,1925,539.7,1917.9,541.9z"/>
	</g>
	<path class="st4" d="M1783.1,86.4c-1.1-1.5-4.1,0.1-5.6,0.3c-3.6,0.4-7.1,1.2-10.7,1.8c-2.6,0.4-5.4,0.6-7.9,1.5
		c-4.9,1.7-9.3,4.4-13.1,7.9c-4.4,4-7.2,8.8-9,14.4c-0.8,2.3-3.7,2.6-5.7,3.2c-3,1-5.9,2.4-8.6,4.2c-1.2,0.8-2.2,1.9-3.8,1.8
		c-1.2-0.1-2.4-0.7-3.6-1c-2.7-0.7-5.5-1-8.3-0.9c-5.5,0.2-11,1.9-15.9,4.6c-4.5,2.6-8.6,6-12.5,9.5c-1.9,1.8-3.8,3.6-5.7,5.4
		c-0.8,0.8-3.1,2.3-3.8,3.7c-0.2,0.4-0.3,0.7-0.1,1.1c0.4,1.3,1.4,2.4,2.6,2.5c1.1,0.1,2.3,0,3.2,0.9c0.9,0.8,1.5,2.4,2.1,3.4
		c0.7,1.2,1.3,2.4,1.9,3.6c1.1,2.3,2.9,4.2,4.8,5.9c2.3,2,4.4,3.9,7.1,5.4c6.6,3.6,15.4,3.2,22.1,0.2c5.5-2.5,10.3-6.9,13-12.3
		c2.9-5.9,2.9-12,1.8-18.4c-0.4-2-0.7-5.7-2.4-7c-4.7-3.5,2.5-7.6,5.5-8.7c1.7-0.7,4.2-1.4,5.6,0.1c0.8,0.8,1.2,2.2,0.8,3.3
		c-0.3,0.8,2.5,3.6,3,4.2c1.4,1.6,2.9,3.1,4.5,4.4c3.2,2.6,6.9,4.9,10.9,6c11.8,3.5,24.7-2.4,30.4-13.2c1.8-3.4,2.2-6.7,2.1-10.4
		c-0.1-2.5-0.2-5-0.6-7.5c-0.6-3.4-1.9-6-3.3-9.1c-0.6-1.3-1.8-2.7-1.8-4.2c0-1.6,1.5-2,2-3.3C1784.3,88.5,1783.7,87.2,1783.1,86.4z
		 M1712.6,163.5c-12.1,6-29.2-1.3-33.6-12.5c-4.6-11.7,1.8-19.7,13.9-25.8c12.1-6,24.8-3.9,30.9,7.1
		C1729.6,142.8,1724.7,157.5,1712.6,163.5z M1773.1,133.5c-12.1,6-26.8,1.1-31.6-9.8c-5.1-11.4,0.8-22.9,12.9-28.9
		c12.1-6,22.4-6.3,29,4.4C1789.6,109.4,1785.2,127.5,1773.1,133.5z"/>
	<path class="st4" d="M1821.1,289.4c-1.1-1.5-4.1,0.1-5.6,0.3c-3.6,0.4-7.1,1.2-10.7,1.8c-2.6,0.4-5.4,0.6-7.9,1.5
		c-4.9,1.7-9.3,4.4-13.1,7.9c-4.4,4-7.2,8.8-9,14.4c-0.8,2.3-3.7,2.6-5.7,3.2c-3,1-5.9,2.4-8.6,4.2c-1.2,0.8-2.2,1.9-3.8,1.8
		c-1.2-0.1-2.4-0.7-3.6-1c-2.7-0.7-5.5-1-8.3-0.9c-5.5,0.2-11,1.9-15.9,4.6c-4.5,2.6-8.6,6-12.5,9.5c-1.9,1.8-3.8,3.6-5.7,5.4
		c-0.8,0.8-3.1,2.3-3.8,3.7c-0.2,0.4-0.3,0.7-0.1,1.1c0.4,1.3,1.4,2.4,2.6,2.5c1.1,0.1,2.3,0,3.2,0.9c0.9,0.8,1.5,2.4,2.1,3.4
		c0.7,1.2,1.3,2.4,1.9,3.6c1.1,2.3,2.9,4.2,4.8,5.9c2.3,2,4.4,3.9,7.1,5.4c6.6,3.6,15.4,3.2,22.1,0.2c5.5-2.5,10.3-6.9,13-12.3
		c2.9-5.9,2.9-12,1.8-18.4c-0.4-2-0.7-5.7-2.4-7c-4.7-3.5,2.5-7.6,5.5-8.7c1.7-0.7,4.2-1.4,5.6,0.1c0.8,0.8,1.2,2.2,0.8,3.3
		c-0.3,0.8,2.5,3.6,3,4.2c1.4,1.6,2.9,3.1,4.5,4.4c3.2,2.6,6.9,4.9,10.9,6c11.8,3.5,24.7-2.4,30.4-13.2c1.8-3.4,2.2-6.7,2.1-10.4
		c-0.1-2.5-0.2-5-0.6-7.5c-0.6-3.4-1.9-6-3.3-9.1c-0.6-1.3-1.8-2.7-1.8-4.2c0-1.6,1.5-2,2-3.3
		C1822.3,291.5,1821.7,290.2,1821.1,289.4z M1750.6,366.5c-12.1,6-29.2-1.3-33.6-12.5c-4.6-11.7,1.8-19.7,13.9-25.8
		c12.1-6,24.8-3.9,30.9,7.1C1767.6,345.8,1762.7,360.5,1750.6,366.5z M1811.1,336.5c-12.1,6-26.8,1.1-31.6-9.8
		c-5.1-11.4,0.8-22.9,12.9-28.9c12.1-6,22.4-6.3,29,4.4C1827.6,312.4,1823.2,330.5,1811.1,336.5z"/>
	<path class="st4" d="M1537.1,230.4c-1.1-1.5-4.1,0.1-5.6,0.3c-3.6,0.4-7.1,1.2-10.7,1.8c-2.6,0.4-5.4,0.6-7.9,1.5
		c-4.9,1.7-9.3,4.4-13.1,7.9c-4.4,4-7.2,8.8-9,14.4c-0.8,2.3-3.7,2.6-5.7,3.2c-3,1-5.9,2.4-8.6,4.2c-1.2,0.8-2.2,1.9-3.8,1.8
		c-1.2-0.1-2.4-0.7-3.6-1c-2.7-0.7-5.5-1-8.3-0.9c-5.5,0.2-11,1.9-15.9,4.6c-4.5,2.6-8.6,6-12.5,9.5c-1.9,1.8-3.8,3.6-5.7,5.4
		c-0.8,0.8-3.1,2.3-3.8,3.7c-0.2,0.4-0.3,0.7-0.1,1.1c0.4,1.3,1.4,2.4,2.6,2.5c1.1,0.1,2.3,0,3.2,0.9c0.9,0.8,1.5,2.4,2.1,3.4
		c0.7,1.2,1.3,2.4,1.9,3.6c1.1,2.3,2.9,4.2,4.8,5.9c2.3,2,4.4,3.9,7.1,5.4c6.6,3.6,15.4,3.2,22.1,0.2c5.5-2.5,10.3-6.9,13-12.3
		c2.9-5.9,2.9-12,1.8-18.4c-0.4-2-0.7-5.7-2.4-7c-4.7-3.5,2.5-7.6,5.5-8.7c1.7-0.7,4.2-1.4,5.6,0.1c0.8,0.8,1.2,2.2,0.8,3.3
		c-0.3,0.8,2.5,3.6,3,4.2c1.4,1.6,2.9,3.1,4.5,4.4c3.2,2.6,6.9,4.9,10.9,6c11.8,3.5,24.7-2.4,30.4-13.2c1.8-3.4,2.2-6.7,2.1-10.4
		c-0.1-2.5-0.2-5-0.6-7.5c-0.6-3.4-1.9-6-3.3-9.1c-0.6-1.3-1.8-2.7-1.8-4.2c0-1.6,1.5-2,2-3.3
		C1538.3,232.5,1537.7,231.2,1537.1,230.4z M1466.6,307.5c-12.1,6-29.2-1.3-33.6-12.5c-4.6-11.7,1.8-19.7,13.9-25.8
		c12.1-6,24.8-3.9,30.9,7.1C1483.6,286.8,1478.7,301.5,1466.6,307.5z M1527.1,277.5c-12.1,6-26.8,1.1-31.6-9.8
		c-5.1-11.4,0.8-22.9,12.9-28.9c12.1-6,22.4-6.3,29,4.4C1543.6,253.4,1539.2,271.5,1527.1,277.5z"/>
	<path class="st4" d="M1515.1,410.4c-1.1-1.5-4.1,0.1-5.6,0.3c-3.6,0.4-7.1,1.2-10.7,1.8c-2.6,0.4-5.4,0.6-7.9,1.5
		c-4.9,1.7-9.3,4.4-13.1,7.9c-4.4,4-7.2,8.8-9,14.4c-0.8,2.3-3.7,2.6-5.7,3.2c-3,1-5.9,2.4-8.6,4.2c-1.2,0.8-2.2,1.9-3.8,1.8
		c-1.2-0.1-2.4-0.7-3.6-1c-2.7-0.7-5.5-1-8.3-0.9c-5.5,0.2-11,1.9-15.9,4.6c-4.5,2.6-8.6,6-12.5,9.5c-1.9,1.8-3.8,3.6-5.7,5.4
		c-0.8,0.8-3.1,2.3-3.8,3.7c-0.2,0.4-0.3,0.7-0.1,1.1c0.4,1.3,1.4,2.4,2.6,2.5c1.1,0.1,2.3,0,3.2,0.9c0.9,0.8,1.5,2.4,2.1,3.4
		c0.7,1.2,1.3,2.4,1.9,3.6c1.1,2.3,2.9,4.2,4.8,5.9c2.3,2,4.4,3.9,7.1,5.4c6.6,3.6,15.4,3.2,22.1,0.2c5.5-2.5,10.3-6.9,13-12.3
		c2.9-5.9,2.9-12,1.8-18.4c-0.4-2-0.7-5.7-2.4-7c-4.7-3.5,2.5-7.6,5.5-8.7c1.7-0.7,4.2-1.4,5.6,0.1c0.8,0.8,1.2,2.2,0.8,3.3
		c-0.3,0.8,2.5,3.6,3,4.2c1.4,1.6,2.9,3.1,4.5,4.4c3.2,2.6,6.9,4.9,10.9,6c11.8,3.5,24.7-2.4,30.4-13.2c1.8-3.4,2.2-6.7,2.1-10.4
		c-0.1-2.5-0.2-5-0.6-7.5c-0.6-3.4-1.9-6-3.3-9.1c-0.6-1.3-1.8-2.7-1.8-4.2c0-1.6,1.5-2,2-3.3
		C1516.3,412.5,1515.7,411.2,1515.1,410.4z M1444.6,487.5c-12.1,6-29.2-1.3-33.6-12.5c-4.6-11.7,1.8-19.7,13.9-25.8
		c12.1-6,24.8-3.9,30.9,7.1C1461.6,466.8,1456.7,481.5,1444.6,487.5z M1505.1,457.5c-12.1,6-26.8,1.1-31.6-9.8
		c-5.1-11.4,0.8-22.9,12.9-28.9c12.1-6,22.4-6.3,29,4.4C1521.6,433.4,1517.2,451.5,1505.1,457.5z"/>
</g>
<path class="st4" d="M1774.1,528.4c-1.1-1.5-4.1,0.1-5.6,0.3c-3.6,0.4-7.1,1.2-10.7,1.8c-2.6,0.4-5.4,0.6-7.9,1.5
	c-4.9,1.7-9.3,4.4-13.1,7.9c-4.4,4-7.2,8.8-9,14.4c-0.8,2.3-3.7,2.6-5.7,3.2c-3,1-5.9,2.4-8.6,4.2c-1.2,0.8-2.2,1.9-3.8,1.8
	c-1.2-0.1-2.4-0.7-3.6-1c-2.7-0.7-5.5-1-8.3-0.9c-5.5,0.2-11,1.9-15.9,4.6c-4.5,2.6-8.6,6-12.5,9.5c-1.9,1.8-3.8,3.6-5.7,5.4
	c-0.8,0.8-3.1,2.3-3.8,3.7c-0.2,0.4-0.3,0.7-0.1,1.1c0.4,1.3,1.4,2.4,2.6,2.5c1.1,0.1,2.3,0,3.2,0.9c0.9,0.8,1.5,2.4,2.1,3.4
	c0.7,1.2,1.3,2.4,1.9,3.6c1.1,2.3,2.9,4.2,4.8,5.9c2.3,2,4.4,3.9,7.1,5.4c6.6,3.6,15.4,3.2,22.1,0.2c5.5-2.5,10.3-6.9,13-12.3
	c2.9-5.9,2.9-12,1.8-18.4c-0.4-2-0.7-5.7-2.4-7c-4.7-3.5,2.5-7.6,5.5-8.7c1.7-0.7,4.2-1.4,5.6,0.1c0.8,0.8,1.2,2.2,0.8,3.3
	c-0.3,0.8,2.5,3.6,3,4.2c1.4,1.6,2.9,3.1,4.5,4.4c3.2,2.6,6.9,4.9,10.9,6c11.8,3.5,24.7-2.4,30.4-13.2c1.8-3.4,2.2-6.7,2.1-10.4
	c-0.1-2.5-0.2-5-0.6-7.5c-0.6-3.4-1.9-6-3.3-9.1c-0.6-1.3-1.8-2.7-1.8-4.2c0-1.6,1.5-2,2-3.3
	C1775.3,530.5,1774.7,529.2,1774.1,528.4z M1703.6,605.5c-12.1,6-29.2-1.3-33.6-12.5c-4.6-11.7,1.8-19.7,13.9-25.8
	c12.1-6,24.8-3.9,30.9,7.1C1720.6,584.8,1715.7,599.5,1703.6,605.5z M1764.1,575.5c-12.1,6-26.8,1.1-31.6-9.8
	c-5.1-11.4,0.8-22.9,12.9-28.9c12.1-6,22.4-6.3,29,4.4C1780.6,551.4,1776.2,569.5,1764.1,575.5z"/>
<path class="st4" d="M1545.1,918.4c-1.1-1.5-4.1,0.1-5.6,0.3c-3.6,0.4-7.1,1.2-10.7,1.8c-2.6,0.4-5.4,0.6-7.9,1.5
	c-4.9,1.7-9.3,4.4-13.1,7.9c-4.4,4-7.2,8.8-9,14.4c-0.8,2.3-3.7,2.6-5.7,3.2c-3,1-5.9,2.4-8.6,4.2c-1.2,0.8-2.2,1.9-3.8,1.8
	c-1.2-0.1-2.4-0.7-3.6-1c-2.7-0.7-5.5-1-8.3-0.9c-5.5,0.2-11,1.9-15.9,4.6c-4.5,2.6-8.6,6-12.5,9.5c-1.9,1.8-3.8,3.6-5.7,5.4
	c-0.8,0.8-3.1,2.3-3.8,3.7c-0.2,0.4-0.3,0.7-0.1,1.1c0.4,1.3,1.4,2.4,2.6,2.5c1.1,0.1,2.3,0,3.2,0.9c0.9,0.8,1.5,2.4,2.1,3.4
	c0.7,1.2,1.3,2.4,1.9,3.6c1.1,2.3,2.9,4.2,4.8,5.9c2.3,2,4.4,3.9,7.1,5.4c6.6,3.6,15.4,3.2,22.1,0.2c5.5-2.5,10.3-6.9,13-12.3
	c2.9-5.9,2.9-12,1.8-18.4c-0.4-2-0.7-5.7-2.4-7c-4.7-3.5,2.5-7.6,5.5-8.7c1.7-0.7,4.2-1.4,5.6,0.1c0.8,0.8,1.2,2.2,0.8,3.3
	c-0.3,0.8,2.5,3.6,3,4.2c1.4,1.6,2.9,3.1,4.5,4.4c3.2,2.6,6.9,4.9,10.9,6c11.8,3.5,24.7-2.4,30.4-13.2c1.8-3.4,2.2-6.7,2.1-10.4
	c-0.1-2.5-0.2-5-0.6-7.5c-0.6-3.4-1.9-6-3.3-9.1c-0.6-1.3-1.8-2.7-1.8-4.2c0-1.6,1.5-2,2-3.3
	C1546.3,920.5,1545.7,919.2,1545.1,918.4z M1474.6,995.5c-12.1,6-29.2-1.3-33.6-12.5c-4.6-11.7,1.8-19.7,13.9-25.8
	c12.1-6,24.8-3.9,30.9,7.1C1491.6,974.8,1486.7,989.5,1474.6,995.5z M1535.1,965.5c-12.1,6-26.8,1.1-31.6-9.8
	c-5.1-11.4,0.8-22.9,12.9-28.9c12.1-6,22.4-6.3,29,4.4C1551.6,941.4,1547.2,959.5,1535.1,965.5z"/>
<path class="st4" d="M1464.1-8.6c-1.1-1.5-4.1,0.1-5.6,0.3c-3.6,0.4-7.1,1.2-10.7,1.8c-2.6,0.4-5.4,0.6-7.9,1.5
	c-4.9,1.7-9.3,4.4-13.1,7.9c-4.4,4-7.2,8.8-9,14.4c-0.8,2.3-3.7,2.6-5.7,3.2c-3,1-5.9,2.4-8.6,4.2c-1.2,0.8-2.2,1.9-3.8,1.8
	c-1.2-0.1-2.4-0.7-3.6-1c-2.7-0.7-5.5-1-8.3-0.9c-5.5,0.2-11,1.9-15.9,4.6c-4.5,2.6-8.6,6-12.5,9.5c-1.9,1.8-3.8,3.6-5.7,5.4
	c-0.8,0.8-3.1,2.3-3.8,3.7c-0.2,0.4-0.3,0.7-0.1,1.1c0.4,1.3,1.4,2.4,2.6,2.5c1.1,0.1,2.3,0,3.2,0.9c0.9,0.8,1.5,2.4,2.1,3.4
	c0.7,1.2,1.3,2.4,1.9,3.6c1.1,2.3,2.9,4.2,4.8,5.9c2.3,2,4.4,3.9,7.1,5.4c6.6,3.6,15.4,3.2,22.1,0.2c5.5-2.5,10.3-6.9,13-12.3
	c2.9-5.9,2.9-12,1.8-18.4c-0.4-2-0.7-5.7-2.4-7c-4.7-3.5,2.5-7.6,5.5-8.7c1.7-0.7,4.2-1.4,5.6,0.1c0.8,0.8,1.2,2.2,0.8,3.3
	c-0.3,0.8,2.5,3.6,3,4.2c1.4,1.6,2.9,3.1,4.5,4.4c3.2,2.6,6.9,4.9,10.9,6c11.8,3.5,24.7-2.4,30.4-13.2c1.8-3.4,2.2-6.7,2.1-10.4
	c-0.1-2.5-0.2-5-0.6-7.5c-0.6-3.4-1.9-6-3.3-9.1c-0.6-1.3-1.8-2.7-1.8-4.2c0-1.6,1.5-2,2-3.3C1465.3-6.5,1464.7-7.8,1464.1-8.6z
	 M1393.6,68.5c-12.1,6-29.2-1.3-33.6-12.5c-4.6-11.7,1.8-19.7,13.9-25.8c12.1-6,24.8-3.9,30.9,7.1
	C1410.6,47.8,1405.7,62.5,1393.6,68.5z M1454.1,38.5c-12.1,6-26.8,1.1-31.6-9.8c-5.1-11.4,0.8-22.9,12.9-28.9
	c12.1-6,22.4-6.3,29,4.4C1470.6,14.4,1466.2,32.5,1454.1,38.5z"/>
<path class="st4" d="M1188.1-14.6c-1.1-1.5-4.1,0.1-5.6,0.3c-3.6,0.4-7.1,1.2-10.7,1.8c-2.6,0.4-5.4,0.6-7.9,1.5
	c-4.9,1.7-9.3,4.4-13.1,7.9c-4.4,4-7.2,8.8-9,14.4c-0.8,2.3-3.7,2.6-5.7,3.2c-3,1-5.9,2.4-8.6,4.2c-1.2,0.8-2.2,1.9-3.8,1.8
	c-1.2-0.1-2.4-0.7-3.6-1c-2.7-0.7-5.5-1-8.3-0.9c-5.5,0.2-11,1.9-15.9,4.6c-4.5,2.6-8.6,6-12.5,9.5c-1.9,1.8-3.8,3.6-5.7,5.4
	c-0.8,0.8-3.1,2.3-3.8,3.7c-0.2,0.4-0.3,0.7-0.1,1.1c0.4,1.3,1.4,2.4,2.6,2.5c1.1,0.1,2.3,0,3.2,0.9c0.9,0.8,1.5,2.4,2.1,3.4
	c0.7,1.2,1.3,2.4,1.9,3.6c1.1,2.3,2.9,4.2,4.8,5.9c2.3,2,4.4,3.9,7.1,5.4c6.6,3.6,15.4,3.2,22.1,0.2c5.5-2.5,10.3-6.9,13-12.3
	c2.9-5.9,2.9-12,1.8-18.4c-0.4-2-0.7-5.7-2.4-7c-4.7-3.5,2.5-7.6,5.5-8.7c1.7-0.7,4.2-1.4,5.6,0.1c0.8,0.8,1.2,2.2,0.8,3.3
	c-0.3,0.8,2.5,3.6,3,4.2c1.4,1.6,2.9,3.1,4.5,4.4c3.2,2.6,6.9,4.9,10.9,6c11.8,3.5,24.7-2.4,30.4-13.2c1.8-3.4,2.2-6.7,2.1-10.4
	c-0.1-2.5-0.2-5-0.6-7.5c-0.6-3.4-1.9-6-3.3-9.1c-0.6-1.3-1.8-2.7-1.8-4.2c0-1.6,1.5-2,2-3.3C1189.3-12.5,1188.7-13.8,1188.1-14.6z
	 M1117.6,62.5c-12.1,6-29.2-1.3-33.6-12.5c-4.6-11.7,1.8-19.7,13.9-25.8c12.1-6,24.8-3.9,30.9,7.1
	C1134.6,41.8,1129.7,56.5,1117.6,62.5z M1178.1,32.5c-12.1,6-26.8,1.1-31.6-9.8c-5.1-11.4,0.8-22.9,12.9-28.9
	c12.1-6,22.4-6.3,29,4.4C1194.6,8.4,1190.2,26.5,1178.1,32.5z"/>
<path class="st4" d="M1225.1,144.4c-1.1-1.5-4.1,0.1-5.6,0.3c-3.6,0.4-7.1,1.2-10.7,1.8c-2.6,0.4-5.4,0.6-7.9,1.5
	c-4.9,1.7-9.3,4.4-13.1,7.9c-4.4,4-7.2,8.8-9,14.4c-0.8,2.3-3.7,2.6-5.7,3.2c-3,1-5.9,2.4-8.6,4.2c-1.2,0.8-2.2,1.9-3.8,1.8
	c-1.2-0.1-2.4-0.7-3.6-1c-2.7-0.7-5.5-1-8.3-0.9c-5.5,0.2-11,1.9-15.9,4.6c-4.5,2.6-8.6,6-12.5,9.5c-1.9,1.8-3.8,3.6-5.7,5.4
	c-0.8,0.8-3.1,2.3-3.8,3.7c-0.2,0.4-0.3,0.7-0.1,1.1c0.4,1.3,1.4,2.4,2.6,2.5c1.1,0.1,2.3,0,3.2,0.9c0.9,0.8,1.5,2.4,2.1,3.4
	c0.7,1.2,1.3,2.4,1.9,3.6c1.1,2.3,2.9,4.2,4.8,5.9c2.3,2,4.4,3.9,7.1,5.4c6.6,3.6,15.4,3.2,22.1,0.2c5.5-2.5,10.3-6.9,13-12.3
	c2.9-5.9,2.9-12,1.8-18.4c-0.4-2-0.7-5.7-2.4-7c-4.7-3.5,2.5-7.6,5.5-8.7c1.7-0.7,4.2-1.4,5.6,0.1c0.8,0.8,1.2,2.2,0.8,3.3
	c-0.3,0.8,2.5,3.6,3,4.2c1.4,1.6,2.9,3.1,4.5,4.4c3.2,2.6,6.9,4.9,10.9,6c11.8,3.5,24.7-2.4,30.4-13.2c1.8-3.4,2.2-6.7,2.1-10.4
	c-0.1-2.5-0.2-5-0.6-7.5c-0.6-3.4-1.9-6-3.3-9.1c-0.6-1.3-1.8-2.7-1.8-4.2c0-1.6,1.5-2,2-3.3
	C1226.3,146.5,1225.7,145.2,1225.1,144.4z M1154.6,221.5c-12.1,6-29.2-1.3-33.6-12.5c-4.6-11.7,1.8-19.7,13.9-25.8
	c12.1-6,24.8-3.9,30.9,7.1C1171.6,200.8,1166.7,215.5,1154.6,221.5z M1215.1,191.5c-12.1,6-26.8,1.1-31.6-9.8
	c-5.1-11.4,0.8-22.9,12.9-28.9c12.1-6,22.4-6.3,29,4.4C1231.6,167.4,1227.2,185.5,1215.1,191.5z"/>
<path class="st4" d="M1214.1,328.4c-1.1-1.5-4.1,0.1-5.6,0.3c-3.6,0.4-7.1,1.2-10.7,1.8c-2.6,0.4-5.4,0.6-7.9,1.5
	c-4.9,1.7-9.3,4.4-13.1,7.9c-4.4,4-7.2,8.8-9,14.4c-0.8,2.3-3.7,2.6-5.7,3.2c-3,1-5.9,2.4-8.6,4.2c-1.2,0.8-2.2,1.9-3.8,1.8
	c-1.2-0.1-2.4-0.7-3.6-1c-2.7-0.7-5.5-1-8.3-0.9c-5.5,0.2-11,1.9-15.9,4.6c-4.5,2.6-8.6,6-12.5,9.5c-1.9,1.8-3.8,3.6-5.7,5.4
	c-0.8,0.8-3.1,2.3-3.8,3.7c-0.2,0.4-0.3,0.7-0.1,1.1c0.4,1.3,1.4,2.4,2.6,2.5c1.1,0.1,2.3,0,3.2,0.9c0.9,0.8,1.5,2.4,2.1,3.4
	c0.7,1.2,1.3,2.4,1.9,3.6c1.1,2.3,2.9,4.2,4.8,5.9c2.3,2,4.4,3.9,7.1,5.4c6.6,3.6,15.4,3.2,22.1,0.2c5.5-2.5,10.3-6.9,13-12.3
	c2.9-5.9,2.9-12,1.8-18.4c-0.4-2-0.7-5.7-2.4-7c-4.7-3.5,2.5-7.6,5.5-8.7c1.7-0.7,4.2-1.4,5.6,0.1c0.8,0.8,1.2,2.2,0.8,3.3
	c-0.3,0.8,2.5,3.6,3,4.2c1.4,1.6,2.9,3.1,4.5,4.4c3.2,2.6,6.9,4.9,10.9,6c11.8,3.5,24.7-2.4,30.4-13.2c1.8-3.4,2.2-6.7,2.1-10.4
	c-0.1-2.5-0.2-5-0.6-7.5c-0.6-3.4-1.9-6-3.3-9.1c-0.6-1.3-1.8-2.7-1.8-4.2c0-1.6,1.5-2,2-3.3
	C1215.3,330.5,1214.7,329.2,1214.1,328.4z M1143.6,405.5c-12.1,6-29.2-1.3-33.6-12.5c-4.6-11.7,1.8-19.7,13.9-25.8
	c12.1-6,24.8-3.9,30.9,7.1C1160.6,384.8,1155.7,399.5,1143.6,405.5z M1204.1,375.5c-12.1,6-26.8,1.1-31.6-9.8
	c-5.1-11.4,0.8-22.9,12.9-28.9c12.1-6,22.4-6.3,29,4.4C1220.6,351.4,1216.2,369.5,1204.1,375.5z"/>
<path class="st4" d="M1164.1,476.4c-1.1-1.5-4.1,0.1-5.6,0.3c-3.6,0.4-7.1,1.2-10.7,1.8c-2.6,0.4-5.4,0.6-7.9,1.5
	c-4.9,1.7-9.3,4.4-13.1,7.9c-4.4,4-7.2,8.8-9,14.4c-0.8,2.3-3.7,2.6-5.7,3.2c-3,1-5.9,2.4-8.6,4.2c-1.2,0.8-2.2,1.9-3.8,1.8
	c-1.2-0.1-2.4-0.7-3.6-1c-2.7-0.7-5.5-1-8.3-0.9c-5.5,0.2-11,1.9-15.9,4.6c-4.5,2.6-8.6,6-12.5,9.5c-1.9,1.8-3.8,3.6-5.7,5.4
	c-0.8,0.8-3.1,2.3-3.8,3.7c-0.2,0.4-0.3,0.7-0.1,1.1c0.4,1.3,1.4,2.4,2.6,2.5c1.1,0.1,2.3,0,3.2,0.9c0.9,0.8,1.5,2.4,2.1,3.4
	c0.7,1.2,1.3,2.4,1.9,3.6c1.1,2.3,2.9,4.2,4.8,5.9c2.3,2,4.4,3.9,7.1,5.4c6.6,3.6,15.4,3.2,22.1,0.2c5.5-2.5,10.3-6.9,13-12.3
	c2.9-5.9,2.9-12,1.8-18.4c-0.4-2-0.7-5.7-2.4-7c-4.7-3.5,2.5-7.6,5.5-8.7c1.7-0.7,4.2-1.4,5.6,0.1c0.8,0.8,1.2,2.2,0.8,3.3
	c-0.3,0.8,2.5,3.6,3,4.2c1.4,1.6,2.9,3.1,4.5,4.4c3.2,2.6,6.9,4.9,10.9,6c11.8,3.5,24.7-2.4,30.4-13.2c1.8-3.4,2.2-6.7,2.1-10.4
	c-0.1-2.5-0.2-5-0.6-7.5c-0.6-3.4-1.9-6-3.3-9.1c-0.6-1.3-1.8-2.7-1.8-4.2c0-1.6,1.5-2,2-3.3
	C1165.3,478.5,1164.7,477.2,1164.1,476.4z M1093.6,553.5c-12.1,6-29.2-1.3-33.6-12.5c-4.6-11.7,1.8-19.7,13.9-25.8
	c12.1-6,24.8-3.9,30.9,7.1C1110.6,532.8,1105.7,547.5,1093.6,553.5z M1154.1,523.5c-12.1,6-26.8,1.1-31.6-9.8
	c-5.1-11.4,0.8-22.9,12.9-28.9c12.1-6,22.4-6.3,29,4.4C1170.6,499.4,1166.2,517.5,1154.1,523.5z"/>
<path class="st4" d="M1154.1,689.4c-1.1-1.5-4.1,0.1-5.6,0.3c-3.6,0.4-7.1,1.2-10.7,1.8c-2.6,0.4-5.4,0.6-7.9,1.5
	c-4.9,1.7-9.3,4.4-13.1,7.9c-4.4,4-7.2,8.8-9,14.4c-0.8,2.3-3.7,2.6-5.7,3.2c-3,1-5.9,2.4-8.6,4.2c-1.2,0.8-2.2,1.9-3.8,1.8
	c-1.2-0.1-2.4-0.7-3.6-1c-2.7-0.7-5.5-1-8.3-0.9c-5.5,0.2-11,1.9-15.9,4.6c-4.5,2.6-8.6,6-12.5,9.5c-1.9,1.8-3.8,3.6-5.7,5.4
	c-0.8,0.8-3.1,2.3-3.8,3.7c-0.2,0.4-0.3,0.7-0.1,1.1c0.4,1.3,1.4,2.4,2.6,2.5c1.1,0.1,2.3,0,3.2,0.9c0.9,0.8,1.5,2.4,2.1,3.4
	c0.7,1.2,1.3,2.4,1.9,3.6c1.1,2.3,2.9,4.2,4.8,5.9c2.3,2,4.4,3.9,7.1,5.4c6.6,3.6,15.4,3.2,22.1,0.2c5.5-2.5,10.3-6.9,13-12.3
	c2.9-5.9,2.9-12,1.8-18.4c-0.4-2-0.7-5.7-2.4-7c-4.7-3.5,2.5-7.6,5.5-8.7c1.7-0.7,4.2-1.4,5.6,0.1c0.8,0.8,1.2,2.2,0.8,3.3
	c-0.3,0.8,2.5,3.6,3,4.2c1.4,1.6,2.9,3.1,4.5,4.4c3.2,2.6,6.9,4.9,10.9,6c11.8,3.5,24.7-2.4,30.4-13.2c1.8-3.4,2.2-6.7,2.1-10.4
	c-0.1-2.5-0.2-5-0.6-7.5c-0.6-3.4-1.9-6-3.3-9.1c-0.6-1.3-1.8-2.7-1.8-4.2c0-1.6,1.5-2,2-3.3
	C1155.3,691.5,1154.7,690.2,1154.1,689.4z M1083.6,766.5c-12.1,6-29.2-1.3-33.6-12.5c-4.6-11.7,1.8-19.7,13.9-25.8
	c12.1-6,24.8-3.9,30.9,7.1C1100.6,745.8,1095.7,760.5,1083.6,766.5z M1144.1,736.5c-12.1,6-26.8,1.1-31.6-9.8
	c-5.1-11.4,0.8-22.9,12.9-28.9c12.1-6,22.4-6.3,29,4.4C1160.6,712.4,1156.2,730.5,1144.1,736.5z"/>
<path class="st4" d="M1362.1,537.4c-1.1-1.5-4.1,0.1-5.6,0.3c-3.6,0.4-7.1,1.2-10.7,1.8c-2.6,0.4-5.4,0.6-7.9,1.5
	c-4.9,1.7-9.3,4.4-13.1,7.9c-4.4,4-7.2,8.8-9,14.4c-0.8,2.3-3.7,2.6-5.7,3.2c-3,1-5.9,2.4-8.6,4.2c-1.2,0.8-2.2,1.9-3.8,1.8
	c-1.2-0.1-2.4-0.7-3.6-1c-2.7-0.7-5.5-1-8.3-0.9c-5.5,0.2-11,1.9-15.9,4.6c-4.5,2.6-8.6,6-12.5,9.5c-1.9,1.8-3.8,3.6-5.7,5.4
	c-0.8,0.8-3.1,2.3-3.8,3.7c-0.2,0.4-0.3,0.7-0.1,1.1c0.4,1.3,1.4,2.4,2.6,2.5c1.1,0.1,2.3,0,3.2,0.9c0.9,0.8,1.5,2.4,2.1,3.4
	c0.7,1.2,1.3,2.4,1.9,3.6c1.1,2.3,2.9,4.2,4.8,5.9c2.3,2,4.4,3.9,7.1,5.4c6.6,3.6,15.4,3.2,22.1,0.2c5.5-2.5,10.3-6.9,13-12.3
	c2.9-5.9,2.9-12,1.8-18.4c-0.4-2-0.7-5.7-2.4-7c-4.7-3.5,2.5-7.6,5.5-8.7c1.7-0.7,4.2-1.4,5.6,0.1c0.8,0.8,1.2,2.2,0.8,3.3
	c-0.3,0.8,2.5,3.6,3,4.2c1.4,1.6,2.9,3.1,4.5,4.4c3.2,2.6,6.9,4.9,10.9,6c11.8,3.5,24.7-2.4,30.4-13.2c1.8-3.4,2.2-6.7,2.1-10.4
	c-0.1-2.5-0.2-5-0.6-7.5c-0.6-3.4-1.9-6-3.3-9.1c-0.6-1.3-1.8-2.7-1.8-4.2c0-1.6,1.5-2,2-3.3
	C1363.3,539.5,1362.7,538.2,1362.1,537.4z M1291.6,614.5c-12.1,6-29.2-1.3-33.6-12.5c-4.6-11.7,1.8-19.7,13.9-25.8
	c12.1-6,24.8-3.9,30.9,7.1C1308.6,593.8,1303.7,608.5,1291.6,614.5z M1352.1,584.5c-12.1,6-26.8,1.1-31.6-9.8
	c-5.1-11.4,0.8-22.9,12.9-28.9c12.1-6,22.4-6.3,29,4.4C1368.6,560.4,1364.2,578.5,1352.1,584.5z"/>
<path class="st4" d="M1351.1,733.4c-1.1-1.5-4.1,0.1-5.6,0.3c-3.6,0.4-7.1,1.2-10.7,1.8c-2.6,0.4-5.4,0.6-7.9,1.5
	c-4.9,1.7-9.3,4.4-13.1,7.9c-4.4,4-7.2,8.8-9,14.4c-0.8,2.3-3.7,2.6-5.7,3.2c-3,1-5.9,2.4-8.6,4.2c-1.2,0.8-2.2,1.9-3.8,1.8
	c-1.2-0.1-2.4-0.7-3.6-1c-2.7-0.7-5.5-1-8.3-0.9c-5.5,0.2-11,1.9-15.9,4.6c-4.5,2.6-8.6,6-12.5,9.5c-1.9,1.8-3.8,3.6-5.7,5.4
	c-0.8,0.8-3.1,2.3-3.8,3.7c-0.2,0.4-0.3,0.7-0.1,1.1c0.4,1.3,1.4,2.4,2.6,2.5c1.1,0.1,2.3,0,3.2,0.9c0.9,0.8,1.5,2.4,2.1,3.4
	c0.7,1.2,1.3,2.4,1.9,3.6c1.1,2.3,2.9,4.2,4.8,5.9c2.3,2,4.4,3.9,7.1,5.4c6.6,3.6,15.4,3.2,22.1,0.2c5.5-2.5,10.3-6.9,13-12.3
	c2.9-5.9,2.9-12,1.8-18.4c-0.4-2-0.7-5.7-2.4-7c-4.7-3.5,2.5-7.6,5.5-8.7c1.7-0.7,4.2-1.4,5.6,0.1c0.8,0.8,1.2,2.2,0.8,3.3
	c-0.3,0.8,2.5,3.6,3,4.2c1.4,1.6,2.9,3.1,4.5,4.4c3.2,2.6,6.9,4.9,10.9,6c11.8,3.5,24.7-2.4,30.4-13.2c1.8-3.4,2.2-6.7,2.1-10.4
	c-0.1-2.5-0.2-5-0.6-7.5c-0.6-3.4-1.9-6-3.3-9.1c-0.6-1.3-1.8-2.7-1.8-4.2c0-1.6,1.5-2,2-3.3
	C1352.3,735.5,1351.7,734.2,1351.1,733.4z M1280.6,810.5c-12.1,6-29.2-1.3-33.6-12.5c-4.6-11.7,1.8-19.7,13.9-25.8
	c12.1-6,24.8-3.9,30.9,7.1C1297.6,789.8,1292.7,804.5,1280.6,810.5z M1341.1,780.5c-12.1,6-26.8,1.1-31.6-9.8
	c-5.1-11.4,0.8-22.9,12.9-28.9c12.1-6,22.4-6.3,29,4.4C1357.6,756.4,1353.2,774.5,1341.1,780.5z"/>
<path class="st4" d="M1214.1,876.4c-1.1-1.5-4.1,0.1-5.6,0.3c-3.6,0.4-7.1,1.2-10.7,1.8c-2.6,0.4-5.4,0.6-7.9,1.5
	c-4.9,1.7-9.3,4.4-13.1,7.9c-4.4,4-7.2,8.8-9,14.4c-0.8,2.3-3.7,2.6-5.7,3.2c-3,1-5.9,2.4-8.6,4.2c-1.2,0.8-2.2,1.9-3.8,1.8
	c-1.2-0.1-2.4-0.7-3.6-1c-2.7-0.7-5.5-1-8.3-0.9c-5.5,0.2-11,1.9-15.9,4.6c-4.5,2.6-8.6,6-12.5,9.5c-1.9,1.8-3.8,3.6-5.7,5.4
	c-0.8,0.8-3.1,2.3-3.8,3.7c-0.2,0.4-0.3,0.7-0.1,1.1c0.4,1.3,1.4,2.4,2.6,2.5c1.1,0.1,2.3,0,3.2,0.9c0.9,0.8,1.5,2.4,2.1,3.4
	c0.7,1.2,1.3,2.4,1.9,3.6c1.1,2.3,2.9,4.2,4.8,5.9c2.3,2,4.4,3.9,7.1,5.4c6.6,3.6,15.4,3.2,22.1,0.2c5.5-2.5,10.3-6.9,13-12.3
	c2.9-5.9,2.9-12,1.8-18.4c-0.4-2-0.7-5.7-2.4-7c-4.7-3.5,2.5-7.6,5.5-8.7c1.7-0.7,4.2-1.4,5.6,0.1c0.8,0.8,1.2,2.2,0.8,3.3
	c-0.3,0.8,2.5,3.6,3,4.2c1.4,1.6,2.9,3.1,4.5,4.4c3.2,2.6,6.9,4.9,10.9,6c11.8,3.5,24.7-2.4,30.4-13.2c1.8-3.4,2.2-6.7,2.1-10.4
	c-0.1-2.5-0.2-5-0.6-7.5c-0.6-3.4-1.9-6-3.3-9.1c-0.6-1.3-1.8-2.7-1.8-4.2c0-1.6,1.5-2,2-3.3
	C1215.3,878.5,1214.7,877.2,1214.1,876.4z M1143.6,953.5c-12.1,6-29.2-1.3-33.6-12.5c-4.6-11.7,1.8-19.7,13.9-25.8
	c12.1-6,24.8-3.9,30.9,7.1C1160.6,932.8,1155.7,947.5,1143.6,953.5z M1204.1,923.5c-12.1,6-26.8,1.1-31.6-9.8
	c-5.1-11.4,0.8-22.9,12.9-28.9c12.1-6,22.4-6.3,29,4.4C1220.6,899.4,1216.2,917.5,1204.1,923.5z"/>
<path class="st4" d="M1324.1,970.4c-1.1-1.5-4.1,0.1-5.6,0.3c-3.6,0.4-7.1,1.2-10.7,1.8c-2.6,0.4-5.4,0.6-7.9,1.5
	c-4.9,1.7-9.3,4.4-13.1,7.9c-4.4,4-7.2,8.8-9,14.4c-0.8,2.3-3.7,2.6-5.7,3.2c-3,1-5.9,2.4-8.6,4.2c-1.2,0.8-2.2,1.9-3.8,1.8
	c-1.2-0.1-2.4-0.7-3.6-1c-2.7-0.7-5.5-1-8.3-0.9c-5.5,0.2-11,1.9-15.9,4.6c-4.5,2.6-8.6,6-12.5,9.5c-1.9,1.8-3.8,3.6-5.7,5.4
	c-0.8,0.8-3.1,2.3-3.8,3.7c-0.2,0.4-0.3,0.7-0.1,1.1c0.4,1.3,1.4,2.4,2.6,2.5c1.1,0.1,2.3,0,3.2,0.9c0.9,0.8,1.5,2.4,2.1,3.4
	c0.7,1.2,1.3,2.4,1.9,3.6c1.1,2.3,2.9,4.2,4.8,5.9c2.3,2,4.4,3.9,7.1,5.4c6.6,3.6,15.4,3.2,22.1,0.2c5.5-2.5,10.3-6.9,13-12.3
	c2.9-5.9,2.9-12,1.8-18.4c-0.4-2-0.7-5.7-2.4-7c-4.7-3.5,2.5-7.6,5.5-8.7c1.7-0.7,4.2-1.4,5.6,0.1c0.8,0.8,1.2,2.2,0.8,3.3
	c-0.3,0.8,2.5,3.6,3,4.2c1.4,1.6,2.9,3.1,4.5,4.4c3.2,2.6,6.9,4.9,10.9,6c11.8,3.5,24.7-2.4,30.4-13.2c1.8-3.4,2.2-6.7,2.1-10.4
	c-0.1-2.5-0.2-5-0.6-7.5c-0.6-3.4-1.9-6-3.3-9.1c-0.6-1.3-1.8-2.7-1.8-4.2c0-1.6,1.5-2,2-3.3
	C1325.3,972.5,1324.7,971.2,1324.1,970.4z M1253.6,1047.5c-12.1,6-29.2-1.3-33.6-12.5c-4.6-11.7,1.8-19.7,13.9-25.8
	c12.1-6,24.8-3.9,30.9,7.1C1270.6,1026.8,1265.7,1041.5,1253.6,1047.5z M1314.1,1017.5c-12.1,6-26.8,1.1-31.6-9.8
	c-5.1-11.4,0.8-22.9,12.9-28.9c12.1-6,22.4-6.3,29,4.4C1330.6,993.4,1326.2,1011.5,1314.1,1017.5z"/>
<path class="st4" d="M1796.1,787.4c-1.1-1.5-4.1,0.1-5.6,0.3c-3.6,0.4-7.1,1.2-10.7,1.8c-2.6,0.4-5.4,0.6-7.9,1.5
	c-4.9,1.7-9.3,4.4-13.1,7.9c-4.4,4-7.2,8.8-9,14.4c-0.8,2.3-3.7,2.6-5.7,3.2c-3,1-5.9,2.4-8.6,4.2c-1.2,0.8-2.2,1.9-3.8,1.8
	c-1.2-0.1-2.4-0.7-3.6-1c-2.7-0.7-5.5-1-8.3-0.9c-5.5,0.2-11,1.9-15.9,4.6c-4.5,2.6-8.6,6-12.5,9.5c-1.9,1.8-3.8,3.6-5.7,5.4
	c-0.8,0.8-3.1,2.3-3.8,3.7c-0.2,0.4-0.3,0.7-0.1,1.1c0.4,1.3,1.4,2.4,2.6,2.5c1.1,0.1,2.3,0,3.2,0.9c0.9,0.8,1.5,2.4,2.1,3.4
	c0.7,1.2,1.3,2.4,1.9,3.6c1.1,2.3,2.9,4.2,4.8,5.9c2.3,2,4.4,3.9,7.1,5.4c6.6,3.6,15.4,3.2,22.1,0.2c5.5-2.5,10.3-6.9,13-12.3
	c2.9-5.9,2.9-12,1.8-18.4c-0.4-2-0.7-5.7-2.4-7c-4.7-3.5,2.5-7.6,5.5-8.7c1.7-0.7,4.2-1.4,5.6,0.1c0.8,0.8,1.2,2.2,0.8,3.3
	c-0.3,0.8,2.5,3.6,3,4.2c1.4,1.6,2.9,3.1,4.5,4.4c3.2,2.6,6.9,4.9,10.9,6c11.8,3.5,24.7-2.4,30.4-13.2c1.8-3.4,2.2-6.7,2.1-10.4
	c-0.1-2.5-0.2-5-0.6-7.5c-0.6-3.4-1.9-6-3.3-9.1c-0.6-1.3-1.8-2.7-1.8-4.2c0-1.6,1.5-2,2-3.3
	C1797.3,789.5,1796.7,788.2,1796.1,787.4z M1725.6,864.5c-12.1,6-29.2-1.3-33.6-12.5c-4.6-11.7,1.8-19.7,13.9-25.8
	c12.1-6,24.8-3.9,30.9,7.1C1742.6,843.8,1737.7,858.5,1725.6,864.5z M1786.1,834.5c-12.1,6-26.8,1.1-31.6-9.8
	c-5.1-11.4,0.8-22.9,12.9-28.9c12.1-6,22.4-6.3,29,4.4C1802.6,810.4,1798.2,828.5,1786.1,834.5z"/>
<path class="st4" d="M1796.1,1019.4c-1.1-1.5-4.1,0.1-5.6,0.3c-3.6,0.4-7.1,1.2-10.7,1.8c-2.6,0.4-5.4,0.6-7.9,1.5
	c-4.9,1.7-9.3,4.4-13.1,7.9c-4.4,4-7.2,8.8-9,14.4c-0.8,2.3-3.7,2.6-5.7,3.2c-3,1-5.9,2.4-8.6,4.2c-1.2,0.8-2.2,1.9-3.8,1.8
	c-1.2-0.1-2.4-0.7-3.6-1c-2.7-0.7-5.5-1-8.3-0.9c-5.5,0.2-11,1.9-15.9,4.6c-4.5,2.6-8.6,6-12.5,9.5c-1.9,1.8-3.8,3.6-5.7,5.4
	c-0.8,0.8-3.1,2.3-3.8,3.7c-0.2,0.4-0.3,0.7-0.1,1.1c0.4,1.3,1.4,2.4,2.6,2.5c1.1,0.1,2.3,0,3.2,0.9c0.9,0.8,1.5,2.4,2.1,3.4
	c0.7,1.2,1.3,2.4,1.9,3.6c1.1,2.3,2.9,4.2,4.8,5.9c2.3,2,4.4,3.9,7.1,5.4c6.6,3.6,15.4,3.2,22.1,0.2c5.5-2.5,10.3-6.9,13-12.3
	c2.9-5.9,2.9-12,1.8-18.4c-0.4-2-0.7-5.7-2.4-7c-4.7-3.5,2.5-7.6,5.5-8.7c1.7-0.7,4.2-1.4,5.6,0.1c0.8,0.8,1.2,2.2,0.8,3.3
	c-0.3,0.8,2.5,3.6,3,4.2c1.4,1.6,2.9,3.1,4.5,4.4c3.2,2.6,6.9,4.9,10.9,6c11.8,3.5,24.7-2.4,30.4-13.2c1.8-3.4,2.2-6.7,2.1-10.4
	c-0.1-2.5-0.2-5-0.6-7.5c-0.6-3.4-1.9-6-3.3-9.1c-0.6-1.3-1.8-2.7-1.8-4.2c0-1.6,1.5-2,2-3.3
	C1797.3,1021.5,1796.7,1020.2,1796.1,1019.4z M1725.6,1096.5c-12.1,6-29.2-1.3-33.6-12.5c-4.6-11.7,1.8-19.7,13.9-25.8
	c12.1-6,24.8-3.9,30.9,7.1C1742.6,1075.8,1737.7,1090.5,1725.6,1096.5z M1786.1,1066.5c-12.1,6-26.8,1.1-31.6-9.8
	c-5.1-11.4,0.8-22.9,12.9-28.9c12.1-6,22.4-6.3,29,4.4C1802.6,1042.4,1798.2,1060.5,1786.1,1066.5z"/>
<path class="st4" d="M1545.1,704.4c-1.1-1.5-4.1,0.1-5.6,0.3c-3.6,0.4-7.1,1.2-10.7,1.8c-2.6,0.4-5.4,0.6-7.9,1.5
	c-4.9,1.7-9.3,4.4-13.1,7.9c-4.4,4-7.2,8.8-9,14.4c-0.8,2.3-3.7,2.6-5.7,3.2c-3,1-5.9,2.4-8.6,4.2c-1.2,0.8-2.2,1.9-3.8,1.8
	c-1.2-0.1-2.4-0.7-3.6-1c-2.7-0.7-5.5-1-8.3-0.9c-5.5,0.2-11,1.9-15.9,4.6c-4.5,2.6-8.6,6-12.5,9.5c-1.9,1.8-3.8,3.6-5.7,5.4
	c-0.8,0.8-3.1,2.3-3.8,3.7c-0.2,0.4-0.3,0.7-0.1,1.1c0.4,1.3,1.4,2.4,2.6,2.5c1.1,0.1,2.3,0,3.2,0.9c0.9,0.8,1.5,2.4,2.1,3.4
	c0.7,1.2,1.3,2.4,1.9,3.6c1.1,2.3,2.9,4.2,4.8,5.9c2.3,2,4.4,3.9,7.1,5.4c6.6,3.6,15.4,3.2,22.1,0.2c5.5-2.5,10.3-6.9,13-12.3
	c2.9-5.9,2.9-12,1.8-18.4c-0.4-2-0.7-5.7-2.4-7c-4.7-3.5,2.5-7.6,5.5-8.7c1.7-0.7,4.2-1.4,5.6,0.1c0.8,0.8,1.2,2.2,0.8,3.3
	c-0.3,0.8,2.5,3.6,3,4.2c1.4,1.6,2.9,3.1,4.5,4.4c3.2,2.6,6.9,4.9,10.9,6c11.8,3.5,24.7-2.4,30.4-13.2c1.8-3.4,2.2-6.7,2.1-10.4
	c-0.1-2.5-0.2-5-0.6-7.5c-0.6-3.4-1.9-6-3.3-9.1c-0.6-1.3-1.8-2.7-1.8-4.2c0-1.6,1.5-2,2-3.3
	C1546.3,706.5,1545.7,705.2,1545.1,704.4z M1474.6,781.5c-12.1,6-29.2-1.3-33.6-12.5c-4.6-11.7,1.8-19.7,13.9-25.8
	c12.1-6,24.8-3.9,30.9,7.1C1491.6,760.8,1486.7,775.5,1474.6,781.5z M1535.1,751.5c-12.1,6-26.8,1.1-31.6-9.8
	c-5.1-11.4,0.8-22.9,12.9-28.9c12.1-6,22.4-6.3,29,4.4C1551.6,727.4,1547.2,745.5,1535.1,751.5z"/>
</svg>
