<?xml version="1.0" encoding="utf-8"?>
<!-- Generator: Adobe Illustrator 25.2.3, SVG Export Plug-In . SVG Version: 6.00 Build 0)  -->
<svg version="1.1" id="Ebene_1" xmlns="http://www.w3.org/2000/svg" xmlns:xlink="http://www.w3.org/1999/xlink" x="0px" y="0px"
	 viewBox="0 0 912 796" style="enable-background:new 0 0 912 796;" xml:space="preserve">
<style type="text/css">
	.st0{fill:none;}
	.st1{opacity:0.3;}
	.st2{clip-path:url(#SVGID_2_);fill:#9FC3E0;}
	.st3{clip-path:url(#SVGID_4_);fill:#9FC3E0;}
	.st4{clip-path:url(#SVGID_6_);fill:#9FC3E0;}
	.st5{clip-path:url(#SVGID_8_);fill:#9FC3E0;}
	.st6{opacity:0.4;}
	.st7{clip-path:url(#SVGID_10_);fill:#9FC3E0;}
	.st8{clip-path:url(#SVGID_12_);fill:#9FC3E0;}
</style>
<polygon class="st0" points="-245,-143.1 540.8,-143.1 547.6,768.2 -243.2,769.1 "/>
<g class="st1">
	<g>
		<defs>
			<rect id="SVGID_1_" x="442.2" y="46.5" width="227.8" height="705.8"/>
		</defs>
		<clipPath id="SVGID_2_">
			<use xlink:href="#SVGID_1_"  style="overflow:visible;"/>
		</clipPath>
		<path class="st2" d="M645.6,752.3H466.5c-13.4,0-24.3-11.8-24.3-26.4V72.9c0-14.6,10.9-26.4,24.3-26.4h179.1
			c13.4,0,24.3,11.8,24.3,26.4V726C669.9,740.5,659,752.3,645.6,752.3"/>
	</g>
</g>
<g class="st1">
	<g>
		<defs>
			<rect id="SVGID_3_" x="677.1" y="58.4" width="202.4" height="717.9"/>
		</defs>
		<clipPath id="SVGID_4_">
			<use xlink:href="#SVGID_3_"  style="overflow:visible;"/>
		</clipPath>
		<path class="st3" d="M862.4,776.3H694.3c-9.5,0-17.2-8.6-17.2-19.3V77.7c0-10.7,7.7-19.3,17.2-19.3h168.1
			c9.5,0,17.2,8.6,17.2,19.3v679.3C879.6,767.7,871.9,776.3,862.4,776.3"/>
	</g>
</g>
<g class="st1">
	<g>
		<defs>
			<rect id="SVGID_5_" x="27.9" y="137.2" width="169" height="604"/>
		</defs>
		<clipPath id="SVGID_6_">
			<use xlink:href="#SVGID_5_"  style="overflow:visible;"/>
		</clipPath>
		<path class="st4" d="M186.5,741.2H38.2c-5.7,0-10.3-4.9-10.3-10.9V148.1c0-6,4.6-10.9,10.3-10.9h148.3c5.7,0,10.3,4.9,10.3,10.9
			v582.2C196.8,736.3,192.2,741.2,186.5,741.2"/>
	</g>
</g>
<g class="st1">
	<g>
		<defs>
			<rect id="SVGID_7_" x="280.1" y="61.2" width="202.4" height="657.5"/>
		</defs>
		<clipPath id="SVGID_8_">
			<use xlink:href="#SVGID_7_"  style="overflow:visible;"/>
		</clipPath>
		<path class="st5" d="M472.2,718.7H290.4c-5.7,0-10.3-4.5-10.3-10.1V71.3c0-5.6,4.6-10.1,10.3-10.1h181.8c5.7,0,10.3,4.5,10.3,10.1
			v637.2C482.5,714.2,477.9,718.7,472.2,718.7"/>
	</g>
</g>
<g class="st6">
	<g>
		<defs>
			<rect id="SVGID_9_" x="230.6" y="218.1" width="163.9" height="477.8"/>
		</defs>
		<clipPath id="SVGID_10_">
			<use xlink:href="#SVGID_9_"  style="overflow:visible;"/>
		</clipPath>
		<rect x="230.6" y="337" class="st7" width="163.9" height="359"/>
		<polygon class="st7" points="312.7,218.1 353.6,277.5 394.5,336.9 312.7,336.9 230.9,336.9 271.8,277.5 		"/>
	</g>
</g>
<g class="st6">
	<g>
		<defs>
			<rect id="SVGID_11_" x="597.7" y="122" width="236.4" height="573.6"/>
		</defs>
		<clipPath id="SVGID_12_">
			<use xlink:href="#SVGID_11_"  style="overflow:visible;"/>
		</clipPath>
		<rect x="597.7" y="264.6" class="st8" width="236.3" height="430.9"/>
		<polygon class="st8" points="716.1,122 775.1,193.3 834.1,264.6 716.1,264.6 598.1,264.6 657.1,193.3 		"/>
	</g>
</g>
</svg>
