<?xml version="1.0" encoding="utf-8"?>
<!-- Generator: Adobe Illustrator 25.2.3, SVG Export Plug-In . SVG Version: 6.00 Build 0)  -->
<svg version="1.1" id="Ebene_1" xmlns="http://www.w3.org/2000/svg" xmlns:xlink="http://www.w3.org/1999/xlink" x="0px" y="0px"
	 viewBox="0 0 365 866" style="enable-background:new 0 0 365 866;" xml:space="preserve">
<style type="text/css">
	.st0{fill:#142A52;}
	.st1{fill:#FFFFFF;stroke:#142A52;stroke-width:6;stroke-miterlimit:10;}
	.st2{fill:#FFFFFF;}
	.st3{fill:#BFCFD1;}
	.st4{fill:none;}
	.st5{font-family:'AmaticSC-Bold';}
	.st6{font-size:49px;}
	.st7{font-size:51px;}
</style>
<rect x="44.9" y="212.1" class="st0" width="276" height="617.8"/>
<circle class="st1" cx="172.5" cy="186.1" r="148"/>
<path class="st2" d="M268.9,498.6h-172c-6.6,0-12-5.4-12-12v-32.5c0-6.6,5.4-12,12-12h172c6.6,0,12,5.4,12,12v32.5
	C280.9,493.2,275.5,498.6,268.9,498.6z"/>
<path class="st2" d="M268.9,645.6h-172c-6.6,0-12-5.4-12-12v-32.5c0-6.6,5.4-12,12-12h172c6.6,0,12,5.4,12,12v32.5
	C280.9,640.2,275.5,645.6,268.9,645.6z"/>
<path class="st3" d="M269.1,757.4h-172c-6.6,0-12-5.4-12-12v-32.5c0-6.6,5.4-12,12-12h172c6.6,0,12,5.4,12,12v32.5
	C281.1,752,275.7,757.4,269.1,757.4z"/>
<rect x="85.9" y="382.2" class="st4" width="205" height="45.7"/>
<text transform="matrix(1 0 0 1 85.8895 414.5531)" class="st2 st5 st6">Punktestand:</text>
<rect x="87.8" y="535" class="st4" width="205" height="45.7"/>
<text transform="matrix(1 0 0 1 147.9836 567.3718)" class="st2 st5 st6">Level:</text>
<rect x="137.6" y="715.3" class="st4" width="90.9" height="45.7"/>
<text transform="matrix(1 0 0 1 146.9941 748.9636)" class="st0 st5 st7">RESET</text>
</svg>
