<?xml version="1.0" encoding="utf-8"?>
<!-- Generator: Adobe Illustrator 25.2.3, SVG Export Plug-In . SVG Version: 6.00 Build 0)  -->
<svg version="1.1" id="Ebene_1" xmlns="http://www.w3.org/2000/svg" xmlns:xlink="http://www.w3.org/1999/xlink" x="0px" y="0px"
	 viewBox="0 0 1369 1099" style="enable-background:new 0 0 1369 1099;" xml:space="preserve">
<style type="text/css">
	.st0{opacity:0.5;fill:#FFFFFF;}
	.st1{fill:#FFFFFF;}
	.st2{fill:none;stroke:#FFFFFF;stroke-miterlimit:10;}
	.st3{fill:none;stroke:#FFFFFF;stroke-width:1.1993;stroke-miterlimit:10;}
	.st4{fill:none;stroke:#FFFFFF;stroke-width:1.1902;stroke-miterlimit:10;}
	.st5{fill:none;stroke:#FFFFFF;stroke-width:1.1839;stroke-miterlimit:10;}
</style>
<rect x="146" y="133" class="st0" width="1092" height="766"/>
<path class="st1" d="M1246,150H129c-6.6,0-12-5.4-12-12v-30c0-6.6,5.4-12,12-12h1117c6.6,0,12,5.4,12,12v30
	C1258,144.6,1252.6,150,1246,150z"/>
<path class="st1" d="M1204,262V108c0-6.6,5.4-12,12-12h30c6.6,0,12,5.4,12,12v154c0,6.6-5.4,12-12,12h-30
	C1209.4,274,1204,268.6,1204,262z"/>
<path class="st1" d="M1204,929V536c0-6.6,5.4-12,12-12h30c6.6,0,12,5.4,12,12v393c0,6.6-5.4,12-12,12h-30
	C1209.4,941,1204,935.6,1204,929z"/>
<path class="st1" d="M1246,941H129c-6.6,0-12-5.4-12-12v-30c0-6.6,5.4-12,12-12h1117c6.6,0,12,5.4,12,12v30
	C1258,935.6,1252.6,941,1246,941z"/>
<path class="st1" d="M117,929V120c0-6.6,5.4-12,12-12h30c6.6,0,12,5.4,12,12v809c0,6.6-5.4,12-12,12h-30
	C122.4,941,117,935.6,117,929z"/>
<line class="st2" x1="515.5" y1="150" x2="515.5" y2="887"/>
<line class="st2" x1="343.5" y1="150" x2="343.5" y2="887"/>
<line class="st2" x1="1203.5" y1="147" x2="1203.5" y2="884"/>
<line class="st2" x1="687.5" y1="150" x2="687.5" y2="887"/>
<line class="st2" x1="860.5" y1="150" x2="860.5" y2="887"/>
<line class="st2" x1="1031.5" y1="150" x2="1031.5" y2="887"/>
<line class="st3" x1="144" y1="274.5" x2="1204" y2="274.5"/>
<line class="st4" x1="160" y1="399.5" x2="1204" y2="399.5"/>
<line class="st3" x1="144" y1="524.5" x2="1204" y2="524.5"/>
<line class="st5" x1="171" y1="650.5" x2="1204" y2="650.5"/>
<line class="st4" x1="160" y1="772.5" x2="1204" y2="772.5"/>
</svg>
