<?xml version="1.0" encoding="utf-8"?>
<!-- Generator: Adobe Illustrator 25.2.3, SVG Export Plug-In . SVG Version: 6.00 Build 0)  -->
<svg version="1.1" id="Ebene_1" xmlns="http://www.w3.org/2000/svg" xmlns:xlink="http://www.w3.org/1999/xlink" x="0px" y="0px"
	 viewBox="0 0 1030 141" style="enable-background:new 0 0 1030 141;" xml:space="preserve">
<style type="text/css">
	.st0{fill:#868686;}
	.st1{fill:#B1B1B1;stroke:#9C9B9B;stroke-width:3.6754;stroke-miterlimit:10;}
	.st2{fill:#6F6F6E;}
</style>
<g>
	<path class="st0" d="M-7,79.3c29.1-3.1,69-6.8,116.5-9.6c33.9-2,89.4-4.6,176.4-4.5c144.5,0.3,148.5,7.8,247.9,5.8
		c89.2-1.8,67.8-7.5,183.5-11.5c92.9-3.2,191.5-2.4,253.7-1.9c24.3,0.2,44.4,0.4,58,0.6l0.6,82.4L-7,141.9V79.3z"/>
	<path class="st1" d="M-7,85.7c27.8-3.1,65.8-11.4,112-14.1c68.3-3.9,120.9-6.8,169.4-6.4c45.4,0.4,83.8,1.3,154.5,3.8
		c54.1,1.9,83.5,5.2,114.6,4.5c45.8-1,55.2-7.3,99.8-10.2c48.3-3.2,80.2-0.9,151.3-2.6c63-1.4,139.7-3.8,234.4-2.6l1.9-28.8
		c-21.8-0.7-59.2-1.5-103-1.3c-115.9,0.5-167.8,3.6-267.8,7.1c-11.7,0.4-24.2,0.8-37.4,1.2c-71.2,2.3-123.9-1.6-202.2-2.6
		c-126-1.6-164.5-2.6-246,0.6C96.3,37.7,33.1,45.5-6.4,51.2L-7,85.7z"/>
	<ellipse class="st2" cx="199.6" cy="111.1" rx="15.5" ry="8.1"/>
	<ellipse class="st2" cx="309.6" cy="83.1" rx="8.6" ry="5.3"/>
	<ellipse class="st2" cx="359.5" cy="120.1" rx="8.6" ry="5.7"/>
	<ellipse class="st2" cx="77.3" cy="97.7" rx="12.7" ry="6.9"/>
	<ellipse class="st2" cx="123.5" cy="125.7" rx="5.7" ry="4.1"/>
	<ellipse class="st2" cx="144.4" cy="96.1" rx="10.2" ry="6.1"/>
	<ellipse class="st2" cx="506.8" cy="113.6" rx="8.6" ry="4.1"/>
	<ellipse class="st2" cx="441.3" cy="87.2" rx="4.5" ry="2.8"/>
	<ellipse class="st2" cx="443.4" cy="114.8" rx="7.4" ry="4.5"/>
	<ellipse class="st2" cx="588.6" cy="99.4" rx="16" ry="7.7"/>
	<ellipse class="st2" cx="656.9" cy="125.3" rx="7.4" ry="2.8"/>
	<ellipse class="st2" cx="658.5" cy="94.9" rx="5.7" ry="4.1"/>
	<ellipse class="st2" cx="652.4" cy="78.3" rx="7.8" ry="3.7"/>
	<ellipse class="st2" cx="745.2" cy="101.4" rx="14.7" ry="7.3"/>
	<ellipse class="st2" cx="734.6" cy="79.5" rx="5.7" ry="1.6"/>
	<ellipse class="st2" cx="729.7" cy="125.7" rx="5.7" ry="3.2"/>
	<ellipse class="st2" cx="814.7" cy="81.5" rx="12.3" ry="5.3"/>
	<ellipse class="st2" cx="816" cy="124.5" rx="7" ry="4.5"/>
	<ellipse class="st2" cx="863.8" cy="114.4" rx="13.1" ry="7.3"/>
	<ellipse class="st2" cx="876.9" cy="82.7" rx="6.5" ry="3.2"/>
	<ellipse class="st2" cx="913.7" cy="115.2" rx="6.5" ry="4.1"/>
	<ellipse class="st2" cx="968.9" cy="126.1" rx="9.4" ry="5.3"/>
	<ellipse class="st2" cx="1013.1" cy="90.4" rx="7" ry="4.5"/>
	<ellipse class="st2" cx="957.3" cy="77.6" rx="11.3" ry="5.1"/>
	<ellipse class="st2" cx="968.1" cy="101.8" rx="5.3" ry="2.8"/>
	<ellipse class="st2" cx="1008.6" cy="127.8" rx="2.5" ry="3.7"/>
	<ellipse class="st2" cx="14.4" cy="125.7" rx="6.1" ry="4.1"/>
	<g>
		<line class="st1" x1="19.7" y1="47" x2="20.5" y2="82.7"/>
		<line class="st1" x1="55.7" y1="42.9" x2="58.1" y2="76.2"/>
		<line class="st1" x1="87.6" y1="39.7" x2="84.3" y2="73.8"/>
		<line class="st1" x1="123.5" y1="38.1" x2="127.6" y2="70.5"/>
		<line class="st1" x1="153" y1="34.8" x2="157.1" y2="69.7"/>
		<line class="st1" x1="188.2" y1="32.4" x2="188.2" y2="68.1"/>
		<line class="st1" x1="215.2" y1="32.4" x2="219.3" y2="64.9"/>
		<line class="st1" x1="246.2" y1="33.2" x2="246.2" y2="64.9"/>
		<line class="st1" x1="277.3" y1="33.2" x2="274.4" y2="65.3"/>
		<line class="st1" x1="308.4" y1="32.4" x2="308.4" y2="64.9"/>
		<line class="st1" x1="346.9" y1="32.4" x2="347.7" y2="68.1"/>
		<line class="st1" x1="382.8" y1="33.2" x2="380.4" y2="66.5"/>
		<line class="st1" x1="412.3" y1="33.2" x2="413.1" y2="68.1"/>
		<line class="st1" x1="448.3" y1="34" x2="448.3" y2="71.4"/>
		<line class="st1" x1="480.2" y1="34.8" x2="483.5" y2="71.4"/>
		<line class="st1" x1="512.9" y1="35.6" x2="511.3" y2="74.6"/>
		<line class="st1" x1="541.5" y1="38.1" x2="543.6" y2="73.6"/>
		<line class="st1" x1="569.3" y1="35.6" x2="572.6" y2="73"/>
		<line class="st1" x1="602.9" y1="37.3" x2="602.1" y2="66.5"/>
		<line class="st1" x1="631.5" y1="35.6" x2="632.3" y2="64.1"/>
		<line class="st1" x1="660.2" y1="35.3" x2="663.4" y2="63.2"/>
		<line class="st1" x1="691.2" y1="33.2" x2="691.2" y2="60"/>
		<line class="st1" x1="719" y1="34" x2="717.4" y2="59.5"/>
		<line class="st1" x1="741.9" y1="31.6" x2="744.4" y2="62.4"/>
		<line class="st1" x1="768.9" y1="30.8" x2="772.2" y2="61.6"/>
		<line class="st1" x1="797.6" y1="30" x2="794.7" y2="60.8"/>
		<line class="st1" x1="823.7" y1="28.3" x2="823.7" y2="59.2"/>
		<line class="st1" x1="849.1" y1="28.3" x2="854" y2="60"/>
		<line class="st1" x1="877.7" y1="28.3" x2="879.4" y2="59.2"/>
		<line class="st1" x1="906.4" y1="28.3" x2="908" y2="58.4"/>
		<line class="st1" x1="937.4" y1="27.5" x2="935.8" y2="58.4"/>
		<line class="st1" x1="960.3" y1="28.3" x2="962" y2="58.4"/>
		<line class="st1" x1="985.7" y1="27.5" x2="989" y2="57.6"/>
		<line class="st1" x1="1011.9" y1="28.3" x2="1008.6" y2="57.6"/>
	</g>
</g>
</svg>
