<svg id="Capa_1" enable-background="new 0 0 512 512" height="512" viewBox="0 0 512 512" width="512" xmlns="http://www.w3.org/2000/svg"><g><g><g><path d="m120 431h-64c-8.284 0-15-6.716-15-15v-361c0-30.327 24.673-55 55-55h24c8.284 0 15 6.716 15 15v401c0 8.284-6.716 15-15 15z" fill="#6fcbd8"/></g></g><g><path d="m471 383v50l-183 15h-192c-11.04 0-21.04-4.48-28.28-11.72s-11.72-17.24-11.72-28.28c0-22.09 17.91-40 40-40h192z" fill="#fff7cc"/></g><g><path d="m471 383v50l-183 15v-80z" fill="#f4e4a2"/></g><g><g><path d="m456 0h-351v368c0 8.28 6.72 15 15 15h336c8.28 0 15-6.72 15-15v-353c0-8.28-6.72-15-15-15z" fill="#22b3c6"/></g></g><g><path d="m471 15v353c0 8.28-6.72 15-15 15h-168v-383h168c8.28 0 15 6.72 15 15z" fill="#3c9eb5"/></g><g><g><path d="m96.57 383h374.43v-30h-374.17c-30.18 0-55.37 23.97-55.82 54.15-.47 30.72 24.38 55.85 54.99 55.85h360c8.28 0 15-6.72 15-15v-15h-375c-13.64 0-24.76-10.97-25-24.56-.24-13.99 11.57-25.44 25.57-25.44z" fill="#3c9eb5"/></g></g><g><path d="m288 353h183v30h-183z" fill="#2b8999"/></g><g><path d="m288 433h183v15c0 8.28-6.72 15-15 15h-168z" fill="#2b8999"/></g><g><g><path d="m200.002 512c-3.052 0-6.088-.93-8.672-2.76l-15.33-10.858-15.33 10.858c-4.576 3.241-10.579 3.661-15.561 1.083-4.981-2.576-8.11-7.716-8.11-13.324v-73c0-8.284 6.716-15 15-15h48c8.284 0 15 6.716 15 15v73c0 5.608-3.128 10.748-8.11 13.324-2.169 1.123-4.532 1.677-6.887 1.677z" fill="#ff434d"/></g></g><g><path d="m415.005 87c-8.284 0-15.005-6.716-15.005-15s6.711-15 14.995-15h.01c8.285 0 15 6.716 15 15s-6.715 15-15 15z" fill="#f4e4a2"/></g><g><path d="m415.005 327c-8.284 0-15.005-6.716-15.005-15s6.711-15 14.995-15h.01c8.285 0 15 6.716 15 15s-6.715 15-15 15z" fill="#f4e4a2"/></g><g><path d="m357.46 98.23c-6.82-32.08-35.37-56.23-69.46-56.23s-62.64 24.15-69.46 56.23c-32.19 2.78-57.54 29.87-57.54 62.77 0 29.57 20.48 54.45 48 61.2v74.8c0 8.28 6.72 15 15 15h128c8.28 0 15-6.72 15-15v-74.8c27.52-6.75 48-31.63 48-61.2 0-32.9-25.35-59.99-57.54-62.77z" fill="#fff7cc"/></g><g><path d="m415 161c0 29.57-20.48 54.45-48 61.2v74.8c0 8.28-6.72 15-15 15h-64v-270c34.09 0 62.64 24.15 69.46 56.23 32.19 2.78 57.54 29.87 57.54 62.77z" fill="#f4e4a2"/></g><g><path d="m209 265v32c0 8.28 6.72 15 15 15h128c8.28 0 15-6.72 15-15v-32z" fill="#f4e4a2"/></g><g><path d="m367 265v32c0 8.28-6.72 15-15 15h-64v-47z" fill="#ffca8a"/></g></g></svg>