<svg viewBox="-47 0 512 512" xmlns="http://www.w3.org/2000/svg"><path d="m77.328125 393.1875c-22.910156 0-41.480469 18.570312-41.480469 41.480469 0 22.910156 18.574219 41.484375 41.480469 41.484375h318.917969v-82.964844zm0 0" fill="#efedee"/><path d="m67.863281 434.667969c0-22.910157 18.574219-41.480469 41.484375-41.480469h-32.019531c-22.910156 0-41.480469 18.570312-41.480469 41.480469 0 22.910156 18.574219 41.484375 41.480469 41.484375h32.019531c-22.914062 0-41.484375-18.574219-41.484375-41.484375zm0 0" fill="#d9d7d8"/><path d="m77.328125 476.152344c-22.910156 0-41.480469-18.574219-41.480469-41.480469 0-22.914063 18.574219-41.484375 41.480469-41.484375h322.351563c9.898437 0 17.921874-8.027344 17.921874-17.925781v-357.335938c0-9.902343-8.023437-17.925781-17.921874-17.925781h-327.78125c-39.710938 0-71.898438 32.191406-71.898438 71.898438v368.203124c0 39.707032 32.191406 71.898438 71.898438 71.898438h327.78125c9.898437 0 17.921874-8.023438 17.921874-17.925781 0-9.898438-8.023437-17.921875-17.921874-17.921875zm0 0" fill="#fd6f71"/><path d="m399.679688 476.152344h-322.351563c-22.910156 0-41.480469-18.574219-41.480469-41.480469 0-22.914063 18.574219-41.484375 41.480469-41.484375h20.941406v-393.1875h-26.371093c-39.710938 0-71.898438 32.191406-71.898438 71.898438v368.203124c0 39.707032 32.191406 71.898438 71.898438 71.898438h327.78125c9.898437 0 17.921874-8.023438 17.921874-17.925781 0-9.898438-8.023437-17.921875-17.921874-17.921875zm0 0" fill="#e36465"/><g fill="#464c51"><path d="m257.9375 217.523438c-9.785156 0-17.71875-7.933594-17.71875-17.71875v-13.289063h35.433594v13.289063c.003906 9.785156-7.929688 17.71875-17.714844 17.71875zm0 0"/><path d="m323.550781 194.863281c-4.144531 0-7.5-3.359375-7.5-7.5v-11.699219c0-4.140624 3.355469-7.5 7.5-7.5 4.140625 0 7.5 3.359376 7.5 7.5v11.699219c0 4.140625-3.359375 7.5-7.5 7.5zm0 0"/><path d="m192.324219 194.863281c-4.140625 0-7.5-3.359375-7.5-7.5v-11.699219c0-4.140624 3.359375-7.5 7.5-7.5 4.144531 0 7.5 3.359376 7.5 7.5v11.699219c0 4.140625-3.355469 7.5-7.5 7.5zm0 0"/></g><path d="m329.398438 216.976562h-11.699219c-4.140625 0-7.5-3.359374-7.5-7.5 0-4.140624 3.359375-7.5 7.5-7.5h11.699219c4.140624 0 7.5 3.359376 7.5 7.5 0 4.140626-3.359376 7.5-7.5 7.5zm0 0" fill="#efedee"/><path d="m198.175781 216.976562h-11.699219c-4.140624 0-7.5-3.359374-7.5-7.5 0-4.140624 3.359376-7.5 7.5-7.5h11.699219c4.140625 0 7.5 3.359376 7.5 7.5 0 4.140626-3.359375 7.5-7.5 7.5zm0 0" fill="#efedee"/></svg>